<?xml version="1.0" standalone="no"?>
<!DOCTYPE svg PUBLIC "-//W3C//DTD SVG 20010904//EN"
 "http://www.w3.org/TR/2001/REC-SVG-20010904/DTD/svg10.dtd">
<svg version="1.0" xmlns="http://www.w3.org/2000/svg"
 width="261.000000pt" height="261.000000pt" viewBox="0 0 261.000000 261.000000"
 preserveAspectRatio="xMidYMid meet">
<metadata>
Created by potrace 1.11, written by Peter Selinger 2001-2013
</metadata>
<g transform="translate(0.000000,261.000000) scale(0.100000,-0.100000)"
fill="#000000" stroke="none">
<path d="M1895 2025 c-38 -7 -92 -22 -118 -34 -48 -21 -56 -21 -913 -21 -860
0 -865 0 -854 -20 6 -11 25 -28 43 -37 29 -17 85 -18 662 -23 347 -3 619 -7
605 -8 -38 -3 -126 -58 -154 -95 -14 -18 -36 -55 -48 -83 -22 -48 -23 -58 -23
-354 0 -230 3 -317 14 -355 66 -236 287 -408 544 -422 l97 -6 0 478 -1 478 26
53 c36 73 71 101 295 229 106 61 193 115 193 120 1 19 -80 71 -134 87 -77 23
-153 27 -234 13z m249 -117 c8 -14 7 -21 -6 -34 -30 -30 -75 9 -48 42 16 18
39 15 54 -8z m-117 -43 c2 -1 -37 -23 -85 -50 -48 -26 -111 -62 -140 -78 l-53
-30 3 33 c3 29 11 37 98 85 83 47 100 53 135 48 22 -3 41 -7 42 -8z m-532
-313 c107 -76 125 -111 125 -239 0 -51 -3 -93 -6 -93 -14 0 -335 234 -354 257
-32 42 -44 101 -31 153 7 25 19 53 28 62 17 19 13 21 238 -140z"/>
<path d="M2250 1844 c-361 -202 -386 -219 -417 -277 -8 -17 -19 -44 -24 -59
l-8 -29 47 35 c26 19 126 93 222 165 l175 131 180 0 c105 0 174 4 165 9 -15 9
-172 45 -240 56 -28 4 -48 -2 -100 -31z"/>
</g>
</svg>
