<svg class="LogoEbirdPortal LogoEbirdPortal--armenia" xmlns="http://www.w3.org/2000/svg" width="171" height="32" viewBox="0 0 171 32" role="img" aria-labelledby="logo-ebird-portal-armenia-title" >
		<title id="logo-ebird-portal-armenia-title">eBird Armenia logo</title>
		<g>
			<path class="LogoEbirdPortal-e" fill="#50A61C" fill-rule="evenodd" clip-rule="evenodd" d="M12.7924 19.75L14.0961 20.5401L14.0013 20.6863C13.4494 21.771 12.6345 22.7 11.631 23.3885C10.6088 24.0671 9.40491 24.4197 8.17817 24.3998C7.14643 24.4209 6.12269 24.2145 5.17969 23.7954C4.35193 23.4167 3.6221 22.8531 3.04639 22.148C2.4746 21.4357 2.04781 20.6184 1.79011 19.7421C1.51946 18.8009 1.38639 17.8256 1.39505 16.8463C1.39432 15.9227 1.54239 15.0049 1.83356 14.1283C2.11775 13.2684 2.55248 12.4658 3.1175 11.758C3.67221 11.0672 4.36695 10.5017 5.15599 10.0988C6.00504 9.67299 6.944 9.45756 7.89373 9.47062C8.80721 9.4489 9.71524 9.61705 10.5604 9.96444C11.2667 10.2645 11.8912 10.7291 12.3816 11.3195C12.8371 11.8838 13.1743 12.5341 13.3732 13.2316C13.5951 14.0019 13.7042 14.8003 13.6971 15.6019V16.716H4.5555C4.56179 17.4698 4.6492 18.2208 4.81624 18.9559C4.96459 19.6276 5.2322 20.2671 5.60636 20.8443C5.95077 21.3579 6.41787 21.7775 6.96535 22.065C7.58744 22.3766 8.27675 22.5299 8.97224 22.5114C9.69237 22.5297 10.4022 22.3375 11.0147 21.9584C11.7279 21.4231 12.3034 20.7256 12.6937 19.9238L12.7924 19.75ZM9.19742 11.2879C8.80498 11.028 8.34022 10.8994 7.87003 10.9205C6.9569 10.9059 6.09414 11.338 5.55895 12.078C4.91521 12.9788 4.56481 14.0562 4.5555 15.1634H10.5446C10.5314 14.6765 10.4878 14.191 10.4142 13.7096C10.3558 13.2131 10.2226 12.7282 10.0191 12.2716C9.82996 11.8813 9.54778 11.5435 9.19742 11.2879Z"/>
			<path class="LogoEbirdPortal-bird" fill="#231F20" fill-rule="evenodd" clip-rule="evenodd" d="M62.6012 22.4916C62.3246 22.4916 62.0204 22.4732 61.6886 22.4363C61.4515 22.4298 61.219 22.369 61.0091 22.2585C60.8058 22.1305 60.6375 21.9541 60.5192 21.7449C60.4027 21.5166 60.3456 21.2625 60.3533 21.0062V2.32395L60.0215 2L54.0956 2.32395V3.54862H54.2734C54.7476 3.5815 55.2197 3.63952 55.6877 3.72245C56.0348 3.77153 56.3683 3.89119 56.6674 4.07405C56.8852 4.24177 57.0509 4.46779 57.1454 4.72589C57.2699 5.04422 57.3316 5.38362 57.3272 5.72539V10.233C56.8911 10.0261 56.436 9.86207 55.9682 9.74311C54.4621 9.32061 52.8559 9.43513 51.425 10.0671C50.6089 10.4286 49.8759 10.9544 49.272 11.6117C48.6412 12.3187 48.1457 13.1355 47.8103 14.0216C47.4565 14.95 47.2771 15.9357 47.2809 16.9292C47.2701 17.9691 47.4371 19.0033 47.7747 19.9869C48.0741 20.8524 48.5293 21.6557 49.1179 22.3573C49.6611 22.9995 50.3344 23.5192 51.0932 23.8822C51.8318 24.2411 52.6423 24.4276 53.4635 24.4274C54.2556 24.4243 55.0366 24.2405 55.7469 23.8901C56.3503 23.6025 56.9016 23.2167 57.3785 22.7484V23.7874L57.7104 24.0955L62.7987 23.7716V22.4955L62.6012 22.4916ZM47.5495 13.2038C47.8097 12.7956 47.9469 12.321 47.9446 11.8369C47.973 11.2217 47.7555 10.6205 47.3401 10.1658C46.55 9.34015 45.2226 9.3204 43.7293 10.1461C43.0751 10.5171 42.4929 11.0028 42.0108 11.5801V9.9999L41.6987 9.6878L36.8435 10.0118V11.2917H37.0213C37.2762 11.3082 37.5296 11.3425 37.7798 11.3944C37.9778 11.4322 38.1677 11.5044 38.3407 11.6078C38.5589 11.7586 38.7334 11.9644 38.8464 12.2043C38.9646 12.444 39.0268 12.7074 39.0281 12.9747V21.5079C39.0394 21.7577 38.9835 22.006 38.8662 22.2269C38.7575 22.4016 38.5867 22.5286 38.3882 22.5825C38.2099 22.6384 38.0255 22.6729 37.839 22.6852L37.0489 22.7523H36.9185C36.7093 22.738 36.5017 22.7049 36.2983 22.6536C36.1019 22.6005 35.9092 22.5345 35.7215 22.456C35.5154 22.3868 35.3405 22.2469 35.2277 22.061C35.1123 21.845 35.0551 21.6026 35.0618 21.3578V10.0078L34.7497 9.69571L29.6139 10.0197V11.2996H29.7917C30.0927 11.3228 30.3913 11.3703 30.6845 11.4419C30.9306 11.4913 31.1677 11.5779 31.3877 11.6986C31.6008 11.8463 31.7755 12.0427 31.8974 12.2715C32.0186 12.4945 32.0811 12.7446 32.0791 12.9984V21.5079C32.0906 21.7578 32.0346 22.0061 31.9171 22.2269C31.8034 22.4054 31.625 22.5328 31.4193 22.5825C31.241 22.6382 31.0567 22.6727 30.8702 22.6852L30.0288 22.7563V24.0442H44.6221V22.7563H44.4444C44.2225 22.7563 43.9655 22.7212 43.6802 22.6823L43.68 22.6823C43.62 22.6741 43.5587 22.6658 43.4962 22.6575C43.2034 22.6274 42.9154 22.5611 42.639 22.46C42.4324 22.3898 42.2565 22.2502 42.1412 22.0649C42.024 21.8511 41.968 21.6092 41.9792 21.3657V13.3895C42.3335 12.8197 42.8148 12.3397 43.3856 11.987C43.7563 11.739 44.1726 11.5671 44.6103 11.4814L44.5629 11.7421C44.5266 11.9388 44.5094 12.1386 44.5115 12.3386C44.5186 12.7326 44.6889 13.106 44.9816 13.3697C45.3423 13.7034 45.8224 13.8772 46.313 13.8517C46.8125 13.8775 47.2864 13.6292 47.5495 13.2038ZM34.8326 5.89921C34.4764 6.32347 33.9486 6.5656 33.3946 6.55896C32.8689 6.56422 32.3664 6.34249 32.0159 5.95057C31.6416 5.56438 31.4344 5.04638 31.4391 4.50861C31.4331 3.96196 31.6383 3.43408 32.0119 3.03505C32.3572 2.62991 32.8624 2.39608 33.3946 2.39506C33.9389 2.37814 34.4647 2.59362 34.8405 2.98764C35.2026 3.35683 35.4054 3.85326 35.4055 4.37034C35.4145 4.93402 35.2098 5.48021 34.8326 5.89921ZM27.8401 14.4522C27.244 14.0356 26.5852 13.7168 25.8886 13.508C25.4553 13.3716 25.0148 13.2595 24.5691 13.1722C24.9897 13.0525 25.4004 12.9006 25.7977 12.7179C26.348 12.4673 26.8601 12.1401 27.3187 11.746C27.7922 11.3412 28.1722 10.8384 28.4327 10.2725C28.7042 9.65964 28.839 8.99504 28.8278 8.32486C28.8494 7.57092 28.6547 6.82654 28.2668 6.1797C27.9111 5.6102 27.4249 5.13353 26.8485 4.7891C26.2579 4.42982 25.6118 4.17085 24.9365 4.02269C24.2533 3.87832 23.5567 3.80681 22.8585 3.80936H13.5193V5.16045H13.6971C13.9801 5.18747 14.2612 5.23234 14.5386 5.29477C14.8491 5.35993 15.1504 5.46343 15.4354 5.60292C15.671 5.69585 15.8648 5.87138 15.9805 6.09674C16.0818 6.33796 16.1315 6.59764 16.1267 6.8592V21.1563C16.1371 21.417 16.0828 21.6762 15.9687 21.9109C15.8458 22.1111 15.6615 22.2663 15.4433 22.3533C15.1617 22.4565 14.8684 22.5242 14.5702 22.5548C14.1475 22.6141 13.8235 22.6536 13.6023 22.6733H13.4285V24.0323H23.0165C23.8533 24.037 24.6868 23.9267 25.4935 23.7044C26.2676 23.4888 27.0015 23.1485 27.6663 22.697C28.3369 22.2491 28.8985 21.6564 29.3097 20.9627C29.7412 20.1998 29.9582 19.3343 29.9379 18.4581C29.9618 17.6162 29.7541 16.784 29.3374 16.0522C28.9612 15.4159 28.4501 14.8698 27.8401 14.4522ZM57.339 21.1128V13.1406C57.2547 12.9016 57.1447 12.6725 57.0111 12.4572C56.849 12.188 56.6495 11.9433 56.4185 11.7302C56.1496 11.5033 55.8471 11.3194 55.5218 11.1851C55.145 11.035 54.7421 10.9611 54.3366 10.9678C53.8285 10.9621 53.3289 11.099 52.8946 11.3628C52.4194 11.6686 52.0152 12.0727 51.7095 12.548C51.3398 13.1432 51.0727 13.7962 50.9194 14.4798C50.7143 15.343 50.6148 16.2278 50.6231 17.1149C50.6158 17.8175 50.6887 18.5186 50.8403 19.2047C50.982 19.8163 51.2279 20.399 51.5672 20.9272C51.8667 21.4075 52.2721 21.8129 52.7524 22.1123C53.2645 22.4117 53.8504 22.5609 54.4433 22.543C55.0563 22.572 55.6641 22.4179 56.1894 22.1005C56.6138 21.8224 57.0002 21.4904 57.339 21.1128ZM24.8812 10.2409C24.7471 10.6987 24.5153 11.1219 24.2017 11.4814C23.8675 11.8604 23.4398 12.1451 22.9612 12.307C22.35 12.5096 21.7086 12.6058 21.0649 12.5915H19.4847V5.33428L20.4368 5.30662C20.8871 5.29346 21.2598 5.28687 21.5548 5.28687C22.7795 5.28687 23.6802 5.57921 24.2372 6.15995C24.8285 6.83107 25.1309 7.70849 25.0787 8.6014C25.0875 9.15432 25.021 9.70587 24.8812 10.2409ZM20.2234 14.1322L19.4847 14.1598V20.9627C19.4529 21.4438 19.6942 21.9019 20.1089 22.1479C20.6887 22.4504 21.3408 22.5871 21.9933 22.543C23.3207 22.543 24.3439 22.1795 25.0431 21.4091C25.7424 20.6388 26.0979 19.4773 26.0979 17.9563C26.1325 16.9172 25.7248 15.9122 24.976 15.1909C24.2293 14.4759 23.135 14.1124 21.7286 14.1124C21.1334 14.1124 20.6317 14.119 20.2234 14.1322Z"/>
		</g>
		<g class="LogoEbirdPortal-portal" fill="#50A61C">
			<path d="M88.4277 24H80.3477V23.0293C81.0586 22.9837 81.6465 22.8926 82.1113 22.7559C82.5853 22.6191 82.8223 22.4505 82.8223 22.25C82.8223 22.168 82.8132 22.0677 82.7949 21.9492C82.7767 21.8307 82.7493 21.7259 82.7129 21.6348L81.0996 17.2871H74.3047C74.0495 17.9251 73.8398 18.4811 73.6758 18.9551C73.5208 19.429 73.3796 19.8665 73.252 20.2676C73.1335 20.6595 73.0514 20.9785 73.0059 21.2246C72.9603 21.4707 72.9375 21.6712 72.9375 21.8262C72.9375 22.1908 73.2246 22.4733 73.7988 22.6738C74.373 22.8743 75.0202 22.9928 75.7402 23.0293V24H68.4395V23.0293C68.6764 23.0111 68.9727 22.9609 69.3281 22.8789C69.6836 22.7878 69.9753 22.6693 70.2031 22.5234C70.5677 22.2773 70.8503 22.0221 71.0508 21.7578C71.2513 21.4844 71.4473 21.1107 71.6387 20.6367C72.6139 18.2031 73.6895 15.4688 74.8652 12.4336C76.041 9.39844 77.0892 6.69596 78.0098 4.32617H79.1035L85.5703 21.0605C85.707 21.416 85.862 21.7031 86.0352 21.9219C86.2083 22.1406 86.4499 22.3548 86.7598 22.5645C86.9694 22.6921 87.2428 22.8014 87.5801 22.8926C87.9173 22.9746 88.1999 23.0202 88.4277 23.0293V24ZM80.6074 16.0703L77.668 8.55078L74.7832 16.0703H80.6074Z"/>
			<path d="M98.4918 12.2559C98.4918 12.7207 98.3779 13.1354 98.15 13.5C97.9221 13.8555 97.5712 14.0332 97.0973 14.0332C96.5868 14.0332 96.1949 13.901 95.9215 13.6367C95.6572 13.3724 95.525 13.0807 95.525 12.7617C95.525 12.5612 95.5387 12.3789 95.566 12.2148C95.6025 12.0508 95.6344 11.8867 95.6617 11.7227C95.2333 11.7227 94.732 11.8958 94.1578 12.2422C93.5836 12.5885 93.096 13.0807 92.6949 13.7188V21.5664C92.6949 21.8854 92.7542 22.1452 92.8727 22.3457C93.0003 22.5462 93.1962 22.6966 93.4605 22.7969C93.6884 22.888 93.9801 22.9564 94.3355 23.002C94.7001 23.0475 95.0146 23.0794 95.2789 23.0977V24H88.1695V23.0977C88.3792 23.0794 88.5934 23.0612 88.8121 23.043C89.04 23.0247 89.2359 22.9883 89.4 22.9336C89.6552 22.8516 89.8421 22.7103 89.9605 22.5098C90.0882 22.3001 90.152 22.0312 90.152 21.7031V13.377C90.152 13.0944 90.0836 12.8164 89.9469 12.543C89.8193 12.2695 89.637 12.0508 89.4 11.8867C89.2268 11.7773 89.0217 11.6999 88.7848 11.6543C88.5478 11.5996 88.2926 11.5632 88.0191 11.5449V10.6562L92.5035 10.3555L92.6949 10.5469V12.4473H92.7633C93.3284 11.709 93.9573 11.1484 94.65 10.7656C95.3427 10.3828 95.9762 10.1914 96.5504 10.1914C97.1246 10.1914 97.5895 10.3783 97.9449 10.752C98.3095 11.1257 98.4918 11.627 98.4918 12.2559Z"/>
			<path d="M122.346 24H115.77V23.0977C115.979 23.0794 116.189 23.0612 116.398 23.043C116.617 23.0247 116.809 22.9883 116.973 22.9336C117.228 22.8516 117.415 22.7103 117.533 22.5098C117.661 22.3001 117.725 22.0312 117.725 21.7031V14.7441C117.725 13.7962 117.506 13.0671 117.068 12.5566C116.64 12.0371 116.102 11.7773 115.455 11.7773C115.008 11.7773 114.589 11.8457 114.197 11.9824C113.805 12.1191 113.445 12.3105 113.117 12.5566C112.853 12.7572 112.63 12.9759 112.447 13.2129C112.274 13.4408 112.142 13.6322 112.051 13.7871V21.5664C112.051 21.8854 112.105 22.1497 112.215 22.3594C112.324 22.5599 112.511 22.7148 112.775 22.8242C112.985 22.9062 113.172 22.9701 113.336 23.0156C113.509 23.0521 113.732 23.0794 114.006 23.0977V24H107.566V23.0977C107.776 23.0794 107.977 23.0612 108.168 23.043C108.368 23.0247 108.551 22.9883 108.715 22.9336C108.97 22.8516 109.157 22.7103 109.275 22.5098C109.403 22.3001 109.467 22.0312 109.467 21.7031V14.7441C109.467 13.7962 109.248 13.0671 108.811 12.5566C108.382 12.0371 107.844 11.7773 107.197 11.7773C106.751 11.7773 106.331 11.8503 105.939 11.9961C105.548 12.1328 105.188 12.3242 104.859 12.5703C104.595 12.7708 104.372 12.9987 104.189 13.2539C104.007 13.5 103.87 13.6868 103.779 13.8145V21.5391C103.779 21.849 103.843 22.1087 103.971 22.3184C104.098 22.528 104.29 22.6875 104.545 22.7969C104.736 22.888 104.932 22.9564 105.133 23.002C105.333 23.0475 105.557 23.0794 105.803 23.0977V24H99.2539V23.0977C99.4635 23.0794 99.6777 23.0612 99.8965 23.043C100.124 23.0247 100.32 22.9883 100.484 22.9336C100.74 22.8516 100.926 22.7103 101.045 22.5098C101.173 22.3001 101.236 22.0312 101.236 21.7031V13.3223C101.236 13.0306 101.168 12.7708 101.031 12.543C100.904 12.306 100.721 12.1055 100.484 11.9414C100.311 11.832 100.097 11.7454 99.8418 11.6816C99.5866 11.6087 99.3223 11.5632 99.0488 11.5449V10.6562L103.561 10.3555L103.752 10.5469V12.4746H103.848C104.076 12.2467 104.354 11.9779 104.682 11.668C105.01 11.3581 105.315 11.1074 105.598 10.916C105.917 10.6973 106.313 10.515 106.787 10.3691C107.27 10.2233 107.79 10.1504 108.346 10.1504C109.221 10.1504 109.973 10.3874 110.602 10.8613C111.23 11.3262 111.682 11.8913 111.955 12.5566C112.283 12.2376 112.57 11.9596 112.816 11.7227C113.072 11.4766 113.404 11.2168 113.814 10.9434C114.161 10.7064 114.566 10.515 115.031 10.3691C115.505 10.2233 116.029 10.1504 116.604 10.1504C117.743 10.1504 118.645 10.5241 119.311 11.2715C119.976 12.0189 120.309 13.1673 120.309 14.7168V21.5664C120.309 21.8854 120.363 22.1497 120.473 22.3594C120.582 22.5599 120.769 22.7148 121.033 22.8242C121.243 22.9062 121.448 22.9701 121.648 23.0156C121.858 23.0521 122.09 23.0794 122.346 23.0977V24Z"/>
			<path d="M134.495 20.8281C133.929 21.9036 133.173 22.7604 132.225 23.3984C131.277 24.0365 130.188 24.3555 128.957 24.3555C127.873 24.3555 126.92 24.1641 126.1 23.7812C125.289 23.3984 124.619 22.8789 124.09 22.2227C123.562 21.5664 123.165 20.8008 122.901 19.9258C122.646 19.0508 122.518 18.1257 122.518 17.1504C122.518 16.2754 122.655 15.4186 122.928 14.5801C123.211 13.7324 123.621 12.9714 124.159 12.2969C124.678 11.6497 125.321 11.1302 126.086 10.7383C126.861 10.3372 127.727 10.1367 128.684 10.1367C129.668 10.1367 130.511 10.2917 131.213 10.6016C131.915 10.9115 132.485 11.3353 132.922 11.873C133.342 12.3835 133.651 12.985 133.852 13.6777C134.062 14.3704 134.166 15.1224 134.166 15.9336V16.8359H125.239C125.239 17.7201 125.321 18.5221 125.485 19.2422C125.658 19.9622 125.927 20.5957 126.291 21.1426C126.647 21.6712 127.112 22.0905 127.686 22.4004C128.26 22.7012 128.944 22.8516 129.737 22.8516C130.548 22.8516 131.245 22.6647 131.829 22.291C132.421 21.9082 132.991 21.2246 133.537 20.2402L134.495 20.8281ZM131.473 15.6875C131.473 15.1771 131.427 14.6302 131.336 14.0469C131.254 13.4635 131.118 12.9759 130.926 12.584C130.717 12.1647 130.429 11.8229 130.065 11.5586C129.7 11.2943 129.231 11.1621 128.657 11.1621C127.7 11.1621 126.902 11.5632 126.264 12.3652C125.635 13.1582 125.293 14.2656 125.239 15.6875H131.473Z"/>
			<path d="M149.342 24H142.738V23.0977C142.948 23.0794 143.176 23.0612 143.422 23.043C143.677 23.0247 143.887 22.9883 144.051 22.9336C144.306 22.8516 144.493 22.7103 144.611 22.5098C144.739 22.3001 144.803 22.0312 144.803 21.7031V14.7715C144.803 13.8145 144.575 13.0762 144.119 12.5566C143.673 12.0371 143.126 11.7773 142.479 11.7773C141.995 11.7773 141.553 11.8548 141.152 12.0098C140.751 12.1556 140.396 12.3379 140.086 12.5566C139.785 12.7663 139.544 12.9941 139.361 13.2402C139.188 13.4772 139.061 13.6686 138.979 13.8145V21.5664C138.979 21.8763 139.042 22.1315 139.17 22.332C139.298 22.5326 139.489 22.6875 139.744 22.7969C139.936 22.888 140.141 22.9564 140.359 23.002C140.587 23.0475 140.82 23.0794 141.057 23.0977V24H134.453V23.0977C134.663 23.0794 134.877 23.0612 135.096 23.043C135.324 23.0247 135.52 22.9883 135.684 22.9336C135.939 22.8516 136.126 22.7103 136.244 22.5098C136.372 22.3001 136.436 22.0312 136.436 21.7031V13.377C136.436 13.0671 136.367 12.7845 136.23 12.5293C136.103 12.265 135.921 12.0508 135.684 11.8867C135.51 11.7773 135.305 11.6999 135.068 11.6543C134.831 11.5996 134.576 11.5632 134.303 11.5449V10.6562L138.787 10.3555L138.979 10.5469V12.4473H139.047C139.266 12.2285 139.539 11.9688 139.867 11.668C140.195 11.3581 140.505 11.1074 140.797 10.916C141.134 10.6973 141.535 10.515 142 10.3691C142.465 10.2233 142.989 10.1504 143.572 10.1504C144.867 10.1504 145.824 10.556 146.443 11.3672C147.072 12.1693 147.387 13.2402 147.387 14.5801V21.5938C147.387 21.9128 147.441 22.1725 147.551 22.373C147.66 22.5645 147.847 22.7148 148.111 22.8242C148.33 22.9154 148.517 22.9792 148.672 23.0156C148.836 23.0521 149.059 23.0794 149.342 23.0977V24Z"/>
			<path d="M156.345 24H149.823V23.0977C150.033 23.0794 150.247 23.0612 150.466 23.043C150.694 23.0247 150.89 22.9883 151.054 22.9336C151.309 22.8516 151.496 22.7103 151.614 22.5098C151.742 22.3001 151.806 22.0312 151.806 21.7031V13.377C151.806 13.0853 151.738 12.821 151.601 12.584C151.473 12.3379 151.291 12.1328 151.054 11.9688C150.881 11.8594 150.63 11.7682 150.302 11.6953C149.974 11.6133 149.673 11.5632 149.4 11.5449V10.6562L154.157 10.3555L154.349 10.5469V21.5391C154.349 21.8581 154.408 22.1224 154.527 22.332C154.654 22.5417 154.85 22.6966 155.114 22.7969C155.315 22.8789 155.511 22.9473 155.702 23.002C155.894 23.0475 156.108 23.0794 156.345 23.0977V24ZM154.622 5.03711C154.622 5.55664 154.449 6.01237 154.103 6.4043C153.765 6.78711 153.346 6.97852 152.845 6.97852C152.38 6.97852 151.974 6.79622 151.628 6.43164C151.291 6.05794 151.122 5.63411 151.122 5.16016C151.122 4.65885 151.291 4.22135 151.628 3.84766C151.974 3.47396 152.38 3.28711 152.845 3.28711C153.364 3.28711 153.788 3.46484 154.116 3.82031C154.454 4.16667 154.622 4.57227 154.622 5.03711Z"/>
			<path d="M169.169 23.7539C168.74 23.9089 168.362 24.0319 168.034 24.123C167.715 24.2233 167.35 24.2734 166.94 24.2734C166.229 24.2734 165.66 24.1094 165.231 23.7812C164.812 23.444 164.543 22.9564 164.425 22.3184H164.343C163.75 22.9746 163.112 23.4759 162.429 23.8223C161.754 24.1686 160.938 24.3418 159.981 24.3418C158.97 24.3418 158.136 24.0319 157.479 23.4121C156.832 22.7923 156.509 21.9811 156.509 20.9785C156.509 20.459 156.582 19.9941 156.727 19.584C156.873 19.1738 157.092 18.8047 157.384 18.4766C157.611 18.2031 157.912 17.9616 158.286 17.752C158.66 17.5332 159.011 17.36 159.339 17.2324C159.749 17.0775 160.578 16.7904 161.827 16.3711C163.085 15.9518 163.932 15.6237 164.37 15.3867V14.0332C164.37 13.9147 164.343 13.6868 164.288 13.3496C164.242 13.0124 164.137 12.6934 163.973 12.3926C163.791 12.0553 163.531 11.7637 163.194 11.5176C162.866 11.2624 162.397 11.1348 161.786 11.1348C161.367 11.1348 160.975 11.2077 160.61 11.3535C160.255 11.4902 160.004 11.6361 159.858 11.791C159.858 11.9733 159.899 12.2422 159.981 12.5977C160.072 12.9531 160.118 13.2812 160.118 13.582C160.118 13.901 159.972 14.1927 159.68 14.457C159.398 14.7214 159.001 14.8535 158.491 14.8535C158.035 14.8535 157.698 14.694 157.479 14.375C157.27 14.0469 157.165 13.6823 157.165 13.2812C157.165 12.862 157.311 12.4609 157.602 12.0781C157.903 11.6953 158.29 11.3535 158.764 11.0527C159.175 10.7975 159.671 10.5833 160.255 10.4102C160.838 10.2279 161.408 10.1367 161.964 10.1367C162.729 10.1367 163.395 10.1914 163.96 10.3008C164.534 10.401 165.054 10.6243 165.518 10.9707C165.983 11.3079 166.334 11.7682 166.571 12.3516C166.817 12.9258 166.94 13.6686 166.94 14.5801C166.94 15.8835 166.927 17.041 166.899 18.0527C166.872 19.0553 166.858 20.1536 166.858 21.3477C166.858 21.7031 166.917 21.9857 167.036 22.1953C167.164 22.4049 167.355 22.5827 167.61 22.7285C167.747 22.8105 167.961 22.8561 168.253 22.8652C168.554 22.8743 168.859 22.8789 169.169 22.8789V23.7539ZM164.397 16.5352C163.623 16.763 162.943 16.9863 162.36 17.2051C161.777 17.4238 161.235 17.6973 160.733 18.0254C160.277 18.3353 159.917 18.7044 159.653 19.1328C159.389 19.5521 159.257 20.0534 159.257 20.6367C159.257 21.3932 159.453 21.9492 159.845 22.3047C160.246 22.6602 160.751 22.8379 161.362 22.8379C162.009 22.8379 162.579 22.6829 163.071 22.373C163.563 22.054 163.978 21.6803 164.315 21.252L164.397 16.5352Z"/>
		</g>
	</svg>