<svg class="LogoEbirdPortal LogoEbirdPortal--atlasnz" xmlns="http://www.w3.org/2000/svg" width="289" height="32" viewBox="0 0 289 32" role="img" aria-labelledby="logo-ebird-portal-atlasnz-title" style="max-width:100%;">
		<title id="logo-ebird-portal-atlasnz-title">New Zealand Bird Atlas logo</title>
		<g fill="none" fill-rule="evenodd">
			<path class="LogoEbirdPortal-portal" fill="#50A61C" fill-rule="nonzero" d="M22.246 5.57c-.255.01-.647.082-1.176.22-.528.136-.907.277-1.134.423-.329.228-.55.665-.664 1.312-.113.648-.17 1.468-.17 2.461v14.205h-1.19L6.154 8.318v10.008c0 1.121.07 1.983.212 2.584.141.602.358 1.03.65 1.285.21.2.642.388 1.298.56.657.174 1.09.265 1.3.274V24H1.655v-.97c.246-.019.661-.108 1.244-.267.584-.16.948-.303 1.094-.431.32-.255.538-.645.656-1.169.119-.524.178-1.42.178-2.686V8.92c0-.42-.073-.839-.219-1.258-.145-.42-.341-.743-.588-.97-.328-.301-.772-.559-1.333-.773-.56-.214-1.014-.33-1.36-.349V4.6h5.537l10.91 14.793v-9.229c0-1.13-.073-1.998-.218-2.604-.146-.607-.356-1.01-.63-1.21-.254-.174-.671-.342-1.25-.506-.579-.164-1.019-.255-1.32-.274V4.6h7.89v.97zM33.24 20.828c-.565 1.076-1.321 1.932-2.27 2.57-.947.638-2.036.957-3.267.957-1.084 0-2.034-.19-2.85-.574a5.597 5.597 0 0 1-2.017-1.558 6.62 6.62 0 0 1-1.182-2.297c-.26-.875-.39-1.8-.39-2.776 0-.875.139-1.734.417-2.577a7.27 7.27 0 0 1 1.224-2.276 5.921 5.921 0 0 1 1.934-1.566c.77-.396 1.634-.594 2.59-.594.985 0 1.828.155 2.53.465.702.31 1.272.733 1.71 1.271.418.51.73 1.112.936 1.805.205.692.307 1.444.307 2.256v.902h-8.927c0 .884.084 1.686.253 2.406a5.76 5.76 0 0 0 .8 1.9c.355.53.82.946 1.394 1.252.574.305 1.258.458 2.05.458.812 0 1.511-.19 2.1-.568.587-.378 1.155-1.06 1.701-2.044l.957.588zm-3.021-5.14c0-.51-.043-1.058-.13-1.641-.087-.583-.225-1.071-.417-1.463a2.779 2.779 0 0 0-.861-1.025c-.365-.265-.834-.397-1.408-.397-.957 0-1.753.399-2.386 1.196-.634.798-.978 1.908-1.032 3.33h6.234zm23.464-4.293c-.383.036-.795.195-1.237.478-.442.283-.764.706-.964 1.272a1577.095 1577.095 0 0 0-2.652 7.848 49.964 49.964 0 0 0-.957 3.104l-1.176-.001-3.623-9.926-3.65 9.926H38.3a664.587 664.587 0 0 1-2.003-6.023 504.423 504.423 0 0 0-1.73-5.202 1.85 1.85 0 0 0-.833-1.012c-.41-.246-.807-.392-1.19-.437v-.902h6.016v.957c-.3.009-.627.059-.978.15-.35.091-.526.241-.526.451 0 .037.016.114.048.233.032.118.07.246.116.382.292.957.622 2.026.991 3.206.37 1.18.846 2.714 1.429 4.601l3.445-9.707H44.4l3.513 9.57c.392-1.221.782-2.404 1.17-3.548a78.066 78.066 0 0 0 1.018-3.22c.064-.236.125-.453.185-.649a2 2 0 0 0 .088-.58.57.57 0 0 0-.218-.438 1.793 1.793 0 0 0-.534-.315 2.914 2.914 0 0 0-.594-.164 3.147 3.147 0 0 0-.472-.054v-.875h5.127v.875zm20.528 6.548L73.567 24H57.981v-.479L70.191 5.68H65.72c-.52 0-.955.009-1.306.027-.351.018-.672.055-.964.11-.602.118-1.278.615-2.03 1.49-.752.875-1.32 1.8-1.702 2.775h-.957l.587-5.482h14.534v.478L61.672 22.92h4.608a20 20 0 0 0 2.475-.164c.875-.11 1.444-.296 1.709-.56.592-.566 1.144-1.258 1.654-2.079.51-.82.889-1.545 1.135-2.174h.957zm13.007 2.885c-.565 1.076-1.322 1.932-2.27 2.57-.948.638-2.037.957-3.267.957-1.085 0-2.035-.19-2.85-.574a5.597 5.597 0 0 1-2.018-1.558 6.62 6.62 0 0 1-1.182-2.297c-.26-.875-.39-1.8-.39-2.776 0-.875.14-1.734.417-2.577a7.27 7.27 0 0 1 1.224-2.276 5.921 5.921 0 0 1 1.934-1.566c.77-.396 1.634-.594 2.591-.594.985 0 1.828.155 2.53.465.701.31 1.271.733 1.709 1.271.419.51.731 1.112.936 1.805.205.692.308 1.444.308 2.256v.902H77.96c0 .884.084 1.686.253 2.406a5.76 5.76 0 0 0 .8 1.9c.355.53.82.946 1.394 1.252.574.305 1.258.458 2.051.458.811 0 1.51-.19 2.099-.568.588-.378 1.155-1.06 1.702-2.044l.957.588zm-3.022-5.14c0-.51-.043-1.058-.13-1.641-.086-.583-.225-1.071-.417-1.463a2.779 2.779 0 0 0-.86-1.025c-.365-.265-.835-.397-1.41-.397-.956 0-1.751.399-2.385 1.196-.633.798-.977 1.908-1.032 3.33h6.234zm16.15 8.066c-.428.155-.804.28-1.128.376a3.88 3.88 0 0 1-1.1.143c-.712 0-1.279-.166-1.703-.499-.424-.332-.695-.818-.813-1.456h-.082c-.593.657-1.228 1.158-1.907 1.504-.68.347-1.498.52-2.455.52-1.011 0-1.843-.31-2.495-.93-.651-.62-.977-1.43-.977-2.433 0-.52.073-.985.219-1.395.145-.41.364-.78.656-1.107a3.28 3.28 0 0 1 .902-.732 7.885 7.885 0 0 1 1.053-.513c.41-.155 1.242-.442 2.495-.86 1.253-.42 2.099-.748 2.536-.985v-1.354a5.73 5.73 0 0 0-.075-.683 2.863 2.863 0 0 0-.321-.957 2.723 2.723 0 0 0-.773-.882c-.333-.25-.804-.376-1.415-.376-.42 0-.809.07-1.169.212-.36.141-.613.29-.759.444 0 .182.044.451.13.807.087.355.13.683.13.984 0 .319-.143.61-.43.875-.288.264-.686.397-1.197.397-.456 0-.79-.162-1.005-.486a1.926 1.926 0 0 1-.321-1.087c0-.419.148-.82.444-1.203a4.462 4.462 0 0 1 1.156-1.025c.41-.255.907-.472 1.49-.65a5.847 5.847 0 0 1 1.709-.266c.765 0 1.433.052 2.003.157.57.105 1.087.33 1.552.677.464.337.818.795 1.06 1.374.24.579.361 1.324.361 2.235 0 1.303-.013 2.459-.04 3.466a122.311 122.311 0 0 0-.042 3.302c0 .355.062.638.185.847.123.21.312.388.567.534.137.082.354.127.65.136.296.01.599.014.909.014v.875zm-4.772-7.219a29.86 29.86 0 0 0-2.037.67 8.246 8.246 0 0 0-1.627.82 3.7 3.7 0 0 0-1.08 1.101c-.264.424-.396.927-.396 1.51 0 .757.198 1.313.595 1.669.396.355.9.533 1.51.533.647 0 1.217-.157 1.71-.472a4.973 4.973 0 0 0 1.243-1.114l.082-4.717zM107.801 24h-6.576v-.902l.67-.062c.237-.023.433-.057.588-.102.255-.082.446-.226.574-.431.128-.205.191-.472.191-.8V6.09c0-.328-.07-.636-.211-.923a1.784 1.784 0 0 0-.554-.677c-.164-.11-.465-.21-.903-.3a8.21 8.21 0 0 0-1.052-.165V3.15l5.072-.314.191.205v18.498c0 .32.06.581.178.786.119.205.31.362.574.472.2.091.4.16.595.205.196.046.417.077.663.096V24zm13.265-.246c-.428.155-.804.28-1.128.376a3.88 3.88 0 0 1-1.1.143c-.711 0-1.279-.166-1.703-.499-.423-.332-.695-.818-.813-1.456h-.082c-.593.657-1.228 1.158-1.907 1.504-.68.347-1.497.52-2.454.52-1.012 0-1.844-.31-2.496-.93-.651-.62-.977-1.43-.977-2.433 0-.52.073-.985.219-1.395.145-.41.364-.78.656-1.107a3.28 3.28 0 0 1 .902-.732 7.885 7.885 0 0 1 1.053-.513c.41-.155 1.242-.442 2.495-.86 1.253-.42 2.099-.748 2.536-.985v-1.354a5.73 5.73 0 0 0-.075-.683 2.863 2.863 0 0 0-.321-.957 2.723 2.723 0 0 0-.773-.882c-.332-.25-.804-.376-1.415-.376-.42 0-.809.07-1.169.212-.36.141-.613.29-.759.444 0 .182.044.451.13.807.087.355.13.683.13.984 0 .319-.143.61-.43.875-.288.264-.686.397-1.197.397-.455 0-.79-.162-1.005-.486a1.926 1.926 0 0 1-.32-1.087c0-.419.147-.82.443-1.203a4.462 4.462 0 0 1 1.156-1.025c.41-.255.907-.472 1.49-.65a5.847 5.847 0 0 1 1.709-.266c.766 0 1.433.052 2.003.157.57.105 1.087.33 1.552.677.464.337.818.795 1.06 1.374.24.579.362 1.324.362 2.235 0 1.303-.014 2.459-.042 3.466a122.31 122.31 0 0 0-.04 3.302c0 .355.061.638.184.847.123.21.312.388.567.534.137.082.354.127.65.136.296.01.6.014.909.014v.875zm-4.771-7.219a29.86 29.86 0 0 0-2.038.67 8.246 8.246 0 0 0-1.627.82 3.7 3.7 0 0 0-1.08 1.101c-.264.424-.396.927-.396 1.51 0 .757.198 1.313.595 1.669.396.355.9.533 1.51.533.648 0 1.217-.157 1.71-.472a4.973 4.973 0 0 0 1.244-1.114l.082-4.717zm19.8 7.465h-6.604v-.902c.21-.019.44-.037.69-.055a2.6 2.6 0 0 0 .623-.11.983.983 0 0 0 .567-.43c.123-.205.184-.472.184-.8v-6.932c0-.957-.225-1.695-.676-2.214-.451-.52-1-.78-1.648-.78a3.75 3.75 0 0 0-1.326.226c-.401.15-.756.335-1.066.554-.301.21-.54.435-.718.676a6.11 6.11 0 0 0-.39.581v7.752c0 .31.064.566.192.766.127.2.319.355.574.465.191.091.399.16.622.205.223.046.453.077.69.096V24h-6.603v-.902c.21-.019.426-.037.65-.055.223-.018.416-.055.58-.11a.983.983 0 0 0 .568-.43c.123-.205.184-.472.184-.8v-8.326c0-.31-.066-.595-.198-.855a1.696 1.696 0 0 0-.554-.635 1.865 1.865 0 0 0-.615-.24 5.457 5.457 0 0 0-.766-.102v-.889l4.485-.3.191.19v1.901h.069c.218-.218.492-.48.82-.786.328-.305.638-.554.93-.745a4.896 4.896 0 0 1 1.203-.547 5.244 5.244 0 0 1 1.572-.219c1.294 0 2.254.404 2.878 1.21.624.807.936 1.88.936 3.22v7.014c0 .319.055.576.165.772.109.196.296.349.56.458.219.091.408.155.567.192.16.036.381.063.664.082V24zm14.22-.246l-4.704.3-.205-.19v-1.259l-.11-.027a5.602 5.602 0 0 1-1.756 1.299 4.892 4.892 0 0 1-2.153.506c-.766 0-1.506-.171-2.222-.513a5.61 5.61 0 0 1-1.866-1.442c-.538-.63-.964-1.386-1.278-2.27-.315-.884-.472-1.86-.472-2.926 0-.975.168-1.9.506-2.775a7.317 7.317 0 0 1 1.394-2.297 6.15 6.15 0 0 1 2.044-1.463 5.936 5.936 0 0 1 2.468-.547c.629 0 1.246.08 1.852.24.607.16 1.128.362 1.566.608v-4.69c0-.382-.064-.73-.191-1.045-.128-.315-.306-.554-.534-.718-.255-.173-.599-.299-1.032-.376-.433-.078-.9-.134-1.401-.171V3.15l5.51-.314.205.205v18.184c0 .319.061.59.184.813a1.6 1.6 0 0 0 .54.567c.173.11.424.178.752.206.328.027.629.045.902.054v.889zm-4.936-2.365V13.5a3.527 3.527 0 0 0-.356-.766 3.424 3.424 0 0 0-.615-.752 3.5 3.5 0 0 0-.93-.567c-.355-.15-.77-.226-1.244-.226-.547 0-1.05.142-1.51.424-.46.283-.869.688-1.224 1.217-.337.51-.604 1.16-.8 1.948-.196.789-.294 1.661-.294 2.618 0 .766.073 1.461.219 2.085a5.51 5.51 0 0 0 .738 1.744c.32.51.727.92 1.224 1.23.497.31 1.087.465 1.77.465.73 0 1.333-.16 1.812-.479a5.86 5.86 0 0 0 1.21-1.052z" />
			<path class="LogoEbirdPortal-project" fill="#212121" fill-rule="nonzero" d="M171.094 14.963a4.745 4.745 0 0 1 1.408 1.504c.374.62.56 1.372.56 2.256 0 .902-.195 1.686-.587 2.351a5.075 5.075 0 0 1-1.532 1.64c-.61.42-1.3.74-2.07.958a8.69 8.69 0 0 1-2.387.328H157.3v-.97c.219-.019.538-.058.957-.117.42-.06.72-.13.902-.212.283-.127.483-.298.602-.513.118-.214.178-.49.178-.827V7.416c0-.31-.053-.583-.158-.82-.105-.237-.312-.429-.622-.575a3.869 3.869 0 0 0-.916-.314 6.656 6.656 0 0 0-.847-.137V4.6h8.955c.692 0 1.355.068 1.989.205a5.897 5.897 0 0 1 1.811.724c.538.32.98.752 1.327 1.3.346.546.52 1.211.52 1.995 0 .684-.124 1.292-.37 1.825a3.994 3.994 0 0 1-1.04 1.374c-.418.365-.9.673-1.441.923a8.455 8.455 0 0 1-1.757.581v.123c.556.064 1.178.203 1.866.417a6.45 6.45 0 0 1 1.839.896zm-3.295-2.926a3.37 3.37 0 0 0 .704-1.285c.132-.465.198-1.016.198-1.654 0-1.067-.291-1.903-.875-2.51-.583-.605-1.504-.908-2.762-.908-.291 0-.658.007-1.1.02l-1.114.034v7.452h1.736c.747 0 1.388-.096 1.92-.288.534-.191.965-.478 1.293-.86zm1.887 6.193c0-1.148-.386-2.091-1.156-2.83-.77-.738-1.87-1.107-3.301-1.107-.584 0-1.076.007-1.477.02a87.04 87.04 0 0 0-.902.035v6.836c0 .574.232 1.007.697 1.298.465.292 1.112.438 1.941.438 1.358 0 2.397-.397 3.117-1.19.72-.793 1.08-1.96 1.08-3.5zM180.64 24h-6.522v-.902c.21-.019.426-.037.65-.055.223-.018.417-.055.58-.11a.983.983 0 0 0 .568-.43c.123-.205.185-.472.185-.8v-8.326c0-.292-.066-.558-.198-.8a1.764 1.764 0 0 0-.554-.608c-.173-.11-.424-.203-.752-.28a5.57 5.57 0 0 0-.902-.144v-.889l4.757-.3.192.19V21.54c0 .32.061.583.184.793.123.21.317.365.581.465.2.082.397.148.588.198.192.05.406.084.643.103V24zm-1.723-18.963c0 .52-.17.973-.513 1.36a1.62 1.62 0 0 1-1.264.582c-.465 0-.868-.185-1.21-.554-.342-.37-.513-.79-.513-1.265 0-.501.171-.939.513-1.312.342-.374.745-.56 1.21-.56.52 0 .945.175 1.278.525.333.351.5.76.5 1.224zm12.5 7.219c0 .465-.115.877-.342 1.237-.228.36-.58.54-1.053.54-.51 0-.9-.132-1.17-.396-.268-.265-.402-.556-.402-.875 0-.2.016-.383.047-.547.032-.164.062-.328.09-.492-.43 0-.93.173-1.505.52-.574.346-1.061.838-1.462 1.476v7.847c0 .32.061.58.184.78.123.2.317.35.581.45.228.092.522.16.882.206.36.046.672.077.937.096V24h-7.11v-.902c.21-.019.426-.037.65-.055.223-.018.417-.055.58-.11a.983.983 0 0 0 .568-.43c.123-.205.185-.472.185-.8v-8.326c0-.283-.067-.56-.199-.834a1.66 1.66 0 0 0-.553-.656 1.865 1.865 0 0 0-.616-.24 5.457 5.457 0 0 0-.765-.102v-.889l4.484-.3.192.19v1.901h.068c.565-.738 1.194-1.299 1.887-1.681.692-.383 1.326-.575 1.9-.575.574 0 1.041.187 1.401.561.36.374.54.875.54 1.504zm14.713 11.498l-4.703.3-.205-.19v-1.259l-.11-.027a5.602 5.602 0 0 1-1.756 1.299 4.892 4.892 0 0 1-2.153.506c-.766 0-1.506-.171-2.222-.513a5.61 5.61 0 0 1-1.866-1.442c-.538-.63-.964-1.386-1.278-2.27-.315-.884-.472-1.86-.472-2.926 0-.975.168-1.9.506-2.775a7.317 7.317 0 0 1 1.394-2.297 6.15 6.15 0 0 1 2.044-1.463 5.936 5.936 0 0 1 2.468-.547c.629 0 1.246.08 1.852.24.607.16 1.128.362 1.566.608v-4.69c0-.382-.064-.73-.191-1.045-.128-.315-.306-.554-.534-.718-.255-.173-.599-.299-1.032-.376-.433-.078-.9-.134-1.401-.171V3.15l5.51-.314.205.205v18.184c0 .319.061.59.184.813a1.6 1.6 0 0 0 .54.567c.173.11.424.178.752.206.328.027.629.045.902.054v.889zm-4.935-2.365V13.5a3.527 3.527 0 0 0-.356-.766 3.424 3.424 0 0 0-.615-.752 3.5 3.5 0 0 0-.93-.567c-.355-.15-.77-.226-1.244-.226-.546 0-1.05.142-1.51.424-.46.283-.869.688-1.224 1.217-.337.51-.604 1.16-.8 1.948-.196.789-.294 1.661-.294 2.618 0 .766.073 1.461.219 2.085a5.51 5.51 0 0 0 .738 1.744c.32.51.727.92 1.224 1.23.497.31 1.087.465 1.77.465.73 0 1.333-.16 1.812-.479a5.86 5.86 0 0 0 1.21-1.052zM230.24 24h-8.08v-.97c.711-.046 1.301-.137 1.77-.274.47-.137.705-.305.705-.506 0-.082-.01-.182-.028-.3a1.435 1.435 0 0 0-.082-.315l-1.613-4.348h-6.795a32.467 32.467 0 0 0-.622 1.668c-.16.474-.303.912-.43 1.313-.119.392-.201.71-.247.957a3.45 3.45 0 0 0-.068.601c0 .365.287.647.861.848.575.2 1.222.319 1.942.355V24h-7.301v-.97a5.76 5.76 0 0 0 .889-.158c.355-.087.647-.203.875-.349.364-.246.647-.503.847-.772.2-.269.397-.64.588-1.114.975-2.434 2.05-5.168 3.227-8.203 1.176-3.036 2.224-5.738 3.144-8.108h1.094l6.467 16.735c.137.355.291.642.465.86.173.22.414.434.724.643.21.128.483.235.82.322.338.086.62.134.848.143V24zm-7.82-7.93l-2.94-7.52-2.884 7.52h5.824zm15.288 7.342a21.19 21.19 0 0 1-1.681.622c-.53.169-1.176.253-1.942.253-1.13 0-1.925-.285-2.386-.854-.46-.57-.69-1.374-.69-2.413v-9.133h-2.434v-1.313h2.489V6.377h2.488v4.197h3.87v1.313h-3.843v7.533c0 .565.02 1.037.062 1.415.04.378.139.709.294.991.146.264.364.465.656.602.292.136.684.205 1.176.205.228 0 .563-.02 1.005-.062.442-.04.754-.093.936-.157v.998zm6.456.588h-6.576v-.902l.67-.062c.237-.023.433-.057.588-.102.255-.082.447-.226.574-.431.128-.205.192-.472.192-.8V6.09c0-.328-.07-.636-.212-.923a1.784 1.784 0 0 0-.554-.677c-.164-.11-.465-.21-.902-.3a8.21 8.21 0 0 0-1.053-.165V3.15l5.072-.314.192.205v18.498c0 .32.059.581.177.786.119.205.31.362.575.472.2.091.398.16.594.205.196.046.417.077.663.096V24zm13.265-.246c-.428.155-.804.28-1.128.376a3.88 3.88 0 0 1-1.1.143c-.711 0-1.279-.166-1.702-.499-.424-.332-.695-.818-.814-1.456h-.082c-.592.657-1.228 1.158-1.907 1.504-.68.347-1.497.52-2.454.52-1.012 0-1.844-.31-2.495-.93-.652-.62-.978-1.43-.978-2.433 0-.52.073-.985.219-1.395.146-.41.364-.78.656-1.107a3.28 3.28 0 0 1 .902-.732 7.885 7.885 0 0 1 1.053-.513c.41-.155 1.242-.442 2.495-.86 1.254-.42 2.099-.748 2.536-.985v-1.354a5.73 5.73 0 0 0-.075-.683 2.863 2.863 0 0 0-.321-.957 2.723 2.723 0 0 0-.772-.882c-.333-.25-.805-.376-1.416-.376-.419 0-.808.07-1.168.212-.36.141-.613.29-.76.444 0 .182.044.451.13.807.087.355.13.683.13.984 0 .319-.143.61-.43.875-.287.264-.686.397-1.196.397-.456 0-.791-.162-1.005-.486a1.926 1.926 0 0 1-.322-1.087c0-.419.149-.82.445-1.203a4.462 4.462 0 0 1 1.155-1.025c.41-.255.907-.472 1.49-.65a5.847 5.847 0 0 1 1.71-.266c.765 0 1.432.052 2.002.157.57.105 1.087.33 1.552.677.465.337.818.795 1.06 1.374.241.579.362 1.324.362 2.235 0 1.303-.014 2.459-.041 3.466a122.31 122.31 0 0 0-.041 3.302c0 .355.061.638.184.847.123.21.312.388.568.534.136.082.353.127.65.136.295.01.598.014.908.014v.875zm-4.771-7.219a29.86 29.86 0 0 0-2.037.67 8.246 8.246 0 0 0-1.627.82 3.7 3.7 0 0 0-1.08 1.101c-.265.424-.397.927-.397 1.51 0 .757.198 1.313.595 1.669.396.355.9.533 1.51.533.648 0 1.217-.157 1.71-.472a4.973 4.973 0 0 0 1.244-1.114l.082-4.717zm13.812.861c.373.329.66.707.86 1.135.201.429.302.953.302 1.573 0 1.248-.467 2.269-1.402 3.062-.934.793-2.144 1.19-3.63 1.19a5.454 5.454 0 0 1-2.167-.424c-.66-.283-1.132-.543-1.415-.78l-.273.889h-1.025l-.137-4.69h.943c.073.356.228.77.465 1.245.237.474.524.902.861 1.285.356.4.782.738 1.279 1.012.496.273 1.055.41 1.674.41.875 0 1.55-.199 2.024-.595.474-.396.71-.964.71-1.702 0-.383-.074-.713-.225-.991a2.183 2.183 0 0 0-.663-.732 5.22 5.22 0 0 0-1.107-.567 21.672 21.672 0 0 0-1.463-.5 13.586 13.586 0 0 1-1.429-.526 5.695 5.695 0 0 1-1.347-.786 3.854 3.854 0 0 1-.984-1.175c-.255-.465-.383-1.012-.383-1.641 0-1.103.41-2.037 1.23-2.803.821-.765 1.92-1.148 3.296-1.148.528 0 1.068.068 1.62.205.551.137 1 .3 1.346.492l.315-.711h.984l.205 4.334h-.943c-.191-.966-.604-1.752-1.237-2.358-.634-.606-1.406-.91-2.318-.91-.747 0-1.335.187-1.763.561-.429.374-.643.825-.643 1.354 0 .41.07.751.212 1.025.141.273.353.506.636.697.273.182.617.353 1.032.513.415.16.927.34 1.538.54.602.191 1.169.415 1.702.67.533.255.973.538 1.32.847z" />
			<path fill="#115740" d="M288.283 6.3c.002-.063.004-.126.004-.189a5.12 5.12 0 0 0-.242-1.558 5.11 5.11 0 0 0-4.74-3.55l-.047-.001-.08-.002a5.116 5.116 0 0 0-5.11 5.111l.001.026V8.92l-.029.028a5.659 5.659 0 0 0-.78.932 6.221 6.221 0 0 0-1.26 3.767V29l9.68-7.366c.032-.021 2.607-1.718 2.607-4.967 0-.18-.001-.337-.004-.475V6.3zm-9.516-.14c0-2.269 1.74-4.204 3.962-4.405l.025-.003.27-.02-.2.182a3.978 3.978 0 0 0-1.3 2.942c0 .847.284 1.693.798 2.38l.007.01.106.15-.232-.001c-.113-.001-.222.003-.33.007l-.077.004-.145.008-.077.006-.019.002a4.382 4.382 0 0 0-.124.012l-.088.01-.018.003-.112.015a6.512 6.512 0 0 0-.554.107l-.07.018c-.05.012-.098.025-.145.038l-.032.01a6.036 6.036 0 0 0-1.13.45l-.012.007a6.11 6.11 0 0 0-.352.2l-.15.099V6.16zm-1.958 7.488c0-.207.013-.42.038-.633l.004-.037.011-.082.01-.065a2.54 2.54 0 0 1 .012-.082l.01-.055c.01-.057.02-.115.032-.172.108-.506.284-.987.525-1.438l.024-.045a6.26 6.26 0 0 1 .138-.237l.023-.037a4.815 4.815 0 0 1 1.355-1.57l.046-.034.094-.063.12-.08.054-.032c.039-.024.079-.049.12-.072l.06-.034c.037-.022.075-.043.114-.064l.057-.03.016-.008a6.066 6.066 0 0 1 .175-.086l.054-.025a3.616 3.616 0 0 1 .181-.078l.057-.024c.057-.022.114-.044.172-.064l.014-.006a5.312 5.312 0 0 1 3.51-.01 5.226 5.226 0 0 1 .67.28l.03.015c.018.009.036.017.053.027.06.032.12.065.18.1l.026.015.042.024c.066.039.13.08.193.122l.048.03c.069.047.136.095.203.145l.03.022c.07.053.139.107.205.163l.026.021c.065.055.13.113.193.172l.026.024c.063.06.123.12.183.183l.027.028c.07.073.137.148.2.223l.041.05.051.062.034.043.02.025c.042.055.082.105.12.157l.037.05a5.227 5.227 0 0 1 .323.507l.026.05c.105.195.196.386.272.578l.018.047c.077.2.143.409.196.618l.016.065a5.344 5.344 0 0 1 .146 1.115v.033c-.01.461-.086.918-.225 1.359a5.426 5.426 0 0 1-.196.61l-.01.025-.031.076-.029.069-.031.073-.023.049c-.083.183-.176.36-.274.525l-.04.065-.012.02a5.46 5.46 0 0 1-.933 1.13l-.045.042c-.118.106-.24.207-.364.3l-8.245 6.244-.202.15V13.648zm10.647 3.348c-.027.372-.098.74-.21 1.094a5.467 5.467 0 0 1-1.989 2.986l-8.247 6.244-.2.143V25.215l8.926-6.759a6.17 6.17 0 0 0 .219-.174l.068-.059a4.352 4.352 0 0 0 .202-.181l.018-.016.124-.12a6.866 6.866 0 0 0 .194-.202l.075-.083a6.46 6.46 0 0 0 .291-.355l.021-.027.039-.05.119-.168.042-.06c.052-.078.102-.157.151-.237l.173-.283-.016.555zm.016-6.458l-.172-.267a6.22 6.22 0 0 0-.182-.267l-.037-.05a6.793 6.793 0 0 0-.177-.23l-.025-.034a7.017 7.017 0 0 0-.097-.117l-.008-.01a6.649 6.649 0 0 0-.223-.25l-.044-.043-.044-.044a5.271 5.271 0 0 0-.207-.202l-.07-.064c-.039-.035-.077-.07-.117-.104a2.296 2.296 0 0 0-.067-.054l-.077-.063-.113-.09a2.239 2.239 0 0 0-.075-.055l-.083-.06a3.607 3.607 0 0 0-.193-.132l-.082-.052a3.371 3.371 0 0 0-.199-.122l-.083-.047a4.581 4.581 0 0 0-.204-.11l-.096-.048-.092-.046-.041-.02-.33-.141-.006-.002a4.217 4.217 0 0 1-.133-.057l-.076-.034a3.45 3.45 0 0 1-.149-.078l-.089-.05a3.933 3.933 0 0 1-.105-.066l-.061-.04a3.496 3.496 0 0 1-.132-.095l-.077-.06a3.433 3.433 0 0 1-.119-.1l-.023-.02a3.835 3.835 0 0 1-.125-.122L283.15 7l-.073-.082-.015-.018a.79.79 0 0 1-.022-.025l-.013-.017c-.007-.007-.013-.016-.019-.024l-.011-.015c-.02-.024-.038-.049-.056-.073l-.079-.112a2.88 2.88 0 0 1-.074-.113l-.035-.059a.888.888 0 0 1-.017-.03l-.01-.019-.035-.064-.01-.017a.972.972 0 0 1-.017-.032l-.038-.079a3.066 3.066 0 0 1-.049-.109l-.006-.013a.679.679 0 0 1-.013-.028l-.011-.03-.016-.04-.006-.019a4.386 4.386 0 0 1-.027-.075l-.007-.018-.012-.033-.012-.035a3.484 3.484 0 0 1-.057-.205l-.01-.047a3.256 3.256 0 0 1-.04-.194l-.01-.074-.014-.12-.01-.1v-.044a3.311 3.311 0 0 1-.006-.136v-.015l-.002-.029c0-.299.044-.6.129-.892l.012-.046c.011-.036.023-.069.035-.103l.021-.058.024-.066a1.08 1.08 0 0 1 .021-.05l.018-.04c.018-.044.036-.087.057-.13l.01-.017a3.196 3.196 0 0 1 1.398-1.425l.024-.013c.074-.037.147-.071.219-.1l.031-.013.039.012c.156.046.312.102.466.168l.02.008.064.029.042.019.06.028.032.016a4.337 4.337 0 0 1 2.432 3.907v4.448z" />
		</g>
	</svg>