<svg class="LogoEbirdPortal LogoEbirdPortal--atlasilps" 
		width="121" height="32" viewBox="0 0 121 32" role="img" fill="none" xmlns="http://www.w3.org/2000/svg"
		aria-labelledby="logo-ebird-portal-atlasilps-title">
		<title id="logo-ebird-portal-atlasilps-title">Israel Breeding Bird Atlas</title>
		<path 
			class="LogoEbirdPortal-project" fill="#212121" 
			d="M77.469 20.127c.242.164.443.379.603.645.16.265.24.587.24.966 0 .387-.084.723-.251 1.008-.168.285-.387.52-.657.703-.261.18-.558.317-.89.41-.328.094-.668.141-1.02.141h-3.937v-.416a9.65 9.65 0 0 0 .41-.047c.18-.027.308-.058.386-.094a.536.536 0 0 0 .258-.216.746.746 0 0 0 .076-.358v-5.976a.83.83 0 0 0-.07-.352.497.497 0 0 0-.264-.246 1.655 1.655 0 0 0-.392-.135 2.841 2.841 0 0 0-.363-.058v-.417h3.838c.296 0 .58.03.85.088.273.059.532.162.778.311.23.137.42.322.569.557.148.234.223.52.223.855 0 .293-.053.555-.159.785a1.72 1.72 0 0 1-.445.586c-.18.156-.387.29-.621.399a3.67 3.67 0 0 1-.75.246v.052c.238.028.504.088.797.182.297.09.56.217.79.381zm-1.412-1.254a1.41 1.41 0 0 0 .299-.55c.058-.2.087-.436.087-.71 0-.457-.125-.814-.375-1.072-.25-.262-.644-.393-1.183-.393-.125 0-.283.004-.475.012l-.474.012v3.193h.744c.32 0 .593-.04.82-.123a1.28 1.28 0 0 0 .557-.369zm.808 2.654c0-.492-.166-.896-.498-1.213-.328-.316-.799-.474-1.412-.474-.25 0-.46.004-.633.012-.172.003-.3.007-.386.011v2.93c0 .246.1.432.298.557.2.125.477.187.832.187.582 0 1.028-.17 1.336-.51.309-.34.463-.84.463-1.5zM81.566 24H78.77v-.387l.275-.023c.098-.008.182-.024.252-.047a.412.412 0 0 0 .24-.182.656.656 0 0 0 .083-.345v-3.569a.668.668 0 0 0-.088-.34.721.721 0 0 0-.235-.263 1.037 1.037 0 0 0-.322-.117 2.209 2.209 0 0 0-.387-.065v-.38l2.04-.13.081.082v4.711c0 .137.026.25.077.34.054.09.138.156.251.2.086.035.17.064.252.087.082.02.174.034.276.041V24zm-.739-8.127a.858.858 0 0 1-.222.586.69.69 0 0 1-.54.246.697.697 0 0 1-.52-.234.813.813 0 0 1 0-1.107.69.69 0 0 1 .52-.241c.223 0 .405.076.546.229a.724.724 0 0 1 .216.521zM86.184 18.967c0 .199-.049.377-.146.533-.098.152-.248.229-.451.229-.22 0-.387-.057-.504-.17a.52.52 0 0 1-.17-.375c0-.086.006-.165.017-.235.016-.07.03-.14.041-.21-.183 0-.398.073-.644.222-.246.148-.455.36-.627.633v3.363a.65.65 0 0 0 .076.334c.055.086.139.15.252.193.098.04.223.069.375.088.156.02.291.034.404.041V24H81.76v-.387l.276-.023c.097-.008.181-.024.252-.047a.412.412 0 0 0 .24-.182.656.656 0 0 0 .082-.345v-3.569c0-.12-.03-.24-.088-.357a.69.69 0 0 0-.234-.281.756.756 0 0 0-.264-.1 2.066 2.066 0 0 0-.328-.047v-.38l1.922-.13.082.082v.815h.03a2.63 2.63 0 0 1 .808-.72c.297-.165.568-.247.814-.247s.446.08.598.24c.156.16.234.375.234.645zM92.496 23.895l-2.015.128-.088-.082v-.539l-.047-.011a2.392 2.392 0 0 1-.756.556 2.08 2.08 0 0 1-.92.217c-.328 0-.647-.072-.955-.217a2.45 2.45 0 0 1-.797-.62 3.096 3.096 0 0 1-.55-.974 3.77 3.77 0 0 1-.2-1.253c0-.418.072-.815.217-1.19.144-.375.344-.703.597-.984.239-.262.53-.47.874-.627a2.564 2.564 0 0 1 1.06-.235c.27 0 .533.036.791.106.262.066.487.152.674.258v-2.01a1.16 1.16 0 0 0-.082-.445.68.68 0 0 0-.229-.31 1.121 1.121 0 0 0-.445-.16 5.214 5.214 0 0 0-.597-.075v-.364l2.36-.134.089.088v7.793c0 .136.025.253.076.351a.723.723 0 0 0 .234.24.722.722 0 0 0 .322.088c.141.012.27.02.387.024v.38zm-2.115-1.014V19.5a1.514 1.514 0 0 0-.152-.328 1.47 1.47 0 0 0-.264-.322 1.445 1.445 0 0 0-.398-.24c-.153-.067-.33-.1-.534-.1-.234 0-.45.06-.65.181-.195.122-.37.295-.522.522-.144.219-.26.498-.345.838a4.723 4.723 0 0 0-.123 1.119c0 .328.03.627.093.896.063.266.168.514.317.745.137.218.31.394.521.527.215.133.47.2.762.2.313 0 .57-.07.773-.206.208-.137.381-.287.522-.451zM102.829 24h-3.463v-.416c.305-.02.557-.059.756-.117.203-.059.305-.131.305-.217a.85.85 0 0 0-.047-.264l-.692-1.863h-2.912c-.11.273-.199.512-.27.715-.066.203-.126.39-.18.562-.052.168-.087.305-.106.41-.02.106-.03.192-.03.258 0 .157.123.278.37.364.245.086.523.136.831.152V24h-3.128v-.416c.101-.008.228-.03.38-.064.153-.04.278-.09.375-.153.157-.105.278-.215.364-.328.086-.117.17-.277.252-.48a328.68 328.68 0 0 0 1.382-3.516l1.348-3.475h.469l2.771 7.172a1.4 1.4 0 0 0 .2.37c.074.093.177.185.31.275.09.054.207.101.352.14.144.036.265.055.363.059V24zm-3.352-3.398l-1.26-3.223-1.236 3.223h2.496zM106.03 23.748a8.374 8.374 0 0 1-.721.264 2.7 2.7 0 0 1-.832.111c-.485 0-.826-.121-1.026-.363-.195-.246-.293-.592-.293-1.037v-3.914h-1.043v-.563h1.067v-1.799h1.066v1.8h1.658v.562h-1.646v3.228c0 .242.008.445.023.61.02.16.063.3.129.421.063.114.157.2.282.258.125.059.293.088.503.088.098 0 .241-.008.428-.023a2 2 0 0 0 .405-.07v.427z"/>
		<path
			class="LogoEbirdPortal-project" fill="#212121"
			d="M108.802 24h-2.818v-.387l.287-.023c.102-.012.186-.027.252-.047a.44.44 0 0 0 .246-.182.653.653 0 0 0 .082-.345v-6.692a.838.838 0 0 0-.094-.392.728.728 0 0 0-.234-.293c-.07-.047-.199-.09-.387-.13a3.502 3.502 0 0 0-.451-.07v-.374l2.174-.135.082.088v7.927c0 .137.025.25.076.34a.493.493 0 0 0 .246.2 1.399 1.399 0 0 0 .539.128V24zM114.487 23.895c-.183.066-.345.119-.486.158a1.564 1.564 0 0 1-.469.064c-.304 0-.549-.07-.732-.21-.18-.145-.295-.354-.346-.628h-.035a2.842 2.842 0 0 1-.82.645c-.289.148-.639.223-1.049.223-.434 0-.791-.133-1.072-.399-.278-.266-.417-.613-.417-1.043 0-.223.032-.422.094-.598.063-.175.156-.334.281-.474.098-.117.227-.22.387-.31.16-.095.311-.169.451-.223.176-.067.532-.19 1.067-.37.539-.18.902-.32 1.09-.421v-.58c0-.051-.012-.149-.036-.293a1.131 1.131 0 0 0-.468-.785c-.141-.11-.342-.165-.604-.165a1.35 1.35 0 0 0-.504.094.889.889 0 0 0-.322.188c0 .078.018.193.053.345.039.153.058.293.058.422a.5.5 0 0 1-.187.375c-.121.113-.291.17-.51.17-.195 0-.34-.068-.433-.205a.838.838 0 0 1 .052-.984c.129-.164.295-.31.498-.44.176-.11.389-.201.639-.275.25-.078.494-.117.732-.117.329 0 .614.023.856.07.246.043.469.139.668.287.199.145.349.342.451.592.105.246.158.564.158.955 0 .558-.006 1.055-.017 1.488-.012.43-.018.9-.018 1.412 0 .153.025.274.076.364.055.09.137.166.246.228a.594.594 0 0 0 .276.059c.129.004.259.006.392.006v.375zm-2.045-3.094c-.332.097-.623.193-.873.287a3.53 3.53 0 0 0-.697.351c-.195.133-.35.291-.463.475-.113.18-.17.395-.17.645 0 .324.084.562.252.714a.945.945 0 0 0 .651.229c.277 0 .521-.066.732-.2.211-.136.389-.296.533-.48l.035-2.021zM118.362 21.17c.16.14.283.303.369.486.086.184.129.409.129.674 0 .535-.201.973-.604 1.313-.398.34-.916.51-1.553.51-.335 0-.646-.061-.931-.182-.281-.121-.483-.233-.604-.334l-.117.38h-.439l-.059-2.01h.404c.032.153.098.33.2.534.101.203.224.387.369.55.152.173.334.317.545.434.214.118.455.176.72.176.375 0 .664-.084.868-.252.203-.172.304-.416.304-.732a.847.847 0 0 0-.099-.422.905.905 0 0 0-.282-.317 2.159 2.159 0 0 0-.474-.24 8.414 8.414 0 0 0-.627-.216 6.33 6.33 0 0 1-.615-.223 2.549 2.549 0 0 1-.575-.34 1.659 1.659 0 0 1-.422-.504 1.443 1.443 0 0 1-.164-.703c0-.473.176-.873.528-1.201.351-.328.822-.492 1.412-.492.226 0 .457.029.691.087.239.06.432.13.58.211l.135-.304h.422l.088 1.857h-.404c-.082-.414-.26-.75-.534-1.008a1.365 1.365 0 0 0-.99-.392c-.32 0-.572.08-.756.24a.745.745 0 0 0-.275.58c0 .176.029.322.088.44a.83.83 0 0 0 .275.298c.117.078.264.153.44.223.179.066.4.143.662.229.258.082.5.177.726.287.231.109.42.23.569.363zM78.008 8.804c.262.178.48.41.654.698.173.288.26.637.26 1.048 0 .419-.091.783-.273 1.092a2.356 2.356 0 0 1-.711.761 3.251 3.251 0 0 1-.965.445A4.002 4.002 0 0 1 75.87 13h-4.266v-.45c.102-.01.25-.026.444-.052.195-.03.335-.063.42-.101a.58.58 0 0 0 .279-.235.808.808 0 0 0 .082-.387V5.3a.901.901 0 0 0-.076-.38.538.538 0 0 0-.286-.267 1.795 1.795 0 0 0-.425-.146 3.089 3.089 0 0 0-.394-.064v-.45h4.158c.322 0 .629.031.92.095.297.063.578.176.845.336.25.148.455.35.616.603.16.254.24.563.24.927 0 .317-.056.601-.17.85a1.863 1.863 0 0 1-.483.635c-.195.17-.419.314-.673.432-.25.114-.52.203-.812.267v.057c.258.03.546.095.863.197.322.097.607.234.857.412zm-1.53-1.358a1.53 1.53 0 0 0 .324-.597c.063-.216.095-.472.095-.768 0-.495-.135-.882-.406-1.162-.271-.283-.698-.425-1.282-.425-.136 0-.307.004-.515.013-.203.004-.374.008-.514.013v3.459h.806c.347 0 .644-.044.889-.133.25-.09.45-.222.603-.4zm.876 2.875c0-.533-.18-.97-.54-1.314-.355-.342-.865-.514-1.53-.514-.27 0-.499.004-.685.013-.186.004-.326.008-.419.013v3.173c0 .267.108.468.324.603.216.136.516.204.901.204.63 0 1.113-.184 1.448-.553.334-.368.501-.91.501-1.625zM84.198 7.547c0 .216-.053.409-.158.578-.106.165-.27.248-.49.248-.236 0-.418-.062-.545-.185a.564.564 0 0 1-.184-.406c0-.093.006-.178.019-.254a4.28 4.28 0 0 0 .044-.228c-.199 0-.431.08-.698.241-.267.16-.493.39-.68.686v3.643c0 .148.028.269.083.362.06.093.15.163.273.21.106.042.242.073.407.095a8.1 8.1 0 0 0 .438.044V13h-3.301v-.419l.298-.025c.106-.009.197-.026.273-.051a.447.447 0 0 0 .26-.197.712.712 0 0 0 .09-.374V8.068a.857.857 0 0 0-.096-.387.745.745 0 0 0-.254-.305.82.82 0 0 0-.286-.108 2.245 2.245 0 0 0-.355-.05v-.413l2.082-.14.089.089v.882h.032c.262-.343.554-.603.876-.78.321-.178.615-.267.882-.267s.482.087.647.26c.17.174.254.406.254.698zM89.741 11.527c-.262.5-.613.898-1.053 1.194-.44.296-.946.444-1.518.444-.503 0-.945-.089-1.326-.267a2.605 2.605 0 0 1-.933-.723 3.117 3.117 0 0 1-.553-1.067 4.58 4.58 0 0 1-.177-1.288c0-.406.063-.804.19-1.194a3.42 3.42 0 0 1 .571-1.06c.242-.3.54-.541.895-.723.36-.186.762-.28 1.206-.28.457 0 .849.072 1.175.216.326.144.59.341.793.59.195.238.339.517.432.839.097.321.146.67.146 1.047v.419h-4.145c0 .41.038.783.114 1.117.08.334.205.628.375.882.165.246.38.44.647.584.267.14.584.21.952.21.377 0 .7-.087.971-.26.275-.178.54-.496.794-.953l.444.273zm-1.403-2.386c0-.237-.02-.491-.063-.762a2.275 2.275 0 0 0-.19-.68 1.29 1.29 0 0 0-.4-.475c-.17-.123-.388-.184-.654-.184-.445 0-.815.186-1.111.558-.292.368-.45.882-.476 1.543h2.894zM95.468 11.527c-.262.5-.613.898-1.053 1.194-.44.296-.946.444-1.518.444-.503 0-.945-.089-1.326-.267a2.603 2.603 0 0 1-.933-.723 3.115 3.115 0 0 1-.553-1.067 4.58 4.58 0 0 1-.177-1.288c0-.406.063-.804.19-1.194a3.42 3.42 0 0 1 .571-1.06c.242-.3.54-.541.895-.723.36-.186.762-.28 1.207-.28.457 0 .848.072 1.174.216.326.144.59.341.793.59.195.238.339.517.432.839.097.321.146.67.146 1.047v.419H91.17c0 .41.038.783.114 1.117.08.334.205.628.375.882.165.246.38.44.647.584.267.14.584.21.952.21.377 0 .7-.087.971-.26.275-.178.54-.496.794-.953l.444.273zm-1.403-2.386c0-.237-.02-.491-.063-.762a2.278 2.278 0 0 0-.19-.68 1.29 1.29 0 0 0-.4-.475c-.17-.123-.388-.184-.654-.184-.445 0-.815.186-1.111.558-.292.368-.45.882-.476 1.543h2.894zM102.49 12.886l-2.183.14-.096-.09v-.584l-.05-.012c-.22.245-.493.446-.82.603a2.252 2.252 0 0 1-.996.235c-.355 0-.7-.079-1.034-.235a2.653 2.653 0 0 1-.864-.673 3.354 3.354 0 0 1-.597-1.054 4.085 4.085 0 0 1-.215-1.358c0-.453.078-.882.235-1.289.156-.406.372-.761.647-1.066.258-.284.573-.51.946-.68.377-.169.76-.253 1.149-.253.292 0 .577.038.857.114.283.072.527.165.73.28V4.785c0-.178-.03-.338-.089-.482a.737.737 0 0 0-.248-.337 1.212 1.212 0 0 0-.482-.171 5.618 5.618 0 0 0-.648-.083V3.32l2.558-.146.096.095v8.442c0 .149.027.275.082.381a.781.781 0 0 0 .254.26c.081.051.197.083.349.096.153.012.292.02.419.025v.413zm-2.291-1.098V8.125a1.652 1.652 0 0 0-.451-.705 1.564 1.564 0 0 0-.432-.26 1.436 1.436 0 0 0-.577-.108c-.254 0-.49.066-.705.197-.212.131-.4.32-.565.565a2.96 2.96 0 0 0-.374.908 5.113 5.113 0 0 0-.134 1.212c0 .356.034.68.102.971.068.288.182.557.343.806.148.237.336.428.565.572.232.144.507.216.825.216.338 0 .618-.075.838-.223.224-.148.412-.31.565-.488zM105.583 13h-3.028v-.419l.298-.025c.106-.009.197-.026.273-.051a.447.447 0 0 0 .261-.197.713.713 0 0 0 .089-.374V8.068a.719.719 0 0 0-.096-.368.78.78 0 0 0-.254-.286 1.115 1.115 0 0 0-.349-.127 2.393 2.393 0 0 0-.419-.07v-.412l2.209-.14.089.089v5.103c0 .149.028.271.083.369.059.097.15.169.273.215.093.038.184.07.273.096.088.02.188.036.298.044V13zm-.8-8.804c0 .241-.08.453-.241.635a.747.747 0 0 1-.584.266.756.756 0 0 1-.565-.254.856.856 0 0 1-.235-.59c0-.233.078-.436.235-.61a.748.748 0 0 1 .565-.26c.241 0 .438.083.59.248.157.16.235.349.235.565zM112.706 13h-3.065v-.419l.317-.025a1.22 1.22 0 0 0 .292-.051.448.448 0 0 0 .26-.197.713.713 0 0 0 .089-.374V8.715c0-.444-.106-.787-.317-1.028a.97.97 0 0 0-.762-.362c-.224 0-.43.036-.616.108a2.1 2.1 0 0 0-.495.254 1.41 1.41 0 0 0-.336.317c-.081.11-.14.2-.178.267v3.6c0 .143.03.261.089.355a.57.57 0 0 0 .266.215c.089.043.184.074.286.096.106.02.214.036.324.044V13h-3.066v-.419l.298-.025c.106-.009.197-.026.273-.051a.445.445 0 0 0 .26-.197.704.704 0 0 0 .089-.374V8.068a.814.814 0 0 0-.095-.394.754.754 0 0 0-.254-.298.813.813 0 0 0-.285-.108 2.268 2.268 0 0 0-.356-.05v-.413l2.082-.14.089.089v.882h.032c.101-.101.228-.222.381-.362.152-.143.296-.26.431-.349a2.28 2.28 0 0 1 .559-.254c.216-.067.459-.101.73-.101.601 0 1.045.188 1.333.565.292.372.438.87.438 1.491v3.257a.75.75 0 0 0 .076.362.508.508 0 0 0 .26.21c.102.041.188.071.26.088.077.017.18.03.311.038V13zM118.281 12.352c.169.161.303.343.4.546.097.204.146.455.146.756a1.864 1.864 0 0 1-.793 1.536 3.303 3.303 0 0 1-1.016.463c-.394.11-.88.165-1.46.165-.948 0-1.657-.14-2.126-.419-.47-.275-.705-.679-.705-1.212 0-.432.169-.772.508-1.022.338-.25.77-.385 1.295-.406v-.09a4.506 4.506 0 0 1-.394-.139 1.615 1.615 0 0 1-.349-.203 1.103 1.103 0 0 1-.267-.31.93.93 0 0 1-.101-.452c0-.224.078-.43.235-.615.161-.19.402-.354.723-.49v-.094c-.406-.19-.721-.434-.945-.73a1.69 1.69 0 0 1-.337-1.041c0-.593.22-1.08.66-1.46.445-.381 1.012-.572 1.701-.572.191 0 .379.02.565.058.191.038.383.086.578.146h2.184v.609h-1.473v.038c.157.182.273.383.349.603.076.22.114.436.114.648 0 .55-.224 1.015-.673 1.396-.444.38-.962.571-1.555.571h-.768a.984.984 0 0 0-.304.184.447.447 0 0 0-.159.362c0 .157.044.277.133.362.089.08.197.136.324.165.123.034.264.055.425.064.165.008.334.014.508.019.186.004.44.017.762.038.326.02.556.034.692.038.194.008.389.055.584.14.198.084.378.2.539.348zm-1.714-3.713c0-.495-.101-.889-.304-1.18a.96.96 0 0 0-.845-.445.996.996 0 0 0-.514.127.943.943 0 0 0-.343.35 1.54 1.54 0 0 0-.184.507 3.5 3.5 0 0 0-.05.603c0 .47.101.853.304 1.149.208.296.474.444.8.444.364 0 .643-.146.838-.438.199-.296.298-.668.298-1.117zm1.219 5.25c0-.237-.055-.432-.165-.584-.11-.153-.277-.256-.501-.311a10.953 10.953 0 0 0-.73-.057 22.765 22.765 0 0 0-1.283-.032c-.457.089-.783.237-.977.444-.191.212-.286.482-.286.813 0 .148.032.29.095.425.064.135.174.26.33.374.149.11.347.2.597.267.25.072.554.108.914.108.622 0 1.111-.12 1.466-.362.36-.237.54-.599.54-1.085z"/>
		<path 
			class="LogoEbirdPortal-portal" fill="#50A61C"
			d="M10.816 24H2.08v-.97l1.066-.083c.465-.036.793-.09.985-.164.3-.118.52-.278.656-.478.137-.21.205-.497.205-.862V7.39c0-.32-.05-.584-.15-.793-.1-.22-.337-.401-.711-.547-.274-.11-.62-.21-1.04-.301-.41-.1-.747-.16-1.01-.178V4.6h8.735v.97c-.282.01-.62.046-1.011.11a6.46 6.46 0 0 0-1.026.218c-.346.11-.578.288-.697.534-.118.246-.178.52-.178.82v14.041c0 .3.064.57.192.807.136.227.364.41.683.546.192.073.502.155.93.247.438.082.807.127 1.107.136V24zM20.595 17.396c.374.329.66.707.861 1.135.2.429.301.953.301 1.573 0 1.248-.47 2.269-1.408 3.062-.93.793-2.137 1.19-3.623 1.19a5.503 5.503 0 0 1-2.174-.424c-.656-.283-1.126-.543-1.408-.78l-.274.889h-1.025l-.137-4.69h.944c.073.356.227.77.464 1.245.237.474.524.902.862 1.285.355.4.779.738 1.271 1.012.502.273 1.062.41 1.682.41.875 0 1.55-.196 2.023-.588.474-.401.711-.97.711-1.71 0-.382-.077-.71-.232-.983a2.093 2.093 0 0 0-.656-.739c-.301-.21-.67-.396-1.108-.56a19.282 19.282 0 0 0-1.463-.506 15.02 15.02 0 0 1-1.435-.52 5.913 5.913 0 0 1-1.34-.793 3.852 3.852 0 0 1-.984-1.175c-.256-.465-.383-1.012-.383-1.641 0-1.103.41-2.037 1.23-2.803.82-.765 1.919-1.148 3.295-1.148.529 0 1.067.068 1.613.205.556.136 1.007.3 1.354.492l.314-.711h.985l.205 4.334h-.944c-.191-.966-.606-1.75-1.244-2.352-.629-.61-1.399-.915-2.31-.915-.748 0-1.336.186-1.764.56-.428.374-.643.825-.643 1.354 0 .41.069.752.206 1.025.145.273.36.506.642.697.274.182.615.356 1.026.52.419.155.934.332 1.544.533.602.191 1.167.415 1.696.67.538.255.98.538 1.326.848zM32.93 12.256c0 .465-.114.88-.342 1.244-.228.355-.578.533-1.053.533-.51 0-.902-.132-1.175-.396-.265-.265-.397-.556-.397-.875 0-.2.014-.383.041-.547.037-.164.069-.328.096-.492-.428 0-.93.173-1.504.52-.574.345-1.062.838-1.463 1.476v7.847c0 .32.06.58.178.78.128.2.323.35.588.45.228.092.52.16.875.206.364.046.679.077.943.096V24h-7.11v-.902c.21-.019.425-.037.643-.055.228-.018.424-.055.588-.11a.962.962 0 0 0 .56-.423c.128-.21.192-.479.192-.807v-8.326c0-.283-.068-.56-.205-.834a1.608 1.608 0 0 0-.547-.656 1.766 1.766 0 0 0-.615-.233 4.841 4.841 0 0 0-.766-.11v-.888l4.485-.3.191.19v1.901h.069c.565-.738 1.194-1.299 1.886-1.681.693-.383 1.326-.575 1.9-.575.575 0 1.04.187 1.395.561.365.374.547.875.547 1.504zM45.662 23.754a15.88 15.88 0 0 1-1.135.369c-.32.1-.684.15-1.094.15-.71 0-1.28-.164-1.709-.492-.42-.337-.688-.825-.806-1.463h-.082c-.593.657-1.23 1.158-1.914 1.504-.675.347-1.49.52-2.448.52-1.011 0-1.845-.31-2.502-.93-.647-.62-.97-1.43-.97-2.433 0-.52.072-.985.218-1.395.146-.41.365-.78.657-1.107.227-.274.528-.515.902-.725a7.45 7.45 0 0 1 1.053-.52c.41-.154 1.24-.442 2.488-.86 1.258-.42 2.105-.748 2.543-.985v-1.354c0-.118-.027-.346-.082-.683a2.752 2.752 0 0 0-.315-.957 2.626 2.626 0 0 0-.779-.875c-.328-.256-.797-.383-1.408-.383-.42 0-.811.073-1.176.219-.355.136-.606.282-.752.437 0 .182.041.451.123.807.091.355.137.683.137.984 0 .319-.146.61-.438.875-.282.264-.679.396-1.189.396-.456 0-.793-.159-1.012-.478a1.989 1.989 0 0 1-.314-1.094c0-.419.146-.82.437-1.203.301-.383.688-.724 1.162-1.025.41-.256.907-.47 1.49-.643a5.713 5.713 0 0 1 1.71-.273c.765 0 1.43.054 1.996.164.574.1 1.093.323 1.558.67.465.337.816.797 1.053 1.38.246.575.37 1.318.37 2.23 0 1.303-.014 2.46-.042 3.472-.027 1.002-.04 2.1-.04 3.295 0 .355.058.638.177.847.127.21.319.388.574.534.137.082.351.127.643.136.3.01.606.014.916.014v.875zm-4.772-7.219c-.775.228-1.453.451-2.037.67a8.245 8.245 0 0 0-1.627.82c-.456.31-.816.68-1.08 1.108-.264.42-.396.92-.396 1.504 0 .756.196 1.312.587 1.668.401.355.907.533 1.518.533.647 0 1.217-.155 1.71-.465a5.087 5.087 0 0 0 1.243-1.121l.082-4.717zM57.778 20.828c-.565 1.076-1.322 1.932-2.27 2.57-.947.639-2.037.957-3.267.957-1.085 0-2.037-.19-2.857-.574a5.612 5.612 0 0 1-2.01-1.558 6.712 6.712 0 0 1-1.19-2.297 9.865 9.865 0 0 1-.382-2.776c0-.875.136-1.731.41-2.57a7.365 7.365 0 0 1 1.23-2.283 5.864 5.864 0 0 1 1.928-1.559c.775-.4 1.64-.601 2.598-.601.984 0 1.827.155 2.529.465.702.31 1.271.733 1.709 1.271.42.51.729 1.112.93 1.805.21.692.314 1.444.314 2.256v.902h-8.928c0 .884.082 1.686.246 2.406.173.72.442 1.354.807 1.9.355.53.82.948 1.394 1.258.575.301 1.258.452 2.051.452.811 0 1.509-.187 2.092-.561.593-.383 1.162-1.066 1.71-2.05l.956.587zm-3.021-5.14c0-.51-.046-1.058-.137-1.641-.082-.584-.219-1.071-.41-1.463a2.78 2.78 0 0 0-.862-1.025c-.364-.265-.834-.397-1.408-.397-.957 0-1.754.401-2.392 1.203-.63.793-.971 1.9-1.026 3.322h6.235z"/>
		<path
			class="LogoEbirdPortal-portal" fill="#50A61C"
			d="M64.453 24h-6.576v-.902c.21-.019.433-.037.67-.055.237-.027.433-.064.588-.11.255-.081.446-.223.574-.423.128-.21.191-.479.191-.807V6.09c0-.328-.072-.634-.218-.916a1.72 1.72 0 0 0-.547-.684c-.164-.11-.465-.21-.903-.3a8.21 8.21 0 0 0-1.052-.165V3.15l5.072-.314.191.205v18.498c0 .32.06.583.178.793.119.2.31.355.574.465.2.091.397.16.588.205.2.046.424.077.67.096V24z"/>
	</svg>