<svg  class="LogoEbirdPortal LogoEbirdPortal--averaves" xmlns="http://www.w3.org/2000/svg" width="109" height="32" viewBox="0 0 109 32" role="img" aria-labelledby="logo-ebird-portal-averaves-title-ebird-header">
		<title id="logo-ebird-portal-averaves-title-ebird-header">aVerAves logo</title>
		<g fill="none" fill-rule="evenodd">
			<path class="LogoEbirdPortal-e" fill="#50A61C" d="M14.736 23.736c-.459.166-.861.3-1.208.403-.347.103-.74.154-1.18.154-.761 0-1.369-.178-1.823-.535-.454-.356-.745-.876-.872-1.56h-.088c-.634.703-1.315 1.24-2.043 1.612-.728.37-1.604.556-2.63.556-1.083 0-1.975-.332-2.673-.996-.698-.664-1.047-1.533-1.047-2.607 0-.557.078-1.055.234-1.494.157-.44.39-.835.703-1.187.245-.293.567-.554.967-.784.4-.23.777-.412 1.128-.549.44-.166 1.33-.474 2.673-.923 1.343-.449 2.249-.8 2.718-1.055v-1.45a6.14 6.14 0 0 0-.08-.732 3.067 3.067 0 0 0-.345-1.026 2.917 2.917 0 0 0-.828-.944c-.356-.269-.862-.403-1.516-.403-.449 0-.867.076-1.252.227-.386.151-.657.31-.813.476 0 .195.046.483.139.864.093.381.14.733.14 1.055 0 .342-.155.654-.462.937-.308.284-.735.425-1.282.425-.488 0-.847-.173-1.077-.52a2.063 2.063 0 0 1-.344-1.164c0-.45.159-.88.476-1.29.317-.41.73-.776 1.238-1.098.44-.274.972-.505 1.597-.696a6.265 6.265 0 0 1 1.83-.286c.82 0 1.536.057 2.147.169a3.94 3.94 0 0 1 1.662.725c.498.361.877.852 1.135 1.472.26.62.389 1.419.389 2.395 0 1.397-.015 2.634-.044 3.714-.03 1.079-.044 2.258-.044 3.537 0 .381.066.684.197.908.132.225.335.415.608.572.147.088.379.136.696.146.318.01.642.015.974.015v.937zm-5.112-7.734c-.83.244-1.558.483-2.183.718a8.835 8.835 0 0 0-1.743.879 3.965 3.965 0 0 0-1.157 1.179c-.283.454-.425.993-.425 1.618 0 .811.213 1.407.637 1.788.425.38.965.57 1.62.57.692 0 1.303-.168 1.83-.504a5.328 5.328 0 0 0 1.333-1.194l.088-5.054z"/>
			<path class="LogoEbirdPortal-bird" fill="#212121" d="M53.079 11.417c0 .498-.123.94-.367 1.326-.244.385-.62.578-1.128.578-.547 0-.964-.141-1.252-.425-.288-.283-.432-.595-.432-.937 0-.215.017-.41.051-.586.034-.176.066-.352.095-.527-.459 0-.996.185-1.611.556-.615.371-1.138.899-1.567 1.582v8.409c0 .341.065.62.197.835.132.214.34.376.623.483.244.098.559.17.945.22.385.048.72.083 1.003.102V24H42.02v-.967c.225-.02.456-.039.696-.058.239-.02.447-.059.622-.118.274-.087.476-.241.608-.461.132-.22.198-.505.198-.857v-8.92c0-.304-.07-.601-.212-.894a1.778 1.778 0 0 0-.594-.704 1.999 1.999 0 0 0-.659-.256 5.847 5.847 0 0 0-.82-.11v-.952l4.805-.322.205.205v2.036h.073c.605-.79 1.28-1.392 2.021-1.802.742-.41 1.421-.615 2.036-.615.616 0 1.116.2 1.502.6.386.401.579.938.579 1.612zm-11.88 9.185c-.605 1.152-1.416 2.07-2.432 2.753-1.015.684-2.182 1.026-3.5 1.026-1.163 0-2.18-.205-3.055-.615a5.996 5.996 0 0 1-2.16-1.67 7.093 7.093 0 0 1-1.268-2.461 10.396 10.396 0 0 1-.417-2.974c0-.937.149-1.858.447-2.761a7.79 7.79 0 0 1 1.31-2.44 6.344 6.344 0 0 1 2.074-1.676c.825-.425 1.75-.638 2.775-.638 1.055 0 1.958.166 2.71.499.752.332 1.363.786 1.831 1.362.45.547.784 1.191 1.004 1.933.22.743.33 1.548.33 2.417v.967h-9.566c0 .947.09 1.807.271 2.578.18.772.466 1.45.857 2.036.38.567.879 1.014 1.494 1.34.615.328 1.348.492 2.197.492.87 0 1.619-.203 2.249-.608.63-.406 1.238-1.136 1.824-2.19l1.025.63zm-3.237-5.508c0-.547-.047-1.133-.14-1.758-.092-.625-.241-1.148-.446-1.567a2.977 2.977 0 0 0-.923-1.1c-.39-.282-.894-.424-1.509-.424-1.025 0-1.877.427-2.556 1.282-.679.854-1.047 2.043-1.106 3.567h6.68zm-5.784-10.84a4.05 4.05 0 0 0-.923.168c-.362.103-.66.227-.894.374a2.425 2.425 0 0 0-.798.79c-.2.323-.398.704-.593 1.143a437.504 437.504 0 0 0-2.945 7.259 1391.493 1391.493 0 0 0-4.043 10.276h-1.216c-1.406-3.78-2.763-7.422-4.072-10.928a1378.795 1378.795 0 0 0-2.666-7.105 2.754 2.754 0 0 0-.469-.798 3.42 3.42 0 0 0-.776-.652 3.079 3.079 0 0 0-.879-.373 5.047 5.047 0 0 0-.893-.154v-1.04h8.598v1.04c-.732.039-1.35.112-1.853.22-.503.107-.754.297-.754.57 0 .108.02.235.058.382.04.146.074.263.103.351.361.957.947 2.517 1.758 4.68l3.457 9.236c.742-1.806 1.596-3.94 2.563-6.401.967-2.461 1.616-4.15 1.948-5.068.323-.889.51-1.504.564-1.846.054-.342.081-.62.081-.835 0-.225-.1-.413-.3-.564-.2-.151-.467-.28-.799-.388a6.782 6.782 0 0 0-.981-.22 16.817 16.817 0 0 0-1.01-.117v-1.04h7.734v1.04z"/>
			<path class="LogoEbirdPortal-e" fill="#50A61C" d="M106.771 16.925c.4.351.708.757.923 1.216.215.459.323 1.02.323 1.684 0 1.338-.5 2.432-1.502 3.281-1 .85-2.297 1.275-3.889 1.275-.84 0-1.614-.152-2.322-.454-.708-.303-1.213-.581-1.516-.835l-.293.952h-1.099l-.146-5.024h1.01c.079.38.245.825.499 1.333.254.507.561.966.923 1.376.38.43.837.792 1.37 1.084.531.293 1.13.44 1.794.44.937 0 1.66-.212 2.168-.637.507-.425.761-1.033.761-1.824 0-.41-.08-.764-.241-1.062a2.34 2.34 0 0 0-.71-.784 5.593 5.593 0 0 0-1.187-.608 23.22 23.22 0 0 0-1.568-.534c-.459-.137-.969-.325-1.53-.564a6.102 6.102 0 0 1-1.443-.843 4.129 4.129 0 0 1-1.055-1.26c-.273-.497-.41-1.083-.41-1.757 0-1.182.44-2.183 1.318-3.003.88-.82 2.056-1.23 3.53-1.23.567 0 1.146.073 1.736.22.591.146 1.072.321 1.443.527l.337-.762h1.055l.22 4.643h-1.011c-.205-1.035-.647-1.877-1.326-2.526-.679-.65-1.506-.975-2.483-.975-.8 0-1.43.2-1.89.601-.458.4-.688.884-.688 1.45 0 .44.076.806.227 1.099.151.293.379.542.681.747.293.195.662.378 1.106.55.445.17.994.363 1.648.578.645.205 1.253.444 1.824.718.571.273 1.042.576 1.413.908zm-11.056 3.677c-.605 1.152-1.416 2.07-2.431 2.753-1.016.684-2.183 1.026-3.501 1.026-1.162 0-2.18-.205-3.054-.615a5.996 5.996 0 0 1-2.161-1.67 7.093 7.093 0 0 1-1.267-2.461 10.396 10.396 0 0 1-.418-2.974c0-.937.15-1.858.447-2.761a7.79 7.79 0 0 1 1.311-2.44 6.344 6.344 0 0 1 2.073-1.676c.825-.425 1.75-.638 2.776-.638 1.055 0 1.958.166 2.71.499.752.332 1.362.786 1.83 1.362.45.547.785 1.191 1.004 1.933.22.743.33 1.548.33 2.417v.967h-9.566c0 .947.09 1.807.271 2.578.181.772.467 1.45.857 2.036.381.567.88 1.014 1.495 1.34.615.328 1.347.492 2.197.492.869 0 1.618-.203 2.248-.608.63-.406 1.238-1.136 1.824-2.19l1.025.63zm-3.237-5.508c0-.547-.046-1.133-.139-1.758-.093-.625-.242-1.148-.447-1.567a2.977 2.977 0 0 0-.923-1.1c-.39-.282-.893-.424-1.508-.424-1.026 0-1.878.427-2.557 1.282-.678.854-1.047 2.043-1.106 3.567h6.68zm-8.774-4.644a3.63 3.63 0 0 0-1.253.476c-.395.24-.735.662-1.018 1.267a728.62 728.62 0 0 0-3.706 8.57c-.195.449-.403.981-.623 1.596-.22.616-.422 1.206-.608 1.773h-1.142a725.198 725.198 0 0 0-4.995-12.085A2.186 2.186 0 0 0 69.414 11a3.81 3.81 0 0 0-1.311-.477v-.966h6.68v1.025c-.293.01-.66.07-1.099.183-.44.112-.66.266-.66.462 0 .029.025.105.074.227.049.122.098.26.147.417.4.996.966 2.388 1.699 4.175a584.256 584.256 0 0 0 1.787 4.321c.351-.84.793-1.885 1.326-3.135a197.41 197.41 0 0 0 1.72-4.189c.098-.264.191-.51.28-.74.087-.23.13-.461.13-.696 0-.166-.08-.315-.24-.446a2.451 2.451 0 0 0-.58-.345 3.728 3.728 0 0 0-.659-.22 6.859 6.859 0 0 0-.527-.102v-.937h5.523v.893zM72.52 24h-8.657v-1.04c.761-.049 1.394-.147 1.896-.293.503-.146.755-.327.755-.542 0-.088-.01-.195-.03-.322a1.538 1.538 0 0 0-.087-.337l-1.729-4.658h-7.28c-.274.683-.496 1.279-.667 1.787-.17.508-.324.976-.461 1.406-.127.42-.215.762-.264 1.025a3.696 3.696 0 0 0-.073.645c0 .39.308.693.923.908.615.215 1.308.342 2.08.381V24h-7.822v-1.04a6.17 6.17 0 0 0 .952-.168 3.1 3.1 0 0 0 .937-.374c.391-.264.694-.54.909-.828.214-.288.424-.686.63-1.194a823.793 823.793 0 0 0 3.456-8.789c1.26-3.252 2.383-6.147 3.37-8.686h1.171l6.93 17.93c.146.38.312.688.497.922.186.235.445.464.777.689.224.137.517.251.879.344.36.093.664.144.908.154V24zm-8.38-8.496l-3.149-8.057-3.09 8.057h6.24z"/>
		</g>
	</svg>