<svg  class="LogoEbirdPortal LogoEbirdPortal--bcn" xmlns="http://www.w3.org/2000/svg" width="125" height="32" viewBox="0 0 125 32" role="img" aria-labelledby="logo-ebird-portal-bcn-title-ebird-header">
		<title id="logo-ebird-portal-bcn-title-ebird-header">BCN eBird logo</title>
		<g fill="none" fill-rule="evenodd">
			<path class="LogoEbirdPortal-bird" fill="#231F20" fill-rule="nonzero" d="M123.601 22.492l.198.004v1.276l-5.089.324-.331-.309v-1.039a6.036 6.036 0 0 1-1.632 1.142c-.71.35-1.491.534-2.283.537a5.42 5.42 0 0 1-2.37-.545 5.95 5.95 0 0 1-1.976-1.525 7.506 7.506 0 0 1-1.343-2.37 9.126 9.126 0 0 1-.494-3.058 8.079 8.079 0 0 1 .53-2.907 7.731 7.731 0 0 1 1.461-2.41 6.499 6.499 0 0 1 2.153-1.545 6.74 6.74 0 0 1 4.543-.324c.468.12.923.283 1.36.49V5.725a2.65 2.65 0 0 0-.183-1 1.454 1.454 0 0 0-.478-.651 2.568 2.568 0 0 0-.98-.352c-.467-.082-.94-.14-1.414-.173h-.177V2.324L121.02 2l.332.324v18.682c-.007.256.05.51.166.739.118.21.287.386.49.514.21.11.442.17.68.177.331.037.636.056.912.056zm-15.051-9.288a1.37 1.37 0 0 1-1.237.648c-.49.025-.97-.149-1.331-.482a1.422 1.422 0 0 1-.47-1.031c-.003-.2.015-.4.05-.597l.048-.26a3.366 3.366 0 0 0-1.224.505 4.346 4.346 0 0 0-1.407 1.402v7.977c-.011.243.045.485.162.699a.944.944 0 0 0 .498.395c.276.101.564.167.857.198.36.047.68.098.948.098h.178v1.288H91.03v-1.288l.841-.07a2.37 2.37 0 0 0 .55-.104.818.818 0 0 0 .497-.355c.118-.22.174-.47.162-.72v-8.509a1.497 1.497 0 0 0-.182-.727 1.628 1.628 0 0 0-.51-.572 2.473 2.473 0 0 0-.702-.257 5.566 5.566 0 0 0-.893-.142h-.178v-1.28l5.136-.324.312.312v11.35c-.007.245.05.487.166.703a.92.92 0 0 0 .494.395 3.516 3.516 0 0 0 1.197.296h.13l.79-.067c.187-.012.37-.047.55-.103a.814.814 0 0 0 .477-.355c.117-.221.173-.47.162-.72v-8.532a1.762 1.762 0 0 0-.182-.77 1.505 1.505 0 0 0-.505-.597 1.722 1.722 0 0 0-.561-.214 5.468 5.468 0 0 0-.759-.102h-.178v-1.28l4.856-.324.312.312v1.58a6.266 6.266 0 0 1 1.718-1.434c1.494-.826 2.821-.806 3.611.02.416.454.633 1.056.605 1.67a2.52 2.52 0 0 1-.395 1.368zM94.395 6.559a1.825 1.825 0 0 1-1.38-.608 2.046 2.046 0 0 1-.576-1.442c-.006-.547.2-1.075.573-1.474.345-.405.85-.639 1.383-.64a1.916 1.916 0 0 1 1.446.593c.362.369.564.865.564 1.382a2.232 2.232 0 0 1-.572 1.53 1.849 1.849 0 0 1-1.438.659zm-5.555 7.893a5.06 5.06 0 0 1 1.497 1.6c.417.732.625 1.564.6 2.406a4.86 4.86 0 0 1-.627 2.505 5.393 5.393 0 0 1-1.644 1.734 7.403 7.403 0 0 1-2.172 1.007 9.134 9.134 0 0 1-2.477.328h-9.589v-1.359h.174c.222-.02.545-.059.968-.118.298-.03.592-.098.873-.202a1.09 1.09 0 0 0 .526-.442 1.58 1.58 0 0 0 .158-.755V6.86a1.88 1.88 0 0 0-.146-.762c-.116-.226-.31-.401-.546-.494a3.828 3.828 0 0 0-.896-.308 6.755 6.755 0 0 0-.842-.135h-.178V3.81h9.34a9.876 9.876 0 0 1 2.077.213 6.262 6.262 0 0 1 1.913.766 4.231 4.231 0 0 1 1.418 1.39 3.95 3.95 0 0 1 .56 2.146 4.618 4.618 0 0 1-.394 1.947 4.31 4.31 0 0 1-1.114 1.474c-.459.394-.971.721-1.521.972a8.525 8.525 0 0 1-1.229.454c.446.087.886.2 1.32.336a6.83 6.83 0 0 1 1.951.944zm29.499-1.311a3.516 3.516 0 0 0-.328-.684 3.319 3.319 0 0 0-.592-.727 3.405 3.405 0 0 0-.897-.545 3.066 3.066 0 0 0-1.185-.217 2.718 2.718 0 0 0-1.442.395 3.95 3.95 0 0 0-1.186 1.185 6.258 6.258 0 0 0-.79 1.932 10.959 10.959 0 0 0-.296 2.635 9.24 9.24 0 0 0 .217 2.09c.142.611.388 1.194.727 1.722.3.48.705.886 1.185 1.185a3.16 3.16 0 0 0 1.691.431 3.093 3.093 0 0 0 1.746-.443c.425-.278.811-.61 1.15-.987V13.14zm-32.458-2.9a6.1 6.1 0 0 0 .198-1.64 3.394 3.394 0 0 0-.842-2.441c-.557-.58-1.458-.873-2.682-.873-.295 0-.668.006-1.118.02l-.952.027v7.257h1.58a5.63 5.63 0 0 0 1.896-.284 2.888 2.888 0 0 0 1.24-.826c.314-.36.546-.782.68-1.24zm-5.396 3.919v6.803c-.032.48.21.939.624 1.185.58.302 1.232.44 1.884.395 1.328 0 2.35-.364 3.05-1.134.7-.77 1.055-1.932 1.055-3.453a3.67 3.67 0 0 0-1.122-2.765c-.747-.715-1.841-1.079-3.247-1.079-.596 0-1.097.007-1.506.02l-.738.028z"/>
			<path class="LogoEbirdPortal-e" fill="#50A61C" fill-rule="nonzero" d="M75.096 20.54l-1.304-.79-.098.174c-.39.802-.966 1.499-1.68 2.034a3.702 3.702 0 0 1-2.042.553 4.231 4.231 0 0 1-2.007-.446 3.717 3.717 0 0 1-1.359-1.22 5.752 5.752 0 0 1-.79-1.89 10.505 10.505 0 0 1-.26-2.24h9.141v-1.113a8.296 8.296 0 0 0-.324-2.37 5.404 5.404 0 0 0-.991-1.913 4.816 4.816 0 0 0-1.822-1.355 6.601 6.601 0 0 0-2.666-.493 5.926 5.926 0 0 0-2.738.628 6.274 6.274 0 0 0-2.038 1.659c-.566.708-1 1.51-1.284 2.37a8.6 8.6 0 0 0-.439 2.718c-.009.98.124 1.955.395 2.896a6.996 6.996 0 0 0 1.256 2.406 5.95 5.95 0 0 0 2.134 1.647c.943.42 1.966.626 2.998.605a6.064 6.064 0 0 0 3.453-1.012 7.28 7.28 0 0 0 2.37-2.702l.095-.146zm-6.226-9.62c.47-.02.935.108 1.327.368.35.255.633.593.822.983.204.457.337.942.395 1.438.074.482.117.967.13 1.454h-5.988a5.385 5.385 0 0 1 1.003-3.085 2.797 2.797 0 0 1 2.311-1.158z"/>
			<path class="LogoEbirdPortal-portal" fill="#50A61C" d="M16.094 14.963a4.745 4.745 0 0 1 1.408 1.504c.374.62.56 1.372.56 2.256 0 .902-.195 1.686-.587 2.351a5.075 5.075 0 0 1-1.532 1.64c-.61.42-1.3.74-2.07.958a8.69 8.69 0 0 1-2.387.328H2.3v-.97c.219-.019.538-.058.957-.117.42-.06.72-.13.902-.212.283-.127.483-.298.602-.513.118-.214.178-.49.178-.827V7.416c0-.31-.053-.583-.158-.82-.105-.237-.312-.429-.622-.575a3.869 3.869 0 0 0-.916-.314 6.656 6.656 0 0 0-.847-.137V4.6h8.955c.692 0 1.355.068 1.989.205a5.897 5.897 0 0 1 1.811.724c.538.32.98.752 1.327 1.3.346.546.52 1.211.52 1.995 0 .684-.124 1.292-.37 1.825a3.994 3.994 0 0 1-1.04 1.374c-.418.365-.9.673-1.441.923a8.454 8.454 0 0 1-1.757.581v.123c.556.064 1.178.203 1.866.417a6.45 6.45 0 0 1 1.839.896zm-3.295-2.926a3.37 3.37 0 0 0 .704-1.285c.132-.465.198-1.016.198-1.654 0-1.067-.291-1.903-.875-2.51-.583-.605-1.504-.908-2.762-.908-.291 0-.658.007-1.1.02l-1.114.034v7.452h1.736c.747 0 1.388-.096 1.92-.288.534-.191.965-.478 1.293-.86zm1.887 6.193c0-1.148-.386-2.091-1.156-2.83-.77-.738-1.87-1.107-3.301-1.107-.584 0-1.076.007-1.477.02a87.04 87.04 0 0 0-.902.035v6.836c0 .574.232 1.007.697 1.298.465.292 1.112.438 1.941.438 1.358 0 2.397-.397 3.117-1.19.72-.793 1.08-1.96 1.08-3.5zm13.305 6.221a8.355 8.355 0 0 1-3.329-.683 8.54 8.54 0 0 1-2.823-1.97c-.811-.856-1.458-1.902-1.941-3.137-.483-1.235-.725-2.627-.725-4.177 0-1.55.237-2.955.711-4.217.474-1.263 1.13-2.35 1.969-3.261.83-.902 1.809-1.6 2.94-2.092a8.975 8.975 0 0 1 3.622-.738c.957 0 1.823.118 2.598.355a9.66 9.66 0 0 1 2.215.998l.56-.93h1.094l.123 6.919h-1.121a16.31 16.31 0 0 0-.656-2.195c-.292-.788-.634-1.456-1.026-2.003a4.971 4.971 0 0 0-1.558-1.456c-.602-.35-1.29-.526-2.065-.526-.884 0-1.706.196-2.467.588-.762.392-1.42.97-1.976 1.736-.529.738-.943 1.677-1.244 2.817-.301 1.139-.451 2.41-.451 3.814 0 1.24.157 2.377.471 3.411.315 1.035.764 1.944 1.347 2.728a6.487 6.487 0 0 0 2.071 1.818c.798.438 1.689.656 2.673.656.738 0 1.417-.116 2.037-.348a5.467 5.467 0 0 0 1.614-.923 7.19 7.19 0 0 0 1.203-1.367c.346-.51.629-1.067.847-1.668l1.026.492c-.784 1.923-1.823 3.297-3.117 4.122-1.295.825-2.835 1.237-4.622 1.237zm28.14-18.88c-.255.008-.647.081-1.176.218-.528.137-.906.278-1.134.424-.328.228-.55.665-.663 1.312-.114.648-.171 1.468-.171 2.461v14.205h-1.19L40.04 8.318v10.008c0 1.121.071 1.983.212 2.584.142.602.358 1.03.65 1.285.21.2.642.388 1.299.56.656.174 1.089.265 1.298.274V24h-7.957v-.97c.247-.019.661-.108 1.245-.267.583-.16.947-.303 1.093-.431.32-.255.538-.645.657-1.169.118-.524.177-1.42.177-2.686V8.92c0-.42-.073-.839-.218-1.258-.146-.42-.342-.743-.588-.97-.328-.301-.773-.559-1.333-.773-.56-.214-1.014-.33-1.36-.349V4.6h5.536l10.91 14.793v-9.229c0-1.13-.072-1.998-.218-2.604-.146-.607-.356-1.01-.63-1.21-.254-.174-.671-.342-1.25-.506-.579-.164-1.019-.255-1.32-.274V4.6h7.89v.97z"/>
		</g>
	</svg>