<svg  class="LogoEbirdPortal LogoEbirdPortal--camerica" xmlns="http://www.w3.org/2000/svg" width="238" height="32" viewBox="0 0 238 32" role="img" aria-labelledby="logo-ebird-camerica-title" >
		<title id="logo-ebird-camerica-title">eBird Centroamérica logo</title>
		<g fill="none" fill-rule="evenodd">
			<path class="LogoEbirdPorta-e" fill="#50A61C" fill-rule="nonzero" d="M14.096 20.54l-1.304-.79-.098.174c-.39.802-.966 1.499-1.68 2.034a3.702 3.702 0 0 1-2.042.553 4.231 4.231 0 0 1-2.007-.446 3.717 3.717 0 0 1-1.359-1.22 5.752 5.752 0 0 1-.79-1.89 10.505 10.505 0 0 1-.26-2.24h9.141v-1.113a8.296 8.296 0 0 0-.324-2.37 5.404 5.404 0 0 0-.991-1.913 4.816 4.816 0 0 0-1.822-1.355 6.601 6.601 0 0 0-2.666-.493 5.926 5.926 0 0 0-2.738.628 6.274 6.274 0 0 0-2.038 1.659c-.566.708-1 1.51-1.284 2.37a8.6 8.6 0 0 0-.439 2.718c-.009.98.124 1.955.395 2.896a6.996 6.996 0 0 0 1.256 2.406 5.95 5.95 0 0 0 2.134 1.647c.943.42 1.966.626 2.998.605a6.064 6.064 0 0 0 3.453-1.012 7.28 7.28 0 0 0 2.37-2.702l.095-.146zM7.87 10.92c.47-.02.935.108 1.327.368.35.255.633.593.822.983.204.457.337.942.395 1.438.074.482.117.967.13 1.454H4.557a5.385 5.385 0 0 1 1.003-3.085A2.797 2.797 0 0 1 7.87 10.92z"/>
			<path class="LogoEbirdPorta-bird" fill="#231F20" fill-rule="nonzero" d="M62.601 22.492l.198.004v1.276l-5.089.324-.331-.309v-1.039a6.036 6.036 0 0 1-1.632 1.142c-.71.35-1.491.534-2.283.537a5.42 5.42 0 0 1-2.37-.545 5.95 5.95 0 0 1-1.976-1.525 7.506 7.506 0 0 1-1.343-2.37 9.126 9.126 0 0 1-.494-3.058 8.079 8.079 0 0 1 .53-2.907 7.731 7.731 0 0 1 1.461-2.41 6.499 6.499 0 0 1 2.153-1.545 6.74 6.74 0 0 1 4.543-.324c.468.12.923.283 1.36.49V5.725a2.65 2.65 0 0 0-.183-1 1.454 1.454 0 0 0-.478-.651 2.568 2.568 0 0 0-.98-.352c-.467-.082-.94-.14-1.414-.173h-.177V2.324L60.02 2l.332.324v18.682c-.007.256.05.51.166.739.118.21.287.386.49.514.21.11.442.17.68.177.331.037.636.056.912.056zM47.55 13.204a1.37 1.37 0 0 1-1.237.648c-.49.025-.97-.149-1.331-.482a1.422 1.422 0 0 1-.47-1.031c-.003-.2.015-.4.05-.597l.048-.26a3.366 3.366 0 0 0-1.224.505 4.346 4.346 0 0 0-1.407 1.402v7.977c-.011.243.045.485.162.699a.944.944 0 0 0 .498.395c.276.101.564.167.857.198.36.047.68.098.948.098h.178v1.288H30.03v-1.288l.841-.07a2.37 2.37 0 0 0 .55-.104.818.818 0 0 0 .497-.355c.118-.22.174-.47.162-.72v-8.509a1.497 1.497 0 0 0-.182-.727 1.628 1.628 0 0 0-.51-.572 2.473 2.473 0 0 0-.702-.257 5.566 5.566 0 0 0-.893-.142h-.178v-1.28l5.136-.324.312.312v11.35c-.007.245.05.487.166.703a.92.92 0 0 0 .494.395 3.516 3.516 0 0 0 1.197.296h.13l.79-.067c.187-.012.37-.047.55-.103a.814.814 0 0 0 .477-.355c.117-.221.173-.47.162-.72v-8.532a1.762 1.762 0 0 0-.182-.77 1.505 1.505 0 0 0-.505-.597 1.722 1.722 0 0 0-.561-.214 5.468 5.468 0 0 0-.759-.102h-.178v-1.28l4.856-.324.312.312v1.58a6.266 6.266 0 0 1 1.718-1.434c1.494-.826 2.821-.806 3.611.02.416.454.633 1.056.605 1.67a2.52 2.52 0 0 1-.395 1.368zM33.395 6.559a1.825 1.825 0 0 1-1.38-.608 2.046 2.046 0 0 1-.576-1.442c-.006-.547.2-1.075.573-1.474.345-.405.85-.639 1.383-.64a1.916 1.916 0 0 1 1.446.593c.362.369.564.865.564 1.382a2.232 2.232 0 0 1-.572 1.53 1.849 1.849 0 0 1-1.438.659zm-5.555 7.893a5.06 5.06 0 0 1 1.497 1.6c.417.732.625 1.564.6 2.406a4.86 4.86 0 0 1-.627 2.505 5.393 5.393 0 0 1-1.644 1.734 7.403 7.403 0 0 1-2.172 1.007 9.134 9.134 0 0 1-2.477.328h-9.589v-1.359h.174c.222-.02.545-.059.968-.118.298-.03.592-.098.873-.202a1.09 1.09 0 0 0 .526-.442 1.58 1.58 0 0 0 .158-.755V6.86a1.88 1.88 0 0 0-.146-.762c-.116-.226-.31-.401-.546-.494a3.828 3.828 0 0 0-.896-.308 6.755 6.755 0 0 0-.842-.135h-.178V3.81h9.34a9.876 9.876 0 0 1 2.077.213 6.262 6.262 0 0 1 1.913.766 4.231 4.231 0 0 1 1.418 1.39 3.95 3.95 0 0 1 .56 2.146 4.618 4.618 0 0 1-.394 1.947 4.31 4.31 0 0 1-1.114 1.474c-.459.394-.971.721-1.521.972a8.525 8.525 0 0 1-1.229.454c.446.087.886.2 1.32.336a6.83 6.83 0 0 1 1.951.944zm29.499-1.311a3.516 3.516 0 0 0-.328-.684 3.318 3.318 0 0 0-.592-.727 3.405 3.405 0 0 0-.897-.545 3.066 3.066 0 0 0-1.185-.217 2.718 2.718 0 0 0-1.442.395 3.95 3.95 0 0 0-1.186 1.185 6.258 6.258 0 0 0-.79 1.932 10.959 10.959 0 0 0-.296 2.635 9.24 9.24 0 0 0 .217 2.09c.142.611.388 1.194.727 1.722.3.48.705.886 1.185 1.185a3.16 3.16 0 0 0 1.691.431 3.093 3.093 0 0 0 1.746-.443c.425-.278.811-.61 1.15-.987V13.14zm-32.458-2.9a6.1 6.1 0 0 0 .198-1.64 3.394 3.394 0 0 0-.842-2.441c-.557-.58-1.458-.873-2.682-.873-.295 0-.668.006-1.118.02l-.952.027v7.257h1.58a5.63 5.63 0 0 0 1.896-.284 2.888 2.888 0 0 0 1.24-.826c.314-.36.546-.782.68-1.24zm-5.396 3.919v6.803c-.032.48.21.939.624 1.185.58.302 1.232.44 1.884.395 1.328 0 2.35-.364 3.05-1.134.7-.77 1.055-1.932 1.055-3.453a3.67 3.67 0 0 0-1.122-2.765c-.747-.715-1.841-1.079-3.247-1.079-.596 0-1.097.007-1.506.02l-.738.028z"/>
			<path class="LogoEbirdPorta-portal" fill="#50A61C" d="M78.885 24.451a8.355 8.355 0 0 1-3.33-.683 8.54 8.54 0 0 1-2.823-1.97c-.81-.856-1.458-1.902-1.941-3.137-.483-1.235-.725-2.627-.725-4.177 0-1.55.237-2.955.711-4.217.474-1.263 1.13-2.35 1.97-3.261.829-.902 1.808-1.6 2.939-2.092a8.975 8.975 0 0 1 3.623-.738c.957 0 1.823.118 2.597.355a9.66 9.66 0 0 1 2.215.998l.56-.93h1.094l.123 6.919h-1.12a16.31 16.31 0 0 0-.657-2.195c-.292-.788-.633-1.456-1.025-2.003a4.971 4.971 0 0 0-1.559-1.456c-.601-.35-1.29-.526-2.064-.526-.884 0-1.707.196-2.468.588-.761.392-1.42.97-1.976 1.736-.528.738-.943 1.677-1.244 2.817-.3 1.139-.451 2.41-.451 3.814 0 1.24.157 2.377.472 3.411.314 1.035.763 1.944 1.346 2.728a6.487 6.487 0 0 0 2.072 1.818c.797.438 1.688.656 2.672.656.739 0 1.418-.116 2.038-.348a5.467 5.467 0 0 0 1.613-.923 7.19 7.19 0 0 0 1.203-1.367c.346-.51.629-1.067.848-1.668l1.025.492c-.784 1.923-1.823 3.297-3.117 4.122-1.294.825-2.835 1.237-4.621 1.237zm19.854-3.623c-.565 1.076-1.321 1.932-2.27 2.57-.947.638-2.036.957-3.267.957-1.084 0-2.034-.19-2.85-.574a5.597 5.597 0 0 1-2.017-1.558 6.62 6.62 0 0 1-1.182-2.297c-.26-.875-.39-1.8-.39-2.776 0-.875.139-1.734.417-2.577a7.27 7.27 0 0 1 1.224-2.276 5.921 5.921 0 0 1 1.934-1.566c.77-.396 1.634-.594 2.59-.594.985 0 1.828.155 2.53.465.702.31 1.272.733 1.71 1.271.418.51.73 1.112.936 1.805.205.692.307 1.444.307 2.256v.902h-8.927c0 .884.084 1.686.253 2.406a5.76 5.76 0 0 0 .8 1.9c.355.53.82.946 1.394 1.252.574.305 1.258.458 2.05.458.812 0 1.511-.19 2.1-.568.587-.378 1.155-1.06 1.701-2.044l.957.588zm-3.021-5.14c0-.51-.043-1.058-.13-1.641-.087-.583-.225-1.071-.417-1.463a2.779 2.779 0 0 0-.861-1.025c-.365-.265-.834-.397-1.408-.397-.957 0-1.753.399-2.386 1.196-.634.798-.978 1.908-1.032 3.33h6.234zM113.987 24h-6.604v-.902c.21-.019.44-.037.69-.055a2.6 2.6 0 0 0 .623-.11.983.983 0 0 0 .567-.43c.123-.205.185-.472.185-.8v-6.932c0-.957-.226-1.695-.677-2.214-.451-.52-1-.78-1.648-.78a3.75 3.75 0 0 0-1.326.226c-.4.15-.756.335-1.066.554-.3.21-.54.435-.718.676a6.11 6.11 0 0 0-.39.581v7.752c0 .31.064.566.192.766.127.2.319.355.574.465.191.091.399.16.622.205.223.046.454.077.69.096V24h-6.603v-.902c.21-.019.426-.037.65-.055.223-.018.416-.055.58-.11a.983.983 0 0 0 .568-.43c.123-.205.184-.472.184-.8v-8.326c0-.31-.066-.595-.198-.855a1.696 1.696 0 0 0-.553-.635 1.865 1.865 0 0 0-.616-.24 5.457 5.457 0 0 0-.765-.102v-.889l4.484-.3.191.19v1.901h.069c.219-.218.492-.48.82-.786.328-.305.638-.554.93-.745a4.896 4.896 0 0 1 1.203-.547 5.244 5.244 0 0 1 1.572-.219c1.294 0 2.254.404 2.878 1.21.624.807.937 1.88.937 3.22v7.014c0 .319.054.576.164.772.11.196.296.349.56.458.219.091.408.155.568.192.16.036.38.063.663.082V24zm8.78-.588a21.19 21.19 0 0 1-1.681.622c-.53.169-1.176.253-1.942.253-1.13 0-1.925-.285-2.386-.854-.46-.57-.69-1.374-.69-2.413v-9.133h-2.434v-1.313h2.489V6.377h2.488v4.197h3.87v1.313h-3.843v7.533c0 .565.02 1.037.062 1.415.04.378.139.709.294.991.146.264.364.465.656.602.292.136.684.205 1.176.205.228 0 .563-.02 1.005-.062.442-.04.754-.093.936-.157v.998zm10.462-11.156c0 .465-.114.877-.342 1.237-.227.36-.578.54-1.052.54-.51 0-.9-.132-1.17-.396-.268-.265-.403-.556-.403-.875 0-.2.016-.383.048-.547.032-.164.062-.328.09-.492-.43 0-.93.173-1.505.52-.574.346-1.062.838-1.463 1.476v7.847c0 .32.062.58.185.78.123.2.317.35.581.45.228.092.522.16.882.206.36.046.672.077.936.096V24h-7.109v-.902c.21-.019.426-.037.65-.055.223-.018.416-.055.58-.11a.983.983 0 0 0 .568-.43c.123-.205.184-.472.184-.8v-8.326c0-.283-.066-.56-.198-.834a1.66 1.66 0 0 0-.553-.656 1.865 1.865 0 0 0-.616-.24 5.457 5.457 0 0 0-.765-.102v-.889l4.484-.3.191.19v1.901h.069c.565-.738 1.194-1.299 1.886-1.681.693-.383 1.327-.575 1.9-.575.575 0 1.042.187 1.402.561.36.374.54.875.54 1.504zm13.087 4.867c0 .948-.15 1.88-.45 2.796-.302.916-.73 1.693-1.286 2.331a5.982 5.982 0 0 1-2.187 1.627c-.83.355-1.76.533-2.79.533a6.287 6.287 0 0 1-2.447-.485 6.165 6.165 0 0 1-2.064-1.415c-.593-.61-1.064-1.356-1.415-2.236-.351-.88-.527-1.866-.527-2.96 0-2.105.613-3.828 1.84-5.168 1.225-1.34 2.832-2.01 4.819-2.01 1.886 0 3.443.636 4.669 1.908 1.225 1.271 1.838 2.964 1.838 5.079zm-2.83.027c0-.683-.068-1.406-.205-2.167-.136-.76-.342-1.406-.615-1.934a3.78 3.78 0 0 0-1.148-1.36c-.474-.342-1.053-.513-1.737-.513-.702 0-1.3.173-1.798.52-.496.346-.9.82-1.21 1.421a6.291 6.291 0 0 0-.615 1.9 13.004 13.004 0 0 0 .034 4.491c.142.744.367 1.407.677 1.99.31.583.7 1.041 1.17 1.374.468.333 1.05.5 1.742.5 1.14 0 2.042-.552 2.707-1.655.666-1.103.998-2.625.998-4.567zm16.355 6.604c-.428.155-.804.28-1.128.376a3.88 3.88 0 0 1-1.1.143c-.711 0-1.279-.166-1.703-.499-.423-.332-.695-.818-.813-1.456h-.082c-.593.657-1.228 1.158-1.907 1.504-.68.347-1.497.52-2.454.52-1.012 0-1.844-.31-2.496-.93-.651-.62-.977-1.43-.977-2.433 0-.52.073-.985.219-1.395.145-.41.364-.78.656-1.107a3.28 3.28 0 0 1 .902-.732 7.885 7.885 0 0 1 1.053-.513 86.17 86.17 0 0 1 2.495-.86c1.253-.42 2.099-.748 2.536-.985v-1.354a5.73 5.73 0 0 0-.075-.683 2.863 2.863 0 0 0-.321-.957 2.723 2.723 0 0 0-.773-.882c-.332-.25-.804-.376-1.415-.376-.42 0-.809.07-1.169.212-.36.141-.613.29-.759.444 0 .182.044.451.13.807.087.355.13.683.13.984 0 .319-.143.61-.43.875-.288.264-.686.397-1.197.397-.455 0-.79-.162-1.005-.486a1.926 1.926 0 0 1-.32-1.087c0-.419.147-.82.443-1.203a4.462 4.462 0 0 1 1.156-1.025c.41-.255.907-.472 1.49-.65a5.847 5.847 0 0 1 1.709-.266c.766 0 1.433.052 2.003.157.57.105 1.087.33 1.552.677.464.337.818.795 1.06 1.374.24.579.362 1.324.362 2.235 0 1.303-.014 2.459-.042 3.466a122.31 122.31 0 0 0-.04 3.302c0 .355.061.638.184.847.123.21.312.388.567.534.137.082.354.127.65.136.296.01.6.014.909.014v.875zm-4.771-7.219a29.86 29.86 0 0 0-2.038.67 8.246 8.246 0 0 0-1.627.82 3.7 3.7 0 0 0-1.08 1.101c-.264.424-.396.927-.396 1.51 0 .757.198 1.313.595 1.669.396.355.9.533 1.51.533.648 0 1.217-.157 1.71-.472a4.973 4.973 0 0 0 1.244-1.114l.082-4.717zM183.073 24h-6.577v-.902l.636-.055c.214-.018.404-.055.568-.11a.983.983 0 0 0 .567-.43c.123-.205.185-.472.185-.8v-6.959c0-.948-.217-1.68-.65-2.194-.433-.515-.973-.773-1.62-.773-.447 0-.866.069-1.258.205a3.966 3.966 0 0 0-1.08.575c-.264.2-.485.417-.663.65a6.103 6.103 0 0 0-.403.58v7.78c0 .318.054.58.164.786.11.205.296.362.56.471.21.082.4.144.568.185.168.04.39.07.663.089V24h-6.44v-.902l.609-.055c.196-.018.376-.055.54-.11a.983.983 0 0 0 .567-.43c.123-.205.185-.472.185-.8v-6.959c0-.948-.217-1.68-.65-2.194-.433-.515-.973-.773-1.62-.773-.446 0-.866.071-1.258.212a4.115 4.115 0 0 0-1.08.581c-.264.2-.487.426-.67.677l-.41.567v7.725c0 .31.064.57.192.78.127.209.319.368.574.478.191.091.387.16.588.205.2.046.424.077.67.096V24h-6.55v-.902c.21-.019.427-.037.65-.055.224-.018.417-.055.581-.11a.983.983 0 0 0 .568-.43c.123-.205.184-.472.184-.8v-8.38c0-.292-.066-.554-.198-.787a1.808 1.808 0 0 0-.554-.595 2.33 2.33 0 0 0-.642-.266 4.115 4.115 0 0 0-.793-.13v-.889l4.511-.3.192.19v1.929h.096c.227-.228.505-.497.834-.807.328-.31.633-.56.916-.752.319-.219.717-.401 1.196-.547a5.3 5.3 0 0 1 1.552-.219c.875 0 1.627.235 2.256.704.628.47 1.08 1.037 1.353 1.703.328-.32.618-.6.868-.841.25-.242.581-.5.991-.773a4.536 4.536 0 0 1 1.224-.574c.47-.146.991-.219 1.565-.219 1.14 0 2.042.374 2.707 1.121.666.748.999 1.896.999 3.446v6.85c0 .318.054.58.164.786.109.205.296.362.56.471.21.082.417.144.622.185.205.04.435.07.69.089V24zm12.348-3.172c-.565 1.076-1.321 1.932-2.269 2.57-.948.638-2.037.957-3.268.957-1.084 0-2.034-.19-2.85-.574a5.597 5.597 0 0 1-2.017-1.558 6.62 6.62 0 0 1-1.182-2.297c-.26-.875-.39-1.8-.39-2.776 0-.875.139-1.734.417-2.577a7.27 7.27 0 0 1 1.224-2.276 5.921 5.921 0 0 1 1.934-1.566c.77-.396 1.634-.594 2.59-.594.985 0 1.828.155 2.53.465.702.31 1.272.733 1.71 1.271.418.51.73 1.112.936 1.805.205.692.307 1.444.307 2.256v.902h-8.927c0 .884.084 1.686.253 2.406a5.76 5.76 0 0 0 .8 1.9c.355.53.82.946 1.394 1.252.574.305 1.258.458 2.05.458.812 0 1.511-.19 2.1-.568.587-.378 1.155-1.06 1.701-2.044l.957.588zm-3.021-5.14c0-.51-.043-1.058-.13-1.641-.086-.583-.225-1.071-.417-1.463a2.779 2.779 0 0 0-.861-1.025c-.365-.265-.834-.397-1.408-.397-.957 0-1.753.399-2.386 1.196-.634.798-.978 1.908-1.032 3.33h6.234zm.492-11.649c0 .346-.08.629-.24.848a3.77 3.77 0 0 1-.703.697c-.456.365-1.05.83-1.784 1.395-.734.565-1.525 1.18-2.372 1.845l-.52-.437c.82-1.213 1.392-2.067 1.716-2.564.323-.497.672-1.046 1.046-1.647.282-.465.556-.782.82-.95.264-.169.57-.253.916-.253.328 0 .597.111.807.335.21.223.314.467.314.731zm13.21 8.217c0 .465-.114.877-.341 1.237-.228.36-.58.54-1.053.54-.51 0-.9-.132-1.17-.396-.268-.265-.402-.556-.402-.875 0-.2.015-.383.047-.547.032-.164.062-.328.09-.492-.43 0-.93.173-1.505.52-.574.346-1.061.838-1.463 1.476v7.847c0 .32.062.58.185.78.123.2.317.35.581.45.228.092.522.16.882.206.36.046.672.077.936.096V24h-7.109v-.902c.21-.019.426-.037.65-.055.223-.018.416-.055.58-.11a.983.983 0 0 0 .568-.43c.123-.205.184-.472.184-.8v-8.326c0-.283-.066-.56-.198-.834a1.66 1.66 0 0 0-.553-.656 1.865 1.865 0 0 0-.616-.24 5.457 5.457 0 0 0-.765-.102v-.889l4.484-.3.191.19v1.901h.069c.565-.738 1.194-1.299 1.887-1.681.692-.383 1.326-.575 1.9-.575.574 0 1.041.187 1.401.561.36.374.54.875.54 1.504zM212.6 24h-6.522v-.902c.21-.019.426-.037.65-.055.223-.018.417-.055.58-.11a.983.983 0 0 0 .568-.43c.123-.205.185-.472.185-.8v-8.326c0-.292-.067-.558-.199-.8a1.764 1.764 0 0 0-.553-.608c-.174-.11-.424-.203-.752-.28a5.57 5.57 0 0 0-.903-.144v-.889l4.758-.3.192.19V21.54c0 .32.061.583.184.793.123.21.317.365.581.465.2.082.397.148.588.198.191.05.406.084.643.103V24zm-1.723-18.963c0 .52-.17.973-.513 1.36a1.62 1.62 0 0 1-1.264.582c-.465 0-.869-.185-1.21-.554-.342-.37-.513-.79-.513-1.265 0-.501.17-.939.513-1.312.341-.374.745-.56 1.21-.56.52 0 .945.175 1.278.525.333.351.499.76.499 1.224zm8.411 19.318c-1.95 0-3.477-.647-4.58-1.94-1.103-1.295-1.654-3.032-1.654-5.21 0-.948.148-1.834.444-2.66a7.337 7.337 0 0 1 1.292-2.248 6.034 6.034 0 0 1 2.024-1.566 5.958 5.958 0 0 1 2.652-.594c1.322 0 2.397.316 3.227.95.829.633 1.244 1.497 1.244 2.59 0 .456-.11.86-.328 1.21-.22.352-.58.527-1.08.527-.538 0-.955-.137-1.251-.41-.297-.274-.445-.579-.445-.916 0-.41.055-.832.164-1.265.11-.433.173-.75.192-.95a1.21 1.21 0 0 0-.732-.567 3.672 3.672 0 0 0-1.046-.144 2.9 2.9 0 0 0-1.25.28c-.397.187-.782.531-1.156 1.033-.337.455-.61 1.07-.82 1.845-.21.775-.315 1.7-.315 2.776 0 1.695.376 3.078 1.128 4.15.752 1.07 1.739 1.606 2.96 1.606.884 0 1.625-.215 2.222-.643.597-.428 1.15-1.071 1.661-1.928l.875.574c-.602 1.076-1.395 1.928-2.379 2.557s-2 .943-3.049.943zm18.05-.601c-.428.155-.804.28-1.128.376a3.88 3.88 0 0 1-1.1.143c-.711 0-1.279-.166-1.702-.499-.424-.332-.695-.818-.814-1.456h-.082c-.592.657-1.228 1.158-1.907 1.504-.68.347-1.497.52-2.454.52-1.012 0-1.844-.31-2.495-.93-.652-.62-.978-1.43-.978-2.433 0-.52.073-.985.219-1.395.146-.41.364-.78.656-1.107a3.28 3.28 0 0 1 .902-.732 7.885 7.885 0 0 1 1.053-.513c.41-.155 1.242-.442 2.495-.86 1.254-.42 2.099-.748 2.536-.985v-1.354a5.73 5.73 0 0 0-.075-.683 2.863 2.863 0 0 0-.321-.957 2.723 2.723 0 0 0-.772-.882c-.333-.25-.805-.376-1.416-.376-.419 0-.808.07-1.168.212-.36.141-.613.29-.76.444 0 .182.044.451.13.807.087.355.13.683.13.984 0 .319-.143.61-.43.875-.287.264-.686.397-1.196.397-.456 0-.791-.162-1.005-.486a1.926 1.926 0 0 1-.322-1.087c0-.419.148-.82.445-1.203a4.462 4.462 0 0 1 1.155-1.025c.41-.255.907-.472 1.49-.65a5.847 5.847 0 0 1 1.71-.266c.765 0 1.432.052 2.002.157.57.105 1.087.33 1.552.677.465.337.818.795 1.06 1.374.241.579.362 1.324.362 2.235 0 1.303-.014 2.459-.041 3.466a122.315 122.315 0 0 0-.041 3.302c0 .355.061.638.184.847.123.21.312.388.568.534.136.082.353.127.65.136.295.01.598.014.908.014v.875zm-4.771-7.219a29.86 29.86 0 0 0-2.037.67 8.246 8.246 0 0 0-1.627.82 3.7 3.7 0 0 0-1.08 1.101c-.265.424-.397.927-.397 1.51 0 .757.198 1.313.595 1.669.396.355.9.533 1.51.533.648 0 1.217-.157 1.71-.472a4.973 4.973 0 0 0 1.244-1.114l.082-4.717z"/>
		</g>
	</svg>