<svg class="" width="102" height="32" viewBox="0 0 102 32" xmlns="http://www.w3.org/2000/svg" role="img" aria-labelledby="logo-gbbc-title" style="width: 140px; height: 40px;">
		<title id="logo-gbbc-title">The Great Backyard Bird Count</title>
		<g fill="#4999A0">
			<path fill-rule="evenodd" clip-rule="evenodd" d="M10.839 23.01c.399.205.745.475 1.035.81.29.333.524.72.693 1.163.169.443.257.918.257 1.43 0 .684-.136 1.285-.414 1.804-.278.52-.657.959-1.144 1.313a5.333 5.333 0 0 1-1.688.81 7.411 7.411 0 0 1-2.07.277H2.321v-15.11h5.252c.652 0 1.264.076 1.824.233a4.254 4.254 0 0 1 1.45.693c.407.306.725.697.963 1.172.233.475.35 1.035.35 1.675 0 .87-.242 1.575-.725 2.123-.483.548-1.112.95-1.877 1.204v.044c.455.032.882.153 1.28.359zm-1.08-2.445c.15-.286.226-.632.226-1.047 0-.596-.193-1.116-.576-1.559-.382-.439-.99-.66-1.812-.66H4.375v4.482H7.17c.383 0 .745-.04 1.087-.116.343-.077.64-.21.898-.395.254-.185.456-.419.605-.705zm-5.388 3.008h3.033c.994 0 1.784.226 2.368.677.584.447.874 1.12.874 2.018 0 .54-.117.974-.343 1.3-.23.327-.507.585-.833.778a3.13 3.13 0 0 1-1.056.383c-.378.064-.72.096-1.035.096H4.371v-5.252z"></path>
			<path d="M17.061 17.863a1.351 1.351 0 0 1-.99.415c-.383 0-.717-.137-.991-.415a1.352 1.352 0 0 1-.415-.991c0-.383.137-.717.415-.99.278-.279.608-.416.99-.416.383 0 .717.137.991.415.278.278.415.608.415.99 0 .384-.137.718-.415.992zM17.029 30.617h-1.921V20.501h1.921v10.116zM25.523 22.442a6.613 6.613 0 0 0-.471-.109 2.665 2.665 0 0 0-.472-.044c-.938 0-1.659.261-2.154.79-.5.527-.745 1.344-.745 2.452v5.078H19.76V20.492h1.92v1.56h.045a2.78 2.78 0 0 1 .511-.738c.214-.221.451-.41.717-.564.262-.157.552-.282.866-.374.314-.093.625-.137.939-.137.314 0 .596.044.853.129l-.088 2.074z"></path>
			<path fill-rule="evenodd" clip-rule="evenodd" d="M35.555 29.168v1.45h1.921V14.48h-1.921v7.47h-.044c-.343-.527-.834-.942-1.474-1.248a4.698 4.698 0 0 0-2.05-.46c-.781 0-1.49.138-2.123.408a4.775 4.775 0 0 0-1.623 1.12 5.006 5.006 0 0 0-1.035 1.687 5.972 5.972 0 0 0-.362 2.102c0 .753.12 1.45.362 2.09.242.64.588 1.204 1.035 1.688.447.483.991.861 1.623 1.131.633.27 1.341.407 2.123.407.684 0 1.349-.149 1.997-.447.649-.302 1.156-.72 1.527-1.26h.044zm-.894-6.138c.282.306.503.676.66 1.111.157.431.234.907.234 1.418 0 .511-.077.983-.233 1.418a3.187 3.187 0 0 1-.661 1.111 3.087 3.087 0 0 1-1.047.725c-.411.177-.87.266-1.386.266-.515 0-.978-.089-1.389-.266a3.047 3.047 0 0 1-1.047-.725 3.249 3.249 0 0 1-.66-1.111 4.123 4.123 0 0 1-.234-1.418c0-.512.076-.983.233-1.418.157-.435.375-.805.66-1.111a3.047 3.047 0 0 1 1.048-.725 3.503 3.503 0 0 1 1.39-.266c.51 0 .97.089 1.385.266.415.177.761.419 1.047.725z"></path>
			<path d="M53.9 17.492a4.843 4.843 0 0 0-2.026-.447c-.854 0-1.627.161-2.316.48a5.37 5.37 0 0 0-1.772 1.312 6.036 6.036 0 0 0-1.144 1.954 7 7 0 0 0-.406 2.4c0 .797.129 1.55.382 2.263a5.6 5.6 0 0 0 1.112 1.877c.483.54 1.075.967 1.772 1.28.697.315 1.486.472 2.368.472.866 0 1.631-.177 2.284-.536a4.899 4.899 0 0 0 1.663-1.494l1.728 1.301a6.797 6.797 0 0 1-.596.672c-.286.29-.66.584-1.132.875a8.219 8.219 0 0 1-1.696.769c-.66.221-1.425.33-2.295.33-1.196 0-2.272-.23-3.234-.685a7.788 7.788 0 0 1-2.457-1.792 7.777 7.777 0 0 1-1.546-2.509 7.89 7.89 0 0 1-.536-2.827c0-1.168.193-2.243.576-3.234a7.612 7.612 0 0 1 1.61-2.562 7.22 7.22 0 0 1 2.486-1.675c.966-.399 2.033-.596 3.201-.596a7.89 7.89 0 0 1 2.936.576 5.48 5.48 0 0 1 2.36 1.772l-1.707 1.3a4.142 4.142 0 0 0-1.615-1.276z"></path>
			<path fill-rule="evenodd" clip-rule="evenodd" d="M67.923 29.329a5.213 5.213 0 0 0 1.144-1.688 5.223 5.223 0 0 0 .415-2.082c0-.741-.137-1.43-.415-2.07a5.415 5.415 0 0 0-1.144-1.688 5.258 5.258 0 0 0-1.707-1.143 5.366 5.366 0 0 0-2.115-.415A5.338 5.338 0 0 0 60.28 21.8a5.348 5.348 0 0 0-1.144 1.688 5.138 5.138 0 0 0-.414 2.07 5.234 5.234 0 0 0 1.559 3.77 5.423 5.423 0 0 0 1.707 1.131 5.366 5.366 0 0 0 2.114.415c.757 0 1.458-.137 2.115-.415a5.422 5.422 0 0 0 1.707-1.131zm-1.385-6.3c.282.307.503.677.66 1.112.157.431.234.907.234 1.418 0 .511-.077.983-.234 1.418a3.187 3.187 0 0 1-.66 1.111 3.086 3.086 0 0 1-1.047.725 3.503 3.503 0 0 1-1.39.266c-.515 0-.978-.089-1.39-.266a3.047 3.047 0 0 1-1.046-.725 3.249 3.249 0 0 1-.66-1.111 4.123 4.123 0 0 1-.234-1.418c0-.512.076-.983.233-1.418.157-.435.375-.805.66-1.111a3.047 3.047 0 0 1 1.048-.725 3.503 3.503 0 0 1 1.39-.266c.515 0 .974.089 1.389.266.415.177.76.419 1.047.725z"></path>
			<path d="M78.616 30.617V29.06h-.044c-.242.54-.66.979-1.26 1.313-.597.334-1.29.503-2.071.503-.5 0-.967-.076-1.41-.225a3.132 3.132 0 0 1-1.163-.693c-.335-.314-.6-.717-.802-1.204-.201-.492-.298-1.072-.298-1.74v-6.508h1.921v5.976c0 .471.064.87.193 1.204a2.2 2.2 0 0 0 .512.81c.213.205.459.354.737.447.278.093.564.137.866.137.398 0 .769-.064 1.111-.193.343-.13.64-.33.898-.608.258-.278.456-.629.597-1.056.14-.427.213-.93.213-1.514v-5.207h1.921v10.116h-1.921zM90.166 30.617v-5.976c0-.471-.064-.87-.193-1.204a2.198 2.198 0 0 0-.511-.81 1.93 1.93 0 0 0-.737-.447 2.705 2.705 0 0 0-.866-.137c-.399 0-.77.065-1.112.193-.342.13-.64.33-.898.608a2.825 2.825 0 0 0-.596 1.056c-.14.427-.213.934-.213 1.514v5.207h-1.921V20.505h1.92v1.558h.045c.242-.54.66-.979 1.26-1.313.597-.334 1.29-.503 2.07-.503.484 0 .951.076 1.398.225.447.15.838.383 1.172.693.334.314.6.717.802 1.204.197.492.297 1.072.297 1.74v6.508h-1.916zM97.36 27.597c.011.278.068.527.16.749.093.221.234.399.427.532.194.137.472.2.842.2.226 0 .463-.02.705-.063.242-.045.463-.121.66-.234v1.752c-.23.129-.523.217-.886.266a7.028 7.028 0 0 1-.841.076c-.741 0-1.313-.105-1.72-.31-.407-.205-.705-.471-.898-.801a2.575 2.575 0 0 1-.343-1.1 13.81 13.81 0 0 1-.052-1.228v-5.272h-2.219V20.5h2.22v-2.84h1.92v2.84h2.755v1.663h-2.755v4.591c.004.286.008.564.024.842z"></path>
		</g>
		<g fill="#212121">
			<path d="M4.584 2.422v7.104h-.946V2.422H1v-.878h6.226v.878H4.584zM11.902 9.526v-3.17c0-.443-.096-.793-.294-1.047-.197-.253-.5-.382-.914-.382-.286 0-.532.048-.737.145a1.317 1.317 0 0 0-.508.419c-.132.18-.23.394-.294.644-.064.25-.096.523-.096.822v2.569H8.18V1h.878v3.98h.024c.06-.106.14-.21.25-.311.104-.1.23-.193.378-.278.145-.085.31-.149.492-.201.18-.053.37-.08.575-.08.347 0 .645.051.899.156.253.105.459.254.624.44.165.188.286.414.366.68.08.266.117.56.117.874v3.258h-.882v.008z"></path>
			<path fill-rule="evenodd" clip-rule="evenodd" d="M15.257 7.806a1.812 1.812 0 0 1-.165-.648l4.257.004V6.88c0-.435-.06-.826-.181-1.168a2.394 2.394 0 0 0-.512-.87 2.222 2.222 0 0 0-.793-.54 2.692 2.692 0 0 0-1.015-.185c-.39 0-.753.065-1.084.202-.33.132-.616.322-.857.567a2.572 2.572 0 0 0-.564.878 3.08 3.08 0 0 0-.202 1.124c0 .383.06.745.186 1.083.124.339.302.629.531.878.23.25.512.447.842.592.33.15.7.222 1.116.222.495 0 .934-.08 1.309-.242.378-.16.724-.443 1.039-.85l-.665-.519c-.21.262-.447.46-.709.596-.266.133-.588.201-.97.201-.242 0-.463-.048-.665-.137a1.65 1.65 0 0 1-.532-.366 1.879 1.879 0 0 1-.366-.54zm1.559-2.883c.49 0 .873.137 1.151.406.278.27.427.633.44 1.084h-3.315c.06-.451.237-.814.54-1.084.302-.27.696-.406 1.184-.406z"></path>
			<path d="M28.016 5.938V5.06h2.787v3.922c-.46.254-.943.443-1.45.564a6.612 6.612 0 0 1-1.539.181c-.624 0-1.196-.1-1.715-.306a3.981 3.981 0 0 1-1.35-.858 3.832 3.832 0 0 1-.886-1.325 4.492 4.492 0 0 1-.314-1.707c0-.632.113-1.204.335-1.72.221-.515.527-.954.918-1.32.39-.363.846-.65 1.365-.85a4.608 4.608 0 0 1 1.68-.307c.527 0 1.03.08 1.518.238a3.21 3.21 0 0 1 1.3.813l-.708.746a2.7 2.7 0 0 0-.987-.677 3.232 3.232 0 0 0-2.46.012c-.391.165-.734.395-1.02.689-.29.294-.515.644-.676 1.047-.161.407-.242.85-.242 1.329 0 .475.08.914.242 1.32.161.408.387.758.677 1.056.29.298.636.528 1.043.693.406.165.854.25 1.34.25.323 0 .661-.04 1.016-.117.354-.08.676-.194.97-.343V5.942l-1.844-.004zM35.527 5.06a1.675 1.675 0 0 0-.475-.069c-.54 0-.935.173-1.18.524-.246.35-.367.83-.367 1.437v2.57h-.878V5.495c0-.242-.008-.468-.024-.677a7.59 7.59 0 0 1-.024-.576h.834c0 .145.004.286.012.427.008.145.012.29.012.439h.024c.06-.129.145-.254.254-.37.108-.121.237-.226.39-.323a2.084 2.084 0 0 1 1.297-.298.99.99 0 0 1 .181.045l-.056.898z"></path>
			<path fill-rule="evenodd" clip-rule="evenodd" d="M37.202 7.806a1.814 1.814 0 0 1-.165-.648l4.257.004V6.88c0-.435-.06-.826-.181-1.168a2.392 2.392 0 0 0-.512-.87 2.222 2.222 0 0 0-.793-.54 2.692 2.692 0 0 0-1.015-.185c-.39 0-.753.065-1.083.202a2.513 2.513 0 0 0-1.422 1.446 3.08 3.08 0 0 0-.201 1.123c0 .383.06.745.185 1.083.125.339.302.629.532.878.23.25.511.447.841.592.33.15.701.222 1.116.222.495 0 .934-.08 1.309-.242.378-.16.725-.443 1.039-.85l-.665-.519c-.21.262-.447.46-.709.596-.265.133-.587.201-.97.201a1.65 1.65 0 0 1-1.196-.503 1.88 1.88 0 0 1-.367-.54zm1.559-2.883c.491 0 .874.137 1.152.406.278.27.423.633.439 1.084h-3.315c.06-.451.238-.814.54-1.084.302-.27.697-.406 1.184-.406zM46.087 9.127c.004.145.024.278.052.4l.85-.005a6.167 6.167 0 0 1-.08-.914V6.34c0-.749-.174-1.308-.52-1.679-.347-.367-.91-.552-1.692-.552-.382 0-.76.065-1.132.198-.37.132-.692.338-.962.616l.552.576a2.01 2.01 0 0 1 .729-.435c.278-.093.556-.141.841-.141.411 0 .733.096.963.294.23.197.342.487.342.87v.157h-.338c-.326 0-.68.016-1.067.044-.387.028-.75.105-1.084.226-.334.12-.616.302-.841.551-.226.25-.339.592-.339 1.027 0 .254.053.48.157.677.105.197.246.358.423.491.177.13.383.23.62.298.238.069.492.101.762.101.406 0 .753-.085 1.043-.258.29-.173.52-.394.693-.664h.024c0 .112 0 .245.004.39zm-.939-2.138h.886v.338a2.04 2.04 0 0 1-.112.616 1.403 1.403 0 0 1-.773.846 1.67 1.67 0 0 1-.673.129c-.33 0-.608-.069-.83-.21-.221-.14-.334-.374-.334-.704 0-.359.165-.62.495-.778.33-.157.777-.237 1.341-.237z"></path>
			<path d="M49.86 8.108c.008.145.037.274.089.383a.588.588 0 0 0 .238.258c.104.064.253.096.45.096.13 0 .258-.016.395-.044.137-.028.262-.076.383-.137l.032.802a1.883 1.883 0 0 1-.503.145 3.487 3.487 0 0 1-.524.044c-.314 0-.568-.04-.757-.125a1.008 1.008 0 0 1-.439-.35 1.342 1.342 0 0 1-.21-.56 5.115 5.115 0 0 1-.052-.737v-2.9H47.81v-.745h1.152V2.74h.878v1.498h1.555v.745H49.84v2.638c.008.181.012.342.02.487z"></path>
			<path fill-rule="evenodd" clip-rule="evenodd" d="M60.183 5.527c.221.108.414.25.575.423a1.944 1.944 0 0 1 .516 1.34c0 .444-.093.81-.278 1.096a2.05 2.05 0 0 1-.72.68c-.299.17-.633.287-1.004.355-.37.069-.74.1-1.111.1h-2.38V1.54h2.436c.33 0 .653.032.97.1.315.069.597.177.847.335.25.153.45.354.604.604.153.25.23.555.23.926 0 .467-.126.85-.38 1.156-.253.306-.591.52-1.018.648v.024c.253.02.491.085.713.194zm-.492-1.229c.105-.169.157-.394.157-.672 0-.25-.048-.451-.145-.604a1.068 1.068 0 0 0-.39-.367 1.682 1.682 0 0 0-.552-.185 4.04 4.04 0 0 0-.624-.052h-1.41v2.505h1.309c.225 0 .447-.016.66-.045.214-.028.407-.092.58-.185.174-.093.31-.225.415-.395zm-1.34 1.507c.24 0 .474.024.704.068.23.045.43.121.612.238.173.113.318.262.427.45.109.19.165.424.165.702 0 .253-.056.47-.17.648a1.334 1.334 0 0 1-.446.427c-.185.109-.39.19-.62.238-.23.048-.46.072-.693.072h-1.603V5.805h1.623zM66.147 9.127c.004.145.024.278.052.4l.85-.005a6.112 6.112 0 0 1-.08-.914V6.34c0-.749-.173-1.308-.52-1.679-.346-.367-.91-.552-1.691-.552-.383 0-.761.065-1.132.198-.37.132-.693.338-.963.616l.552.576a2.01 2.01 0 0 1 .73-.435c.277-.093.555-.141.84-.141.412 0 .734.096.963.294.23.197.343.487.343.87v.157h-.339c-.326 0-.68.016-1.067.044-.386.028-.749.105-1.083.226-.338.12-.616.302-.842.551-.225.25-.338.592-.338 1.027 0 .254.052.48.157.677.105.197.245.358.423.491.177.13.382.23.62.298.238.069.491.101.761.101.407 0 .753-.085 1.043-.258.29-.173.52-.394.693-.664h.024c0 .112 0 .245.004.39zM65.21 6.99h.886v.338a2.04 2.04 0 0 1-.113.616 1.402 1.402 0 0 1-.773.846 1.67 1.67 0 0 1-.673.129c-.33 0-.608-.069-.83-.21-.221-.14-.334-.374-.334-.704 0-.359.165-.62.496-.778.33-.157.777-.237 1.34-.237z"></path>
			<path d="M72.333 5.567a1.79 1.79 0 0 0-.608-.491 1.7 1.7 0 0 0-.72-.153c-.295 0-.553.052-.778.153-.226.1-.41.241-.56.423a1.98 1.98 0 0 0-.334.624 2.47 2.47 0 0 0 .016 1.522c.084.238.205.447.362.624.153.182.339.323.56.423.218.101.463.153.733.153.58 0 1.027-.217 1.341-.652l.653.62a2.289 2.289 0 0 1-.902.645 2.94 2.94 0 0 1-1.096.2 3.02 3.02 0 0 1-1.115-.2 2.42 2.42 0 0 1-.862-.576 2.601 2.601 0 0 1-.552-.878 3.02 3.02 0 0 1-.197-1.116c0-.399.064-.765.197-1.103a2.58 2.58 0 0 1 .56-.878c.241-.25.527-.443.862-.58.334-.141.704-.21 1.111-.21.39 0 .761.069 1.112.202.35.137.656.346.918.632l-.7.616zM78.805 9.526h-1.297l-2.617-2.775v2.775h-.878V1h.878v5.57l2.4-2.324h1.252l-2.549 2.4 2.811 2.88zM81.592 10.73c-.088.226-.181.431-.278.616a1.805 1.805 0 0 1-.338.476c-.133.133-.29.233-.475.306a1.839 1.839 0 0 1-.673.108c-.129 0-.262-.008-.398-.024a1.153 1.153 0 0 1-.391-.112l.113-.766c.088.037.185.06.281.073.097.012.21.016.339.016.286 0 .495-.08.632-.238.137-.157.254-.366.35-.632l.363-.99L78.93 4.25h1.027l1.635 4.14h.024l1.567-4.14h.958l-2.549 6.48z"></path>
			<path fill-rule="evenodd" clip-rule="evenodd" d="M88.507 9.127c.004.145.024.278.053.4l.85-.005a6.112 6.112 0 0 1-.081-.914V6.34c0-.749-.173-1.308-.52-1.679-.346-.367-.91-.552-1.691-.552-.383 0-.761.065-1.132.198-.37.132-.693.338-.963.616l.552.576a2.01 2.01 0 0 1 .73-.435c.277-.093.555-.141.841-.141.41 0 .733.096.963.294.23.197.342.487.342.87v.157h-.338c-.327 0-.681.016-1.068.044-.386.028-.749.105-1.083.226-.334.12-.616.302-.842.551-.225.25-.338.592-.338 1.027 0 .254.052.48.157.677.105.197.246.358.423.491.177.13.382.23.62.298.238.069.491.101.761.101.407 0 .753-.085 1.043-.258.29-.173.52-.394.693-.664h.024c0 .112 0 .245.004.39zM87.57 6.99h.886v.338a2.04 2.04 0 0 1-.113.616 1.402 1.402 0 0 1-.773.846 1.669 1.669 0 0 1-.673.129c-.33 0-.608-.069-.83-.21-.225-.14-.334-.374-.334-.704 0-.359.165-.62.496-.778.33-.157.777-.237 1.34-.237z"></path>
			<path d="M93.84 5.06a1.673 1.673 0 0 0-.476-.069c-.54 0-.934.173-1.18.524-.245.35-.366.83-.366 1.437v2.57h-.878V5.495c0-.242-.008-.468-.024-.677a7.586 7.586 0 0 1-.025-.576h.834c0 .145.004.286.012.427.008.145.012.29.012.439h.024c.06-.129.145-.254.254-.37.109-.121.238-.226.39-.323a2.085 2.085 0 0 1 1.298-.298c.06.008.12.024.18.045l-.055.898z"></path>
			<path fill-rule="evenodd" clip-rule="evenodd" d="M99.091 8.592v.942h.874V1.008h-.878v4.015h-.024a2.607 2.607 0 0 0-.842-.664 2.373 2.373 0 0 0-1.055-.238c-.41 0-.79.069-1.132.21-.342.137-.632.33-.874.58-.241.245-.426.54-.563.878a2.987 2.987 0 0 0-.202 1.103c0 .399.065.765.202 1.104.137.338.322.628.56.878a2.59 2.59 0 0 0 1.88.79 2.46 2.46 0 0 0 1.245-.311c.358-.206.62-.46.785-.761h.024zm-.507-3.097c.165.177.29.382.378.62.089.237.13.495.13.773s-.045.536-.13.773a1.836 1.836 0 0 1-.378.62 1.778 1.778 0 0 1-.592.42c-.23.1-.488.152-.773.152-.286 0-.544-.052-.774-.153a1.837 1.837 0 0 1-.592-.418 1.775 1.775 0 0 1-.378-.62 2.292 2.292 0 0 1-.13-.774c0-.278.045-.536.13-.773.088-.238.213-.443.378-.62.165-.178.363-.319.592-.42.23-.1.488-.152.774-.152.285 0 .543.052.773.153.23.104.427.241.592.419z"></path>
		</g>
	</svg>