<svg  class="LogoEbirdPortal LogoEbirdPortal--israel" xmlns="http://www.w3.org/2000/svg" width="134px" height="32px" viewBox="0 0 134 32" role="img" aria-labelledby="logo-ebird-portal-israel-title-ebird-header">
		<title id="logo-ebird-portal-israel-title-ebird-header">eBird Israel logo</title>
		<g fill="none" fill-rule="evenodd">
			<path class="LogoEbirdPortal-e" fill="#50A61C" fill-rule="nonzero" d="M14.096 20.54l-1.304-.79-.098.174c-.39.802-.966 1.499-1.68 2.034a3.702 3.702 0 0 1-2.042.553 4.231 4.231 0 0 1-2.007-.446 3.717 3.717 0 0 1-1.359-1.22 5.752 5.752 0 0 1-.79-1.89 10.505 10.505 0 0 1-.26-2.24h9.141v-1.113a8.296 8.296 0 0 0-.324-2.37 5.404 5.404 0 0 0-.991-1.913 4.816 4.816 0 0 0-1.822-1.355 6.601 6.601 0 0 0-2.666-.493 5.926 5.926 0 0 0-2.738.628 6.274 6.274 0 0 0-2.038 1.659c-.566.708-1 1.51-1.284 2.37a8.6 8.6 0 0 0-.439 2.718c-.009.98.124 1.955.395 2.896a6.996 6.996 0 0 0 1.256 2.406 5.95 5.95 0 0 0 2.134 1.647c.943.42 1.966.626 2.998.605a6.064 6.064 0 0 0 3.453-1.012 7.28 7.28 0 0 0 2.37-2.702l.095-.146zM7.87 10.92c.47-.02.935.108 1.327.368.35.255.633.593.822.983.204.457.337.942.395 1.438.074.482.117.967.13 1.454H4.557a5.385 5.385 0 0 1 1.003-3.085A2.797 2.797 0 0 1 7.87 10.92z"/>
			<path class="LogoEbirdPortal-bird" fill="#231F20" fill-rule="nonzero" d="M62.601 22.492l.198.004v1.276l-5.089.324-.331-.309v-1.039a6.036 6.036 0 0 1-1.632 1.142c-.71.35-1.491.534-2.283.537a5.42 5.42 0 0 1-2.37-.545 5.95 5.95 0 0 1-1.976-1.525 7.506 7.506 0 0 1-1.343-2.37 9.126 9.126 0 0 1-.494-3.058 8.079 8.079 0 0 1 .53-2.907 7.731 7.731 0 0 1 1.461-2.41 6.499 6.499 0 0 1 2.153-1.545 6.74 6.74 0 0 1 4.543-.324c.468.12.923.283 1.36.49V5.725a2.65 2.65 0 0 0-.183-1 1.454 1.454 0 0 0-.478-.651 2.568 2.568 0 0 0-.98-.352c-.467-.082-.94-.14-1.414-.173h-.177V2.324L60.02 2l.332.324v18.682c-.007.256.05.51.166.739.118.21.287.386.49.514.21.11.442.17.68.177.331.037.636.056.912.056zM47.55 13.204a1.37 1.37 0 0 1-1.237.648c-.49.025-.97-.149-1.331-.482a1.422 1.422 0 0 1-.47-1.031c-.003-.2.015-.4.05-.597l.048-.26a3.366 3.366 0 0 0-1.224.505 4.346 4.346 0 0 0-1.407 1.402v7.977c-.011.243.045.485.162.699a.944.944 0 0 0 .498.395c.276.101.564.167.857.198.36.047.68.098.948.098h.178v1.288H30.03v-1.288l.841-.07a2.37 2.37 0 0 0 .55-.104.818.818 0 0 0 .497-.355c.118-.22.174-.47.162-.72v-8.509a1.497 1.497 0 0 0-.182-.727 1.628 1.628 0 0 0-.51-.572 2.473 2.473 0 0 0-.702-.257 5.566 5.566 0 0 0-.893-.142h-.178v-1.28l5.136-.324.312.312v11.35c-.007.245.05.487.166.703a.92.92 0 0 0 .494.395 3.516 3.516 0 0 0 1.197.296h.13l.79-.067c.187-.012.37-.047.55-.103a.814.814 0 0 0 .477-.355c.117-.221.173-.47.162-.72v-8.532a1.762 1.762 0 0 0-.182-.77 1.505 1.505 0 0 0-.505-.597 1.722 1.722 0 0 0-.561-.214 5.468 5.468 0 0 0-.759-.102h-.178v-1.28l4.856-.324.312.312v1.58a6.266 6.266 0 0 1 1.718-1.434c1.494-.826 2.821-.806 3.611.02.416.454.633 1.056.605 1.67a2.52 2.52 0 0 1-.395 1.368zM33.395 6.559a1.825 1.825 0 0 1-1.38-.608 2.046 2.046 0 0 1-.576-1.442c-.006-.547.2-1.075.573-1.474.345-.405.85-.639 1.383-.64a1.916 1.916 0 0 1 1.446.593c.362.369.564.865.564 1.382a2.232 2.232 0 0 1-.572 1.53 1.849 1.849 0 0 1-1.438.659zm-5.555 7.893a5.06 5.06 0 0 1 1.497 1.6c.417.732.625 1.564.6 2.406a4.86 4.86 0 0 1-.627 2.505 5.393 5.393 0 0 1-1.644 1.734 7.403 7.403 0 0 1-2.172 1.007 9.134 9.134 0 0 1-2.477.328h-9.589v-1.359h.174c.222-.02.545-.059.968-.118.298-.03.592-.098.873-.202a1.09 1.09 0 0 0 .526-.442 1.58 1.58 0 0 0 .158-.755V6.86a1.88 1.88 0 0 0-.146-.762c-.116-.226-.31-.401-.546-.494a3.828 3.828 0 0 0-.896-.308 6.755 6.755 0 0 0-.842-.135h-.178V3.81h9.34a9.876 9.876 0 0 1 2.077.213 6.262 6.262 0 0 1 1.913.766 4.231 4.231 0 0 1 1.418 1.39 3.95 3.95 0 0 1 .56 2.146 4.618 4.618 0 0 1-.394 1.947 4.31 4.31 0 0 1-1.114 1.474c-.459.394-.971.721-1.521.972a8.525 8.525 0 0 1-1.229.454c.446.087.886.2 1.32.336a6.83 6.83 0 0 1 1.951.944zm29.499-1.311a3.516 3.516 0 0 0-.328-.684 3.318 3.318 0 0 0-.592-.727 3.405 3.405 0 0 0-.897-.545 3.066 3.066 0 0 0-1.185-.217 2.718 2.718 0 0 0-1.442.395 3.95 3.95 0 0 0-1.186 1.185 6.258 6.258 0 0 0-.79 1.932 10.959 10.959 0 0 0-.296 2.635 9.24 9.24 0 0 0 .217 2.09c.142.611.388 1.194.727 1.722.3.48.705.886 1.185 1.185a3.16 3.16 0 0 0 1.691.431 3.093 3.093 0 0 0 1.746-.443c.425-.278.811-.61 1.15-.987V13.14zm-32.458-2.9a6.1 6.1 0 0 0 .198-1.64 3.394 3.394 0 0 0-.842-2.441c-.557-.58-1.458-.873-2.682-.873-.295 0-.668.006-1.118.02l-.952.027v7.257h1.58a5.63 5.63 0 0 0 1.896-.284 2.888 2.888 0 0 0 1.24-.826c.314-.36.546-.782.68-1.24zm-5.396 3.919v6.803c-.032.48.21.939.624 1.185.58.302 1.232.44 1.884.395 1.328 0 2.35-.364 3.05-1.134.7-.77 1.055-1.932 1.055-3.453a3.67 3.67 0 0 0-1.122-2.765c-.747-.715-1.841-1.079-3.247-1.079-.596 0-1.097.007-1.506.02l-.738.028z"/>
			<path class="LogoEbirdPortal-portal" fill="#50A61C" d="M132.426 24h-6.576v-.902l.67-.062c.237-.023.432-.057.587-.102.256-.082.447-.226.575-.431.127-.205.191-.472.191-.8V6.09c0-.328-.07-.636-.212-.923a1.784 1.784 0 0 0-.554-.677c-.164-.11-.464-.21-.902-.3a8.21 8.21 0 0 0-1.053-.165V3.15l5.073-.314.191.205v18.498c0 .32.06.581.178.786.118.205.31.362.574.472.2.091.399.16.595.205.196.046.417.077.663.096V24zm-6.675-3.172c-.565 1.076-1.322 1.932-2.27 2.57-.948.638-2.037.957-3.267.957-1.085 0-2.035-.19-2.85-.574a5.597 5.597 0 0 1-2.018-1.558 6.62 6.62 0 0 1-1.182-2.297c-.26-.875-.39-1.8-.39-2.776 0-.875.14-1.734.417-2.577a7.27 7.27 0 0 1 1.224-2.276 5.921 5.921 0 0 1 1.934-1.566c.77-.396 1.634-.594 2.591-.594.985 0 1.828.155 2.53.465.701.31 1.271.733 1.709 1.271.419.51.731 1.112.936 1.805.205.692.308 1.444.308 2.256v.902h-8.928c0 .884.084 1.686.253 2.406a5.76 5.76 0 0 0 .8 1.9c.355.53.82.946 1.394 1.252.574.305 1.258.458 2.051.458.811 0 1.51-.19 2.099-.568.587-.378 1.155-1.06 1.702-2.044l.957.588zm-3.022-5.14c0-.51-.043-1.058-.13-1.641-.086-.583-.225-1.071-.417-1.463a2.779 2.779 0 0 0-.86-1.025c-.365-.265-.835-.397-1.41-.397-.956 0-1.751.399-2.385 1.196-.633.798-.977 1.908-1.032 3.33h6.234zm-9.095 8.066c-.428.155-.804.28-1.128.376a3.88 3.88 0 0 1-1.1.143c-.711 0-1.278-.166-1.702-.499-.424-.332-.695-.818-.814-1.456h-.082c-.592.657-1.228 1.158-1.907 1.504-.68.347-1.497.52-2.454.52-1.012 0-1.844-.31-2.495-.93-.652-.62-.978-1.43-.978-2.433 0-.52.073-.985.219-1.395.146-.41.365-.78.656-1.107a3.28 3.28 0 0 1 .903-.732 7.885 7.885 0 0 1 1.052-.513c.41-.155 1.242-.442 2.495-.86 1.254-.42 2.099-.748 2.537-.985v-1.354a5.73 5.73 0 0 0-.076-.683 2.863 2.863 0 0 0-.32-.957 2.723 2.723 0 0 0-.773-.882c-.333-.25-.805-.376-1.415-.376-.42 0-.81.07-1.17.212-.36.141-.612.29-.758.444 0 .182.043.451.13.807.086.355.13.683.13.984 0 .319-.144.61-.431.875-.287.264-.686.397-1.196.397-.456 0-.791-.162-1.005-.486a1.926 1.926 0 0 1-.322-1.087c0-.419.149-.82.445-1.203a4.462 4.462 0 0 1 1.155-1.025c.41-.255.907-.472 1.49-.65a5.847 5.847 0 0 1 1.71-.266c.765 0 1.433.052 2.002.157.57.105 1.087.33 1.552.677.465.337.818.795 1.06 1.374.241.579.362 1.324.362 2.235 0 1.303-.014 2.459-.041 3.466a122.31 122.31 0 0 0-.041 3.302c0 .355.061.638.184.847.123.21.313.388.568.534.137.082.353.127.65.136.295.01.598.014.908.014v.875zm-4.771-7.219a29.86 29.86 0 0 0-2.037.67 8.246 8.246 0 0 0-1.627.82 3.7 3.7 0 0 0-1.08 1.101c-.265.424-.397.927-.397 1.51 0 .757.199 1.313.595 1.669.396.355.9.533 1.51.533.648 0 1.218-.157 1.71-.472a4.973 4.973 0 0 0 1.244-1.114l.082-4.717zm-7.947-4.28c0 .466-.114.878-.341 1.238-.228.36-.58.54-1.053.54-.51 0-.9-.132-1.17-.396-.268-.265-.402-.556-.402-.875 0-.2.016-.383.047-.547.032-.164.062-.328.09-.492-.43 0-.93.173-1.505.52-.574.346-1.061.838-1.462 1.476v7.847c0 .32.061.58.184.78.123.2.317.35.581.45.228.092.522.16.882.206.36.046.672.077.937.096V24h-7.11v-.902c.21-.019.426-.037.65-.055.223-.018.417-.055.58-.11a.983.983 0 0 0 .568-.43c.123-.205.185-.472.185-.8v-8.326c0-.283-.067-.56-.199-.834a1.66 1.66 0 0 0-.553-.656 1.865 1.865 0 0 0-.616-.24 5.457 5.457 0 0 0-.765-.102v-.889l4.484-.3.192.19v1.901h.068c.565-.738 1.194-1.299 1.887-1.681.692-.383 1.326-.575 1.9-.575.574 0 1.041.187 1.401.561.36.374.54.875.54 1.504zm-12.321 5.141c.374.329.66.707.861 1.135.2.429.301.953.301 1.573 0 1.248-.467 2.269-1.401 3.062-.935.793-2.145 1.19-3.63 1.19a5.454 5.454 0 0 1-2.167-.424c-.661-.283-1.133-.543-1.415-.78l-.274.889h-1.025l-.137-4.69h.944c.072.356.227.77.464 1.245.237.474.524.902.862 1.285.355.4.781.738 1.278 1.012.497.273 1.055.41 1.675.41.875 0 1.55-.199 2.023-.595.474-.396.711-.964.711-1.702 0-.383-.075-.713-.225-.991a2.183 2.183 0 0 0-.663-.732 5.22 5.22 0 0 0-1.108-.567 21.672 21.672 0 0 0-1.463-.5 13.585 13.585 0 0 1-1.428-.526 5.695 5.695 0 0 1-1.347-.786 3.854 3.854 0 0 1-.985-1.175c-.255-.465-.382-1.012-.382-1.641 0-1.103.41-2.037 1.23-2.803.82-.765 1.919-1.148 3.295-1.148.529 0 1.069.068 1.62.205.552.137 1 .3 1.347.492l.314-.711h.985l.205 4.334h-.944c-.191-.966-.603-1.752-1.237-2.358-.633-.606-1.406-.91-2.317-.91-.748 0-1.336.187-1.764.561-.428.374-.643.825-.643 1.354 0 .41.071.751.212 1.025.142.273.354.506.636.697.274.182.618.353 1.032.513.415.16.928.34 1.538.54.602.191 1.17.415 1.703.67.533.255.973.538 1.319.847zM78.816 24H70.08v-.97l1.066-.083c.465-.036.793-.09.985-.164.3-.118.52-.28.656-.485.137-.205.205-.49.205-.855V7.39c0-.32-.05-.586-.15-.8-.1-.214-.337-.394-.711-.54a7.184 7.184 0 0 0-1.032-.308 6.817 6.817 0 0 0-1.019-.17V4.6h8.736v.97c-.282.01-.62.044-1.011.103-.392.06-.734.134-1.026.225-.346.11-.578.288-.697.534-.118.246-.178.52-.178.82v14.041c0 .3.066.567.199.8.132.232.357.417.676.553.192.073.504.153.937.24.433.086.8.134 1.1.143V24z"/>
		</g>
	</svg>