<svg  class="LogoEbirdPortal LogoEbirdPortal--malaysia" xmlns="http://www.w3.org/2000/svg" width="172" height="32" viewBox="0 0 172 32" role="img" aria-labelledby="logo-ebird-portal-malaysia-title-ebird-header">
		<title id="logo-ebird-portal-malaysia-title-ebird-header">eBird Malaysia logo</title>
		<g fill="none" fill-rule="evenodd">
			<path class="LogoEbirdPortal-e" fill="#50A61C" fill-rule="nonzero" d="M14.096 20.54l-1.304-.79-.098.174c-.39.802-.966 1.499-1.68 2.034a3.702 3.702 0 0 1-2.042.553 4.231 4.231 0 0 1-2.007-.446 3.717 3.717 0 0 1-1.359-1.22 5.752 5.752 0 0 1-.79-1.89 10.505 10.505 0 0 1-.26-2.24h9.141v-1.113a8.296 8.296 0 0 0-.324-2.37 5.404 5.404 0 0 0-.991-1.913 4.816 4.816 0 0 0-1.822-1.355 6.601 6.601 0 0 0-2.666-.493 5.926 5.926 0 0 0-2.738.628 6.274 6.274 0 0 0-2.038 1.659c-.566.708-1 1.51-1.284 2.37a8.6 8.6 0 0 0-.439 2.718c-.009.98.124 1.955.395 2.896a6.996 6.996 0 0 0 1.256 2.406 5.95 5.95 0 0 0 2.134 1.647c.943.42 1.966.626 2.998.605a6.064 6.064 0 0 0 3.453-1.012 7.28 7.28 0 0 0 2.37-2.702l.095-.146zM7.87 10.92c.47-.02.935.108 1.327.368.35.255.633.593.822.983.204.457.337.942.395 1.438.074.482.117.967.13 1.454H4.557a5.385 5.385 0 0 1 1.003-3.085A2.797 2.797 0 0 1 7.87 10.92z"/>
			<path class="LogoEbirdPortal-bird" fill="#231F20" fill-rule="nonzero" d="M62.601 22.492l.198.004v1.276l-5.089.324-.331-.309v-1.039a6.036 6.036 0 0 1-1.632 1.142c-.71.35-1.491.534-2.283.537a5.42 5.42 0 0 1-2.37-.545 5.95 5.95 0 0 1-1.976-1.525 7.506 7.506 0 0 1-1.343-2.37 9.126 9.126 0 0 1-.494-3.058 8.079 8.079 0 0 1 .53-2.907 7.731 7.731 0 0 1 1.461-2.41 6.499 6.499 0 0 1 2.153-1.545 6.74 6.74 0 0 1 4.543-.324c.468.12.923.283 1.36.49V5.725a2.65 2.65 0 0 0-.183-1 1.454 1.454 0 0 0-.478-.651 2.568 2.568 0 0 0-.98-.352c-.467-.082-.94-.14-1.414-.173h-.177V2.324L60.02 2l.332.324v18.682c-.007.256.05.51.166.739.118.21.287.386.49.514.21.11.442.17.68.177.331.037.636.056.912.056zM47.55 13.204a1.37 1.37 0 0 1-1.237.648c-.49.025-.97-.149-1.331-.482a1.422 1.422 0 0 1-.47-1.031c-.003-.2.015-.4.05-.597l.048-.26a3.366 3.366 0 0 0-1.224.505 4.346 4.346 0 0 0-1.407 1.402v7.977c-.011.243.045.485.162.699a.944.944 0 0 0 .498.395c.276.101.564.167.857.198.36.047.68.098.948.098h.178v1.288H30.03v-1.288l.841-.07a2.37 2.37 0 0 0 .55-.104.818.818 0 0 0 .497-.355c.118-.22.174-.47.162-.72v-8.509a1.497 1.497 0 0 0-.182-.727 1.628 1.628 0 0 0-.51-.572 2.473 2.473 0 0 0-.702-.257 5.566 5.566 0 0 0-.893-.142h-.178v-1.28l5.136-.324.312.312v11.35c-.007.245.05.487.166.703a.92.92 0 0 0 .494.395 3.516 3.516 0 0 0 1.197.296h.13l.79-.067c.187-.012.37-.047.55-.103a.814.814 0 0 0 .477-.355c.117-.221.173-.47.162-.72v-8.532a1.762 1.762 0 0 0-.182-.77 1.505 1.505 0 0 0-.505-.597 1.722 1.722 0 0 0-.561-.214 5.468 5.468 0 0 0-.759-.102h-.178v-1.28l4.856-.324.312.312v1.58a6.266 6.266 0 0 1 1.718-1.434c1.494-.826 2.821-.806 3.611.02.416.454.633 1.056.605 1.67a2.52 2.52 0 0 1-.395 1.368zM33.395 6.559a1.825 1.825 0 0 1-1.38-.608 2.046 2.046 0 0 1-.576-1.442c-.006-.547.2-1.075.573-1.474.345-.405.85-.639 1.383-.64a1.916 1.916 0 0 1 1.446.593c.362.369.564.865.564 1.382a2.232 2.232 0 0 1-.572 1.53 1.849 1.849 0 0 1-1.438.659zm-5.555 7.893a5.06 5.06 0 0 1 1.497 1.6c.417.732.625 1.564.6 2.406a4.86 4.86 0 0 1-.627 2.505 5.393 5.393 0 0 1-1.644 1.734 7.403 7.403 0 0 1-2.172 1.007 9.134 9.134 0 0 1-2.477.328h-9.589v-1.359h.174c.222-.02.545-.059.968-.118.298-.03.592-.098.873-.202a1.09 1.09 0 0 0 .526-.442 1.58 1.58 0 0 0 .158-.755V6.86a1.88 1.88 0 0 0-.146-.762c-.116-.226-.31-.401-.546-.494a3.828 3.828 0 0 0-.896-.308 6.755 6.755 0 0 0-.842-.135h-.178V3.81h9.34a9.876 9.876 0 0 1 2.077.213 6.262 6.262 0 0 1 1.913.766 4.231 4.231 0 0 1 1.418 1.39 3.95 3.95 0 0 1 .56 2.146 4.618 4.618 0 0 1-.394 1.947 4.31 4.31 0 0 1-1.114 1.474c-.459.394-.971.721-1.521.972a8.525 8.525 0 0 1-1.229.454c.446.087.886.2 1.32.336a6.83 6.83 0 0 1 1.951.944zm29.499-1.311a3.516 3.516 0 0 0-.328-.684 3.318 3.318 0 0 0-.592-.727 3.405 3.405 0 0 0-.897-.545 3.066 3.066 0 0 0-1.185-.217 2.718 2.718 0 0 0-1.442.395 3.95 3.95 0 0 0-1.186 1.185 6.258 6.258 0 0 0-.79 1.932 10.959 10.959 0 0 0-.296 2.635 9.24 9.24 0 0 0 .217 2.09c.142.611.388 1.194.727 1.722.3.48.705.886 1.185 1.185a3.16 3.16 0 0 0 1.691.431 3.093 3.093 0 0 0 1.746-.443c.425-.278.811-.61 1.15-.987V13.14zm-32.458-2.9a6.1 6.1 0 0 0 .198-1.64 3.394 3.394 0 0 0-.842-2.441c-.557-.58-1.458-.873-2.682-.873-.295 0-.668.006-1.118.02l-.952.027v7.257h1.58a5.63 5.63 0 0 0 1.896-.284 2.888 2.888 0 0 0 1.24-.826c.314-.36.546-.782.68-1.24zm-5.396 3.919v6.803c-.032.48.21.939.624 1.185.58.302 1.232.44 1.884.395 1.328 0 2.35-.364 3.05-1.134.7-.77 1.055-1.932 1.055-3.453a3.67 3.67 0 0 0-1.122-2.765c-.747-.715-1.841-1.079-3.247-1.079-.596 0-1.097.007-1.506.02l-.738.028z"/>
			<path class="LogoEbirdPortal-portal" fill="#50A61C" d="M93.691 24H85.12v-.97c.31-.01.709-.042 1.196-.096.488-.055.823-.133 1.005-.233.283-.173.49-.371.622-.595.133-.223.199-.503.199-.84V7.156h-.205l-6.618 16.53h-.683L74.332 6.814h-.178v11.58c0 1.122.07 1.974.212 2.557.141.584.358 1.003.65 1.258.2.191.615.374 1.244.547.629.173 1.039.264 1.23.273V24h-7.834v-.97c.41-.037.841-.106 1.292-.206.451-.1.8-.25 1.046-.451.32-.255.538-.647.656-1.176.119-.528.178-1.412.178-2.652V8.619c0-.574-.068-1.043-.205-1.408a2.202 2.202 0 0 0-.588-.889 2.696 2.696 0 0 0-1.039-.547 5.23 5.23 0 0 0-1.217-.205V4.6h6.617l5.551 14.546L86.691 6.98c.174-.447.322-.914.445-1.402.123-.487.189-.813.198-.977h6.33v.97c-.255.01-.581.05-.977.123a6.373 6.373 0 0 0-.869.205c-.31.11-.52.292-.629.547-.109.256-.164.534-.164.834v13.987c0 .319.055.588.164.806.11.219.32.41.63.574.163.092.455.176.874.253.42.078.752.121.998.13V24zm13.826-.246c-.429.155-.805.28-1.128.376a3.88 3.88 0 0 1-1.1.143c-.712 0-1.279-.166-1.703-.499-.424-.332-.695-.818-.813-1.456h-.082c-.593.657-1.229 1.158-1.908 1.504-.679.347-1.497.52-2.454.52-1.011 0-1.843-.31-2.495-.93-.652-.62-.977-1.43-.977-2.433 0-.52.073-.985.218-1.395.146-.41.365-.78.657-1.107a3.28 3.28 0 0 1 .902-.732 7.885 7.885 0 0 1 1.053-.513c.41-.155 1.242-.442 2.495-.86 1.253-.42 2.098-.748 2.536-.985v-1.354a5.73 5.73 0 0 0-.075-.683 2.863 2.863 0 0 0-.322-.957 2.723 2.723 0 0 0-.772-.882c-.333-.25-.804-.376-1.415-.376-.42 0-.809.07-1.169.212-.36.141-.613.29-.759.444 0 .182.044.451.13.807.087.355.13.683.13.984 0 .319-.144.61-.43.875-.288.264-.687.397-1.197.397-.456 0-.79-.162-1.005-.486a1.926 1.926 0 0 1-.321-1.087c0-.419.148-.82.444-1.203a4.462 4.462 0 0 1 1.156-1.025c.41-.255.906-.472 1.49-.65a5.847 5.847 0 0 1 1.709-.266c.765 0 1.433.052 2.003.157.57.105 1.087.33 1.551.677.465.337.818.795 1.06 1.374.242.579.362 1.324.362 2.235 0 1.303-.013 2.459-.04 3.466a122.31 122.31 0 0 0-.042 3.302c0 .355.062.638.185.847.123.21.312.388.567.534.137.082.353.127.65.136.296.01.599.014.909.014v.875zm-4.772-7.219a29.86 29.86 0 0 0-2.037.67 8.246 8.246 0 0 0-1.627.82 3.7 3.7 0 0 0-1.08 1.101c-.264.424-.396.927-.396 1.51 0 .757.198 1.313.594 1.669.397.355.9.533 1.511.533.647 0 1.217-.157 1.71-.472a4.973 4.973 0 0 0 1.243-1.114l.082-4.717zM113.973 24h-6.576v-.902l.67-.062c.237-.023.433-.057.588-.102.255-.082.446-.226.574-.431.128-.205.191-.472.191-.8V6.09c0-.328-.07-.636-.212-.923a1.784 1.784 0 0 0-.553-.677c-.164-.11-.465-.21-.903-.3a8.21 8.21 0 0 0-1.052-.165V3.15l5.072-.314.191.205v18.498c0 .32.06.581.178.786.119.205.31.362.574.472.2.091.399.16.595.205.196.046.417.077.663.096V24zm13.265-.246c-.428.155-.804.28-1.128.376a3.88 3.88 0 0 1-1.1.143c-.712 0-1.279-.166-1.703-.499-.424-.332-.695-.818-.813-1.456h-.082c-.593.657-1.228 1.158-1.908 1.504-.679.347-1.497.52-2.454.52-1.011 0-1.843-.31-2.495-.93-.651-.62-.977-1.43-.977-2.433 0-.52.073-.985.218-1.395.146-.41.365-.78.657-1.107a3.28 3.28 0 0 1 .902-.732 7.885 7.885 0 0 1 1.053-.513 86.17 86.17 0 0 1 2.495-.86c1.253-.42 2.099-.748 2.536-.985v-1.354a5.73 5.73 0 0 0-.075-.683 2.863 2.863 0 0 0-.321-.957 2.723 2.723 0 0 0-.773-.882c-.333-.25-.804-.376-1.415-.376-.42 0-.809.07-1.169.212-.36.141-.613.29-.759.444 0 .182.044.451.13.807.087.355.13.683.13.984 0 .319-.143.61-.43.875-.288.264-.686.397-1.197.397-.456 0-.79-.162-1.005-.486a1.926 1.926 0 0 1-.321-1.087c0-.419.148-.82.444-1.203a4.462 4.462 0 0 1 1.156-1.025c.41-.255.906-.472 1.49-.65a5.847 5.847 0 0 1 1.709-.266c.765 0 1.433.052 2.003.157.57.105 1.087.33 1.552.677.464.337.818.795 1.06 1.374.24.579.361 1.324.361 2.235 0 1.303-.013 2.459-.04 3.466a122.31 122.31 0 0 0-.042 3.302c0 .355.062.638.185.847.123.21.312.388.567.534.137.082.353.127.65.136.296.01.599.014.909.014v.875zm-4.772-7.219a29.86 29.86 0 0 0-2.037.67 8.246 8.246 0 0 0-1.627.82 3.7 3.7 0 0 0-1.08 1.101c-.264.424-.396.927-.396 1.51 0 .757.198 1.313.595 1.669.396.355.9.533 1.51.533.647 0 1.217-.157 1.71-.472a4.973 4.973 0 0 0 1.243-1.114l.082-4.717zm3.886 11.867c0-.455.126-.827.376-1.114.251-.287.563-.43.937-.43.292 0 .542.054.752.163.21.11.396.251.56.424.137.137.283.324.438.56.155.238.278.434.369.589.456-.246 1-.889 1.634-1.928.633-1.04 1.091-1.95 1.374-2.734a674.205 674.205 0 0 0-4.553-11.088 1.961 1.961 0 0 0-.875-.978c-.41-.232-.82-.38-1.23-.444v-.902h6.152v.957c-.274.009-.602.066-.984.17-.383.105-.575.226-.575.363 0 .054.02.146.062.273.04.128.089.26.143.397a153.7 153.7 0 0 0 1.586 3.903c.711 1.7 1.263 3.06 1.655 4.081.41-.975.836-1.985 1.278-3.028a120.927 120.927 0 0 0 1.757-4.416c.118-.306.178-.568.178-.786 0-.237-.208-.458-.623-.663a3.694 3.694 0 0 0-1.182-.376v-.875h5.004v.847c-.274.046-.634.203-1.08.472-.447.269-.78.65-.998 1.141a373.488 373.488 0 0 0-2.892 6.877c-.843 2.07-1.483 3.592-1.92 4.567-.575 1.276-1.088 2.272-1.539 2.987-.451.716-.89 1.278-1.32 1.689-.419.382-.8.64-1.14.772a2.914 2.914 0 0 1-1.06.198c-.711 0-1.27-.168-1.675-.506-.406-.337-.609-.724-.609-1.162zm22.507-11.006c.374.329.661.707.862 1.135.2.429.3.953.3 1.573 0 1.248-.467 2.269-1.4 3.062-.935.793-2.145 1.19-3.63 1.19a5.454 5.454 0 0 1-2.168-.424c-.66-.283-1.132-.543-1.415-.78l-.273.889h-1.026l-.136-4.69h.943c.073.356.228.77.465 1.245.237.474.524.902.861 1.285.356.4.782.738 1.279 1.012.496.273 1.055.41 1.674.41.875 0 1.55-.199 2.024-.595.474-.396.71-.964.71-1.702 0-.383-.075-.713-.225-.991a2.183 2.183 0 0 0-.663-.732 5.22 5.22 0 0 0-1.107-.567 21.672 21.672 0 0 0-1.463-.5 13.585 13.585 0 0 1-1.429-.526 5.695 5.695 0 0 1-1.347-.786 3.854 3.854 0 0 1-.984-1.175c-.255-.465-.383-1.012-.383-1.641 0-1.103.41-2.037 1.23-2.803.82-.765 1.92-1.148 3.296-1.148.528 0 1.068.068 1.62.205.551.137 1 .3 1.346.492l.315-.711h.984l.205 4.334h-.943c-.192-.966-.604-1.752-1.237-2.358-.634-.606-1.406-.91-2.318-.91-.747 0-1.335.187-1.763.561-.429.374-.643.825-.643 1.354 0 .41.07.751.212 1.025.141.273.353.506.636.697.273.182.617.353 1.032.513.415.16.927.34 1.538.54.601.191 1.169.415 1.702.67.533.255.973.538 1.32.847zM157.407 24h-6.521v-.902c.21-.019.426-.037.65-.055.223-.018.416-.055.58-.11a.983.983 0 0 0 .568-.43c.123-.205.184-.472.184-.8v-8.326c0-.292-.066-.558-.198-.8a1.764 1.764 0 0 0-.554-.608c-.173-.11-.423-.203-.752-.28a5.57 5.57 0 0 0-.902-.144v-.889l4.758-.3.191.19V21.54c0 .32.062.583.185.793.123.21.317.365.581.465.2.082.396.148.588.198.191.05.405.084.642.103V24zm-1.722-18.963c0 .52-.171.973-.513 1.36a1.62 1.62 0 0 1-1.265.582c-.464 0-.868-.185-1.21-.554-.341-.37-.512-.79-.512-1.265 0-.501.17-.939.512-1.312.342-.374.746-.56 1.21-.56.52 0 .946.175 1.279.525.332.351.499.76.499 1.224zm14.946 18.717c-.428.155-.804.28-1.128.376a3.88 3.88 0 0 1-1.1.143c-.711 0-1.279-.166-1.702-.499-.424-.332-.695-.818-.814-1.456h-.082c-.592.657-1.228 1.158-1.907 1.504-.68.347-1.497.52-2.454.52-1.012 0-1.844-.31-2.495-.93-.652-.62-.978-1.43-.978-2.433 0-.52.073-.985.219-1.395.146-.41.364-.78.656-1.107a3.28 3.28 0 0 1 .902-.732 7.885 7.885 0 0 1 1.053-.513c.41-.155 1.242-.442 2.495-.86 1.254-.42 2.099-.748 2.536-.985v-1.354a5.73 5.73 0 0 0-.075-.683 2.863 2.863 0 0 0-.321-.957 2.723 2.723 0 0 0-.773-.882c-.332-.25-.804-.376-1.415-.376-.419 0-.808.07-1.169.212-.36.141-.612.29-.758.444 0 .182.043.451.13.807.086.355.13.683.13.984 0 .319-.144.61-.431.875-.287.264-.686.397-1.196.397-.456 0-.791-.162-1.005-.486a1.926 1.926 0 0 1-.322-1.087c0-.419.148-.82.445-1.203a4.462 4.462 0 0 1 1.155-1.025c.41-.255.907-.472 1.49-.65a5.847 5.847 0 0 1 1.71-.266c.765 0 1.432.052 2.002.157.57.105 1.087.33 1.552.677.465.337.818.795 1.06 1.374.241.579.362 1.324.362 2.235 0 1.303-.014 2.459-.041 3.466a122.315 122.315 0 0 0-.041 3.302c0 .355.061.638.184.847.123.21.312.388.568.534.136.082.353.127.65.136.295.01.598.014.908.014v.875zm-4.771-7.219a29.86 29.86 0 0 0-2.037.67 8.246 8.246 0 0 0-1.627.82 3.7 3.7 0 0 0-1.08 1.101c-.265.424-.397.927-.397 1.51 0 .757.198 1.313.595 1.669.396.355.9.533 1.51.533.648 0 1.217-.157 1.71-.472a4.973 4.973 0 0 0 1.244-1.114l.082-4.717z"/>
		</g>
	</svg>