<svg  class="LogoEbirdPortal LogoEbirdPortal--newzealand" xmlns="http://www.w3.org/2000/svg" width="221" height="32" viewBox="0 0 221 32" role="img" aria-labelledby="logo-ebird-portal-newzealand-title-ebird-header">
		<title id="logo-ebird-portal-newzealand-title-ebird-header">New Zealand eBird logo</title>
		<g fill="none" fill-rule="evenodd">
			<path class="LogoEbirdPortal-e" fill="#50A61C" fill-rule="nonzero" d="M171.096 20.54l-1.304-.79-.098.174c-.39.802-.966 1.499-1.68 2.034a3.702 3.702 0 0 1-2.042.553 4.231 4.231 0 0 1-2.007-.446 3.717 3.717 0 0 1-1.359-1.22 5.752 5.752 0 0 1-.79-1.89 10.505 10.505 0 0 1-.26-2.24h9.141v-1.113a8.296 8.296 0 0 0-.324-2.37 5.404 5.404 0 0 0-.991-1.913 4.816 4.816 0 0 0-1.822-1.355 6.601 6.601 0 0 0-2.666-.493 5.926 5.926 0 0 0-2.738.628 6.274 6.274 0 0 0-2.038 1.659c-.566.708-1 1.51-1.284 2.37a8.6 8.6 0 0 0-.439 2.718c-.009.98.124 1.955.395 2.896a6.996 6.996 0 0 0 1.256 2.406 5.95 5.95 0 0 0 2.134 1.647c.943.42 1.966.626 2.998.605a6.064 6.064 0 0 0 3.453-1.012 7.28 7.28 0 0 0 2.37-2.702l.095-.146zm-6.226-9.62c.47-.02.935.108 1.327.368.35.255.633.593.822.983.204.457.337.942.395 1.438.074.482.117.967.13 1.454h-5.988a5.385 5.385 0 0 1 1.003-3.085 2.797 2.797 0 0 1 2.311-1.158z"/>
			<path class="LogoEbirdPortal-bird" fill="#231F20" fill-rule="nonzero" d="M219.601 22.492l.198.004v1.276l-5.089.324-.331-.309v-1.039a6.036 6.036 0 0 1-1.632 1.142c-.71.35-1.491.534-2.283.537a5.42 5.42 0 0 1-2.37-.545 5.95 5.95 0 0 1-1.976-1.525 7.506 7.506 0 0 1-1.343-2.37 9.126 9.126 0 0 1-.494-3.058 8.079 8.079 0 0 1 .53-2.907 7.731 7.731 0 0 1 1.461-2.41 6.499 6.499 0 0 1 2.153-1.545 6.74 6.74 0 0 1 4.543-.324c.468.12.923.283 1.36.49V5.725a2.65 2.65 0 0 0-.183-1 1.454 1.454 0 0 0-.478-.651 2.568 2.568 0 0 0-.98-.352c-.467-.082-.94-.14-1.414-.173h-.177V2.324L217.02 2l.332.324v18.682c-.007.256.05.51.166.739.118.21.287.386.49.514.21.11.442.17.68.177.331.037.636.056.912.056zm-15.051-9.288a1.37 1.37 0 0 1-1.237.648c-.49.025-.97-.149-1.331-.482a1.422 1.422 0 0 1-.47-1.031c-.003-.2.015-.4.05-.597l.048-.26a3.366 3.366 0 0 0-1.224.505 4.346 4.346 0 0 0-1.407 1.402v7.977c-.011.243.045.485.162.699a.944.944 0 0 0 .498.395c.276.101.564.167.857.198.36.047.68.098.948.098h.178v1.288H187.03v-1.288l.841-.07a2.37 2.37 0 0 0 .55-.104.818.818 0 0 0 .497-.355c.118-.22.174-.47.162-.72v-8.509a1.497 1.497 0 0 0-.182-.727 1.628 1.628 0 0 0-.51-.572 2.473 2.473 0 0 0-.702-.257 5.566 5.566 0 0 0-.893-.142h-.178v-1.28l5.136-.324.312.312v11.35c-.007.245.05.487.166.703a.92.92 0 0 0 .494.395 3.516 3.516 0 0 0 1.197.296h.13l.79-.067c.187-.012.37-.047.55-.103a.814.814 0 0 0 .477-.355c.117-.221.173-.47.162-.72v-8.532a1.762 1.762 0 0 0-.182-.77 1.505 1.505 0 0 0-.505-.597 1.722 1.722 0 0 0-.561-.214 5.468 5.468 0 0 0-.759-.102h-.178v-1.28l4.856-.324.312.312v1.58a6.266 6.266 0 0 1 1.718-1.434c1.494-.826 2.821-.806 3.611.02.416.454.633 1.056.605 1.67a2.52 2.52 0 0 1-.395 1.368zm-14.155-6.645a1.825 1.825 0 0 1-1.38-.608 2.046 2.046 0 0 1-.576-1.442c-.006-.547.2-1.075.573-1.474.345-.405.85-.639 1.383-.64a1.916 1.916 0 0 1 1.446.593c.362.369.564.865.564 1.382a2.232 2.232 0 0 1-.572 1.53 1.849 1.849 0 0 1-1.438.659zm-5.555 7.893a5.06 5.06 0 0 1 1.497 1.6c.417.732.625 1.564.6 2.406a4.86 4.86 0 0 1-.627 2.505 5.393 5.393 0 0 1-1.644 1.734 7.403 7.403 0 0 1-2.172 1.007 9.134 9.134 0 0 1-2.477.328h-9.589v-1.359h.174c.222-.02.545-.059.968-.118.298-.03.592-.098.873-.202a1.09 1.09 0 0 0 .526-.442 1.58 1.58 0 0 0 .158-.755V6.86a1.88 1.88 0 0 0-.146-.762c-.116-.226-.31-.401-.546-.494a3.828 3.828 0 0 0-.896-.308 6.755 6.755 0 0 0-.842-.135h-.178V3.81h9.34a9.876 9.876 0 0 1 2.077.213 6.262 6.262 0 0 1 1.913.766 4.231 4.231 0 0 1 1.418 1.39 3.95 3.95 0 0 1 .56 2.146 4.618 4.618 0 0 1-.394 1.947 4.31 4.31 0 0 1-1.114 1.474c-.459.394-.971.721-1.521.972a8.525 8.525 0 0 1-1.229.454c.446.087.886.2 1.32.336a6.83 6.83 0 0 1 1.951.944zm29.499-1.311a3.516 3.516 0 0 0-.328-.684 3.319 3.319 0 0 0-.592-.727 3.405 3.405 0 0 0-.897-.545 3.066 3.066 0 0 0-1.185-.217 2.718 2.718 0 0 0-1.442.395 3.95 3.95 0 0 0-1.186 1.185 6.258 6.258 0 0 0-.79 1.932 10.959 10.959 0 0 0-.296 2.635 9.24 9.24 0 0 0 .217 2.09c.142.611.388 1.194.727 1.722.3.48.705.886 1.185 1.185a3.16 3.16 0 0 0 1.691.431 3.093 3.093 0 0 0 1.746-.443c.425-.278.811-.61 1.15-.987V13.14zm-32.458-2.9a6.1 6.1 0 0 0 .198-1.64 3.394 3.394 0 0 0-.842-2.441c-.557-.58-1.458-.873-2.682-.873-.295 0-.668.006-1.118.02l-.952.027v7.257h1.58a5.63 5.63 0 0 0 1.896-.284 2.888 2.888 0 0 0 1.24-.826c.314-.36.546-.782.68-1.24zm-5.396 3.919v6.803c-.032.48.21.939.624 1.185.58.302 1.232.44 1.884.395 1.328 0 2.35-.364 3.05-1.134.7-.77 1.055-1.932 1.055-3.453a3.67 3.67 0 0 0-1.122-2.765c-.747-.715-1.841-1.079-3.247-1.079-.596 0-1.097.007-1.506.02l-.738.028z"/>
			<path class="LogoEbirdPortal-portal" fill="#50A61C" d="M22.22 5.567c-.255.009-.646.082-1.174.218-.528.137-.906.278-1.134.424-.327.227-.548.664-.662 1.31-.114.647-.17 1.466-.17 2.458v14.188H17.89L6.148 8.312v9.995c0 1.12.07 1.98.212 2.58.141.601.357 1.03.649 1.284.209.2.641.387 1.297.56.655.173 1.088.264 1.297.273v.97H1.656v-.97c.246-.018.66-.107 1.242-.266.583-.16.947-.303 1.093-.43.318-.255.537-.644.655-1.168.119-.523.178-1.418.178-2.683V8.912c0-.418-.073-.837-.219-1.256-.145-.419-.341-.742-.587-.97-.328-.3-.771-.557-1.331-.77-.56-.215-1.013-.33-1.359-.35v-.969h5.53l10.897 14.775v-9.217c0-1.129-.073-1.996-.219-2.601-.145-.606-.355-1.009-.628-1.209-.255-.173-.671-.341-1.25-.505-.577-.164-1.016-.255-1.317-.273v-.97h7.879v.97zm11.978 15.239c-.564 1.074-1.32 1.93-2.266 2.567-.947.637-2.035.956-3.264.956-1.083 0-2.032-.192-2.847-.574a5.59 5.59 0 0 1-2.014-1.557 6.612 6.612 0 0 1-1.181-2.294 9.69 9.69 0 0 1-.39-2.771c0-.874.14-1.732.417-2.574.278-.842.685-1.6 1.222-2.274a5.914 5.914 0 0 1 1.933-1.563c.769-.396 1.631-.594 2.587-.594.983 0 1.825.154 2.526.464.701.31 1.27.733 1.707 1.27.419.51.73 1.11.935 1.802.205.692.308 1.443.308 2.253v.901h-8.917c0 .883.084 1.685.253 2.404.168.719.434 1.352.799 1.898a3.8 3.8 0 0 0 1.392 1.25c.574.304 1.257.457 2.049.457.81 0 1.508-.19 2.096-.567.587-.378 1.153-1.058 1.7-2.041l.955.587zm-3.017-5.135c0-.51-.044-1.055-.13-1.638-.087-.583-.225-1.07-.417-1.461a2.775 2.775 0 0 0-.86-1.024c-.364-.264-.833-.396-1.406-.396-.956 0-1.75.398-2.383 1.195-.633.796-.976 1.904-1.03 3.324h6.226zm23.434-4.287c-.382.036-.794.196-1.235.478-.442.282-.763.705-.963 1.27a1575.108 1575.108 0 0 0-2.649 7.838 49.902 49.902 0 0 0-.956 3.1h-1.174l-3.619-9.914-3.645 9.913h-1.12c-.683-2.02-1.35-4.026-2-6.015-.652-1.989-1.227-3.72-1.728-5.195a1.848 1.848 0 0 0-.833-1.01c-.41-.247-.806-.392-1.188-.438v-.901h6.008v.956c-.3.009-.626.059-.976.15s-.526.241-.526.45c0 .037.016.114.048.233.032.118.07.246.116.382.291.956.621 2.023.99 3.202.369 1.179.844 2.71 1.427 4.595l3.441-9.695h1.31l3.51 9.558c.392-1.22.78-2.4 1.168-3.543a77.97 77.97 0 0 0 1.017-3.216c.064-.236.125-.453.184-.648.06-.196.089-.39.089-.58a.57.57 0 0 0-.218-.438 1.79 1.79 0 0 0-.533-.314 2.91 2.91 0 0 0-.594-.164 3.143 3.143 0 0 0-.471-.054v-.874h5.12v.874zm20.503 6.54l-.642 6.05H58.909v-.478l12.194-17.82h-4.465c-.519 0-.954.01-1.304.027-.35.019-.671.055-.963.11-.6.118-1.276.614-2.027 1.488-.751.874-1.318 1.798-1.7 2.772h-.956l.587-5.476H74.79v.478l-12.194 17.82h4.602c.774 0 1.597-.055 2.471-.164.874-.11 1.443-.296 1.707-.56.592-.564 1.143-1.256 1.652-2.075.51-.82.888-1.543 1.134-2.171h.956zm11.992 2.882c-.565 1.074-1.32 1.93-2.267 2.567-.947.637-2.035.956-3.264.956-1.083 0-2.032-.192-2.847-.574a5.59 5.59 0 0 1-2.014-1.557 6.612 6.612 0 0 1-1.18-2.294 9.69 9.69 0 0 1-.39-2.771c0-.874.139-1.732.417-2.574.277-.842.685-1.6 1.222-2.274a5.914 5.914 0 0 1 1.932-1.563c.769-.396 1.632-.594 2.587-.594.984 0 1.826.154 2.527.464.7.31 1.27.733 1.706 1.27.42.51.73 1.11.936 1.802.205.692.307 1.443.307 2.253v.901h-8.917c0 .883.085 1.685.253 2.404.168.719.435 1.352.799 1.898a3.8 3.8 0 0 0 1.393 1.25c.573.304 1.256.457 2.048.457.81 0 1.509-.19 2.096-.567.587-.378 1.154-1.058 1.7-2.041l.956.587zm-3.018-5.135c0-.51-.043-1.055-.13-1.638-.086-.583-.225-1.07-.416-1.461a2.775 2.775 0 0 0-.86-1.024c-.365-.264-.833-.396-1.407-.396-.956 0-1.75.398-2.383 1.195-.632.796-.976 1.904-1.03 3.324h6.226zm16.13 8.057a20.3 20.3 0 0 1-1.127.375c-.323.096-.69.144-1.1.144-.71 0-1.276-.166-1.7-.499-.423-.332-.693-.817-.812-1.454h-.082c-.591.655-1.226 1.156-1.905 1.502-.678.346-1.495.519-2.45.519-1.011 0-1.842-.31-2.493-.929-.65-.619-.976-1.429-.976-2.43 0-.519.073-.983.219-1.393a3.33 3.33 0 0 1 .655-1.106c.228-.273.528-.517.901-.73a7.875 7.875 0 0 1 1.052-.513c.41-.154 1.24-.441 2.492-.86 1.251-.419 2.096-.746 2.533-.983V14.02c0-.118-.025-.346-.076-.683a2.859 2.859 0 0 0-.32-.955 2.72 2.72 0 0 0-.772-.881c-.332-.25-.803-.376-1.413-.376-.419 0-.808.071-1.168.212-.36.141-.612.29-.758.444 0 .182.044.45.13.805.087.356.13.683.13.984 0 .318-.143.61-.43.874-.287.264-.685.396-1.195.396-.455 0-.79-.162-1.004-.485a1.923 1.923 0 0 1-.32-1.086c0-.419.147-.82.443-1.201.296-.383.68-.724 1.154-1.025a6.28 6.28 0 0 1 1.488-.648 5.84 5.84 0 0 1 1.707-.266c.765 0 1.432.052 2 .157.57.104 1.086.33 1.55.676.465.336.818.794 1.059 1.372.241.578.362 1.322.362 2.232 0 1.302-.014 2.456-.041 3.462a122.158 122.158 0 0 0-.041 3.298c0 .355.061.637.184.846.123.21.312.387.567.533.136.082.353.127.648.136.296.01.599.014.908.014v.874zm-4.766-7.21c-.774.228-1.452.45-2.035.67a8.236 8.236 0 0 0-1.625.818c-.455.31-.814.676-1.078 1.1-.264.423-.396.926-.396 1.509 0 .755.198 1.31.594 1.665.396.355.899.533 1.509.533.646 0 1.215-.157 1.706-.471a4.967 4.967 0 0 0 1.243-1.113l.082-4.71zm11.214 7.456h-6.568v-.902c.209-.018.432-.038.669-.061.236-.023.432-.057.587-.102.255-.082.446-.226.573-.43.128-.205.192-.472.192-.8V6.087c0-.328-.071-.635-.212-.922a1.781 1.781 0 0 0-.553-.676c-.164-.11-.464-.21-.901-.3a8.2 8.2 0 0 0-1.052-.164V3.15l5.066-.314.191.205v18.475c0 .318.06.58.178.785.118.205.31.362.573.471.2.091.399.16.594.205.196.045.417.077.663.095v.902zm13.248-.246a20.3 20.3 0 0 1-1.127.375c-.323.096-.69.144-1.099.144-.71 0-1.277-.166-1.7-.499-.423-.332-.694-.817-.812-1.454h-.082c-.592.655-1.227 1.156-1.905 1.502-.678.346-1.495.519-2.451.519-1.01 0-1.841-.31-2.492-.929s-.976-1.429-.976-2.43c0-.519.072-.983.218-1.393a3.33 3.33 0 0 1 .655-1.106c.228-.273.528-.517.902-.73a7.875 7.875 0 0 1 1.051-.513c.41-.154 1.24-.441 2.492-.86s2.096-.746 2.533-.983V14.02c0-.118-.025-.346-.075-.683a2.859 2.859 0 0 0-.32-.955 2.72 2.72 0 0 0-.772-.881c-.333-.25-.804-.376-1.414-.376-.418 0-.808.071-1.167.212-.36.141-.612.29-.758.444 0 .182.043.45.13.805.086.356.13.683.13.984 0 .318-.144.61-.43.874-.287.264-.686.396-1.195.396-.456 0-.79-.162-1.004-.485a1.923 1.923 0 0 1-.321-1.086c0-.419.148-.82.444-1.201.296-.383.68-.724 1.154-1.025a6.28 6.28 0 0 1 1.488-.648 5.84 5.84 0 0 1 1.707-.266c.765 0 1.431.052 2 .157.57.104 1.086.33 1.55.676.464.336.817.794 1.058 1.372.242.578.362 1.322.362 2.232 0 1.302-.013 2.456-.04 3.462a122.157 122.157 0 0 0-.042 3.298c0 .355.062.637.185.846.122.21.311.387.566.533.137.082.353.127.649.136.296.01.598.014.908.014v.874zm-4.766-7.21c-.773.228-1.452.45-2.034.67a8.236 8.236 0 0 0-1.625.818c-.455.31-.815.676-1.079 1.1-.264.423-.396.926-.396 1.509 0 .755.198 1.31.594 1.665.396.355.9.533 1.509.533.646 0 1.215-.157 1.707-.471a4.967 4.967 0 0 0 1.242-1.113l.082-4.71zm19.776 7.456h-6.596v-.902c.21-.018.44-.036.69-.054.25-.018.457-.055.621-.11a.982.982 0 0 0 .567-.43c.123-.204.184-.47.184-.798v-6.923c0-.956-.225-1.694-.676-2.212-.45-.52-.999-.779-1.645-.779-.483 0-.924.075-1.325.225-.4.15-.755.335-1.065.554-.3.209-.539.434-.717.675a6.102 6.102 0 0 0-.389.58v7.743c0 .31.064.564.192.765.127.2.318.355.573.464.191.091.398.16.621.205.223.045.453.077.69.095v.902h-6.595v-.902l.648-.054c.223-.018.417-.055.58-.11a.982.982 0 0 0 .567-.43c.123-.204.185-.47.185-.798v-8.316c0-.31-.066-.594-.198-.854a1.694 1.694 0 0 0-.553-.635 1.863 1.863 0 0 0-.615-.239 5.45 5.45 0 0 0-.765-.102v-.888l4.48-.3.19.191v1.898h.069c.218-.218.491-.48.819-.785.328-.305.637-.553.928-.744a4.89 4.89 0 0 1 1.202-.546 5.237 5.237 0 0 1 1.57-.219c1.293 0 2.251.403 2.875 1.209.623.805.935 1.877.935 3.215v7.005c0 .319.055.576.164.772.11.196.296.348.56.457.218.091.407.155.566.191.16.037.38.064.663.082v.902zm15.2-.246l-4.697.3-.204-.19V22.58l-.11-.027a5.595 5.595 0 0 1-1.754 1.297 4.886 4.886 0 0 1-2.151.505 5.09 5.09 0 0 1-2.219-.512 5.604 5.604 0 0 1-1.864-1.44c-.537-.629-.962-1.384-1.276-2.267-.315-.883-.472-1.857-.472-2.923 0-.974.169-1.898.506-2.771a7.308 7.308 0 0 1 1.392-2.294 6.142 6.142 0 0 1 2.042-1.462 5.929 5.929 0 0 1 2.465-.546c.628 0 1.244.08 1.85.24.605.159 1.126.361 1.563.607V6.304c0-.382-.063-.73-.19-1.044-.128-.314-.306-.553-.533-.717-.255-.173-.599-.298-1.031-.376a13.538 13.538 0 0 0-1.4-.17V3.15l5.503-.314.205.205V21.2c0 .32.061.59.184.813.123.223.303.412.54.567.172.11.423.177.75.205.328.027.629.045.902.054v.888zm-4.929-2.362v-7.88a3.522 3.522 0 0 0-.355-.764 3.42 3.42 0 0 0-.614-.751 3.495 3.495 0 0 0-.929-.567c-.355-.15-.769-.225-1.242-.225a2.83 2.83 0 0 0-1.51.423c-.459.283-.866.688-1.221 1.216-.337.51-.603 1.158-.8 1.945-.195.788-.293 1.66-.293 2.615 0 .765.073 1.46.219 2.083.145.623.391 1.204.737 1.74.319.51.726.92 1.222 1.23.496.31 1.086.464 1.769.464.728 0 1.33-.16 1.809-.478.478-.319.88-.67 1.208-1.051z"/>
		</g>
	</svg>