<svg  class="LogoEbirdPortal LogoEbirdPortal--paraguay" xmlns="http://www.w3.org/2000/svg" width="177px" height="32px" viewBox="0 0 177 32" role="img" aria-labelledby="logo-ebird-portal-paraguay-title-ebird-header">
		<title id="logo-ebird-portal-paraguay-title-ebird-header">eBird Paraguay logo</title>
		<g fill="none" fill-rule="evenodd">
			<path class="LogoEbirdPortal-e" fill="#50A61C" fill-rule="nonzero" d="M14.096 20.54l-1.304-.79-.098.174c-.39.802-.966 1.499-1.68 2.034a3.702 3.702 0 0 1-2.042.553 4.231 4.231 0 0 1-2.007-.446 3.717 3.717 0 0 1-1.359-1.22 5.752 5.752 0 0 1-.79-1.89 10.505 10.505 0 0 1-.26-2.24h9.141v-1.113a8.296 8.296 0 0 0-.324-2.37 5.404 5.404 0 0 0-.991-1.913 4.816 4.816 0 0 0-1.822-1.355 6.601 6.601 0 0 0-2.666-.493 5.926 5.926 0 0 0-2.738.628 6.274 6.274 0 0 0-2.038 1.659c-.566.708-1 1.51-1.284 2.37a8.6 8.6 0 0 0-.439 2.718c-.009.98.124 1.955.395 2.896a6.996 6.996 0 0 0 1.256 2.406 5.95 5.95 0 0 0 2.134 1.647c.943.42 1.966.626 2.998.605a6.064 6.064 0 0 0 3.453-1.012 7.28 7.28 0 0 0 2.37-2.702l.095-.146zM7.87 10.92c.47-.02.935.108 1.327.368.35.255.633.593.822.983.204.457.337.942.395 1.438.074.482.117.967.13 1.454H4.557a5.385 5.385 0 0 1 1.003-3.085A2.797 2.797 0 0 1 7.87 10.92z"/>
			<path class="LogoEbirdPortal-bird" fill="#231F20" fill-rule="nonzero" d="M62.601 22.492l.198.004v1.276l-5.089.324-.331-.309v-1.039a6.036 6.036 0 0 1-1.632 1.142c-.71.35-1.491.534-2.283.537a5.42 5.42 0 0 1-2.37-.545 5.95 5.95 0 0 1-1.976-1.525 7.506 7.506 0 0 1-1.343-2.37 9.126 9.126 0 0 1-.494-3.058 8.079 8.079 0 0 1 .53-2.907 7.731 7.731 0 0 1 1.461-2.41 6.499 6.499 0 0 1 2.153-1.545 6.74 6.74 0 0 1 4.543-.324c.468.12.923.283 1.36.49V5.725a2.65 2.65 0 0 0-.183-1 1.454 1.454 0 0 0-.478-.651 2.568 2.568 0 0 0-.98-.352c-.467-.082-.94-.14-1.414-.173h-.177V2.324L60.02 2l.332.324v18.682c-.007.256.05.51.166.739.118.21.287.386.49.514.21.11.442.17.68.177.331.037.636.056.912.056zM47.55 13.204a1.37 1.37 0 0 1-1.237.648c-.49.025-.97-.149-1.331-.482a1.422 1.422 0 0 1-.47-1.031c-.003-.2.015-.4.05-.597l.048-.26a3.366 3.366 0 0 0-1.224.505 4.346 4.346 0 0 0-1.407 1.402v7.977c-.011.243.045.485.162.699a.944.944 0 0 0 .498.395c.276.101.564.167.857.198.36.047.68.098.948.098h.178v1.288H30.03v-1.288l.841-.07a2.37 2.37 0 0 0 .55-.104.818.818 0 0 0 .497-.355c.118-.22.174-.47.162-.72v-8.509a1.497 1.497 0 0 0-.182-.727 1.628 1.628 0 0 0-.51-.572 2.473 2.473 0 0 0-.702-.257 5.566 5.566 0 0 0-.893-.142h-.178v-1.28l5.136-.324.312.312v11.35c-.007.245.05.487.166.703a.92.92 0 0 0 .494.395 3.516 3.516 0 0 0 1.197.296h.13l.79-.067c.187-.012.37-.047.55-.103a.814.814 0 0 0 .477-.355c.117-.221.173-.47.162-.72v-8.532a1.762 1.762 0 0 0-.182-.77 1.505 1.505 0 0 0-.505-.597 1.722 1.722 0 0 0-.561-.214 5.468 5.468 0 0 0-.759-.102h-.178v-1.28l4.856-.324.312.312v1.58a6.266 6.266 0 0 1 1.718-1.434c1.494-.826 2.821-.806 3.611.02.416.454.633 1.056.605 1.67a2.52 2.52 0 0 1-.395 1.368zM33.395 6.559a1.825 1.825 0 0 1-1.38-.608 2.046 2.046 0 0 1-.576-1.442c-.006-.547.2-1.075.573-1.474.345-.405.85-.639 1.383-.64a1.916 1.916 0 0 1 1.446.593c.362.369.564.865.564 1.382a2.232 2.232 0 0 1-.572 1.53 1.849 1.849 0 0 1-1.438.659zm-5.555 7.893a5.06 5.06 0 0 1 1.497 1.6c.417.732.625 1.564.6 2.406a4.86 4.86 0 0 1-.627 2.505 5.393 5.393 0 0 1-1.644 1.734 7.403 7.403 0 0 1-2.172 1.007 9.134 9.134 0 0 1-2.477.328h-9.589v-1.359h.174c.222-.02.545-.059.968-.118.298-.03.592-.098.873-.202a1.09 1.09 0 0 0 .526-.442 1.58 1.58 0 0 0 .158-.755V6.86a1.88 1.88 0 0 0-.146-.762c-.116-.226-.31-.401-.546-.494a3.828 3.828 0 0 0-.896-.308 6.755 6.755 0 0 0-.842-.135h-.178V3.81h9.34a9.876 9.876 0 0 1 2.077.213 6.262 6.262 0 0 1 1.913.766 4.231 4.231 0 0 1 1.418 1.39 3.95 3.95 0 0 1 .56 2.146 4.618 4.618 0 0 1-.394 1.947 4.31 4.31 0 0 1-1.114 1.474c-.459.394-.971.721-1.521.972a8.525 8.525 0 0 1-1.229.454c.446.087.886.2 1.32.336a6.83 6.83 0 0 1 1.951.944zm29.499-1.311a3.516 3.516 0 0 0-.328-.684 3.318 3.318 0 0 0-.592-.727 3.405 3.405 0 0 0-.897-.545 3.066 3.066 0 0 0-1.185-.217 2.718 2.718 0 0 0-1.442.395 3.95 3.95 0 0 0-1.186 1.185 6.258 6.258 0 0 0-.79 1.932 10.959 10.959 0 0 0-.296 2.635 9.24 9.24 0 0 0 .217 2.09c.142.611.388 1.194.727 1.722.3.48.705.886 1.185 1.185a3.16 3.16 0 0 0 1.691.431 3.093 3.093 0 0 0 1.746-.443c.425-.278.811-.61 1.15-.987V13.14zm-32.458-2.9a6.1 6.1 0 0 0 .198-1.64 3.394 3.394 0 0 0-.842-2.441c-.557-.58-1.458-.873-2.682-.873-.295 0-.668.006-1.118.02l-.952.027v7.257h1.58a5.63 5.63 0 0 0 1.896-.284 2.888 2.888 0 0 0 1.24-.826c.314-.36.546-.782.68-1.24zm-5.396 3.919v6.803c-.032.48.21.939.624 1.185.58.302 1.232.44 1.884.395 1.328 0 2.35-.364 3.05-1.134.7-.77 1.055-1.932 1.055-3.453a3.67 3.67 0 0 0-1.122-2.765c-.747-.715-1.841-1.079-3.247-1.079-.596 0-1.097.007-1.506.02l-.738.028z"/>
			<path class="LogoEbirdPortal-portal" fill="#50A61C" d="M85.188 9.385c0 1.011-.199 1.907-.595 2.686a5.367 5.367 0 0 1-1.648 1.935 7.112 7.112 0 0 1-2.283 1.121 9.562 9.562 0 0 1-2.639.355H75.85v5.88c0 .318.052.599.157.84.105.242.321.426.65.554.163.064.453.123.867.178.415.054.796.086 1.142.095V24H70.34v-.97c.219-.019.535-.05.95-.096.415-.046.704-.105.868-.178.274-.119.472-.292.595-.52.123-.228.184-.52.184-.875v-14a2.55 2.55 0 0 0-.136-.861c-.091-.255-.306-.447-.643-.574a5.776 5.776 0 0 0-1.032-.253c-.342-.05-.636-.084-.882-.103V4.6h8.86c1.804 0 3.27.435 4.395 1.305 1.126.87 1.689 2.03 1.689 3.48zm-4.157 3.308c.31-.437.515-.89.615-1.36.1-.47.15-.89.15-1.265 0-.52-.06-1.048-.184-1.586a3.685 3.685 0 0 0-.635-1.408 3.18 3.18 0 0 0-1.258-.998c-.52-.237-1.167-.355-1.942-.355H75.85v8.572h1.394c.985 0 1.784-.153 2.4-.458.615-.305 1.077-.686 1.387-1.142zm17.6 11.06c-.43.156-.805.281-1.129.377a3.88 3.88 0 0 1-1.1.143c-.711 0-1.279-.166-1.703-.499-.423-.332-.695-.818-.813-1.456h-.082c-.593.657-1.228 1.158-1.907 1.504-.68.347-1.497.52-2.454.52-1.012 0-1.844-.31-2.496-.93-.651-.62-.977-1.43-.977-2.433 0-.52.073-.985.219-1.395.146-.41.364-.78.656-1.107a3.28 3.28 0 0 1 .902-.732 7.885 7.885 0 0 1 1.053-.513c.41-.155 1.242-.442 2.495-.86 1.253-.42 2.099-.748 2.536-.985v-1.354a5.73 5.73 0 0 0-.075-.683 2.863 2.863 0 0 0-.321-.957 2.723 2.723 0 0 0-.773-.882c-.332-.25-.804-.376-1.415-.376-.419 0-.809.07-1.169.212-.36.141-.613.29-.758.444 0 .182.043.451.13.807.086.355.13.683.13.984 0 .319-.144.61-.431.875-.287.264-.686.397-1.197.397-.455 0-.79-.162-1.005-.486a1.926 1.926 0 0 1-.32-1.087c0-.419.147-.82.444-1.203a4.462 4.462 0 0 1 1.155-1.025c.41-.255.907-.472 1.49-.65a5.847 5.847 0 0 1 1.709-.266c.766 0 1.433.052 2.003.157.57.105 1.087.33 1.552.677.465.337.818.795 1.06 1.374.24.579.362 1.324.362 2.235 0 1.303-.014 2.459-.041 3.466a122.31 122.31 0 0 0-.041 3.302c0 .355.061.638.184.847.123.21.312.388.567.534.137.082.354.127.65.136.296.01.6.014.91.014v.875zm-4.772-7.218a29.86 29.86 0 0 0-2.038.67 8.246 8.246 0 0 0-1.626.82 3.7 3.7 0 0 0-1.08 1.101c-.265.424-.397.927-.397 1.51 0 .757.198 1.313.595 1.669.396.355.9.533 1.51.533.648 0 1.217-.157 1.71-.472a4.973 4.973 0 0 0 1.244-1.114l.082-4.717zm15.233-4.28c0 .466-.114.878-.342 1.238-.227.36-.578.54-1.052.54-.51 0-.9-.132-1.17-.396-.268-.265-.403-.556-.403-.875 0-.2.016-.383.048-.547.032-.164.062-.328.09-.492-.43 0-.93.173-1.505.52-.574.346-1.062.838-1.463 1.476v7.847c0 .32.062.58.185.78.123.2.317.35.58.45.229.092.523.16.883.206.36.046.672.077.936.096V24h-7.11v-.902c.21-.019.427-.037.65-.055.224-.018.417-.055.581-.11a.983.983 0 0 0 .568-.43c.123-.205.184-.472.184-.8v-8.326c0-.283-.066-.56-.198-.834a1.66 1.66 0 0 0-.554-.656 1.865 1.865 0 0 0-.615-.24 5.457 5.457 0 0 0-.765-.102v-.889l4.484-.3.191.19v1.901h.069c.565-.738 1.194-1.299 1.886-1.681.693-.383 1.327-.575 1.9-.575.575 0 1.042.187 1.402.561.36.374.54.875.54 1.504zm12.718 11.499c-.428.155-.804.28-1.128.376a3.88 3.88 0 0 1-1.1.143c-.711 0-1.279-.166-1.703-.499-.423-.332-.694-.818-.813-1.456h-.082c-.592.657-1.228 1.158-1.907 1.504-.68.347-1.497.52-2.454.52-1.012 0-1.844-.31-2.495-.93-.652-.62-.978-1.43-.978-2.433 0-.52.073-.985.219-1.395.146-.41.364-.78.656-1.107a3.28 3.28 0 0 1 .902-.732 7.885 7.885 0 0 1 1.053-.513c.41-.155 1.242-.442 2.495-.86 1.253-.42 2.099-.748 2.536-.985v-1.354a5.73 5.73 0 0 0-.075-.683 2.863 2.863 0 0 0-.321-.957 2.723 2.723 0 0 0-.773-.882c-.332-.25-.804-.376-1.415-.376-.419 0-.809.07-1.169.212-.36.141-.613.29-.758.444 0 .182.043.451.13.807.086.355.13.683.13.984 0 .319-.144.61-.431.875-.287.264-.686.397-1.197.397-.455 0-.79-.162-1.004-.486a1.926 1.926 0 0 1-.322-1.087c0-.419.148-.82.445-1.203a4.462 4.462 0 0 1 1.155-1.025c.41-.255.907-.472 1.49-.65a5.847 5.847 0 0 1 1.71-.266c.765 0 1.432.052 2.002.157.57.105 1.087.33 1.552.677.465.337.818.795 1.06 1.374.24.579.362 1.324.362 2.235 0 1.303-.014 2.459-.041 3.466a122.31 122.31 0 0 0-.041 3.302c0 .355.061.638.184.847.123.21.312.388.568.534.136.082.353.127.649.136.296.01.6.014.91.014v.875zm-4.771-7.219a29.86 29.86 0 0 0-2.037.67 8.246 8.246 0 0 0-1.627.82 3.7 3.7 0 0 0-1.08 1.101c-.265.424-.397.927-.397 1.51 0 .757.198 1.313.595 1.669.396.355.9.533 1.51.533.648 0 1.217-.157 1.71-.472a4.973 4.973 0 0 0 1.244-1.114l.082-4.717zm16.464 6.07c.364.347.651.739.861 1.176.21.438.315.98.315 1.627s-.142 1.256-.424 1.825c-.283.57-.711 1.065-1.285 1.484-.611.428-1.34.76-2.188.998-.848.237-1.896.355-3.145.355-2.041 0-3.568-.298-4.58-.895-1.011-.597-1.517-1.47-1.517-2.618 0-.93.364-1.664 1.094-2.202.729-.537 1.658-.829 2.789-.875v-.19a8.383 8.383 0 0 1-.848-.309 3.286 3.286 0 0 1-.752-.43 2.33 2.33 0 0 1-.574-.677c-.146-.26-.219-.581-.219-.964 0-.483.171-.927.513-1.333.342-.405.859-.754 1.552-1.046v-.205c-.875-.41-1.555-.936-2.038-1.579-.483-.643-.724-1.388-.724-2.235 0-1.276.476-2.324 1.429-3.145.952-.82 2.171-1.23 3.657-1.23.41 0 .818.04 1.223.123.406.082.818.187 1.238.314h4.703v1.313h-3.172v.082c.337.392.588.825.752 1.299.164.474.246.938.246 1.394 0 1.185-.48 2.188-1.442 3.008-.962.82-2.08 1.23-3.357 1.23h-1.654c-.21.073-.429.205-.656.397-.228.191-.342.451-.342.78 0 .336.096.594.287.772.191.177.424.298.697.362.265.073.572.118.923.137.351.018.713.032 1.087.04.401.01.95.037 1.647.083a50.31 50.31 0 0 0 1.484.082c.42.018.84.118 1.264.3.424.183.81.433 1.156.752zm-3.692-7.998c0-1.066-.216-1.916-.65-2.55-.432-.633-1.04-.95-1.824-.95-.429 0-.796.09-1.1.267-.306.178-.555.43-.746.759-.182.3-.312.663-.39 1.087a7.247 7.247 0 0 0-.116 1.305c0 1.012.221 1.837.663 2.475.442.638 1.014.957 1.716.957.784 0 1.388-.317 1.812-.95.423-.634.635-1.433.635-2.4zm2.625 11.307c0-.51-.118-.93-.355-1.258-.237-.328-.597-.551-1.08-.67-.255-.036-.78-.077-1.572-.123a48.817 48.817 0 0 0-2.762-.068c-.985.191-1.684.513-2.099.964-.415.451-.622 1.032-.622 1.743 0 .319.068.624.205.916.137.292.374.56.711.807.32.237.748.43 1.285.58.538.151 1.194.226 1.969.226 1.34 0 2.395-.257 3.165-.772s1.155-1.297 1.155-2.345zm17.025-2.16l-4.389.3-.205-.19v-1.71h-.082c-.219.228-.465.472-.738.732a5.19 5.19 0 0 1-.943.704 6.04 6.04 0 0 1-1.19.56c-.383.128-.925.192-1.627.192-1.194 0-2.103-.39-2.727-1.17-.625-.778-.937-1.91-.937-3.397v-6.453c0-.328-.061-.604-.185-.827a1.716 1.716 0 0 0-.54-.58 1.72 1.72 0 0 0-.615-.24 5.855 5.855 0 0 0-.78-.103v-.888l4.499-.329.205.192v9.365c0 .975.219 1.71.656 2.201.438.492.962.739 1.573.739.5 0 .947-.078 1.34-.233.391-.155.72-.337.984-.547.246-.191.462-.394.65-.608.186-.214.33-.413.43-.595v-7.642c0-.301-.064-.568-.192-.8a1.79 1.79 0 0 0-.533-.595c-.164-.11-.408-.175-.731-.198a44.125 44.125 0 0 0-1.087-.062v-.888l4.894-.329.205.192v10.705c0 .31.064.574.192.793.127.219.305.406.533.56.164.1.36.167.588.199.228.032.478.052.752.061v.889zm13.224 0c-.429.155-.805.28-1.128.376a3.88 3.88 0 0 1-1.1.143c-.712 0-1.28-.166-1.703-.499-.424-.332-.695-.818-.813-1.456h-.082c-.593.657-1.229 1.158-1.908 1.504-.679.347-1.497.52-2.454.52-1.011 0-1.843-.31-2.495-.93-.652-.62-.977-1.43-.977-2.433 0-.52.073-.985.218-1.395.146-.41.365-.78.657-1.107a3.28 3.28 0 0 1 .902-.732 7.885 7.885 0 0 1 1.053-.513 86.17 86.17 0 0 1 2.495-.86c1.253-.42 2.098-.748 2.536-.985v-1.354a5.73 5.73 0 0 0-.075-.683 2.863 2.863 0 0 0-.322-.957 2.723 2.723 0 0 0-.772-.882c-.333-.25-.804-.376-1.415-.376-.42 0-.809.07-1.169.212-.36.141-.613.29-.759.444 0 .182.044.451.13.807.087.355.13.683.13.984 0 .319-.144.61-.43.875-.288.264-.687.397-1.197.397-.456 0-.79-.162-1.005-.486a1.926 1.926 0 0 1-.321-1.087c0-.419.148-.82.444-1.203a4.462 4.462 0 0 1 1.155-1.025c.41-.255.907-.472 1.49-.65a5.847 5.847 0 0 1 1.71-.266c.765 0 1.433.052 2.003.157.57.105 1.087.33 1.551.677.465.337.818.795 1.06 1.374.241.579.362 1.324.362 2.235 0 1.303-.013 2.459-.04 3.466a122.31 122.31 0 0 0-.042 3.302c0 .355.062.638.185.847.123.21.312.388.567.534.137.082.353.127.65.136.296.01.599.014.909.014v.875zm-4.772-7.219a29.86 29.86 0 0 0-2.037.67 8.246 8.246 0 0 0-1.627.82 3.7 3.7 0 0 0-1.08 1.101c-.264.424-.396.927-.396 1.51 0 .757.198 1.313.594 1.669.397.355.9.533 1.511.533.647 0 1.217-.157 1.71-.472a4.973 4.973 0 0 0 1.243-1.114l.082-4.717zm3.886 11.867c0-.455.126-.827.376-1.114.25-.287.563-.43.937-.43.291 0 .542.054.752.163.21.11.396.251.56.424.137.137.283.324.438.56.155.238.278.434.369.589.456-.246 1-.889 1.634-1.928.633-1.04 1.091-1.95 1.374-2.734a674.237 674.237 0 0 0-4.553-11.088 1.961 1.961 0 0 0-.875-.978c-.41-.232-.82-.38-1.23-.444v-.902h6.152v.957c-.274.009-.602.066-.985.17-.382.105-.574.226-.574.363 0 .054.02.146.062.273.04.128.089.26.143.397.347.902.875 2.203 1.586 3.903.711 1.7 1.263 3.06 1.655 4.081.41-.975.836-1.985 1.278-3.028a120.927 120.927 0 0 0 1.757-4.416c.118-.306.177-.568.177-.786 0-.237-.207-.458-.622-.663a3.694 3.694 0 0 0-1.182-.376v-.875h5.004v.847c-.274.046-.634.203-1.08.472-.447.269-.78.65-.998 1.141a373.48 373.48 0 0 0-2.892 6.877c-.843 2.07-1.483 3.592-1.921 4.567-.574 1.276-1.087 2.272-1.538 2.987-.451.716-.891 1.278-1.32 1.689-.419.382-.8.64-1.141.772a2.914 2.914 0 0 1-1.06.198c-.71 0-1.269-.168-1.674-.506-.406-.337-.609-.724-.609-1.162z"/>
		</g>
	</svg>