<svg  class="LogoEbirdPortal LogoEbirdPortal--pnw" xmlns="http://www.w3.org/2000/svg" width="190px" height="32px" viewBox="0 0 190 32" role="img" aria-labelledby="logo-ebird-portal-pnw-title-ebird-header">
		<title id="logo-ebird-portal-pnw-title-ebird-header">eBird Northwest logo</title>
		<g fill="none" fill-rule="evenodd">
			<path class="LogoEbirdPortal-e" fill="#50A61C" fill-rule="nonzero" d="M14.096 20.54l-1.304-.79-.098.174c-.39.802-.966 1.499-1.68 2.034a3.702 3.702 0 0 1-2.042.553 4.231 4.231 0 0 1-2.007-.446 3.717 3.717 0 0 1-1.359-1.22 5.752 5.752 0 0 1-.79-1.89 10.505 10.505 0 0 1-.26-2.24h9.141v-1.113a8.296 8.296 0 0 0-.324-2.37 5.404 5.404 0 0 0-.991-1.913 4.816 4.816 0 0 0-1.822-1.355 6.601 6.601 0 0 0-2.666-.493 5.926 5.926 0 0 0-2.738.628 6.274 6.274 0 0 0-2.038 1.659c-.566.708-1 1.51-1.284 2.37a8.6 8.6 0 0 0-.439 2.718c-.009.98.124 1.955.395 2.896a6.996 6.996 0 0 0 1.256 2.406 5.95 5.95 0 0 0 2.134 1.647c.943.42 1.966.626 2.998.605a6.064 6.064 0 0 0 3.453-1.012 7.28 7.28 0 0 0 2.37-2.702l.095-.146zM7.87 10.92c.47-.02.935.108 1.327.368.35.255.633.593.822.983.204.457.337.942.395 1.438.074.482.117.967.13 1.454H4.557a5.385 5.385 0 0 1 1.003-3.085A2.797 2.797 0 0 1 7.87 10.92z"/>
			<path class="LogoEbirdPortal-bird" fill="#231F20" fill-rule="nonzero" d="M62.601 22.492l.198.004v1.276l-5.089.324-.331-.309v-1.039a6.036 6.036 0 0 1-1.632 1.142c-.71.35-1.491.534-2.283.537a5.42 5.42 0 0 1-2.37-.545 5.95 5.95 0 0 1-1.976-1.525 7.506 7.506 0 0 1-1.343-2.37 9.126 9.126 0 0 1-.494-3.058 8.079 8.079 0 0 1 .53-2.907 7.731 7.731 0 0 1 1.461-2.41 6.499 6.499 0 0 1 2.153-1.545 6.74 6.74 0 0 1 4.543-.324c.468.12.923.283 1.36.49V5.725a2.65 2.65 0 0 0-.183-1 1.454 1.454 0 0 0-.478-.651 2.568 2.568 0 0 0-.98-.352c-.467-.082-.94-.14-1.414-.173h-.177V2.324L60.02 2l.332.324v18.682c-.007.256.05.51.166.739.118.21.287.386.49.514.21.11.442.17.68.177.331.037.636.056.912.056zM47.55 13.204a1.37 1.37 0 0 1-1.237.648c-.49.025-.97-.149-1.331-.482a1.422 1.422 0 0 1-.47-1.031c-.003-.2.015-.4.05-.597l.048-.26a3.366 3.366 0 0 0-1.224.505 4.346 4.346 0 0 0-1.407 1.402v7.977c-.011.243.045.485.162.699a.944.944 0 0 0 .498.395c.276.101.564.167.857.198.36.047.68.098.948.098h.178v1.288H30.03v-1.288l.841-.07a2.37 2.37 0 0 0 .55-.104.818.818 0 0 0 .497-.355c.118-.22.174-.47.162-.72v-8.509a1.497 1.497 0 0 0-.182-.727 1.628 1.628 0 0 0-.51-.572 2.473 2.473 0 0 0-.702-.257 5.566 5.566 0 0 0-.893-.142h-.178v-1.28l5.136-.324.312.312v11.35c-.007.245.05.487.166.703a.92.92 0 0 0 .494.395 3.516 3.516 0 0 0 1.197.296h.13l.79-.067c.187-.012.37-.047.55-.103a.814.814 0 0 0 .477-.355c.117-.221.173-.47.162-.72v-8.532a1.762 1.762 0 0 0-.182-.77 1.505 1.505 0 0 0-.505-.597 1.722 1.722 0 0 0-.561-.214 5.468 5.468 0 0 0-.759-.102h-.178v-1.28l4.856-.324.312.312v1.58a6.266 6.266 0 0 1 1.718-1.434c1.494-.826 2.821-.806 3.611.02.416.454.633 1.056.605 1.67a2.52 2.52 0 0 1-.395 1.368zM33.395 6.559a1.825 1.825 0 0 1-1.38-.608 2.046 2.046 0 0 1-.576-1.442c-.006-.547.2-1.075.573-1.474.345-.405.85-.639 1.383-.64a1.916 1.916 0 0 1 1.446.593c.362.369.564.865.564 1.382a2.232 2.232 0 0 1-.572 1.53 1.849 1.849 0 0 1-1.438.659zm-5.555 7.893a5.06 5.06 0 0 1 1.497 1.6c.417.732.625 1.564.6 2.406a4.86 4.86 0 0 1-.627 2.505 5.393 5.393 0 0 1-1.644 1.734 7.403 7.403 0 0 1-2.172 1.007 9.134 9.134 0 0 1-2.477.328h-9.589v-1.359h.174c.222-.02.545-.059.968-.118.298-.03.592-.098.873-.202a1.09 1.09 0 0 0 .526-.442 1.58 1.58 0 0 0 .158-.755V6.86a1.88 1.88 0 0 0-.146-.762c-.116-.226-.31-.401-.546-.494a3.828 3.828 0 0 0-.896-.308 6.755 6.755 0 0 0-.842-.135h-.178V3.81h9.34a9.876 9.876 0 0 1 2.077.213 6.262 6.262 0 0 1 1.913.766 4.231 4.231 0 0 1 1.418 1.39 3.95 3.95 0 0 1 .56 2.146 4.618 4.618 0 0 1-.394 1.947 4.31 4.31 0 0 1-1.114 1.474c-.459.394-.971.721-1.521.972a8.525 8.525 0 0 1-1.229.454c.446.087.886.2 1.32.336a6.83 6.83 0 0 1 1.951.944zm29.499-1.311a3.516 3.516 0 0 0-.328-.684 3.318 3.318 0 0 0-.592-.727 3.405 3.405 0 0 0-.897-.545 3.066 3.066 0 0 0-1.185-.217 2.718 2.718 0 0 0-1.442.395 3.95 3.95 0 0 0-1.186 1.185 6.258 6.258 0 0 0-.79 1.932 10.959 10.959 0 0 0-.296 2.635 9.24 9.24 0 0 0 .217 2.09c.142.611.388 1.194.727 1.722.3.48.705.886 1.185 1.185a3.16 3.16 0 0 0 1.691.431 3.093 3.093 0 0 0 1.746-.443c.425-.278.811-.61 1.15-.987V13.14zm-32.458-2.9a6.1 6.1 0 0 0 .198-1.64 3.394 3.394 0 0 0-.842-2.441c-.557-.58-1.458-.873-2.682-.873-.295 0-.668.006-1.118.02l-.952.027v7.257h1.58a5.63 5.63 0 0 0 1.896-.284 2.888 2.888 0 0 0 1.24-.826c.314-.36.546-.782.68-1.24zm-5.396 3.919v6.803c-.032.48.21.939.624 1.185.58.302 1.232.44 1.884.395 1.328 0 2.35-.364 3.05-1.134.7-.77 1.055-1.932 1.055-3.453a3.67 3.67 0 0 0-1.122-2.765c-.747-.715-1.841-1.079-3.247-1.079-.596 0-1.097.007-1.506.02l-.738.028z"/>
			<path class="LogoEbirdPortal-portal" fill="#50A61C" d="M90.246 5.57c-.255.01-.647.082-1.176.22-.528.136-.907.277-1.134.423-.329.228-.55.665-.664 1.312-.113.648-.17 1.468-.17 2.461v14.205h-1.19L74.154 8.318v10.008c0 1.121.07 1.983.212 2.584.141.602.358 1.03.65 1.285.21.2.642.388 1.298.56.657.174 1.09.265 1.3.274V24h-7.958v-.97c.246-.019.661-.108 1.244-.267.584-.16.948-.303 1.094-.431.32-.255.538-.645.656-1.169.119-.524.178-1.42.178-2.686V8.92c0-.42-.073-.839-.219-1.258-.145-.42-.341-.743-.588-.97-.328-.301-.772-.559-1.333-.773-.56-.214-1.014-.33-1.36-.349V4.6h5.537l10.91 14.793v-9.229c0-1.13-.073-1.998-.218-2.604-.146-.607-.356-1.01-.63-1.21-.254-.174-.671-.342-1.25-.506-.579-.164-1.019-.255-1.32-.274V4.6h7.89v.97zm13.156 11.553c0 .948-.15 1.88-.452 2.796-.3.916-.729 1.693-1.285 2.331a5.982 5.982 0 0 1-2.187 1.627c-.83.355-1.76.533-2.79.533a6.287 6.287 0 0 1-2.447-.485 6.165 6.165 0 0 1-2.064-1.415c-.592-.61-1.064-1.356-1.415-2.236-.351-.88-.526-1.866-.526-2.96 0-2.105.612-3.828 1.838-5.168 1.226-1.34 2.833-2.01 4.82-2.01 1.886 0 3.443.636 4.669 1.908 1.226 1.271 1.839 2.964 1.839 5.079zm-2.83.027c0-.683-.069-1.406-.206-2.167-.136-.76-.341-1.406-.615-1.934a3.78 3.78 0 0 0-1.148-1.36c-.474-.342-1.053-.513-1.737-.513-.701 0-1.3.173-1.797.52-.497.346-.9.82-1.21 1.421a6.291 6.291 0 0 0-.616 1.9 13.004 13.004 0 0 0 .034 4.491c.142.744.367 1.407.677 1.99.31.583.7 1.041 1.17 1.374.469.333 1.05.5 1.742.5 1.14 0 2.042-.552 2.707-1.655.666-1.103.998-2.625.998-4.567zm13.907-4.894c0 .465-.114.877-.342 1.237-.228.36-.579.54-1.053.54-.51 0-.9-.132-1.169-.396-.268-.265-.403-.556-.403-.875 0-.2.016-.383.048-.547.032-.164.061-.328.089-.492-.429 0-.93.173-1.504.52-.574.346-1.062.838-1.463 1.476v7.847c0 .32.062.58.185.78.123.2.316.35.58.45.229.092.522.16.882.206.36.046.673.077.937.096V24h-7.11v-.902c.21-.019.427-.037.65-.055.223-.018.417-.055.581-.11a.983.983 0 0 0 .567-.43c.124-.205.185-.472.185-.8v-8.326c0-.283-.066-.56-.198-.834a1.66 1.66 0 0 0-.554-.656 1.865 1.865 0 0 0-.615-.24 5.457 5.457 0 0 0-.766-.102v-.889l4.485-.3.191.19v1.901h.068c.565-.738 1.194-1.299 1.887-1.681.693-.383 1.326-.575 1.9-.575.575 0 1.042.187 1.402.561.36.374.54.875.54 1.504zm8.275 11.156a21.19 21.19 0 0 1-1.682.622c-.529.169-1.176.253-1.942.253-1.13 0-1.925-.285-2.385-.854-.46-.57-.69-1.374-.69-2.413v-9.133h-2.434v-1.313h2.488V6.377h2.488v4.197h3.87v1.313h-3.842v7.533c0 .565.02 1.037.061 1.415.041.378.14.709.294.991.146.264.365.465.656.602.292.136.684.205 1.176.205.228 0 .563-.02 1.005-.062.442-.04.754-.093.937-.157v.998zm14.782.588h-6.617v-.902c.21-.019.442-.037.697-.055a2.62 2.62 0 0 0 .629-.11.983.983 0 0 0 .567-.43c.123-.205.185-.472.185-.8v-6.932c0-.957-.226-1.695-.677-2.214-.451-.52-1-.78-1.647-.78-.474 0-.914.076-1.32.226-.405.15-.768.335-1.087.554-.31.228-.546.455-.71.683-.165.228-.292.42-.383.574v7.752c0 .31.061.566.184.766.123.2.312.355.568.465.2.091.407.16.622.205.214.046.449.077.704.096V24h-6.617v-.902l.656-.062a3.2 3.2 0 0 0 .574-.102c.255-.082.447-.226.574-.431.128-.205.192-.472.192-.8V6.008c0-.31-.07-.62-.212-.93-.142-.31-.326-.542-.554-.697-.164-.119-.453-.203-.868-.253-.415-.05-.75-.084-1.005-.103V3.15l4.99-.314.192.205v9.406h.054c.301-.3.575-.567.82-.8.247-.232.57-.476.971-.731a5.139 5.139 0 0 1 1.224-.547c.47-.146.996-.219 1.58-.219 1.202 0 2.127.38 2.774 1.142.648.761.971 1.857.971 3.288v7.014c0 .319.057.576.171.772.114.196.303.349.567.458.21.082.4.144.568.185.168.04.39.07.663.089V24zm20.538-12.605c-.383.036-.795.195-1.237.478-.442.283-.763.706-.964 1.272-.456 1.34-.886 2.609-1.292 3.807-.406 1.199-.859 2.545-1.36 4.04a49.964 49.964 0 0 0-.957 3.104h-1.176l-3.623-9.926-3.65 9.926h-1.122a664.593 664.593 0 0 1-2.003-6.023 504.414 504.414 0 0 0-1.73-5.202 1.85 1.85 0 0 0-.833-1.012c-.41-.246-.807-.392-1.19-.437v-.902h6.016v.957c-.3.009-.627.059-.977.15-.351.091-.527.241-.527.451 0 .037.016.114.048.233.032.118.07.246.116.382.292.957.622 2.026.991 3.206.37 1.18.846 2.714 1.43 4.601l3.445-9.707h1.312l3.514 9.57c.392-1.221.781-2.404 1.169-3.548a78.067 78.067 0 0 0 1.018-3.22c.064-.236.126-.453.185-.649a2 2 0 0 0 .089-.58.57.57 0 0 0-.22-.438 1.793 1.793 0 0 0-.532-.315 2.914 2.914 0 0 0-.595-.164 3.147 3.147 0 0 0-.472-.054v-.875h5.127v.875zm11.337 9.433c-.565 1.076-1.321 1.932-2.27 2.57-.947.638-2.036.957-3.267.957-1.084 0-2.035-.19-2.85-.574a5.597 5.597 0 0 1-2.017-1.558 6.62 6.62 0 0 1-1.183-2.297c-.26-.875-.39-1.8-.39-2.776 0-.875.14-1.734.418-2.577a7.27 7.27 0 0 1 1.223-2.276 5.921 5.921 0 0 1 1.935-1.566c.77-.396 1.634-.594 2.59-.594.985 0 1.828.155 2.53.465.702.31 1.272.733 1.71 1.271.418.51.73 1.112.936 1.805.205.692.307 1.444.307 2.256v.902h-8.928c0 .884.085 1.686.253 2.406a5.76 5.76 0 0 0 .8 1.9c.356.53.82.946 1.395 1.252.574.305 1.258.458 2.05.458.812 0 1.511-.19 2.1-.568.587-.378 1.154-1.06 1.701-2.044l.957.588zm-3.021-5.14c0-.51-.043-1.058-.13-1.641-.087-.583-.226-1.071-.417-1.463a2.779 2.779 0 0 0-.861-1.025c-.365-.265-.834-.397-1.409-.397-.957 0-1.752.399-2.385 1.196-.634.798-.978 1.908-1.033 3.33h6.235zm12.28 1.708c.374.329.661.707.862 1.135.2.429.3.953.3 1.573 0 1.248-.467 2.269-1.4 3.062-.935.793-2.145 1.19-3.63 1.19a5.454 5.454 0 0 1-2.168-.424c-.66-.283-1.132-.543-1.415-.78l-.273.889h-1.026l-.136-4.69h.943c.073.356.228.77.465 1.245.237.474.524.902.861 1.285.356.4.782.738 1.278 1.012.497.273 1.055.41 1.675.41.875 0 1.55-.199 2.024-.595.474-.396.71-.964.71-1.702 0-.383-.075-.713-.225-.991a2.183 2.183 0 0 0-.663-.732 5.22 5.22 0 0 0-1.107-.567 21.672 21.672 0 0 0-1.463-.5 13.586 13.586 0 0 1-1.43-.526 5.695 5.695 0 0 1-1.346-.786 3.854 3.854 0 0 1-.984-1.175c-.255-.465-.383-1.012-.383-1.641 0-1.103.41-2.037 1.23-2.803.82-.765 1.92-1.148 3.295-1.148.53 0 1.07.068 1.62.205.552.137 1 .3 1.347.492l.315-.711h.984l.205 4.334h-.943c-.192-.966-.604-1.752-1.238-2.358-.633-.606-1.405-.91-2.317-.91-.747 0-1.335.187-1.764.561-.428.374-.642.825-.642 1.354 0 .41.07.751.212 1.025.141.273.353.506.636.697.273.182.617.353 1.032.513.414.16.927.34 1.538.54.601.191 1.169.415 1.702.67.533.255.973.538 1.32.847zm10.326 6.016a21.19 21.19 0 0 1-1.682.622c-.529.169-1.176.253-1.941.253-1.13 0-1.926-.285-2.386-.854-.46-.57-.69-1.374-.69-2.413v-9.133h-2.434v-1.313h2.488V6.377h2.488v4.197h3.87v1.313h-3.842v7.533c0 .565.02 1.037.061 1.415.041.378.14.709.294.991.146.264.365.465.657.602.291.136.683.205 1.175.205.228 0 .563-.02 1.005-.062.442-.04.754-.093.937-.157v.998z"/>
		</g>
	</svg>