<svg  class="LogoEbirdPortal LogoEbirdPortal--qe" xmlns="http://www.w3.org/2000/svg" width="156" height="32" viewBox="0 0 156 32" role="img" aria-labelledby="logo-ebird-portal-qe-title-ebird-header">
		<title id="logo-ebird-portal-qe-title-ebird-header">eBird Québec logo</title>
		<g fill="none" fill-rule="evenodd">
			<path class="LogoEbirdPortal-e" fill="#50A61C" fill-rule="nonzero" d="M14.096 20.54l-1.304-.79-.098.174c-.39.802-.966 1.499-1.68 2.034a3.702 3.702 0 0 1-2.042.553 4.231 4.231 0 0 1-2.007-.446 3.717 3.717 0 0 1-1.359-1.22 5.752 5.752 0 0 1-.79-1.89 10.505 10.505 0 0 1-.26-2.24h9.141v-1.113a8.296 8.296 0 0 0-.324-2.37 5.404 5.404 0 0 0-.991-1.913 4.816 4.816 0 0 0-1.822-1.355 6.601 6.601 0 0 0-2.666-.493 5.926 5.926 0 0 0-2.738.628 6.274 6.274 0 0 0-2.038 1.659c-.566.708-1 1.51-1.284 2.37a8.6 8.6 0 0 0-.439 2.718c-.009.98.124 1.955.395 2.896a6.996 6.996 0 0 0 1.256 2.406 5.95 5.95 0 0 0 2.134 1.647c.943.42 1.966.626 2.998.605a6.064 6.064 0 0 0 3.453-1.012 7.28 7.28 0 0 0 2.37-2.702l.095-.146zM7.87 10.92c.47-.02.935.108 1.327.368.35.255.633.593.822.983.204.457.337.942.395 1.438.074.482.117.967.13 1.454H4.557a5.385 5.385 0 0 1 1.003-3.085A2.797 2.797 0 0 1 7.87 10.92z"/>
			<path class="LogoEbirdPortal-bird" fill="#231F20" fill-rule="nonzero" d="M62.601 22.492l.198.004v1.276l-5.089.324-.331-.309v-1.039a6.036 6.036 0 0 1-1.632 1.142c-.71.35-1.491.534-2.283.537a5.42 5.42 0 0 1-2.37-.545 5.95 5.95 0 0 1-1.976-1.525 7.506 7.506 0 0 1-1.343-2.37 9.126 9.126 0 0 1-.494-3.058 8.079 8.079 0 0 1 .53-2.907 7.731 7.731 0 0 1 1.461-2.41 6.499 6.499 0 0 1 2.153-1.545 6.74 6.74 0 0 1 4.543-.324c.468.12.923.283 1.36.49V5.725a2.65 2.65 0 0 0-.183-1 1.454 1.454 0 0 0-.478-.651 2.568 2.568 0 0 0-.98-.352c-.467-.082-.94-.14-1.414-.173h-.177V2.324L60.02 2l.332.324v18.682c-.007.256.05.51.166.739.118.21.287.386.49.514.21.11.442.17.68.177.331.037.636.056.912.056zM47.55 13.204a1.37 1.37 0 0 1-1.237.648c-.49.025-.97-.149-1.331-.482a1.422 1.422 0 0 1-.47-1.031c-.003-.2.015-.4.05-.597l.048-.26a3.366 3.366 0 0 0-1.224.505 4.346 4.346 0 0 0-1.407 1.402v7.977c-.011.243.045.485.162.699a.944.944 0 0 0 .498.395c.276.101.564.167.857.198.36.047.68.098.948.098h.178v1.288H30.03v-1.288l.841-.07a2.37 2.37 0 0 0 .55-.104.818.818 0 0 0 .497-.355c.118-.22.174-.47.162-.72v-8.509a1.497 1.497 0 0 0-.182-.727 1.628 1.628 0 0 0-.51-.572 2.473 2.473 0 0 0-.702-.257 5.566 5.566 0 0 0-.893-.142h-.178v-1.28l5.136-.324.312.312v11.35c-.007.245.05.487.166.703a.92.92 0 0 0 .494.395 3.516 3.516 0 0 0 1.197.296h.13l.79-.067c.187-.012.37-.047.55-.103a.814.814 0 0 0 .477-.355c.117-.221.173-.47.162-.72v-8.532a1.762 1.762 0 0 0-.182-.77 1.505 1.505 0 0 0-.505-.597 1.722 1.722 0 0 0-.561-.214 5.468 5.468 0 0 0-.759-.102h-.178v-1.28l4.856-.324.312.312v1.58a6.266 6.266 0 0 1 1.718-1.434c1.494-.826 2.821-.806 3.611.02.416.454.633 1.056.605 1.67a2.52 2.52 0 0 1-.395 1.368zM33.395 6.559a1.825 1.825 0 0 1-1.38-.608 2.046 2.046 0 0 1-.576-1.442c-.006-.547.2-1.075.573-1.474.345-.405.85-.639 1.383-.64a1.916 1.916 0 0 1 1.446.593c.362.369.564.865.564 1.382a2.232 2.232 0 0 1-.572 1.53 1.849 1.849 0 0 1-1.438.659zm-5.555 7.893a5.06 5.06 0 0 1 1.497 1.6c.417.732.625 1.564.6 2.406a4.86 4.86 0 0 1-.627 2.505 5.393 5.393 0 0 1-1.644 1.734 7.403 7.403 0 0 1-2.172 1.007 9.134 9.134 0 0 1-2.477.328h-9.589v-1.359h.174c.222-.02.545-.059.968-.118.298-.03.592-.098.873-.202a1.09 1.09 0 0 0 .526-.442 1.58 1.58 0 0 0 .158-.755V6.86a1.88 1.88 0 0 0-.146-.762c-.116-.226-.31-.401-.546-.494a3.828 3.828 0 0 0-.896-.308 6.755 6.755 0 0 0-.842-.135h-.178V3.81h9.34a9.876 9.876 0 0 1 2.077.213 6.262 6.262 0 0 1 1.913.766 4.231 4.231 0 0 1 1.418 1.39 3.95 3.95 0 0 1 .56 2.146 4.618 4.618 0 0 1-.394 1.947 4.31 4.31 0 0 1-1.114 1.474c-.459.394-.971.721-1.521.972a8.525 8.525 0 0 1-1.229.454c.446.087.886.2 1.32.336a6.83 6.83 0 0 1 1.951.944zm29.499-1.311a3.516 3.516 0 0 0-.328-.684 3.318 3.318 0 0 0-.592-.727 3.405 3.405 0 0 0-.897-.545 3.066 3.066 0 0 0-1.185-.217 2.718 2.718 0 0 0-1.442.395 3.95 3.95 0 0 0-1.186 1.185 6.258 6.258 0 0 0-.79 1.932 10.959 10.959 0 0 0-.296 2.635 9.24 9.24 0 0 0 .217 2.09c.142.611.388 1.194.727 1.722.3.48.705.886 1.185 1.185a3.16 3.16 0 0 0 1.691.431 3.093 3.093 0 0 0 1.746-.443c.425-.278.811-.61 1.15-.987V13.14zm-32.458-2.9a6.1 6.1 0 0 0 .198-1.64 3.394 3.394 0 0 0-.842-2.441c-.557-.58-1.458-.873-2.682-.873-.295 0-.668.006-1.118.02l-.952.027v7.257h1.58a5.63 5.63 0 0 0 1.896-.284 2.888 2.888 0 0 0 1.24-.826c.314-.36.546-.782.68-1.24zm-5.396 3.919v6.803c-.032.48.21.939.624 1.185.58.302 1.232.44 1.884.395 1.328 0 2.35-.364 3.05-1.134.7-.77 1.055-1.932 1.055-3.453a3.67 3.67 0 0 0-1.122-2.765c-.747-.715-1.841-1.079-3.247-1.079-.596 0-1.097.007-1.506.02l-.738.028z"/>
			<path class="LogoEbirdPortal-portal" fill="#50A61C" d="M86.008 6.896c.857.894 1.527 1.972 2.01 3.234.483 1.262.724 2.66.724 4.19 0 1.222-.16 2.352-.478 3.39a9.67 9.67 0 0 1-1.354 2.79 9.403 9.403 0 0 1-1.982 2.05 9.42 9.42 0 0 1-2.57 1.382c.018 1.002.378 1.902 1.08 2.7.701.797 1.458 1.196 2.269 1.196.747 0 1.317-.025 1.709-.075.392-.05.716-.098.97-.144v1.08c-.41.119-.922.244-1.537.376-.616.133-1.47.199-2.564.199-.61 0-1.208-.09-1.79-.267a4.544 4.544 0 0 1-1.587-.854 4.771 4.771 0 0 1-1.182-1.49c-.315-.602-.518-1.34-.609-2.215-1.303-.046-2.51-.326-3.623-.841a8.616 8.616 0 0 1-2.857-2.113c-.802-.902-1.427-1.962-1.873-3.178-.447-1.217-.67-2.546-.67-3.986 0-1.577.246-2.982.738-4.217.492-1.235 1.171-2.304 2.037-3.207a8.795 8.795 0 0 1 2.987-2.05 9.15 9.15 0 0 1 3.562-.711 9.22 9.22 0 0 1 3.637.724 8.698 8.698 0 0 1 2.953 2.037zM83.97 20.65c.51-.829.882-1.768 1.114-2.816.232-1.048.349-2.22.349-3.514 0-1.33-.13-2.552-.39-3.664s-.64-2.06-1.142-2.844a5.465 5.465 0 0 0-1.886-1.811c-.757-.433-1.623-.65-2.598-.65-1.094 0-2.023.251-2.79.753a5.843 5.843 0 0 0-1.872 2.01c-.456.801-.795 1.74-1.019 2.816a16.646 16.646 0 0 0-.335 3.39c0 1.313.119 2.498.356 3.555s.61 1.996 1.12 2.816c.493.802 1.113 1.43 1.86 1.88.748.451 1.64.677 2.68.677.975 0 1.855-.228 2.639-.684a5.35 5.35 0 0 0 1.914-1.914zm20.1 3.104l-4.388.3-.205-.19v-1.71h-.082c-.219.228-.465.472-.739.732a5.19 5.19 0 0 1-.943.704 6.04 6.04 0 0 1-1.19.56c-.382.128-.925.192-1.626.192-1.194 0-2.104-.39-2.728-1.17-.624-.778-.936-1.91-.936-3.397v-6.453c0-.328-.062-.604-.185-.827a1.716 1.716 0 0 0-.54-.58 1.72 1.72 0 0 0-.615-.24 5.855 5.855 0 0 0-.78-.103v-.888l4.498-.329.206.192v9.365c0 .975.218 1.71.656 2.201.437.492.961.739 1.572.739.501 0 .948-.078 1.34-.233.392-.155.72-.337.984-.547.246-.191.463-.394.65-.608.187-.214.33-.413.43-.595v-7.642c0-.301-.063-.568-.191-.8a1.79 1.79 0 0 0-.533-.595c-.164-.11-.408-.175-.732-.198a44.124 44.124 0 0 0-1.087-.062v-.888l4.895-.329.205.192v10.705c0 .31.064.574.191.793.128.219.306.406.534.56.164.1.36.167.588.199.227.032.478.052.751.061v.889zm12.431-2.926c-.565 1.076-1.321 1.932-2.27 2.57-.947.638-2.036.957-3.267.957-1.084 0-2.035-.19-2.85-.574a5.597 5.597 0 0 1-2.017-1.558 6.62 6.62 0 0 1-1.183-2.297c-.26-.875-.39-1.8-.39-2.776 0-.875.14-1.734.418-2.577a7.271 7.271 0 0 1 1.223-2.276 5.921 5.921 0 0 1 1.935-1.566c.77-.396 1.634-.594 2.59-.594.985 0 1.828.155 2.53.465.702.31 1.272.733 1.71 1.271.418.51.73 1.112.936 1.805.205.692.307 1.444.307 2.256v.902h-8.928c0 .884.085 1.686.253 2.406a5.76 5.76 0 0 0 .8 1.9c.356.53.82.946 1.395 1.252.574.305 1.258.458 2.05.458.812 0 1.511-.19 2.1-.568.587-.378 1.154-1.06 1.701-2.044l.957.588zm-3.021-5.14c0-.51-.043-1.058-.13-1.641-.087-.583-.226-1.071-.417-1.463a2.779 2.779 0 0 0-.861-1.025c-.365-.265-.834-.397-1.409-.397-.957 0-1.752.399-2.385 1.196-.634.798-.978 1.908-1.033 3.33h6.235zm.492-11.649c0 .346-.08.629-.24.848a3.77 3.77 0 0 1-.703.697c-.456.365-1.05.83-1.784 1.395-.734.565-1.525 1.18-2.373 1.845l-.52-.437a204.34 204.34 0 0 0 1.717-2.564c.323-.497.672-1.046 1.046-1.647.282-.465.556-.782.82-.95.264-.169.57-.253.916-.253.328 0 .597.111.807.335.21.223.314.467.314.731zm16.573 13.207c0 2.024-.638 3.723-1.914 5.1-1.276 1.376-2.757 2.064-4.443 2.064a7.146 7.146 0 0 1-2.18-.342 9.278 9.278 0 0 1-2.017-.916l-1.012 1.573-.848-.192a51.58 51.58 0 0 0 .096-2.433c.018-.948.027-1.864.027-2.748V6.008c0-.31-.07-.62-.211-.93-.142-.31-.322-.533-.54-.67-.174-.118-.463-.207-.869-.266-.405-.06-.731-.098-.977-.117V3.15l4.949-.314.191.205v8.887l.096.027c.565-.601 1.183-1.053 1.853-1.353.67-.301 1.328-.452 1.975-.452 1.66 0 3.045.657 4.157 1.97 1.112 1.312 1.667 3.02 1.667 5.126zm-2.857.096c0-.675-.073-1.363-.219-2.065-.146-.701-.373-1.312-.683-1.832a3.823 3.823 0 0 0-1.217-1.285c-.501-.328-1.103-.492-1.805-.492-.638 0-1.196.125-1.675.376-.478.25-.909.59-1.292 1.018v7.848c.055.219.162.474.322.766.16.291.376.57.65.834.273.255.582.462.929.622.346.16.77.24 1.271.24 1.112 0 2.01-.539 2.694-1.614.683-1.076 1.025-2.548 1.025-4.416zm15.63 3.486c-.565 1.076-1.321 1.932-2.27 2.57-.947.638-2.036.957-3.267.957-1.085 0-2.035-.19-2.85-.574a5.597 5.597 0 0 1-2.017-1.558 6.62 6.62 0 0 1-1.183-2.297c-.26-.875-.39-1.8-.39-2.776 0-.875.14-1.734.418-2.577a7.27 7.27 0 0 1 1.223-2.276 5.921 5.921 0 0 1 1.935-1.566c.77-.396 1.634-.594 2.59-.594.985 0 1.828.155 2.53.465.702.31 1.271.733 1.709 1.271.42.51.731 1.112.936 1.805.205.692.308 1.444.308 2.256v.902h-8.928c0 .884.085 1.686.253 2.406a5.76 5.76 0 0 0 .8 1.9c.355.53.82.946 1.395 1.252.574.305 1.257.458 2.05.458.812 0 1.511-.19 2.099-.568.588-.378 1.155-1.06 1.702-2.044l.957.588zm-3.021-5.14c0-.51-.044-1.058-.13-1.641-.087-.583-.226-1.071-.417-1.463a2.779 2.779 0 0 0-.862-1.025c-.364-.265-.834-.397-1.408-.397-.957 0-1.752.399-2.385 1.196-.634.798-.978 1.908-1.033 3.33h6.235zm9.614 8.667c-1.95 0-3.477-.647-4.58-1.94-1.103-1.295-1.654-3.032-1.654-5.21 0-.948.148-1.834.444-2.66a7.337 7.337 0 0 1 1.292-2.248 6.034 6.034 0 0 1 2.024-1.566 5.958 5.958 0 0 1 2.652-.594c1.321 0 2.397.316 3.226.95.83.633 1.245 1.497 1.245 2.59 0 .456-.11.86-.329 1.21-.218.352-.578.527-1.08.527-.537 0-.954-.137-1.25-.41-.297-.274-.445-.579-.445-.916 0-.41.055-.832.164-1.265.11-.433.173-.75.191-.95a1.21 1.21 0 0 0-.73-.567 3.672 3.672 0 0 0-1.047-.144 2.9 2.9 0 0 0-1.25.28c-.397.187-.782.531-1.156 1.033-.337.455-.61 1.07-.82 1.845-.21.775-.315 1.7-.315 2.776 0 1.695.376 3.078 1.128 4.15.752 1.07 1.739 1.606 2.96 1.606.884 0 1.625-.215 2.222-.643.597-.428 1.15-1.071 1.66-1.928l.876.574c-.602 1.076-1.395 1.928-2.38 2.557-.983.629-2 .943-3.048.943z"/>
		</g>
	</svg>