<svg  class="LogoEbirdPortal LogoEbirdPortal--spain" xmlns="http://www.w3.org/2000/svg" width="155px" height="32px" viewBox="0 0 155 32" role="img" aria-labelledby="logo-ebird-portal-spain-title-ebird-header">
		<title id="logo-ebird-portal-spain-title-ebird-header">eBird España logo</title>
		<g fill="none" fill-rule="evenodd">
			<path class="LogoEbirdPortal-e" fill="#50A61C" fill-rule="nonzero" d="M14.096 20.54l-1.304-.79-.098.174c-.39.802-.966 1.499-1.68 2.034a3.702 3.702 0 0 1-2.042.553 4.231 4.231 0 0 1-2.007-.446 3.717 3.717 0 0 1-1.359-1.22 5.752 5.752 0 0 1-.79-1.89 10.505 10.505 0 0 1-.26-2.24h9.141v-1.113a8.296 8.296 0 0 0-.324-2.37 5.404 5.404 0 0 0-.991-1.913 4.816 4.816 0 0 0-1.822-1.355 6.601 6.601 0 0 0-2.666-.493 5.926 5.926 0 0 0-2.738.628 6.274 6.274 0 0 0-2.038 1.659c-.566.708-1 1.51-1.284 2.37a8.6 8.6 0 0 0-.439 2.718c-.009.98.124 1.955.395 2.896a6.996 6.996 0 0 0 1.256 2.406 5.95 5.95 0 0 0 2.134 1.647c.943.42 1.966.626 2.998.605a6.064 6.064 0 0 0 3.453-1.012 7.28 7.28 0 0 0 2.37-2.702l.095-.146zM7.87 10.92c.47-.02.935.108 1.327.368.35.255.633.593.822.983.204.457.337.942.395 1.438.074.482.117.967.13 1.454H4.557a5.385 5.385 0 0 1 1.003-3.085A2.797 2.797 0 0 1 7.87 10.92z"/>
			<path class="LogoEbirdPortal-bird" fill="#231F20" fill-rule="nonzero" d="M62.601 22.492l.198.004v1.276l-5.089.324-.331-.309v-1.039a6.036 6.036 0 0 1-1.632 1.142c-.71.35-1.491.534-2.283.537a5.42 5.42 0 0 1-2.37-.545 5.95 5.95 0 0 1-1.976-1.525 7.506 7.506 0 0 1-1.343-2.37 9.126 9.126 0 0 1-.494-3.058 8.079 8.079 0 0 1 .53-2.907 7.731 7.731 0 0 1 1.461-2.41 6.499 6.499 0 0 1 2.153-1.545 6.74 6.74 0 0 1 4.543-.324c.468.12.923.283 1.36.49V5.725a2.65 2.65 0 0 0-.183-1 1.454 1.454 0 0 0-.478-.651 2.568 2.568 0 0 0-.98-.352c-.467-.082-.94-.14-1.414-.173h-.177V2.324L60.02 2l.332.324v18.682c-.007.256.05.51.166.739.118.21.287.386.49.514.21.11.442.17.68.177.331.037.636.056.912.056zM47.55 13.204a1.37 1.37 0 0 1-1.237.648c-.49.025-.97-.149-1.331-.482a1.422 1.422 0 0 1-.47-1.031c-.003-.2.015-.4.05-.597l.048-.26a3.366 3.366 0 0 0-1.224.505 4.346 4.346 0 0 0-1.407 1.402v7.977c-.011.243.045.485.162.699a.944.944 0 0 0 .498.395c.276.101.564.167.857.198.36.047.68.098.948.098h.178v1.288H30.03v-1.288l.841-.07a2.37 2.37 0 0 0 .55-.104.818.818 0 0 0 .497-.355c.118-.22.174-.47.162-.72v-8.509a1.497 1.497 0 0 0-.182-.727 1.628 1.628 0 0 0-.51-.572 2.473 2.473 0 0 0-.702-.257 5.566 5.566 0 0 0-.893-.142h-.178v-1.28l5.136-.324.312.312v11.35c-.007.245.05.487.166.703a.92.92 0 0 0 .494.395 3.516 3.516 0 0 0 1.197.296h.13l.79-.067c.187-.012.37-.047.55-.103a.814.814 0 0 0 .477-.355c.117-.221.173-.47.162-.72v-8.532a1.762 1.762 0 0 0-.182-.77 1.505 1.505 0 0 0-.505-.597 1.722 1.722 0 0 0-.561-.214 5.468 5.468 0 0 0-.759-.102h-.178v-1.28l4.856-.324.312.312v1.58a6.266 6.266 0 0 1 1.718-1.434c1.494-.826 2.821-.806 3.611.02.416.454.633 1.056.605 1.67a2.52 2.52 0 0 1-.395 1.368zM33.395 6.559a1.825 1.825 0 0 1-1.38-.608 2.046 2.046 0 0 1-.576-1.442c-.006-.547.2-1.075.573-1.474.345-.405.85-.639 1.383-.64a1.916 1.916 0 0 1 1.446.593c.362.369.564.865.564 1.382a2.232 2.232 0 0 1-.572 1.53 1.849 1.849 0 0 1-1.438.659zm-5.555 7.893a5.06 5.06 0 0 1 1.497 1.6c.417.732.625 1.564.6 2.406a4.86 4.86 0 0 1-.627 2.505 5.393 5.393 0 0 1-1.644 1.734 7.403 7.403 0 0 1-2.172 1.007 9.134 9.134 0 0 1-2.477.328h-9.589v-1.359h.174c.222-.02.545-.059.968-.118.298-.03.592-.098.873-.202a1.09 1.09 0 0 0 .526-.442 1.58 1.58 0 0 0 .158-.755V6.86a1.88 1.88 0 0 0-.146-.762c-.116-.226-.31-.401-.546-.494a3.828 3.828 0 0 0-.896-.308 6.755 6.755 0 0 0-.842-.135h-.178V3.81h9.34a9.876 9.876 0 0 1 2.077.213 6.262 6.262 0 0 1 1.913.766 4.231 4.231 0 0 1 1.418 1.39 3.95 3.95 0 0 1 .56 2.146 4.618 4.618 0 0 1-.394 1.947 4.31 4.31 0 0 1-1.114 1.474c-.459.394-.971.721-1.521.972a8.525 8.525 0 0 1-1.229.454c.446.087.886.2 1.32.336a6.83 6.83 0 0 1 1.951.944zm29.499-1.311a3.516 3.516 0 0 0-.328-.684 3.318 3.318 0 0 0-.592-.727 3.405 3.405 0 0 0-.897-.545 3.066 3.066 0 0 0-1.185-.217 2.718 2.718 0 0 0-1.442.395 3.95 3.95 0 0 0-1.186 1.185 6.258 6.258 0 0 0-.79 1.932 10.959 10.959 0 0 0-.296 2.635 9.24 9.24 0 0 0 .217 2.09c.142.611.388 1.194.727 1.722.3.48.705.886 1.185 1.185a3.16 3.16 0 0 0 1.691.431 3.093 3.093 0 0 0 1.746-.443c.425-.278.811-.61 1.15-.987V13.14zm-32.458-2.9a6.1 6.1 0 0 0 .198-1.64 3.394 3.394 0 0 0-.842-2.441c-.557-.58-1.458-.873-2.682-.873-.295 0-.668.006-1.118.02l-.952.027v7.257h1.58a5.63 5.63 0 0 0 1.896-.284 2.888 2.888 0 0 0 1.24-.826c.314-.36.546-.782.68-1.24zm-5.396 3.919v6.803c-.032.48.21.939.624 1.185.58.302 1.232.44 1.884.395 1.328 0 2.35-.364 3.05-1.134.7-.77 1.055-1.932 1.055-3.453a3.67 3.67 0 0 0-1.122-2.765c-.747-.715-1.841-1.079-3.247-1.079-.596 0-1.097.007-1.506.02l-.738.028z"/>
			<path class="LogoEbirdPortal-portal" fill="#50A61C" d="M86.65 18.285L86.281 24H70.176v-.97c.273-.019.638-.058 1.094-.117.455-.06.751-.12.888-.184.292-.137.495-.315.609-.534.114-.218.17-.496.17-.834V7.416c0-.3-.05-.567-.15-.8-.1-.232-.31-.421-.629-.567a4.636 4.636 0 0 0-.991-.315 7.452 7.452 0 0 0-.991-.164V4.6h15.011v4.675h-1.025c-.182-.692-.576-1.428-1.183-2.208-.606-.779-1.182-1.205-1.729-1.278a12.64 12.64 0 0 0-1.012-.082 29.158 29.158 0 0 0-1.34-.027H75.85v7.71h2.187c.702 0 1.215-.065 1.538-.198.324-.132.609-.353.855-.663.2-.264.371-.617.512-1.06a6.65 6.65 0 0 0 .28-1.25h1.026v7.588h-1.025a6.11 6.11 0 0 0-.294-1.388c-.16-.488-.326-.84-.5-1.06-.282-.355-.603-.588-.963-.697-.36-.11-.836-.164-1.429-.164H75.85v5.824c0 .584.04 1.044.123 1.381.082.337.241.593.478.766.237.173.56.285.97.335.411.05.994.075 1.75.075h1.19c.493 0 .907-.018 1.244-.055a7.343 7.343 0 0 0 1.074-.198c.369-.096.63-.226.786-.39.42-.437.859-1.1 1.32-1.989.46-.889.753-1.543.881-1.962h.984zm9.328-.889c.373.329.66.707.861 1.135.2.429.3.953.3 1.573 0 1.248-.466 2.269-1.4 3.062-.935.793-2.145 1.19-3.63 1.19a5.454 5.454 0 0 1-2.167-.424c-.661-.283-1.133-.543-1.415-.78l-.274.889h-1.025l-.137-4.69h.943c.073.356.228.77.465 1.245.237.474.524.902.862 1.285.355.4.781.738 1.278 1.012.497.273 1.055.41 1.675.41.875 0 1.55-.199 2.023-.595.474-.396.711-.964.711-1.702 0-.383-.075-.713-.226-.991a2.183 2.183 0 0 0-.663-.732 5.22 5.22 0 0 0-1.107-.567 21.672 21.672 0 0 0-1.463-.5 13.585 13.585 0 0 1-1.429-.526 5.695 5.695 0 0 1-1.346-.786 3.854 3.854 0 0 1-.985-1.175c-.255-.465-.383-1.012-.383-1.641 0-1.103.41-2.037 1.231-2.803.82-.765 1.919-1.148 3.295-1.148.529 0 1.069.068 1.62.205.551.137 1 .3 1.347.492l.314-.711h.984l.206 4.334h-.944c-.191-.966-.604-1.752-1.237-2.358-.634-.606-1.406-.91-2.317-.91-.748 0-1.336.187-1.764.561-.429.374-.643.825-.643 1.354 0 .41.07.751.212 1.025.141.273.353.506.636.697.273.182.617.353 1.032.513.415.16.928.34 1.538.54.602.191 1.17.415 1.702.67.534.255.973.538 1.32.847zm14.317-5.277a7.022 7.022 0 0 1 1.251 2.222c.297.843.445 1.807.445 2.891 0 1.067-.178 2.04-.534 2.92-.355.879-.824 1.629-1.408 2.248a6.631 6.631 0 0 1-2.037 1.45 5.718 5.718 0 0 1-2.379.505c-.811 0-1.476-.09-1.996-.273-.52-.182-.943-.396-1.271-.643h-.11v4.047c0 .328.064.602.192.82.127.22.323.379.588.48.218.081.53.16.936.238.406.078.74.121 1.005.13v.916h-7.533v-.916c.282-.018.556-.04.82-.068.264-.027.501-.073.711-.137.273-.09.465-.25.574-.478.11-.228.164-.497.164-.807V13.322c0-.273-.068-.537-.205-.793a1.754 1.754 0 0 0-.533-.615c-.164-.11-.392-.194-.684-.253a6.399 6.399 0 0 0-.847-.116v-.889l4.593-.3.192.164v1.517l.11.027a5.902 5.902 0 0 1 1.763-1.367c.702-.364 1.399-.547 2.092-.547.838 0 1.606.178 2.303.534a5.667 5.667 0 0 1 1.798 1.435zm-2.228 9.694a6.167 6.167 0 0 0 .806-1.97c.174-.747.26-1.58.26-2.501 0-.675-.073-1.363-.219-2.065-.145-.701-.373-1.312-.683-1.832a3.823 3.823 0 0 0-1.217-1.285c-.501-.328-1.103-.492-1.805-.492-.674 0-1.248.148-1.722.444-.474.297-.884.65-1.23 1.06v7.97c.081.247.216.502.403.766a3.6 3.6 0 0 0 .622.684c.282.228.588.412.916.554.328.14.729.211 1.203.211.51 0 1.002-.134 1.476-.403s.87-.65 1.19-1.142zm17.476 1.94c-.429.156-.805.281-1.128.377a3.88 3.88 0 0 1-1.1.143c-.712 0-1.28-.166-1.703-.499-.424-.332-.695-.818-.814-1.456h-.082c-.592.657-1.228 1.158-1.907 1.504-.679.347-1.497.52-2.454.52-1.012 0-1.843-.31-2.495-.93-.652-.62-.978-1.43-.978-2.433 0-.52.073-.985.22-1.395.145-.41.364-.78.655-1.107a3.28 3.28 0 0 1 .903-.732 7.885 7.885 0 0 1 1.053-.513c.41-.155 1.241-.442 2.495-.86 1.253-.42 2.098-.748 2.536-.985v-1.354a5.73 5.73 0 0 0-.075-.683 2.863 2.863 0 0 0-.322-.957 2.723 2.723 0 0 0-.772-.882c-.333-.25-.805-.376-1.415-.376-.42 0-.81.07-1.17.212-.36.141-.612.29-.758.444 0 .182.043.451.13.807.087.355.13.683.13.984 0 .319-.144.61-.43.875-.288.264-.687.397-1.197.397-.456 0-.79-.162-1.005-.486a1.926 1.926 0 0 1-.321-1.087c0-.419.148-.82.444-1.203a4.462 4.462 0 0 1 1.155-1.025c.41-.255.907-.472 1.49-.65a5.847 5.847 0 0 1 1.71-.266c.765 0 1.433.052 2.002.157.57.105 1.087.33 1.552.677.465.337.818.795 1.06 1.374.241.579.362 1.324.362 2.235 0 1.303-.014 2.459-.041 3.466a122.31 122.31 0 0 0-.041 3.302c0 .355.062.638.185.847.123.21.312.388.567.534.137.082.353.127.65.136.296.01.599.014.909.014v.875zm-4.772-7.218a29.86 29.86 0 0 0-2.037.67 8.246 8.246 0 0 0-1.627.82 3.7 3.7 0 0 0-1.08 1.101c-.264.424-.397.927-.397 1.51 0 .757.199 1.313.595 1.669.397.355.9.533 1.51.533.648 0 1.218-.157 1.71-.472a4.973 4.973 0 0 0 1.244-1.114l.082-4.717zm19.8 7.465h-6.603v-.902c.21-.019.44-.037.69-.055a2.6 2.6 0 0 0 .622-.11.983.983 0 0 0 .567-.43c.124-.205.185-.472.185-.8v-6.932c0-.957-.226-1.695-.677-2.214-.45-.52-1-.78-1.647-.78a3.75 3.75 0 0 0-1.326.226c-.401.15-.757.335-1.067.554-.3.21-.54.435-.718.676a6.11 6.11 0 0 0-.39.581v7.752c0 .31.065.566.192.766.128.2.32.355.574.465.192.091.4.16.623.205.223.046.453.077.69.096V24h-6.604v-.902c.21-.019.427-.037.65-.055.223-.018.417-.055.58-.11a.983.983 0 0 0 .568-.43c.123-.205.185-.472.185-.8v-8.326c0-.31-.066-.595-.198-.855a1.696 1.696 0 0 0-.554-.635 1.865 1.865 0 0 0-.615-.24 5.457 5.457 0 0 0-.766-.102v-.889l4.484-.3.192.19v1.901h.068c.219-.218.492-.48.82-.786.329-.305.639-.554.93-.745a4.896 4.896 0 0 1 1.203-.547 5.244 5.244 0 0 1 1.573-.219c1.294 0 2.253.404 2.877 1.21.625.807.937 1.88.937 3.22v7.014c0 .319.055.576.164.772.11.196.296.349.56.458.22.091.409.155.568.192.16.036.38.063.663.082V24zM138.18 3.943a5.55 5.55 0 0 1-.41 1.067 4.931 4.931 0 0 1-1.785 1.934c-.36.215-.79.322-1.292.322-.52 0-.975-.076-1.367-.226a7.07 7.07 0 0 1-1.012-.472 21.094 21.094 0 0 0-.909-.492 2.068 2.068 0 0 0-.95-.219c-.283 0-.495.037-.636.11-.141.073-.29.196-.444.369-.146.164-.292.38-.438.65-.146.268-.282.512-.41.73l-.793-.341c.091-.292.246-.643.465-1.053.219-.41.456-.77.711-1.08.273-.328.606-.608.998-.84a2.377 2.377 0 0 1 1.23-.35c.51 0 .95.076 1.32.226.369.15.708.312 1.018.486.347.191.638.355.875.492s.529.205.875.205c.365 0 .659-.043.882-.13a1.25 1.25 0 0 0 .527-.362c.145-.173.266-.36.362-.56.096-.201.212-.461.349-.78l.834.314zm15.616 19.81c-.428.156-.804.281-1.128.377a3.88 3.88 0 0 1-1.1.143c-.712 0-1.279-.166-1.703-.499-.424-.332-.695-.818-.813-1.456h-.082c-.593.657-1.228 1.158-1.907 1.504-.68.347-1.498.52-2.455.52-1.011 0-1.843-.31-2.495-.93-.651-.62-.977-1.43-.977-2.433 0-.52.073-.985.219-1.395.145-.41.364-.78.656-1.107a3.28 3.28 0 0 1 .902-.732 7.885 7.885 0 0 1 1.053-.513c.41-.155 1.242-.442 2.495-.86 1.253-.42 2.099-.748 2.536-.985v-1.354a5.73 5.73 0 0 0-.075-.683 2.863 2.863 0 0 0-.321-.957 2.723 2.723 0 0 0-.773-.882c-.333-.25-.804-.376-1.415-.376-.42 0-.809.07-1.169.212-.36.141-.613.29-.759.444 0 .182.044.451.13.807.087.355.13.683.13.984 0 .319-.143.61-.43.875-.288.264-.686.397-1.197.397-.456 0-.79-.162-1.005-.486a1.926 1.926 0 0 1-.321-1.087c0-.419.148-.82.444-1.203a4.462 4.462 0 0 1 1.156-1.025c.41-.255.907-.472 1.49-.65a5.847 5.847 0 0 1 1.709-.266c.765 0 1.433.052 2.003.157.57.105 1.087.33 1.552.677.464.337.818.795 1.06 1.374.24.579.361 1.324.361 2.235 0 1.303-.013 2.459-.04 3.466a122.31 122.31 0 0 0-.042 3.302c0 .355.062.638.185.847.123.21.312.388.567.534.137.082.354.127.65.136.296.01.599.014.909.014v.875zm-4.772-7.218a29.86 29.86 0 0 0-2.037.67 8.246 8.246 0 0 0-1.627.82 3.7 3.7 0 0 0-1.08 1.101c-.264.424-.396.927-.396 1.51 0 .757.198 1.313.595 1.669.396.355.9.533 1.51.533.647 0 1.217-.157 1.71-.472a4.973 4.973 0 0 0 1.243-1.114l.082-4.717z"/>
		</g>
	</svg>