<svg  class="LogoEbirdPortal LogoEbirdPortal--turkey" xmlns="http://www.w3.org/2000/svg" width="117px" height="32px" viewBox="0 0 117 32" role="img" aria-labelledby="logo-ebird-portal-turkey-title-ebird-header">
		<title id="logo-ebird-portal-turkey-title-ebird-header">eKuşbank logo</title>
		<g fill="none" fill-rule="evenodd">
			<path class="LogoEbirdPortal-e" fill="#50A61C" d="M13.96 20.828c-.564 1.076-1.32 1.932-2.269 2.57-.948.638-2.037.957-3.267.957-1.085 0-2.035-.19-2.85-.574a5.597 5.597 0 0 1-2.017-1.558 6.62 6.62 0 0 1-1.183-2.297c-.26-.875-.39-1.8-.39-2.776 0-.875.14-1.734.417-2.577a7.27 7.27 0 0 1 1.224-2.276A5.921 5.921 0 0 1 5.56 10.73c.77-.396 1.633-.594 2.59-.594.985 0 1.828.155 2.53.465.702.31 1.271.733 1.709 1.271.419.51.731 1.112.936 1.805.205.692.308 1.444.308 2.256v.902H4.705c0 .884.084 1.686.253 2.406a5.76 5.76 0 0 0 .8 1.9c.355.53.82.946 1.394 1.252.575.305 1.258.458 2.051.458.811 0 1.51-.19 2.099-.568.588-.378 1.155-1.06 1.702-2.044l.957.588zm-3.02-5.14c0-.51-.044-1.058-.13-1.641-.087-.583-.226-1.071-.417-1.463a2.779 2.779 0 0 0-.862-1.025c-.364-.265-.834-.397-1.408-.397-.957 0-1.752.399-2.386 1.196-.633.798-.977 1.908-1.032 3.33h6.234z"/>
			<path class="LogoEbirdPortal-bird" fill="#212121" d="M115.387 24h-4.074l-2.283-3.309a67.918 67.918 0 0 0-2.53-3.431l-1.12 1.052v3.2c0 .328.059.599.177.813.119.214.31.372.574.472.219.091.429.16.63.205.2.046.432.077.696.096V24h-6.617v-.902l.656-.062a3.2 3.2 0 0 0 .575-.102c.255-.082.446-.226.574-.431.128-.205.191-.472.191-.8V6.035c0-.337-.07-.654-.212-.95a1.655 1.655 0 0 0-.553-.677c-.192-.146-.49-.241-.896-.287a27.135 27.135 0 0 0-.977-.096V3.15l4.99-.314.191.205v14.26c.711-.711 1.48-1.474 2.304-2.29a46.468 46.468 0 0 0 2.085-2.18 2.8 2.8 0 0 0 .24-.322c.086-.132.13-.24.13-.322 0-.246-.2-.428-.596-.546a7.048 7.048 0 0 0-1.141-.246v-.875h5.933v.847a9.315 9.315 0 0 0-2.03.855c-.588.341-1.037.65-1.347.923-.218.182-.528.478-.93.888-.4.41-.96.948-1.68 1.613.746.921 1.587 2.024 2.522 3.31a314.547 314.547 0 0 0 2.043 2.788c.402.538.762.889 1.08 1.053.32.164.784.264 1.395.3V24zm-14.741 0h-6.604v-.902c.21-.019.44-.037.69-.055a2.6 2.6 0 0 0 .623-.11.983.983 0 0 0 .567-.43c.123-.205.185-.472.185-.8v-6.932c0-.957-.226-1.695-.677-2.214-.451-.52-1-.78-1.648-.78a3.75 3.75 0 0 0-1.326.226c-.4.15-.756.335-1.066.554-.3.21-.54.435-.718.676a6.11 6.11 0 0 0-.39.581v7.752c0 .31.064.566.192.766.127.2.319.355.574.465.191.091.399.16.622.205.223.046.454.077.69.096V24h-6.603v-.902c.21-.019.426-.037.65-.055.223-.018.416-.055.58-.11a.983.983 0 0 0 .568-.43c.123-.205.184-.472.184-.8v-8.326c0-.31-.066-.595-.198-.855a1.696 1.696 0 0 0-.554-.635 1.865 1.865 0 0 0-.615-.24 5.457 5.457 0 0 0-.765-.102v-.889l4.484-.3.191.19v1.901h.069c.219-.218.492-.48.82-.786.328-.305.638-.554.93-.745a4.896 4.896 0 0 1 1.203-.547 5.244 5.244 0 0 1 1.572-.219c1.294 0 2.254.404 2.878 1.21.624.807.937 1.88.937 3.22v7.014c0 .319.054.576.164.772.11.196.296.349.56.458.219.091.408.155.568.192.16.036.38.063.663.082V24zm-15.029-.246c-.428.155-.804.28-1.128.376a3.88 3.88 0 0 1-1.1.143c-.711 0-1.279-.166-1.702-.499-.424-.332-.695-.818-.814-1.456h-.082c-.592.657-1.228 1.158-1.907 1.504-.68.347-1.497.52-2.454.52-1.012 0-1.844-.31-2.495-.93-.652-.62-.978-1.43-.978-2.433 0-.52.073-.985.219-1.395.146-.41.364-.78.656-1.107a3.28 3.28 0 0 1 .902-.732 7.885 7.885 0 0 1 1.053-.513c.41-.155 1.242-.442 2.495-.86 1.253-.42 2.099-.748 2.536-.985v-1.354a5.73 5.73 0 0 0-.075-.683 2.863 2.863 0 0 0-.321-.957 2.723 2.723 0 0 0-.773-.882c-.332-.25-.804-.376-1.415-.376-.419 0-.809.07-1.169.212-.36.141-.613.29-.758.444 0 .182.043.451.13.807.086.355.13.683.13.984 0 .319-.144.61-.431.875-.287.264-.686.397-1.197.397-.455 0-.79-.162-1.004-.486a1.926 1.926 0 0 1-.322-1.087c0-.419.148-.82.445-1.203a4.462 4.462 0 0 1 1.155-1.025c.41-.255.907-.472 1.49-.65a5.847 5.847 0 0 1 1.71-.266c.765 0 1.432.052 2.002.157.57.105 1.087.33 1.552.677.465.337.818.795 1.06 1.374.24.579.362 1.324.362 2.235 0 1.303-.014 2.459-.041 3.466a122.31 122.31 0 0 0-.041 3.302c0 .355.061.638.184.847.123.21.312.388.568.534.136.082.353.127.649.136.296.01.6.014.91.014v.875zm-4.771-7.219a29.86 29.86 0 0 0-2.037.67 8.246 8.246 0 0 0-1.627.82 3.7 3.7 0 0 0-1.08 1.101c-.265.424-.397.927-.397 1.51 0 .757.198 1.313.595 1.669.396.355.9.533 1.51.533.648 0 1.217-.157 1.71-.472a4.973 4.973 0 0 0 1.244-1.114l.082-4.717zm-8.794.711c0 2.024-.638 3.723-1.915 5.1-1.276 1.376-2.757 2.064-4.443 2.064a7.146 7.146 0 0 1-2.18-.342 9.278 9.278 0 0 1-2.017-.916l-1.012 1.573-.848-.192a51.58 51.58 0 0 0 .096-2.433c.018-.948.028-1.864.028-2.748V6.008c0-.31-.071-.62-.212-.93-.142-.31-.322-.533-.54-.67-.174-.118-.463-.207-.869-.266-.405-.06-.731-.098-.977-.117V3.15l4.95-.314.19.205v8.887l.096.027c.565-.601 1.183-1.053 1.853-1.353.67-.301 1.328-.452 1.975-.452 1.66 0 3.045.657 4.157 1.97 1.112 1.312 1.668 3.02 1.668 5.126zm-2.858.096c0-.675-.073-1.363-.219-2.065-.145-.701-.373-1.312-.683-1.832a3.823 3.823 0 0 0-1.217-1.285c-.501-.328-1.103-.492-1.805-.492-.638 0-1.196.125-1.674.376-.479.25-.91.59-1.292 1.018v7.848c.054.219.161.474.32.766.16.291.377.57.65.834.274.255.584.462.93.622.346.16.77.24 1.271.24 1.112 0 2.01-.539 2.694-1.614.683-1.076 1.025-2.548 1.025-4.416zM53.66 27.855c0-.446-.25-.729-.752-.847a6.518 6.518 0 0 0-1.504-.178v-2.584c-.602-.128-1.103-.29-1.504-.485a5.043 5.043 0 0 1-.984-.609l-.274.889h-1.025l-.137-4.69h.943c.073.356.228.77.465 1.245.237.474.524.902.862 1.285.355.4.781.738 1.278 1.012.497.273 1.055.41 1.675.41.875 0 1.55-.199 2.023-.595.474-.396.711-.964.711-1.702 0-.383-.075-.713-.225-.991a2.183 2.183 0 0 0-.664-.732 5.22 5.22 0 0 0-1.107-.567 21.672 21.672 0 0 0-1.463-.5 13.585 13.585 0 0 1-1.429-.526 5.695 5.695 0 0 1-1.346-.786 3.854 3.854 0 0 1-.985-1.175c-.255-.465-.382-1.012-.382-1.641 0-1.103.41-2.037 1.23-2.803.82-.765 1.919-1.148 3.295-1.148.529 0 1.069.068 1.62.205.551.137 1 .3 1.347.492l.314-.711h.985l.205 4.334h-.944c-.191-.966-.604-1.752-1.237-2.358-.633-.606-1.406-.91-2.317-.91-.748 0-1.336.187-1.764.561-.428.374-.643.825-.643 1.354 0 .41.071.751.212 1.025.142.273.353.506.636.697.273.182.618.353 1.032.513.415.16.928.34 1.538.54.602.191 1.17.415 1.702.67.534.255.973.538 1.32.847.373.329.66.707.861 1.135.2.429.3.953.3 1.573 0 1.248-.468 2.267-1.407 3.055-.94.789-2.151 1.183-3.637 1.183v1.012c.41 0 .78.025 1.107.075.329.05.661.161.998.335.301.155.55.364.746.629.196.264.294.597.294.998 0 .528-.146.975-.438 1.34-.292.364-.697.647-1.217.847a6.386 6.386 0 0 1-1.654.39c-.62.068-1.335.102-2.147.102v-.984c.374 0 .787-.007 1.238-.02a5.983 5.983 0 0 0 1.1-.117c.365-.082.647-.207.848-.376.2-.168.3-.408.3-.718zm-6.648-4.101l-4.389.3-.205-.19v-1.71h-.082c-.218.228-.465.472-.738.732a5.19 5.19 0 0 1-.943.704 6.04 6.04 0 0 1-1.19.56c-.383.128-.925.192-1.627.192-1.194 0-2.103-.39-2.727-1.17-.625-.778-.937-1.91-.937-3.397v-6.453c0-.328-.061-.604-.184-.827a1.716 1.716 0 0 0-.54-.58 1.72 1.72 0 0 0-.616-.24 5.855 5.855 0 0 0-.779-.103v-.888l4.498-.329.205.192v9.365c0 .975.219 1.71.656 2.201.438.492.962.739 1.573.739.501 0 .948-.078 1.34-.233.391-.155.72-.337.984-.547.246-.191.463-.394.65-.608.186-.214.33-.413.43-.595v-7.642c0-.301-.064-.568-.191-.8a1.79 1.79 0 0 0-.534-.595c-.164-.11-.407-.175-.731-.198a44.124 44.124 0 0 0-1.087-.062v-.888l4.895-.329.205.192v10.705c0 .31.063.574.191.793.128.219.305.406.533.56.164.1.36.167.588.199.228.032.479.052.752.061v.889zM33.502 24H28.06a58.787 58.787 0 0 0-3.493-4.833 81.146 81.146 0 0 0-4.027-4.655h-.355v6.754c0 .3.057.57.17.806.115.237.322.429.623.574.146.064.417.142.813.233.397.091.727.141.991.15V24H14.73v-.97l.916-.083c.4-.036.683-.09.847-.164a1.17 1.17 0 0 0 .595-.526c.123-.233.185-.513.185-.841v-14c0-.31-.053-.579-.158-.807-.104-.227-.312-.414-.622-.56a5.086 5.086 0 0 0-.875-.315 4.773 4.773 0 0 0-.888-.164V4.6h8.052v.97c-.255.01-.574.05-.957.123a6.438 6.438 0 0 0-.847.205c-.31.11-.52.292-.63.547-.109.256-.163.534-.163.834v6.7h.273a56.399 56.399 0 0 0 2.42-2.167 31.772 31.772 0 0 0 2.16-2.25c.72-.829 1.247-1.492 1.58-1.989.332-.497.498-.936.498-1.32 0-.136-.084-.247-.253-.334a2.708 2.708 0 0 0-.58-.212 4.893 4.893 0 0 0-.684-.103l-.492-.034V4.6h7.273v.97c-.027 0-.087.005-.178.014-.09.01-.196.018-.314.027-.128.01-.255.028-.383.055s-.292.06-.492.096c-.32.073-.65.189-.991.348-.342.16-.622.358-.841.595a506.127 506.127 0 0 1-2.94 3.309 49.738 49.738 0 0 1-3.035 3.117 114.57 114.57 0 0 1 3.439 4.047c.907 1.13 1.87 2.338 2.891 3.623.392.492.784.886 1.176 1.182.392.297.73.518 1.012.663.237.119.533.21.888.274.356.064.652.1.89.11V24z"/>
		</g>
	</svg>