<svg  class="LogoEbirdPortal LogoEbirdPortal--tx" xmlns="http://www.w3.org/2000/svg" width="138" height="32" viewBox="0 0 138 32" role="img" aria-labelledby="logo-ebird-portal-tx-title">
		<title id="logo-ebird-portal-tx-title">Texas eBird logo</title>
		<g fill="none" fill-rule="evenodd">
			<path class="LogoEbirdTX-e" fill="#50A61C" fill-rule="nonzero" d="M88.096 20.54l-1.304-.79-.098.174c-.39.802-.966 1.499-1.68 2.034a3.702 3.702 0 0 1-2.042.553 4.231 4.231 0 0 1-2.007-.446 3.717 3.717 0 0 1-1.359-1.22 5.752 5.752 0 0 1-.79-1.89 10.505 10.505 0 0 1-.26-2.24h9.141v-1.113a8.296 8.296 0 0 0-.324-2.37 5.404 5.404 0 0 0-.991-1.913 4.816 4.816 0 0 0-1.822-1.355 6.601 6.601 0 0 0-2.666-.493 5.926 5.926 0 0 0-2.738.628 6.274 6.274 0 0 0-2.038 1.659c-.566.708-1 1.51-1.284 2.37a8.6 8.6 0 0 0-.439 2.718c-.009.98.124 1.955.395 2.896a6.996 6.996 0 0 0 1.256 2.406 5.95 5.95 0 0 0 2.134 1.647c.943.42 1.966.626 2.998.605a6.064 6.064 0 0 0 3.453-1.012 7.28 7.28 0 0 0 2.37-2.702l.095-.146zm-6.226-9.62c.47-.02.935.108 1.327.368.35.255.633.593.822.983.204.457.337.942.395 1.438.074.482.117.967.13 1.454h-5.988a5.385 5.385 0 0 1 1.003-3.085 2.797 2.797 0 0 1 2.311-1.158z"/>
			<path class="LogoEbirdTX-bird" fill="#231F20" fill-rule="nonzero" d="M136.601 22.492l.198.004v1.276l-5.089.324-.331-.309v-1.039a6.036 6.036 0 0 1-1.632 1.142c-.71.35-1.491.534-2.283.537a5.42 5.42 0 0 1-2.37-.545 5.95 5.95 0 0 1-1.976-1.525 7.506 7.506 0 0 1-1.343-2.37 9.126 9.126 0 0 1-.494-3.058 8.079 8.079 0 0 1 .53-2.907 7.731 7.731 0 0 1 1.461-2.41 6.499 6.499 0 0 1 2.153-1.545 6.74 6.74 0 0 1 4.543-.324c.468.12.923.283 1.36.49V5.725a2.65 2.65 0 0 0-.183-1 1.454 1.454 0 0 0-.478-.651 2.568 2.568 0 0 0-.98-.352c-.467-.082-.94-.14-1.414-.173h-.177V2.324L134.02 2l.332.324v18.682c-.007.256.05.51.166.739.118.21.287.386.49.514.21.11.442.17.68.177.331.037.636.056.912.056zm-15.051-9.288a1.37 1.37 0 0 1-1.237.648c-.49.025-.97-.149-1.331-.482a1.422 1.422 0 0 1-.47-1.031c-.003-.2.015-.4.05-.597l.048-.26a3.366 3.366 0 0 0-1.224.505 4.346 4.346 0 0 0-1.407 1.402v7.977c-.011.243.045.485.162.699a.944.944 0 0 0 .498.395c.276.101.564.167.857.198.36.047.68.098.948.098h.178v1.288H104.03v-1.288l.841-.07a2.37 2.37 0 0 0 .55-.104.818.818 0 0 0 .497-.355c.118-.22.174-.47.162-.72v-8.509a1.497 1.497 0 0 0-.182-.727 1.628 1.628 0 0 0-.51-.572 2.473 2.473 0 0 0-.702-.257 5.566 5.566 0 0 0-.893-.142h-.178v-1.28l5.136-.324.312.312v11.35c-.007.245.05.487.166.703a.92.92 0 0 0 .494.395 3.516 3.516 0 0 0 1.197.296h.13l.79-.067c.187-.012.37-.047.55-.103a.814.814 0 0 0 .477-.355c.117-.221.173-.47.162-.72v-8.532a1.762 1.762 0 0 0-.182-.77 1.505 1.505 0 0 0-.505-.597 1.722 1.722 0 0 0-.561-.214 5.468 5.468 0 0 0-.759-.102h-.178v-1.28l4.856-.324.312.312v1.58a6.266 6.266 0 0 1 1.718-1.434c1.494-.826 2.821-.806 3.611.02.416.454.633 1.056.605 1.67a2.52 2.52 0 0 1-.395 1.368zm-14.155-6.645a1.825 1.825 0 0 1-1.38-.608 2.046 2.046 0 0 1-.576-1.442c-.006-.547.2-1.075.573-1.474.345-.405.85-.639 1.383-.64a1.916 1.916 0 0 1 1.446.593c.362.369.564.865.564 1.382a2.232 2.232 0 0 1-.572 1.53 1.849 1.849 0 0 1-1.438.659zm-5.555 7.893a5.06 5.06 0 0 1 1.497 1.6c.417.732.625 1.564.6 2.406a4.86 4.86 0 0 1-.627 2.505 5.393 5.393 0 0 1-1.644 1.734 7.403 7.403 0 0 1-2.172 1.007 9.134 9.134 0 0 1-2.477.328h-9.589v-1.359h.174c.222-.02.545-.059.968-.118.298-.03.592-.098.873-.202a1.09 1.09 0 0 0 .526-.442 1.58 1.58 0 0 0 .158-.755V6.86a1.88 1.88 0 0 0-.146-.762c-.116-.226-.31-.401-.546-.494a3.828 3.828 0 0 0-.896-.308 6.755 6.755 0 0 0-.842-.135h-.178V3.81h9.34a9.876 9.876 0 0 1 2.077.213 6.262 6.262 0 0 1 1.913.766 4.231 4.231 0 0 1 1.418 1.39 3.95 3.95 0 0 1 .56 2.146 4.618 4.618 0 0 1-.394 1.947 4.31 4.31 0 0 1-1.114 1.474c-.459.394-.971.721-1.521.972a8.525 8.525 0 0 1-1.229.454c.446.087.886.2 1.32.336a6.83 6.83 0 0 1 1.951.944zm29.499-1.311a3.516 3.516 0 0 0-.328-.684 3.319 3.319 0 0 0-.592-.727 3.405 3.405 0 0 0-.897-.545 3.066 3.066 0 0 0-1.185-.217 2.718 2.718 0 0 0-1.442.395 3.95 3.95 0 0 0-1.186 1.185 6.258 6.258 0 0 0-.79 1.932 10.959 10.959 0 0 0-.296 2.635 9.24 9.24 0 0 0 .217 2.09c.142.611.388 1.194.727 1.722.3.48.705.886 1.185 1.185a3.16 3.16 0 0 0 1.691.431 3.093 3.093 0 0 0 1.746-.443c.425-.278.811-.61 1.15-.987V13.14zm-32.458-2.9a6.1 6.1 0 0 0 .198-1.64 3.394 3.394 0 0 0-.842-2.441c-.557-.58-1.458-.873-2.682-.873-.295 0-.668.006-1.118.02l-.952.027v7.257h1.58a5.63 5.63 0 0 0 1.896-.284 2.888 2.888 0 0 0 1.24-.826c.314-.36.546-.782.68-1.24zm-5.396 3.919v6.803c-.032.48.21.939.624 1.185.58.302 1.232.44 1.884.395 1.328 0 2.35-.364 3.05-1.134.7-.77 1.055-1.932 1.055-3.453a3.67 3.67 0 0 0-1.122-2.765c-.747-.715-1.841-1.079-3.247-1.079-.596 0-1.097.007-1.506.02l-.738.028z"/>
			<path class="LogoEbirdTX-portal" fill="#50A61C" d="M18.104 9.863h-.944a6.485 6.485 0 0 0-.444-1.169 10.508 10.508 0 0 0-.718-1.278 6.404 6.404 0 0 0-.895-1.1c-.324-.315-.636-.495-.937-.54a12.86 12.86 0 0 0-1.066-.083 28.113 28.113 0 0 0-1.19-.027h-.793v15.518c0 .3.064.576.192.827.127.25.35.444.67.58.164.065.508.151 1.032.26.524.11.932.17 1.223.178V24h-9.16v-.97c.255-.019.645-.055 1.17-.11.523-.055.886-.123 1.086-.205.3-.119.522-.29.663-.513.141-.223.212-.522.212-.895V5.666h-.793c-.282 0-.633.007-1.053.02-.419.014-.82.044-1.203.09-.3.036-.613.216-.936.54a7.19 7.19 0 0 0-.896 1.1c-.273.41-.515.845-.724 1.306-.21.46-.356.84-.438 1.141h-.957V4.6h16.899v5.263zm11.98 10.965c-.566 1.076-1.322 1.932-2.27 2.57-.948.638-2.037.957-3.268.957-1.085 0-2.035-.19-2.85-.574a5.597 5.597 0 0 1-2.017-1.558 6.62 6.62 0 0 1-1.183-2.297c-.26-.875-.39-1.8-.39-2.776 0-.875.14-1.734.418-2.577a7.27 7.27 0 0 1 1.223-2.276 5.921 5.921 0 0 1 1.935-1.566c.77-.396 1.634-.594 2.59-.594.985 0 1.828.155 2.53.465.702.31 1.271.733 1.709 1.271.42.51.731 1.112.936 1.805.206.692.308 1.444.308 2.256v.902h-8.928c0 .884.085 1.686.253 2.406a5.76 5.76 0 0 0 .8 1.9c.356.53.82.946 1.395 1.252.574.305 1.257.458 2.05.458.812 0 1.511-.19 2.099-.568.588-.378 1.155-1.06 1.702-2.044l.957.588zm-3.022-5.14c0-.51-.044-1.058-.13-1.641-.087-.583-.226-1.071-.417-1.463a2.779 2.779 0 0 0-.861-1.025c-.365-.265-.834-.397-1.409-.397-.957 0-1.752.399-2.385 1.196-.634.798-.978 1.908-1.033 3.33h6.235zM43.43 24h-6.18v-.902c.41-.046.76-.091 1.046-.137.287-.046.431-.164.431-.356 0-.082-.046-.21-.137-.382a7.458 7.458 0 0 0-.273-.479c-.228-.355-.54-.832-.937-1.429-.396-.597-.882-1.31-1.456-2.14a40.48 40.48 0 0 0-1.312 1.73c-.401.56-.82 1.156-1.258 1.784-.064.092-.13.206-.198.342a.794.794 0 0 0-.103.328c0 .2.13.367.39.5.26.132.65.22 1.169.266V24h-4.99v-.848c.62-.182 1.118-.403 1.497-.663.378-.26.726-.58 1.045-.964.283-.364.677-.865 1.183-1.504a90.842 90.842 0 0 0 1.962-2.597l-1.702-2.44c-.67-.962-1.224-1.762-1.661-2.4a3.259 3.259 0 0 0-.814-.84c-.305-.215-.736-.322-1.292-.322v-.902h5.865v.902c-.291 0-.578.018-.86.055-.283.036-.425.118-.425.246a.58.58 0 0 0 .082.273c.055.1.123.21.205.328.2.31.513.789.937 1.436.424.647.882 1.33 1.374 2.05l1.114-1.53c.424-.584.814-1.14 1.17-1.669a1.73 1.73 0 0 0 .109-.239.784.784 0 0 0 .054-.28c0-.192-.157-.344-.471-.458a4.957 4.957 0 0 0-.896-.24v-.874h4.977v.847c-.702.182-1.25.399-1.641.65-.392.25-.725.54-.998.868-.3.373-.659.834-1.073 1.38l-1.743 2.297a344.83 344.83 0 0 1 2.023 2.872c.52.747 1.044 1.517 1.572 2.31.265.401.559.718.882.95.324.233.768.367 1.333.404V24zm12.718-.246c-.428.155-.804.28-1.128.376a3.88 3.88 0 0 1-1.1.143c-.711 0-1.279-.166-1.703-.499-.423-.332-.695-.818-.813-1.456h-.082c-.593.657-1.228 1.158-1.907 1.504-.68.347-1.497.52-2.454.52-1.012 0-1.844-.31-2.496-.93-.651-.62-.977-1.43-.977-2.433 0-.52.073-.985.219-1.395.145-.41.364-.78.656-1.107a3.28 3.28 0 0 1 .902-.732 7.885 7.885 0 0 1 1.053-.513c.41-.155 1.242-.442 2.495-.86 1.253-.42 2.099-.748 2.536-.985v-1.354a5.73 5.73 0 0 0-.075-.683 2.863 2.863 0 0 0-.321-.957 2.723 2.723 0 0 0-.773-.882c-.332-.25-.804-.376-1.415-.376-.419 0-.809.07-1.169.212-.36.141-.613.29-.759.444 0 .182.044.451.13.807.087.355.13.683.13.984 0 .319-.143.61-.43.875-.288.264-.686.397-1.197.397-.455 0-.79-.162-1.005-.486a1.926 1.926 0 0 1-.32-1.087c0-.419.147-.82.443-1.203a4.462 4.462 0 0 1 1.156-1.025c.41-.255.907-.472 1.49-.65a5.847 5.847 0 0 1 1.709-.266c.766 0 1.433.052 2.003.157.57.105 1.087.33 1.552.677.465.337.818.795 1.06 1.374.24.579.362 1.324.362 2.235 0 1.303-.014 2.459-.041 3.466a122.31 122.31 0 0 0-.042 3.302c0 .355.062.638.185.847.123.21.312.388.567.534.137.082.354.127.65.136.296.01.6.014.909.014v.875zm-4.771-7.219a29.86 29.86 0 0 0-2.038.67 8.246 8.246 0 0 0-1.627.82 3.7 3.7 0 0 0-1.08 1.101c-.264.424-.396.927-.396 1.51 0 .757.198 1.313.595 1.669.396.355.9.533 1.51.533.648 0 1.217-.157 1.71-.472a4.973 4.973 0 0 0 1.244-1.114l.082-4.717zm13.811.861c.374.329.661.707.862 1.135.2.429.3.953.3 1.573 0 1.248-.467 2.269-1.401 3.062-.934.793-2.144 1.19-3.63 1.19a5.454 5.454 0 0 1-2.167-.424c-.66-.283-1.132-.543-1.415-.78l-.273.889h-1.026l-.136-4.69h.943c.073.356.228.77.465 1.245.237.474.524.902.861 1.285.356.4.782.738 1.278 1.012.497.273 1.055.41 1.675.41.875 0 1.55-.199 2.024-.595.474-.396.71-.964.71-1.702 0-.383-.075-.713-.225-.991a2.183 2.183 0 0 0-.663-.732 5.22 5.22 0 0 0-1.108-.567 21.672 21.672 0 0 0-1.462-.5 13.585 13.585 0 0 1-1.43-.526 5.695 5.695 0 0 1-1.346-.786 3.854 3.854 0 0 1-.984-1.175c-.255-.465-.383-1.012-.383-1.641 0-1.103.41-2.037 1.23-2.803.82-.765 1.92-1.148 3.295-1.148.53 0 1.07.068 1.62.205.552.137 1 .3 1.347.492l.315-.711h.984l.205 4.334h-.943c-.192-.966-.604-1.752-1.238-2.358-.633-.606-1.405-.91-2.317-.91-.747 0-1.335.187-1.764.561-.428.374-.642.825-.642 1.354 0 .41.07.751.212 1.025.141.273.353.506.635.697.274.182.618.353 1.033.513.414.16.927.34 1.538.54.601.191 1.169.415 1.702.67.533.255.973.538 1.32.847z"/>
		</g>
	</svg>