<svg class="LogoEBirdPortal LogoEbirdPortal--uruguay" width="169" height="32" viewBox="0 0 169 32" fill="none" xmlns="http://www.w3.org/2000/svg" aria-labelledby="logo-ebird-portal-uruguay-title">
			<title id="logo-ebird-portal-uruguay-title">eBird Uruguay logo</title>
			<path fill-rule="evenodd" clip-rule="evenodd" d="M62.2065 22.4916C61.93 22.4916 61.6258 22.4732 61.2939 22.4363C61.0568 22.4298 60.8243 22.369 60.6144 22.2585C60.4111 22.1305 60.2428 21.9541 60.1246 21.7449C60.008 21.5166 59.951 21.2625 59.9587 21.0062V2.32395L59.6268 2L53.701 2.32395V3.54862H53.8787C54.3529 3.5815 54.825 3.63952 55.293 3.72245C55.6402 3.77153 55.9736 3.89119 56.2728 4.07405C56.4905 4.24177 56.6563 4.46779 56.7508 4.72589C56.8752 5.04422 56.9369 5.38362 56.9325 5.72539V10.233C56.4964 10.0261 56.0413 9.86207 55.5735 9.74311C54.0674 9.32061 52.4613 9.43513 51.0304 10.0671C50.2142 10.4286 49.4813 10.9544 48.8773 11.6117C48.2465 12.3187 47.7511 13.1355 47.4156 14.0216C47.0619 14.95 46.8824 15.9357 46.8862 16.9292C46.8754 17.9691 47.0424 19.0033 47.38 19.9869C47.6794 20.8524 48.1347 21.6557 48.7232 22.3573C49.2665 22.9995 49.9397 23.5192 50.6985 23.8822C51.4371 24.2411 52.2477 24.4276 53.0689 24.4274C53.861 24.4243 54.6419 24.2405 55.3523 23.8901C55.9556 23.6025 56.507 23.2167 56.9839 22.7484V23.7874L57.3157 24.0955L62.4041 23.7716V22.4955L62.2065 22.4916ZM47.1549 13.2038C47.4151 12.7956 47.5522 12.321 47.5499 11.8369C47.5783 11.2217 47.3609 10.6205 46.9455 10.1658C46.1554 9.34015 44.828 9.3204 43.3347 10.1461C42.6804 10.5171 42.0983 11.0028 41.6162 11.5801V9.9999L41.3041 9.6878L36.4488 10.0118V11.2917H36.6266C36.8815 11.3082 37.135 11.3425 37.3851 11.3944C37.5831 11.4322 37.773 11.5044 37.9461 11.6078C38.1643 11.7586 38.3387 11.9644 38.4518 12.2043C38.57 12.444 38.6321 12.7074 38.6335 12.9747V21.5079C38.6448 21.7577 38.5888 22.006 38.4715 22.2269C38.3628 22.4016 38.1921 22.5286 37.9935 22.5825C37.8152 22.6384 37.6308 22.6729 37.4444 22.6852L36.6543 22.7523H36.5239C36.3146 22.738 36.107 22.7049 35.9036 22.6536C35.7073 22.6005 35.5146 22.5345 35.3269 22.456C35.1208 22.3868 34.9458 22.2469 34.833 22.061C34.7176 21.845 34.6604 21.6026 34.6671 21.3578V10.0078L34.355 9.69571L29.2193 10.0197V11.2996H29.3971C29.698 11.3228 29.9966 11.3703 30.2899 11.4419C30.536 11.4913 30.7731 11.5779 30.9931 11.6986C31.2062 11.8463 31.3809 12.0427 31.5027 12.2715C31.6239 12.4945 31.6865 12.7446 31.6844 12.9984V21.5079C31.6959 21.7578 31.64 22.0061 31.5225 22.2269C31.4088 22.4054 31.2304 22.5328 31.0247 22.5825C30.8463 22.6382 30.662 22.6727 30.4756 22.6852L29.6341 22.7563V24.0442H44.2275V22.7563H44.0497C43.8278 22.7563 43.5709 22.7212 43.2855 22.6823L43.2854 22.6823C43.2254 22.6741 43.1641 22.6658 43.1016 22.6575C42.8088 22.6274 42.5208 22.5611 42.2443 22.46C42.0377 22.3898 41.8618 22.2502 41.7465 22.0649C41.6294 21.8511 41.5733 21.6092 41.5846 21.3657V13.3895C41.9388 12.8197 42.4202 12.3397 42.991 11.987C43.3617 11.739 43.7779 11.5671 44.2156 11.4814L44.1682 11.7421C44.132 11.9388 44.1148 12.1386 44.1169 12.3386C44.124 12.7326 44.2942 13.106 44.587 13.3697C44.9476 13.7034 45.4277 13.8772 45.9183 13.8517C46.4178 13.8775 46.8918 13.6292 47.1549 13.2038ZM34.438 5.89921C34.0817 6.32347 33.554 6.5656 33 6.55896C32.4742 6.56422 31.9717 6.34249 31.6212 5.95057C31.247 5.56438 31.0398 5.04638 31.0445 4.50861C31.0384 3.96196 31.2436 3.43408 31.6173 3.03505C31.9625 2.62991 32.4677 2.39608 33 2.39506C33.5443 2.37814 34.07 2.59362 34.4459 2.98764C34.8079 3.35683 35.0107 3.85326 35.0108 4.37034C35.0198 4.93402 34.8152 5.48021 34.438 5.89921ZM27.4455 14.4522C26.8494 14.0356 26.1905 13.7168 25.4939 13.508C25.0607 13.3716 24.6202 13.2595 24.1744 13.1722C24.595 13.0525 25.0058 12.9006 25.403 12.7179C25.9533 12.4673 26.4654 12.1401 26.924 11.746C27.3975 11.3412 27.7776 10.8384 28.0381 10.2725C28.3095 9.65964 28.4443 8.99504 28.4331 8.32486C28.4547 7.57092 28.2601 6.82654 27.8721 6.1797C27.5164 5.6102 27.0303 5.13353 26.4539 4.7891C25.8632 4.42982 25.2171 4.17085 24.5418 4.02269C23.8586 3.87832 23.1621 3.80681 22.4638 3.80936H13.1247V5.16045H13.3025C13.5855 5.18747 13.8665 5.23234 14.1439 5.29477C14.4545 5.35993 14.7557 5.46343 15.0407 5.60292C15.2764 5.69585 15.4702 5.87138 15.5859 6.09674C15.6871 6.33796 15.7369 6.59764 15.7321 6.8592V21.1563C15.7425 21.417 15.6882 21.6762 15.574 21.9109C15.4511 22.1111 15.2668 22.2663 15.0486 22.3533C14.7671 22.4565 14.4738 22.5242 14.1755 22.5548C13.7528 22.6141 13.4289 22.6536 13.2076 22.6733H13.0338V24.0323H22.6218C23.4586 24.037 24.2921 23.9267 25.0988 23.7044C25.873 23.4888 26.6069 23.1485 27.2717 22.697C27.9423 22.2491 28.5039 21.6564 28.9151 20.9627C29.3465 20.1998 29.5636 19.3343 29.5432 18.4581C29.5672 17.6162 29.3594 16.784 28.9427 16.0522C28.5665 15.4159 28.0554 14.8698 27.4455 14.4522ZM56.9444 21.1128V13.1406C56.86 12.9016 56.7501 12.6725 56.6165 12.4572C56.4544 12.188 56.2548 11.9433 56.0239 11.7302C55.7549 11.5033 55.4524 11.3194 55.1271 11.1851C54.7503 11.035 54.3475 10.9611 53.9419 10.9678C53.4338 10.9621 52.9343 11.099 52.5 11.3628C52.0247 11.6686 51.6206 12.0727 51.3148 12.548C50.9452 13.1432 50.6781 13.7962 50.5247 14.4798C50.3196 15.343 50.2202 16.2278 50.2284 17.1149C50.2211 17.8175 50.294 18.5186 50.4457 19.2047C50.5873 19.8163 50.8332 20.399 51.1726 20.9272C51.4721 21.4075 51.8775 21.8129 52.3578 22.1123C52.8698 22.4117 53.4557 22.5609 54.0486 22.543C54.6617 22.572 55.2695 22.4179 55.7948 22.1005C56.2191 21.8224 56.6055 21.4904 56.9444 21.1128ZM24.4865 10.2409C24.3525 10.6987 24.1206 11.1219 23.807 11.4814C23.4729 11.8604 23.0451 12.1451 22.5665 12.307C21.9554 12.5096 21.314 12.6058 20.6703 12.5915H19.09V5.33428L20.0421 5.30662C20.4925 5.29346 20.8652 5.28687 21.1601 5.28687C22.3848 5.28687 23.2855 5.57921 23.8426 6.15995C24.4338 6.83107 24.7363 7.70849 24.684 8.6014C24.6928 9.15432 24.6264 9.70587 24.4865 10.2409ZM19.8288 14.1322L19.09 14.1598V20.9627C19.0583 21.4438 19.2996 21.9019 19.7142 22.1479C20.2941 22.4504 20.9461 22.5871 21.5986 22.543C22.926 22.543 23.9492 22.1795 24.6485 21.4091C25.3477 20.6388 25.7033 19.4773 25.7033 17.9563C25.7379 16.9172 25.3301 15.9122 24.5813 15.1909C23.8347 14.4759 22.7404 14.1124 21.334 14.1124C20.7387 14.1124 20.237 14.119 19.8288 14.1322Z" fill="#212121"/>
			<path fill-rule="evenodd" clip-rule="evenodd" d="M12.3978 19.75L13.7015 20.5401L13.6067 20.6863C13.0548 21.771 12.2398 22.7 11.2363 23.3885C10.2142 24.0671 9.01026 24.4197 7.78352 24.3998C6.75177 24.4209 5.72804 24.2145 4.78504 23.7954C3.95728 23.4167 3.22745 22.8531 2.65173 22.148C2.07994 21.4357 1.65315 20.6184 1.39545 19.7421C1.1248 18.8009 0.991739 17.8256 1.0004 16.8463C0.999666 15.9227 1.14773 15.0049 1.43891 14.1283C1.72309 13.2684 2.15783 12.4658 2.72284 11.758C3.27756 11.0672 3.9723 10.5017 4.76134 10.0988C5.61039 9.67299 6.54935 9.45756 7.49908 9.47062C8.41255 9.4489 9.32059 9.61705 10.1657 9.96444C10.8721 10.2645 11.4965 10.7291 11.9869 11.3195C12.4424 11.8838 12.7796 12.5341 12.9785 13.2316C13.2005 14.0019 13.3096 14.8003 13.3025 15.6019V16.716H4.16085C4.16713 17.4698 4.25455 18.2208 4.42159 18.9559C4.56994 19.6276 4.83754 20.2671 5.2117 20.8443C5.55612 21.3579 6.02322 21.7775 6.5707 22.065C7.19278 22.3766 7.88209 22.5299 8.57759 22.5114C9.29771 22.5297 10.0075 22.3375 10.62 21.9584C11.3332 21.4231 11.9088 20.7256 12.299 19.9238L12.3978 19.75ZM8.80277 11.2879C8.41032 11.028 7.94557 10.8994 7.47538 10.9205C6.56224 10.9059 5.69949 11.338 5.1643 12.078C4.52055 12.9788 4.17016 14.0562 4.16085 15.1634H10.1499C10.1367 14.6765 10.0932 14.191 10.0195 13.7096C9.96117 13.2131 9.82798 12.7282 9.62449 12.2716C9.43531 11.8813 9.15313 11.5435 8.80277 11.2879Z" fill="#4CA800"/>
			<path d="M89.9473 5.57031C89.6921 5.57943 89.3184 5.63411 88.8262 5.73438C88.334 5.83464 87.9329 5.98503 87.623 6.18555C87.3132 6.39518 87.099 6.82812 86.9805 7.48438C86.862 8.14062 86.8027 8.94271 86.8027 9.89062V18.3262C86.8027 19.4017 86.5794 20.3359 86.1328 21.1289C85.6862 21.9219 85.0983 22.5736 84.3691 23.084C83.6491 23.5762 82.888 23.9271 82.0859 24.1367C81.293 24.3555 80.5319 24.4648 79.8027 24.4648C78.6361 24.4648 77.597 24.3099 76.6855 24C75.7741 23.6992 75.0085 23.2891 74.3887 22.7695C73.778 22.25 73.3177 21.6576 73.0078 20.9922C72.6979 20.3177 72.543 19.6159 72.543 18.8867V7.41602C72.543 7.09701 72.4883 6.83268 72.3789 6.62305C72.2786 6.4043 72.069 6.20378 71.75 6.02148C71.5221 5.89388 71.2305 5.79362 70.875 5.7207C70.5195 5.63867 70.2279 5.58854 70 5.57031V4.59961H78.0801V5.57031C77.8249 5.57943 77.5013 5.62044 77.1094 5.69336C76.7266 5.76628 76.444 5.83464 76.2617 5.89844C75.9518 6.00781 75.7422 6.1901 75.6328 6.44531C75.5326 6.70052 75.4824 6.97852 75.4824 7.2793V17.998C75.4824 18.5176 75.5371 19.0645 75.6465 19.6387C75.765 20.2038 75.9928 20.7324 76.3301 21.2246C76.6855 21.7259 77.1686 22.1361 77.7793 22.4551C78.39 22.7741 79.2285 22.9336 80.2949 22.9336C81.2975 22.9336 82.1361 22.7741 82.8105 22.4551C83.4941 22.1361 84.0319 21.7168 84.4238 21.1973C84.7975 20.7051 85.0618 20.1901 85.2168 19.6523C85.3717 19.1146 85.4492 18.5723 85.4492 18.0254V10.0684C85.4492 9.05664 85.3763 8.23177 85.2305 7.59375C85.0846 6.94661 84.8704 6.52279 84.5879 6.32227C84.2689 6.0944 83.8314 5.91667 83.2754 5.78906C82.7285 5.66146 82.3092 5.58854 82.0176 5.57031V4.59961H89.9473V5.57031Z" fill="#4CA800"/>
			<path d="M99.2863 12.2559C99.2863 12.7207 99.1724 13.1354 98.9445 13.5C98.7167 13.8555 98.3658 14.0332 97.8918 14.0332C97.3814 14.0332 96.9895 13.901 96.716 13.6367C96.4517 13.3724 96.3195 13.0807 96.3195 12.7617C96.3195 12.5612 96.3332 12.3789 96.3605 12.2148C96.397 12.0508 96.4289 11.8867 96.4562 11.7227C96.0279 11.7227 95.5266 11.8958 94.9523 12.2422C94.3781 12.5885 93.8905 13.0807 93.4895 13.7188V21.5664C93.4895 21.8854 93.5487 22.1452 93.6672 22.3457C93.7948 22.5462 93.9908 22.6966 94.2551 22.7969C94.4829 22.888 94.7746 22.9564 95.1301 23.002C95.4947 23.0475 95.8091 23.0794 96.0734 23.0977V24H88.9641V23.0977C89.1737 23.0794 89.3879 23.0612 89.6066 23.043C89.8345 23.0247 90.0305 22.9883 90.1945 22.9336C90.4497 22.8516 90.6366 22.7103 90.7551 22.5098C90.8827 22.3001 90.9465 22.0312 90.9465 21.7031V13.377C90.9465 13.0944 90.8781 12.8164 90.7414 12.543C90.6138 12.2695 90.4315 12.0508 90.1945 11.8867C90.0214 11.7773 89.8163 11.6999 89.5793 11.6543C89.3423 11.5996 89.0871 11.5632 88.8137 11.5449V10.6562L93.298 10.3555L93.4895 10.5469V12.4473H93.5578C94.1229 11.709 94.7518 11.1484 95.4445 10.7656C96.1372 10.3828 96.7707 10.1914 97.3449 10.1914C97.9191 10.1914 98.384 10.3783 98.7395 10.752C99.104 11.1257 99.2863 11.627 99.2863 12.2559Z" fill="#4CA800"/>
			<path d="M114.9 23.7539L110.511 24.0547L110.306 23.8633V22.1543H110.224C110.005 22.3822 109.759 22.6283 109.486 22.8926C109.212 23.1478 108.898 23.3802 108.542 23.5898C108.132 23.8359 107.736 24.0228 107.353 24.1504C106.97 24.278 106.428 24.3418 105.726 24.3418C104.532 24.3418 103.62 23.9544 102.991 23.1797C102.372 22.3958 102.062 21.2611 102.062 19.7754V13.3223C102.062 12.9941 101.998 12.7207 101.87 12.502C101.752 12.2741 101.574 12.0781 101.337 11.9141C101.173 11.8047 100.968 11.7272 100.722 11.6816C100.476 11.627 100.216 11.5905 99.9426 11.5723V10.6836L104.441 10.3555L104.646 10.5469V19.9121C104.646 20.8874 104.864 21.6211 105.302 22.1133C105.739 22.6055 106.264 22.8516 106.874 22.8516C107.376 22.8516 107.822 22.7741 108.214 22.6191C108.606 22.4642 108.934 22.2819 109.198 22.0723C109.445 21.8809 109.659 21.6803 109.841 21.4707C110.032 21.252 110.178 21.0514 110.279 20.8691V13.2266C110.279 12.9258 110.215 12.6615 110.087 12.4336C109.96 12.1966 109.782 11.9961 109.554 11.832C109.39 11.7227 109.144 11.6589 108.816 11.6406C108.497 11.6133 108.137 11.5905 107.736 11.5723V10.6836L112.63 10.3555L112.835 10.5469V21.252C112.835 21.5618 112.899 21.8262 113.027 22.0449C113.154 22.2637 113.332 22.4505 113.56 22.6055C113.724 22.7057 113.92 22.7741 114.148 22.8105C114.376 22.8379 114.626 22.8561 114.9 22.8652V23.7539Z" fill="#4CA800"/>
			<path d="M126.307 22.6055C126.671 22.9518 126.958 23.3438 127.168 23.7812C127.378 24.2188 127.482 24.7611 127.482 25.4082C127.482 26.0553 127.341 26.6615 127.059 27.2266C126.776 27.8008 126.348 28.2975 125.773 28.7168C125.163 29.1452 124.434 29.4779 123.586 29.7148C122.738 29.9518 121.69 30.0703 120.441 30.0703C118.4 30.0703 116.873 29.7695 115.861 29.168C114.85 28.5755 114.344 27.7051 114.344 26.5566C114.344 25.627 114.708 24.8932 115.438 24.3555C116.167 23.8177 117.096 23.526 118.227 23.4805V23.2891C117.953 23.207 117.671 23.1068 117.379 22.9883C117.087 22.8607 116.837 22.7148 116.627 22.5508C116.39 22.3594 116.199 22.1361 116.053 21.8809C115.907 21.6165 115.834 21.293 115.834 20.9102C115.834 20.4271 116.003 19.985 116.34 19.584C116.686 19.1738 117.206 18.8229 117.898 18.5312V18.3262C117.023 17.916 116.344 17.3919 115.861 16.7539C115.378 16.1068 115.137 15.3594 115.137 14.5117C115.137 13.2357 115.611 12.1875 116.559 11.3672C117.516 10.5469 118.737 10.1367 120.223 10.1367C120.633 10.1367 121.038 10.1777 121.439 10.2598C121.85 10.3418 122.264 10.4466 122.684 10.5742H127.387V11.8867H124.215V11.9688C124.552 12.3607 124.803 12.7936 124.967 13.2676C125.131 13.7415 125.213 14.2064 125.213 14.6621C125.213 15.847 124.73 16.8496 123.764 17.6699C122.807 18.4902 121.69 18.9004 120.414 18.9004H118.76C118.55 18.9733 118.331 19.1055 118.104 19.2969C117.876 19.4883 117.762 19.748 117.762 20.0762C117.762 20.4134 117.857 20.6732 118.049 20.8555C118.24 21.0286 118.473 21.1471 118.746 21.2109C119.01 21.2839 119.316 21.3294 119.662 21.3477C120.018 21.3659 120.382 21.3796 120.756 21.3887C121.157 21.3978 121.704 21.4251 122.396 21.4707C123.098 21.5163 123.595 21.5436 123.887 21.5527C124.306 21.571 124.725 21.6712 125.145 21.8535C125.573 22.0358 125.96 22.2865 126.307 22.6055ZM122.615 14.6074C122.615 13.541 122.396 12.6934 121.959 12.0645C121.531 11.4264 120.924 11.1074 120.141 11.1074C119.712 11.1074 119.343 11.1986 119.033 11.3809C118.732 11.554 118.486 11.8047 118.295 12.1328C118.113 12.4336 117.98 12.7982 117.898 13.2266C117.826 13.6458 117.789 14.0788 117.789 14.5254C117.789 15.5371 118.008 16.362 118.445 17C118.892 17.638 119.466 17.957 120.168 17.957C120.952 17.957 121.553 17.6426 121.973 17.0137C122.401 16.3757 122.615 15.5736 122.615 14.6074ZM125.24 25.9141C125.24 25.4036 125.122 24.9844 124.885 24.6562C124.648 24.3281 124.288 24.1048 123.805 23.9863C123.549 23.9499 123.025 23.9089 122.232 23.8633C121.439 23.8177 120.519 23.7949 119.471 23.7949C118.486 23.9863 117.785 24.3053 117.365 24.752C116.955 25.2077 116.75 25.791 116.75 26.502C116.75 26.821 116.818 27.1263 116.955 27.418C117.092 27.7096 117.329 27.9785 117.666 28.2246C117.985 28.4616 118.413 28.653 118.951 28.7988C119.489 28.9538 120.145 29.0312 120.92 29.0312C122.26 29.0312 123.312 28.7715 124.078 28.252C124.853 27.7415 125.24 26.9622 125.24 25.9141Z" fill="#4CA800"/>
			<path d="M141.679 23.7539L137.29 24.0547L137.085 23.8633V22.1543H137.003C136.784 22.3822 136.538 22.6283 136.264 22.8926C135.991 23.1478 135.677 23.3802 135.321 23.5898C134.911 23.8359 134.514 24.0228 134.132 24.1504C133.749 24.278 133.207 24.3418 132.505 24.3418C131.311 24.3418 130.399 23.9544 129.77 23.1797C129.151 22.3958 128.841 21.2611 128.841 19.7754V13.3223C128.841 12.9941 128.777 12.7207 128.649 12.502C128.531 12.2741 128.353 12.0781 128.116 11.9141C127.952 11.8047 127.747 11.7272 127.501 11.6816C127.255 11.627 126.995 11.5905 126.721 11.5723V10.6836L131.22 10.3555L131.425 10.5469V19.9121C131.425 20.8874 131.643 21.6211 132.081 22.1133C132.518 22.6055 133.042 22.8516 133.653 22.8516C134.154 22.8516 134.601 22.7741 134.993 22.6191C135.385 22.4642 135.713 22.2819 135.977 22.0723C136.223 21.8809 136.438 21.6803 136.62 21.4707C136.811 21.252 136.957 21.0514 137.057 20.8691V13.2266C137.057 12.9258 136.994 12.6615 136.866 12.4336C136.738 12.1966 136.561 11.9961 136.333 11.832C136.169 11.7227 135.923 11.6589 135.595 11.6406C135.276 11.6133 134.915 11.5905 134.514 11.5723V10.6836L139.409 10.3555L139.614 10.5469V21.252C139.614 21.5618 139.678 21.8262 139.805 22.0449C139.933 22.2637 140.111 22.4505 140.339 22.6055C140.503 22.7057 140.699 22.7741 140.927 22.8105C141.154 22.8379 141.405 22.8561 141.679 22.8652V23.7539Z" fill="#4CA800"/>
			<path d="M154.702 23.7539C154.274 23.9089 153.896 24.0319 153.568 24.123C153.249 24.2233 152.884 24.2734 152.474 24.2734C151.763 24.2734 151.193 24.1094 150.765 23.7812C150.346 23.444 150.077 22.9564 149.958 22.3184H149.876C149.284 22.9746 148.646 23.4759 147.962 23.8223C147.288 24.1686 146.472 24.3418 145.515 24.3418C144.503 24.3418 143.669 24.0319 143.013 23.4121C142.366 22.7923 142.042 21.9811 142.042 20.9785C142.042 20.459 142.115 19.9941 142.261 19.584C142.407 19.1738 142.626 18.8047 142.917 18.4766C143.145 18.2031 143.446 17.9616 143.82 17.752C144.193 17.5332 144.544 17.36 144.872 17.2324C145.282 17.0775 146.112 16.7904 147.361 16.3711C148.618 15.9518 149.466 15.6237 149.904 15.3867V14.0332C149.904 13.9147 149.876 13.6868 149.821 13.3496C149.776 13.0124 149.671 12.6934 149.507 12.3926C149.325 12.0553 149.065 11.7637 148.728 11.5176C148.4 11.2624 147.93 11.1348 147.32 11.1348C146.9 11.1348 146.508 11.2077 146.144 11.3535C145.788 11.4902 145.538 11.6361 145.392 11.791C145.392 11.9733 145.433 12.2422 145.515 12.5977C145.606 12.9531 145.652 13.2812 145.652 13.582C145.652 13.901 145.506 14.1927 145.214 14.457C144.932 14.7214 144.535 14.8535 144.025 14.8535C143.569 14.8535 143.232 14.694 143.013 14.375C142.803 14.0469 142.698 13.6823 142.698 13.2812C142.698 12.862 142.844 12.4609 143.136 12.0781C143.437 11.6953 143.824 11.3535 144.298 11.0527C144.708 10.7975 145.205 10.5833 145.788 10.4102C146.372 10.2279 146.941 10.1367 147.497 10.1367C148.263 10.1367 148.928 10.1914 149.493 10.3008C150.068 10.401 150.587 10.6243 151.052 10.9707C151.517 11.3079 151.868 11.7682 152.105 12.3516C152.351 12.9258 152.474 13.6686 152.474 14.5801C152.474 15.8835 152.46 17.041 152.433 18.0527C152.405 19.0553 152.392 20.1536 152.392 21.3477C152.392 21.7031 152.451 21.9857 152.57 22.1953C152.697 22.4049 152.889 22.5827 153.144 22.7285C153.28 22.8105 153.495 22.8561 153.786 22.8652C154.087 22.8743 154.392 22.8789 154.702 22.8789V23.7539ZM149.931 16.5352C149.156 16.763 148.477 16.9863 147.894 17.2051C147.31 17.4238 146.768 17.6973 146.267 18.0254C145.811 18.3353 145.451 18.7044 145.187 19.1328C144.922 19.5521 144.79 20.0534 144.79 20.6367C144.79 21.3932 144.986 21.9492 145.378 22.3047C145.779 22.6602 146.285 22.8379 146.896 22.8379C147.543 22.8379 148.113 22.6829 148.605 22.373C149.097 22.054 149.512 21.6803 149.849 21.252L149.931 16.5352Z" fill="#4CA800"/>
			<path d="M153.217 28.4023C153.217 27.9466 153.34 27.5729 153.586 27.2812C153.841 26.9987 154.156 26.8574 154.529 26.8574C154.821 26.8574 155.072 26.9121 155.281 27.0215C155.491 27.1309 155.678 27.2721 155.842 27.4453C155.979 27.582 156.124 27.7689 156.279 28.0059C156.434 28.2428 156.557 28.4388 156.648 28.5938C157.104 28.3477 157.646 27.7051 158.275 26.666C158.913 25.627 159.374 24.7155 159.656 23.9316C158.79 21.7715 158.007 19.8392 157.305 18.1348C156.603 16.4303 155.869 14.6667 155.104 12.8438C154.93 12.4245 154.639 12.1009 154.229 11.873C153.818 11.6361 153.408 11.4857 152.998 11.4219V10.5195H159.15V11.4766C158.877 11.4857 158.549 11.5449 158.166 11.6543C157.783 11.7546 157.592 11.873 157.592 12.0098C157.592 12.0645 157.61 12.1556 157.646 12.2832C157.692 12.4108 157.742 12.543 157.797 12.6797C158.143 13.582 158.672 14.8854 159.383 16.5898C160.094 18.2852 160.645 19.6432 161.037 20.6641C161.447 19.6888 161.871 18.6816 162.309 17.6426C162.755 16.5944 163.252 15.3594 163.799 13.9375C163.863 13.7643 163.954 13.5273 164.072 13.2266C164.191 12.9167 164.25 12.6523 164.25 12.4336C164.25 12.1966 164.04 11.9779 163.621 11.7773C163.211 11.5677 162.819 11.4401 162.445 11.3945V10.5195H167.449V11.3672C167.176 11.4128 166.816 11.5723 166.369 11.8457C165.923 12.11 165.59 12.4883 165.371 12.9805C164.286 15.4961 163.32 17.7884 162.473 19.8574C161.634 21.9264 160.996 23.4486 160.559 24.4238C159.984 25.6999 159.469 26.6934 159.014 27.4043C158.567 28.1243 158.13 28.6895 157.701 29.0996C157.282 29.4824 156.899 29.7376 156.553 29.8652C156.215 30.002 155.865 30.0703 155.5 30.0703C154.789 30.0703 154.229 29.9017 153.818 29.5645C153.417 29.2272 153.217 28.8398 153.217 28.4023Z" fill="#4CA800"/>
		</svg>