<svg  class="LogoEbirdPortal LogoEbirdPortal--vt" xmlns="http://www.w3.org/2000/svg" width="174px" height="32px" viewBox="0 0 174 32" role="img" aria-labelledby="logo-ebird-portal-vt-title-ebird-header">
		<title id="logo-ebird-portal-vt-title-ebird-header">Vermont eBird logo</title>
		<g fill="none" fill-rule="evenodd">
			<path class="LogoEbirdPortal-e" fill="#50A61C" fill-rule="nonzero" d="M124.096 20.54l-1.304-.79-.098.174c-.39.802-.966 1.499-1.68 2.034a3.702 3.702 0 0 1-2.042.553 4.231 4.231 0 0 1-2.007-.446 3.717 3.717 0 0 1-1.359-1.22 5.752 5.752 0 0 1-.79-1.89 10.505 10.505 0 0 1-.26-2.24h9.141v-1.113a8.296 8.296 0 0 0-.324-2.37 5.404 5.404 0 0 0-.991-1.913 4.816 4.816 0 0 0-1.822-1.355 6.601 6.601 0 0 0-2.666-.493 5.926 5.926 0 0 0-2.738.628 6.274 6.274 0 0 0-2.038 1.659c-.566.708-1 1.51-1.284 2.37a8.6 8.6 0 0 0-.439 2.718c-.009.98.124 1.955.395 2.896a6.996 6.996 0 0 0 1.256 2.406 5.95 5.95 0 0 0 2.134 1.647c.943.42 1.966.626 2.998.605a6.064 6.064 0 0 0 3.453-1.012 7.28 7.28 0 0 0 2.37-2.702l.095-.146zm-6.226-9.62c.47-.02.935.108 1.327.368.35.255.633.593.822.983.204.457.337.942.395 1.438.074.482.117.967.13 1.454h-5.988a5.385 5.385 0 0 1 1.003-3.085 2.797 2.797 0 0 1 2.311-1.158z"/>
			<path class="LogoEbirdPortal-bird" fill="#231F20" fill-rule="nonzero" d="M172.601 22.492l.198.004v1.276l-5.089.324-.331-.309v-1.039a6.036 6.036 0 0 1-1.632 1.142c-.71.35-1.491.534-2.283.537a5.42 5.42 0 0 1-2.37-.545 5.95 5.95 0 0 1-1.976-1.525 7.506 7.506 0 0 1-1.343-2.37 9.126 9.126 0 0 1-.494-3.058 8.079 8.079 0 0 1 .53-2.907 7.731 7.731 0 0 1 1.461-2.41 6.499 6.499 0 0 1 2.153-1.545 6.74 6.74 0 0 1 4.543-.324c.468.12.923.283 1.36.49V5.725a2.65 2.65 0 0 0-.183-1 1.454 1.454 0 0 0-.478-.651 2.568 2.568 0 0 0-.98-.352c-.467-.082-.94-.14-1.414-.173h-.177V2.324L170.02 2l.332.324v18.682c-.007.256.05.51.166.739.118.21.287.386.49.514.21.11.442.17.68.177.331.037.636.056.912.056zm-15.051-9.288a1.37 1.37 0 0 1-1.237.648c-.49.025-.97-.149-1.331-.482a1.422 1.422 0 0 1-.47-1.031c-.003-.2.015-.4.05-.597l.048-.26a3.366 3.366 0 0 0-1.224.505 4.346 4.346 0 0 0-1.407 1.402v7.977c-.011.243.045.485.162.699a.944.944 0 0 0 .498.395c.276.101.564.167.857.198.36.047.68.098.948.098h.178v1.288H140.03v-1.288l.841-.07a2.37 2.37 0 0 0 .55-.104.818.818 0 0 0 .497-.355c.118-.22.174-.47.162-.72v-8.509a1.497 1.497 0 0 0-.182-.727 1.628 1.628 0 0 0-.51-.572 2.473 2.473 0 0 0-.702-.257 5.566 5.566 0 0 0-.893-.142h-.178v-1.28l5.136-.324.312.312v11.35c-.007.245.05.487.166.703a.92.92 0 0 0 .494.395 3.516 3.516 0 0 0 1.197.296h.13l.79-.067c.187-.012.37-.047.55-.103a.814.814 0 0 0 .477-.355c.117-.221.173-.47.162-.72v-8.532a1.762 1.762 0 0 0-.182-.77 1.505 1.505 0 0 0-.505-.597 1.722 1.722 0 0 0-.561-.214 5.468 5.468 0 0 0-.759-.102h-.178v-1.28l4.856-.324.312.312v1.58a6.266 6.266 0 0 1 1.718-1.434c1.494-.826 2.821-.806 3.611.02.416.454.633 1.056.605 1.67a2.52 2.52 0 0 1-.395 1.368zm-14.155-6.645a1.825 1.825 0 0 1-1.38-.608 2.046 2.046 0 0 1-.576-1.442c-.006-.547.2-1.075.573-1.474.345-.405.85-.639 1.383-.64a1.916 1.916 0 0 1 1.446.593c.362.369.564.865.564 1.382a2.232 2.232 0 0 1-.572 1.53 1.849 1.849 0 0 1-1.438.659zm-5.555 7.893a5.06 5.06 0 0 1 1.497 1.6c.417.732.625 1.564.6 2.406a4.86 4.86 0 0 1-.627 2.505 5.393 5.393 0 0 1-1.644 1.734 7.403 7.403 0 0 1-2.172 1.007 9.134 9.134 0 0 1-2.477.328h-9.589v-1.359h.174c.222-.02.545-.059.968-.118.298-.03.592-.098.873-.202a1.09 1.09 0 0 0 .526-.442 1.58 1.58 0 0 0 .158-.755V6.86a1.88 1.88 0 0 0-.146-.762c-.116-.226-.31-.401-.546-.494a3.828 3.828 0 0 0-.896-.308 6.755 6.755 0 0 0-.842-.135h-.178V3.81h9.34a9.876 9.876 0 0 1 2.077.213 6.262 6.262 0 0 1 1.913.766 4.231 4.231 0 0 1 1.418 1.39 3.95 3.95 0 0 1 .56 2.146 4.618 4.618 0 0 1-.394 1.947 4.31 4.31 0 0 1-1.114 1.474c-.459.394-.971.721-1.521.972a8.525 8.525 0 0 1-1.229.454c.446.087.886.2 1.32.336a6.83 6.83 0 0 1 1.951.944zm29.499-1.311a3.516 3.516 0 0 0-.328-.684 3.319 3.319 0 0 0-.592-.727 3.405 3.405 0 0 0-.897-.545 3.066 3.066 0 0 0-1.185-.217 2.718 2.718 0 0 0-1.442.395 3.95 3.95 0 0 0-1.186 1.185 6.258 6.258 0 0 0-.79 1.932 10.959 10.959 0 0 0-.296 2.635 9.24 9.24 0 0 0 .217 2.09c.142.611.388 1.194.727 1.722.3.48.705.886 1.185 1.185a3.16 3.16 0 0 0 1.691.431 3.093 3.093 0 0 0 1.746-.443c.425-.278.811-.61 1.15-.987V13.14zm-32.458-2.9a6.1 6.1 0 0 0 .198-1.64 3.394 3.394 0 0 0-.842-2.441c-.557-.58-1.458-.873-2.682-.873-.295 0-.668.006-1.118.02l-.952.027v7.257h1.58a5.63 5.63 0 0 0 1.896-.284 2.888 2.888 0 0 0 1.24-.826c.314-.36.546-.782.68-1.24zm-5.396 3.919v6.803c-.032.48.21.939.624 1.185.58.302 1.232.44 1.884.395 1.328 0 2.35-.364 3.05-1.134.7-.77 1.055-1.932 1.055-3.453a3.67 3.67 0 0 0-1.122-2.765c-.747-.715-1.841-1.079-3.247-1.079-.596 0-1.097.007-1.506.02l-.738.028z"/>
			<path class="LogoEbirdPortal-portal" fill="#50A61C" d="M20.236 5.57a3.78 3.78 0 0 0-.861.158 3.256 3.256 0 0 0-.834.348c-.31.192-.558.438-.745.738-.187.301-.372.657-.554 1.067-.61 1.45-1.526 3.707-2.748 6.774-1.221 3.067-2.479 6.264-3.773 9.591H9.586l-3.8-10.2c-1.222-3.271-2.052-5.482-2.49-6.63a2.57 2.57 0 0 0-.437-.745 3.193 3.193 0 0 0-.724-.609 2.874 2.874 0 0 0-.82-.348A4.71 4.71 0 0 0 .48 5.57V4.6h8.026v.97c-.684.037-1.26.105-1.73.205-.469.1-.704.278-.704.534 0 .1.018.218.055.355.036.137.068.246.096.328.337.893.884 2.35 1.64 4.368l3.227 8.62c.693-1.686 1.49-3.677 2.392-5.974.903-2.297 1.509-3.874 1.819-4.73.3-.83.476-1.404.526-1.723.05-.32.075-.579.075-.78 0-.21-.093-.385-.28-.526a2.522 2.522 0 0 0-.745-.362 6.33 6.33 0 0 0-.916-.205c-.31-.046-.624-.082-.943-.11V4.6h7.218v.97zm11.187 15.258c-.565 1.076-1.322 1.932-2.27 2.57-.947.638-2.037.957-3.267.957-1.085 0-2.035-.19-2.85-.574a5.597 5.597 0 0 1-2.017-1.558 6.62 6.62 0 0 1-1.183-2.297c-.26-.875-.39-1.8-.39-2.776 0-.875.14-1.734.417-2.577a7.27 7.27 0 0 1 1.224-2.276 5.921 5.921 0 0 1 1.935-1.566c.77-.396 1.633-.594 2.59-.594.985 0 1.828.155 2.53.465.702.31 1.271.733 1.709 1.271.42.51.731 1.112.936 1.805.205.692.308 1.444.308 2.256v.902h-8.928c0 .884.084 1.686.253 2.406a5.76 5.76 0 0 0 .8 1.9c.355.53.82.946 1.394 1.252.575.305 1.258.458 2.051.458.811 0 1.511-.19 2.099-.568.588-.378 1.155-1.06 1.702-2.044l.957.588zm-3.021-5.14c0-.51-.044-1.058-.13-1.641-.087-.583-.226-1.071-.417-1.463a2.779 2.779 0 0 0-.862-1.025c-.364-.265-.834-.397-1.408-.397-.957 0-1.752.399-2.386 1.196-.633.798-.977 1.908-1.032 3.33h6.235zm13.702-3.432c0 .465-.114.877-.342 1.237-.228.36-.579.54-1.053.54-.51 0-.9-.132-1.169-.396-.268-.265-.403-.556-.403-.875 0-.2.016-.383.048-.547.032-.164.061-.328.089-.492-.429 0-.93.173-1.504.52-.574.346-1.062.838-1.463 1.476v7.847c0 .32.062.58.185.78.123.2.316.35.58.45.229.092.522.16.882.206.36.046.673.077.937.096V24h-7.11v-.902c.21-.019.427-.037.65-.055.223-.018.417-.055.581-.11a.983.983 0 0 0 .567-.43c.124-.205.185-.472.185-.8v-8.326c0-.283-.066-.56-.198-.834a1.66 1.66 0 0 0-.554-.656 1.865 1.865 0 0 0-.615-.24 5.457 5.457 0 0 0-.766-.102v-.889l4.485-.3.191.19v1.901h.068c.565-.738 1.194-1.299 1.887-1.681.693-.383 1.326-.575 1.9-.575.575 0 1.042.187 1.402.561.36.374.54.875.54 1.504zM65.144 24h-6.576v-.902l.636-.055c.214-.018.403-.055.567-.11a.983.983 0 0 0 .567-.43c.124-.205.185-.472.185-.8v-6.959c0-.948-.216-1.68-.65-2.194-.432-.515-.972-.773-1.62-.773-.446 0-.865.069-1.257.205a3.966 3.966 0 0 0-1.08.575c-.265.2-.486.417-.663.65a6.103 6.103 0 0 0-.404.58v7.78c0 .318.055.58.164.786.11.205.297.362.56.471.21.082.4.144.568.185.169.04.39.07.663.089V24h-6.44v-.902l.61-.055c.195-.018.375-.055.54-.11a.983.983 0 0 0 .567-.43c.123-.205.184-.472.184-.8v-6.959c0-.948-.216-1.68-.65-2.194-.432-.515-.972-.773-1.62-.773-.446 0-.865.071-1.257.212a4.115 4.115 0 0 0-1.08.581c-.265.2-.488.426-.67.677-.182.25-.32.44-.41.567v7.725c0 .31.064.57.191.78.128.209.32.368.574.478.192.091.388.16.588.205.2.046.424.077.67.096V24h-6.549v-.902c.21-.019.426-.037.65-.055.223-.018.417-.055.58-.11a.983.983 0 0 0 .568-.43c.123-.205.185-.472.185-.8v-8.38c0-.292-.066-.554-.198-.787a1.808 1.808 0 0 0-.554-.595 2.33 2.33 0 0 0-.643-.266 4.115 4.115 0 0 0-.793-.13v-.889l4.512-.3.191.19v1.929h.096c.228-.228.506-.497.834-.807.328-.31.634-.56.916-.752.32-.219.718-.401 1.196-.547a5.3 5.3 0 0 1 1.552-.219c.875 0 1.627.235 2.256.704.629.47 1.08 1.037 1.354 1.703.328-.32.617-.6.868-.841.25-.242.58-.5.99-.773a4.536 4.536 0 0 1 1.225-.574c.469-.146.99-.219 1.565-.219 1.14 0 2.042.374 2.707 1.121.665.748.998 1.896.998 3.446v6.85c0 .318.055.58.164.786.11.205.296.362.56.471.21.082.418.144.623.185.205.04.435.07.69.089V24zm13.511-6.877c0 .948-.15 1.88-.451 2.796-.3.916-.73 1.693-1.285 2.331a5.982 5.982 0 0 1-2.188 1.627c-.83.355-1.759.533-2.789.533a6.287 6.287 0 0 1-2.447-.485 6.165 6.165 0 0 1-2.065-1.415c-.592-.61-1.064-1.356-1.415-2.236-.35-.88-.526-1.866-.526-2.96 0-2.105.613-3.828 1.839-5.168 1.226-1.34 2.832-2.01 4.82-2.01 1.886 0 3.442.636 4.668 1.908 1.226 1.271 1.84 2.964 1.84 5.079zm-2.83.027c0-.683-.068-1.406-.205-2.167-.137-.76-.342-1.406-.615-1.934a3.78 3.78 0 0 0-1.149-1.36c-.474-.342-1.052-.513-1.736-.513-.702 0-1.301.173-1.798.52-.497.346-.9.82-1.21 1.421a6.291 6.291 0 0 0-.615 1.9 13.004 13.004 0 0 0 .034 4.491c.141.744.367 1.407.677 1.99.31.583.7 1.041 1.169 1.374.47.333 1.05.5 1.743.5 1.14 0 2.042-.552 2.707-1.655s.998-2.625.998-4.567zM94.299 24h-6.604v-.902c.21-.019.44-.037.69-.055a2.6 2.6 0 0 0 .623-.11.983.983 0 0 0 .567-.43c.123-.205.185-.472.185-.8v-6.932c0-.957-.226-1.695-.677-2.214-.451-.52-1-.78-1.647-.78a3.75 3.75 0 0 0-1.327.226c-.4.15-.756.335-1.066.554-.3.21-.54.435-.718.676a6.11 6.11 0 0 0-.39.581v7.752c0 .31.064.566.192.766.128.2.319.355.574.465.192.091.399.16.622.205.224.046.454.077.69.096V24H79.41v-.902c.21-.019.426-.037.65-.055.223-.018.417-.055.58-.11a.983.983 0 0 0 .568-.43c.123-.205.185-.472.185-.8v-8.326c0-.31-.067-.595-.199-.855a1.696 1.696 0 0 0-.553-.635 1.865 1.865 0 0 0-.616-.24 5.457 5.457 0 0 0-.765-.102v-.889l4.484-.3.192.19v1.901h.068c.219-.218.492-.48.82-.786.328-.305.638-.554.93-.745a4.896 4.896 0 0 1 1.203-.547 5.244 5.244 0 0 1 1.572-.219c1.295 0 2.254.404 2.878 1.21.625.807.937 1.88.937 3.22v7.014c0 .319.054.576.164.772.11.196.296.349.56.458.22.091.408.155.568.192.16.036.38.063.663.082V24zm8.78-.588a21.19 21.19 0 0 1-1.681.622c-.529.169-1.176.253-1.942.253-1.13 0-1.925-.285-2.385-.854-.46-.57-.69-1.374-.69-2.413v-9.133h-2.435v-1.313h2.489V6.377h2.488v4.197h3.87v1.313H98.95v7.533c0 .565.02 1.037.062 1.415.04.378.139.709.294.991.146.264.364.465.656.602.292.136.684.205 1.176.205.228 0 .563-.02 1.005-.062.442-.04.754-.093.936-.157v.998z"/>
		</g>
	</svg>