<svg  class="LogoEbirdPortal LogoEbirdPortal--massaudubon" xmlns="http://www.w3.org/2000/svg" width="244" height="32" viewBox="0 0 244 32" role="img" aria-labelledby="logo-ebird-portal-massaudubon-title-ebird-header">
		<title id="logo-ebird-portal-massaudubon-title-ebird-header">Mass Audubon eBird logo</title>
		<g fill="none" fill-rule="evenodd">
			<path class="LogoEbirdPortal-e" fill="#50A61C" fill-rule="nonzero" d="M194.096 20.54l-1.304-.79-.098.174c-.39.802-.966 1.499-1.68 2.034a3.702 3.702 0 0 1-2.042.553 4.231 4.231 0 0 1-2.007-.446 3.717 3.717 0 0 1-1.359-1.22 5.752 5.752 0 0 1-.79-1.89 10.505 10.505 0 0 1-.26-2.24h9.141v-1.113a8.296 8.296 0 0 0-.324-2.37 5.404 5.404 0 0 0-.991-1.913 4.816 4.816 0 0 0-1.822-1.355 6.601 6.601 0 0 0-2.666-.493 5.926 5.926 0 0 0-2.738.628 6.274 6.274 0 0 0-2.038 1.659c-.566.708-1 1.51-1.284 2.37a8.6 8.6 0 0 0-.439 2.718c-.009.98.124 1.955.395 2.896a6.996 6.996 0 0 0 1.256 2.406 5.95 5.95 0 0 0 2.134 1.647c.943.42 1.966.626 2.998.605a6.064 6.064 0 0 0 3.453-1.012 7.28 7.28 0 0 0 2.37-2.702l.095-.146zm-6.226-9.62c.47-.02.935.108 1.327.368.35.255.633.593.822.983.204.457.337.942.395 1.438.074.482.117.967.13 1.454h-5.988a5.385 5.385 0 0 1 1.003-3.085 2.797 2.797 0 0 1 2.311-1.158z"/>
			<path class="LogoEbirdPortal-bird" fill="#231F20" fill-rule="nonzero" d="M242.601 22.492l.198.004v1.276l-5.089.324-.331-.309v-1.039a6.036 6.036 0 0 1-1.632 1.142c-.71.35-1.491.534-2.283.537a5.42 5.42 0 0 1-2.37-.545 5.95 5.95 0 0 1-1.976-1.525 7.506 7.506 0 0 1-1.343-2.37 9.126 9.126 0 0 1-.494-3.058 8.079 8.079 0 0 1 .53-2.907 7.731 7.731 0 0 1 1.461-2.41 6.499 6.499 0 0 1 2.153-1.545 6.74 6.74 0 0 1 4.543-.324c.468.12.923.283 1.36.49V5.725a2.65 2.65 0 0 0-.183-1 1.454 1.454 0 0 0-.478-.651 2.568 2.568 0 0 0-.98-.352c-.467-.082-.94-.14-1.414-.173h-.177V2.324L240.02 2l.332.324v18.682c-.007.256.05.51.166.739.118.21.287.386.49.514.21.11.442.17.68.177.331.037.636.056.912.056zm-15.051-9.288a1.37 1.37 0 0 1-1.237.648c-.49.025-.97-.149-1.331-.482a1.422 1.422 0 0 1-.47-1.031c-.003-.2.015-.4.05-.597l.048-.26a3.366 3.366 0 0 0-1.224.505 4.346 4.346 0 0 0-1.407 1.402v7.977c-.011.243.045.485.162.699a.944.944 0 0 0 .498.395c.276.101.564.167.857.198.36.047.68.098.948.098h.178v1.288H210.03v-1.288l.841-.07a2.37 2.37 0 0 0 .55-.104.818.818 0 0 0 .497-.355c.118-.22.174-.47.162-.72v-8.509a1.497 1.497 0 0 0-.182-.727 1.628 1.628 0 0 0-.51-.572 2.473 2.473 0 0 0-.702-.257 5.566 5.566 0 0 0-.893-.142h-.178v-1.28l5.136-.324.312.312v11.35c-.007.245.05.487.166.703a.92.92 0 0 0 .494.395 3.516 3.516 0 0 0 1.197.296h.13l.79-.067c.187-.012.37-.047.55-.103a.814.814 0 0 0 .477-.355c.117-.221.173-.47.162-.72v-8.532a1.762 1.762 0 0 0-.182-.77 1.505 1.505 0 0 0-.505-.597 1.722 1.722 0 0 0-.561-.214 5.468 5.468 0 0 0-.759-.102h-.178v-1.28l4.856-.324.312.312v1.58a6.266 6.266 0 0 1 1.718-1.434c1.494-.826 2.821-.806 3.611.02.416.454.633 1.056.605 1.67a2.52 2.52 0 0 1-.395 1.368zm-14.155-6.645a1.825 1.825 0 0 1-1.38-.608 2.046 2.046 0 0 1-.576-1.442c-.006-.547.2-1.075.573-1.474.345-.405.85-.639 1.383-.64a1.916 1.916 0 0 1 1.446.593c.362.369.564.865.564 1.382a2.232 2.232 0 0 1-.572 1.53 1.849 1.849 0 0 1-1.438.659zm-5.555 7.893a5.06 5.06 0 0 1 1.497 1.6c.417.732.625 1.564.6 2.406a4.86 4.86 0 0 1-.627 2.505 5.393 5.393 0 0 1-1.644 1.734 7.403 7.403 0 0 1-2.172 1.007 9.134 9.134 0 0 1-2.477.328h-9.589v-1.359h.174c.222-.02.545-.059.968-.118.298-.03.592-.098.873-.202a1.09 1.09 0 0 0 .526-.442 1.58 1.58 0 0 0 .158-.755V6.86a1.88 1.88 0 0 0-.146-.762c-.116-.226-.31-.401-.546-.494a3.828 3.828 0 0 0-.896-.308 6.755 6.755 0 0 0-.842-.135h-.178V3.81h9.34a9.876 9.876 0 0 1 2.077.213 6.262 6.262 0 0 1 1.913.766 4.231 4.231 0 0 1 1.418 1.39 3.95 3.95 0 0 1 .56 2.146 4.618 4.618 0 0 1-.394 1.947 4.31 4.31 0 0 1-1.114 1.474c-.459.394-.971.721-1.521.972a8.525 8.525 0 0 1-1.229.454c.446.087.886.2 1.32.336a6.83 6.83 0 0 1 1.951.944zm29.499-1.311a3.516 3.516 0 0 0-.328-.684 3.319 3.319 0 0 0-.592-.727 3.405 3.405 0 0 0-.897-.545 3.066 3.066 0 0 0-1.185-.217 2.718 2.718 0 0 0-1.442.395 3.95 3.95 0 0 0-1.186 1.185 6.258 6.258 0 0 0-.79 1.932 10.959 10.959 0 0 0-.296 2.635 9.24 9.24 0 0 0 .217 2.09c.142.611.388 1.194.727 1.722.3.48.705.886 1.185 1.185a3.16 3.16 0 0 0 1.691.431 3.093 3.093 0 0 0 1.746-.443c.425-.278.811-.61 1.15-.987V13.14zm-32.458-2.9a6.1 6.1 0 0 0 .198-1.64 3.394 3.394 0 0 0-.842-2.441c-.557-.58-1.458-.873-2.682-.873-.295 0-.668.006-1.118.02l-.952.027v7.257h1.58a5.63 5.63 0 0 0 1.896-.284 2.888 2.888 0 0 0 1.24-.826c.314-.36.546-.782.68-1.24zm-5.396 3.919v6.803c-.032.48.21.939.624 1.185.58.302 1.232.44 1.884.395 1.328 0 2.35-.364 3.05-1.134.7-.77 1.055-1.932 1.055-3.453a3.67 3.67 0 0 0-1.122-2.765c-.747-.715-1.841-1.079-3.247-1.079-.596 0-1.097.007-1.506.02l-.738.028z"/>
			<path class="LogoEbirdPortal-portal" fill="#50A61C" d="M25.691 24H17.12v-.97c.31-.01.709-.042 1.196-.096.488-.055.823-.133 1.005-.233.283-.173.49-.371.622-.595.133-.223.199-.503.199-.84V7.156h-.205l-6.618 16.53h-.683L6.332 6.814h-.178v11.58c0 1.122.07 1.974.212 2.557.141.584.358 1.003.65 1.258.2.191.615.374 1.244.547.629.173 1.039.264 1.23.273V24H1.656v-.97c.41-.037.841-.106 1.292-.206.451-.1.8-.25 1.046-.451.32-.255.538-.647.656-1.176.119-.528.178-1.412.178-2.652V8.619c0-.574-.068-1.043-.205-1.408a2.202 2.202 0 0 0-.588-.889 2.696 2.696 0 0 0-1.039-.547A5.23 5.23 0 0 0 1.78 5.57V4.6h6.617l5.551 14.546L18.691 6.98c.174-.447.322-.914.445-1.402.123-.487.189-.813.198-.977h6.33v.97c-.255.01-.581.05-.977.123a6.373 6.373 0 0 0-.869.205c-.31.11-.52.292-.629.547-.109.256-.164.534-.164.834v13.987c0 .319.055.588.164.806.11.219.32.41.63.574.163.092.455.176.874.253.42.078.752.121.998.13V24zm13.826-.246c-.429.155-.805.28-1.128.376a3.88 3.88 0 0 1-1.1.143c-.712 0-1.279-.166-1.703-.499-.424-.332-.695-.818-.813-1.456h-.082c-.593.657-1.229 1.158-1.908 1.504-.679.347-1.497.52-2.454.52-1.011 0-1.843-.31-2.495-.93-.652-.62-.977-1.43-.977-2.433 0-.52.073-.985.218-1.395.146-.41.365-.78.657-1.107a3.28 3.28 0 0 1 .902-.732 7.885 7.885 0 0 1 1.053-.513c.41-.155 1.242-.442 2.495-.86 1.253-.42 2.098-.748 2.536-.985v-1.354a5.73 5.73 0 0 0-.075-.683 2.863 2.863 0 0 0-.322-.957 2.723 2.723 0 0 0-.772-.882c-.333-.25-.804-.376-1.415-.376-.42 0-.809.07-1.169.212-.36.141-.613.29-.759.444 0 .182.044.451.13.807.087.355.13.683.13.984 0 .319-.144.61-.43.875-.288.264-.687.397-1.197.397-.456 0-.79-.162-1.005-.486a1.926 1.926 0 0 1-.321-1.087c0-.419.148-.82.444-1.203a4.462 4.462 0 0 1 1.155-1.025c.41-.255.907-.472 1.49-.65a5.847 5.847 0 0 1 1.71-.266c.765 0 1.433.052 2.003.157.57.105 1.087.33 1.551.677.465.337.818.795 1.06 1.374.242.579.362 1.324.362 2.235 0 1.303-.013 2.459-.04 3.466a122.31 122.31 0 0 0-.042 3.302c0 .355.062.638.185.847.123.21.312.388.567.534.137.082.353.127.65.136.296.01.599.014.909.014v.875zm-4.772-7.219a29.86 29.86 0 0 0-2.037.67 8.246 8.246 0 0 0-1.627.82 3.7 3.7 0 0 0-1.08 1.101c-.264.424-.396.927-.396 1.51 0 .757.198 1.313.594 1.669.397.355.9.533 1.511.533.647 0 1.217-.157 1.71-.472a4.973 4.973 0 0 0 1.243-1.114l.082-4.717zm13.812.861c.374.329.66.707.861 1.135.2.429.301.953.301 1.573 0 1.248-.467 2.269-1.401 3.062-.934.793-2.144 1.19-3.63 1.19a5.454 5.454 0 0 1-2.167-.424c-.66-.283-1.133-.543-1.415-.78l-.274.889h-1.025l-.137-4.69h.944c.073.356.228.77.465 1.245.236.474.524.902.86 1.285.356.4.782.738 1.28 1.012.496.273 1.054.41 1.674.41.875 0 1.55-.199 2.023-.595.474-.396.711-.964.711-1.702 0-.383-.075-.713-.225-.991a2.183 2.183 0 0 0-.663-.732 5.22 5.22 0 0 0-1.108-.567 21.672 21.672 0 0 0-1.463-.5 13.585 13.585 0 0 1-1.428-.526 5.695 5.695 0 0 1-1.347-.786 3.854 3.854 0 0 1-.984-1.175c-.256-.465-.383-1.012-.383-1.641 0-1.103.41-2.037 1.23-2.803.82-.765 1.919-1.148 3.295-1.148.529 0 1.069.068 1.62.205.552.137 1 .3 1.347.492l.314-.711h.985l.205 4.334h-.943c-.192-.966-.604-1.752-1.238-2.358-.633-.606-1.406-.91-2.317-.91-.748 0-1.335.187-1.764.561-.428.374-.642.825-.642 1.354 0 .41.07.751.211 1.025.142.273.354.506.636.697.274.182.618.353 1.032.513.415.16.928.34 1.539.54.601.191 1.168.415 1.702.67.533.255.973.538 1.319.847zm10.9 0c.373.329.66.707.861 1.135.2.429.3.953.3 1.573 0 1.248-.466 2.269-1.4 3.062-.935.793-2.145 1.19-3.63 1.19a5.454 5.454 0 0 1-2.167-.424c-.661-.283-1.133-.543-1.416-.78l-.273.889h-1.025l-.137-4.69h.943c.073.356.228.77.465 1.245.237.474.524.902.861 1.285.356.4.782.738 1.279 1.012.497.273 1.055.41 1.675.41.875 0 1.55-.199 2.023-.595.474-.396.711-.964.711-1.702 0-.383-.075-.713-.226-.991a2.183 2.183 0 0 0-.663-.732 5.22 5.22 0 0 0-1.107-.567 21.672 21.672 0 0 0-1.463-.5 13.585 13.585 0 0 1-1.429-.526 5.695 5.695 0 0 1-1.346-.786 3.854 3.854 0 0 1-.985-1.175c-.255-.465-.383-1.012-.383-1.641 0-1.103.41-2.037 1.23-2.803.821-.765 1.92-1.148 3.296-1.148.528 0 1.068.068 1.62.205.551.137 1 .3 1.347.492l.314-.711h.984l.205 4.334h-.943c-.191-.966-.604-1.752-1.237-2.358-.634-.606-1.406-.91-2.318-.91-.747 0-1.335.187-1.763.561-.429.374-.643.825-.643 1.354 0 .41.07.751.212 1.025.141.273.353.506.636.697.273.182.617.353 1.032.513.415.16.927.34 1.538.54.602.191 1.17.415 1.702.67.534.255.973.538 1.32.847zM85.453 24h-8.08v-.97c.711-.046 1.301-.137 1.77-.274.47-.137.705-.305.705-.506 0-.082-.01-.182-.028-.3a1.435 1.435 0 0 0-.082-.315l-1.613-4.348H71.33a32.467 32.467 0 0 0-.622 1.668c-.16.474-.303.912-.43 1.313-.12.392-.201.71-.247.957a3.45 3.45 0 0 0-.068.601c0 .365.287.647.861.848.574.2 1.222.319 1.942.355V24h-7.301v-.97a5.76 5.76 0 0 0 .889-.158c.355-.087.647-.203.875-.349.364-.246.647-.503.847-.772.2-.269.397-.64.588-1.114.975-2.434 2.05-5.168 3.227-8.203 1.175-3.036 2.224-5.738 3.144-8.108h1.094l6.467 16.735c.136.355.291.642.465.86.173.22.414.434.724.643.21.128.483.235.82.322.338.086.62.134.848.143V24zm-7.82-7.93l-2.94-7.52-2.884 7.52h5.824zm21.413 7.684l-4.389.3-.205-.19v-1.71h-.082c-.218.228-.465.472-.738.732a5.19 5.19 0 0 1-.943.704 6.04 6.04 0 0 1-1.19.56c-.383.128-.925.192-1.627.192-1.194 0-2.103-.39-2.727-1.17-.625-.778-.937-1.91-.937-3.397v-6.453c0-.328-.061-.604-.184-.827a1.716 1.716 0 0 0-.54-.58 1.72 1.72 0 0 0-.616-.24 5.855 5.855 0 0 0-.779-.103v-.888l4.498-.329.205.192v9.365c0 .975.219 1.71.656 2.201.438.492.962.739 1.573.739.501 0 .948-.078 1.34-.233.391-.155.72-.337.984-.547.246-.191.462-.394.65-.608.186-.214.33-.413.43-.595v-7.642c0-.301-.064-.568-.191-.8a1.79 1.79 0 0 0-.534-.595c-.164-.11-.407-.175-.731-.198a44.124 44.124 0 0 0-1.087-.062v-.888l4.895-.329.205.192v10.705c0 .31.063.574.191.793.128.219.305.406.533.56.164.1.36.167.588.199.228.032.479.052.752.061v.889zm15.22 0l-4.703.3-.205-.19v-1.259l-.11-.027a5.602 5.602 0 0 1-1.756 1.299 4.892 4.892 0 0 1-2.154.506c-.765 0-1.506-.171-2.221-.513a5.61 5.61 0 0 1-1.867-1.442c-.537-.63-.963-1.386-1.278-2.27-.314-.884-.472-1.86-.472-2.926 0-.975.169-1.9.506-2.775a7.317 7.317 0 0 1 1.395-2.297 6.15 6.15 0 0 1 2.044-1.463 5.936 5.936 0 0 1 2.468-.547c.628 0 1.246.08 1.852.24.606.16 1.128.362 1.565.608v-4.69c0-.382-.063-.73-.19-1.045-.129-.315-.306-.554-.534-.718-.255-.173-.6-.299-1.032-.376-.433-.078-.9-.134-1.402-.171V3.15l5.51-.314.205.205v18.184c0 .319.062.59.185.813a1.6 1.6 0 0 0 .54.567c.173.11.424.178.752.206.328.027.629.045.902.054v.889zm-4.936-2.365V13.5a3.527 3.527 0 0 0-.355-.766 3.424 3.424 0 0 0-.615-.752 3.5 3.5 0 0 0-.93-.567c-.355-.15-.77-.226-1.244-.226-.547 0-1.05.142-1.51.424-.461.283-.869.688-1.224 1.217-.338.51-.604 1.16-.8 1.948-.196.789-.294 1.661-.294 2.618 0 .766.073 1.461.219 2.085a5.51 5.51 0 0 0 .738 1.744c.319.51.727.92 1.223 1.23.497.31 1.087.465 1.771.465.73 0 1.333-.16 1.812-.479a5.86 5.86 0 0 0 1.21-1.052zm19.5 2.365l-4.389.3-.205-.19v-1.71h-.082c-.219.228-.465.472-.738.732a5.19 5.19 0 0 1-.944.704 6.04 6.04 0 0 1-1.19.56c-.382.128-.924.192-1.626.192-1.194 0-2.103-.39-2.728-1.17-.624-.778-.936-1.91-.936-3.397v-6.453c0-.328-.062-.604-.185-.827a1.716 1.716 0 0 0-.54-.58 1.72 1.72 0 0 0-.615-.24 5.855 5.855 0 0 0-.78-.103v-.888l4.499-.329.205.192v9.365c0 .975.219 1.71.656 2.201.438.492.962.739 1.572.739.502 0 .948-.078 1.34-.233.392-.155.72-.337.985-.547.246-.191.462-.394.649-.608.187-.214.33-.413.43-.595v-7.642c0-.301-.063-.568-.19-.8a1.79 1.79 0 0 0-.534-.595c-.164-.11-.408-.175-.731-.198a44.125 44.125 0 0 0-1.087-.062v-.888l4.894-.329.205.192v10.705c0 .31.064.574.192.793.127.219.305.406.533.56.164.1.36.167.588.199.228.032.478.052.752.061v.889zm14.14-6.508c0 2.024-.638 3.723-1.915 5.1-1.276 1.376-2.757 2.064-4.443 2.064a7.146 7.146 0 0 1-2.18-.342 9.278 9.278 0 0 1-2.017-.916l-1.012 1.573-.848-.192a51.58 51.58 0 0 0 .096-2.433c.018-.948.028-1.864.028-2.748V6.008c0-.31-.071-.62-.212-.93-.142-.31-.322-.533-.54-.67-.174-.118-.463-.207-.869-.266-.405-.06-.731-.098-.977-.117V3.15l4.95-.314.19.205v8.887l.096.027c.565-.601 1.183-1.053 1.853-1.353.67-.301 1.328-.452 1.975-.452 1.66 0 3.045.657 4.157 1.97 1.112 1.312 1.668 3.02 1.668 5.126zm-2.858.096c0-.675-.073-1.363-.219-2.065-.145-.701-.373-1.312-.683-1.832a3.823 3.823 0 0 0-1.217-1.285c-.501-.328-1.103-.492-1.805-.492-.638 0-1.196.125-1.675.376-.478.25-.909.59-1.292 1.018v7.848c.055.219.162.474.322.766.16.291.376.57.65.834.273.255.583.462.929.622.346.16.77.24 1.271.24 1.112 0 2.01-.539 2.694-1.614.683-1.076 1.025-2.548 1.025-4.416zm16.792-.219c0 .948-.15 1.88-.45 2.796-.302.916-.73 1.693-1.286 2.331a5.982 5.982 0 0 1-2.188 1.627c-.829.355-1.759.533-2.789.533a6.287 6.287 0 0 1-2.447-.485 6.165 6.165 0 0 1-2.064-1.415c-.593-.61-1.064-1.356-1.415-2.236-.351-.88-.527-1.866-.527-2.96 0-2.105.613-3.828 1.84-5.168 1.225-1.34 2.831-2.01 4.818-2.01 1.887 0 3.444.636 4.67 1.908 1.225 1.271 1.838 2.964 1.838 5.079zm-2.83.027c0-.683-.068-1.406-.205-2.167-.137-.76-.342-1.406-.615-1.934a3.78 3.78 0 0 0-1.149-1.36c-.473-.342-1.052-.513-1.736-.513-.702 0-1.301.173-1.798.52-.496.346-.9.82-1.21 1.421a6.291 6.291 0 0 0-.615 1.9 13.004 13.004 0 0 0 .034 4.491c.142.744.367 1.407.677 1.99.31.583.7 1.041 1.169 1.374.47.333 1.05.5 1.743.5 1.14 0 2.042-.552 2.707-1.655.666-1.103.998-2.625.998-4.567zM172.548 24h-6.603v-.902c.21-.019.44-.037.69-.055a2.6 2.6 0 0 0 .622-.11.983.983 0 0 0 .567-.43c.123-.205.185-.472.185-.8v-6.932c0-.957-.226-1.695-.677-2.214-.45-.52-1-.78-1.647-.78a3.75 3.75 0 0 0-1.326.226c-.401.15-.757.335-1.067.554-.3.21-.54.435-.718.676a6.11 6.11 0 0 0-.39.581v7.752c0 .31.065.566.192.766.128.2.32.355.574.465.192.091.4.16.622.205.224.046.454.077.69.096V24h-6.603v-.902c.21-.019.426-.037.65-.055.223-.018.417-.055.58-.11a.983.983 0 0 0 .568-.43c.123-.205.185-.472.185-.8v-8.326c0-.31-.066-.595-.198-.855a1.696 1.696 0 0 0-.554-.635 1.865 1.865 0 0 0-.615-.24 5.457 5.457 0 0 0-.766-.102v-.889l4.484-.3.192.19v1.901h.068c.219-.218.492-.48.82-.786.329-.305.638-.554.93-.745a4.896 4.896 0 0 1 1.203-.547 5.244 5.244 0 0 1 1.573-.219c1.294 0 2.253.404 2.877 1.21.625.807.937 1.88.937 3.22v7.014c0 .319.055.576.164.772.11.196.296.349.56.458.22.091.408.155.568.192.16.036.38.063.663.082V24z"/>
		</g>
	</svg>