<svg class="LogoEbirdPortal LogoEbirdPortal--mn" xmlns="http://www.w3.org/2000/svg" width="192" height="32" viewBox="0 0 192 32" role="img" aria-labelledby="logo-ebird-portal-mn-title" >
		<title id="logo-ebird-portal-mn-title">Minnesota eBird</title>
		<path class="LogoEbirdPortal-bird" fill="#231F20" fill-rule="evenodd" clip-rule="evenodd" d="M191.207 22.492a8.31 8.31 0 0 1-.913-.056 1.553 1.553 0 0 1-.68-.177 1.448 1.448 0 0 1-.489-.514 1.516 1.516 0 0 1-.166-.739V2.324L188.627 2l-5.926.324v1.225h.178c.474.033.946.09 1.414.173.347.05.681.17.98.352.218.168.383.394.478.652.124.318.186.658.182 1v4.507a7.505 7.505 0 0 0-1.359-.49 6.742 6.742 0 0 0-4.544.324 6.5 6.5 0 0 0-2.153 1.545 7.736 7.736 0 0 0-1.461 2.41 8.07 8.07 0 0 0-.53 2.907 9.112 9.112 0 0 0 .494 3.058 7.51 7.51 0 0 0 1.343 2.37 5.949 5.949 0 0 0 1.976 1.525 5.418 5.418 0 0 0 2.37.545 5.205 5.205 0 0 0 2.283-.537 6.028 6.028 0 0 0 1.632-1.142v1.04l.332.308 5.088-.324v-1.276l-.197-.004zm-15.052-9.288c.26-.408.397-.883.395-1.367a2.319 2.319 0 0 0-.605-1.671c-.79-.826-2.117-.846-3.61-.02a6.255 6.255 0 0 0-1.719 1.434V10l-.312-.312-4.855.324v1.28h.178c.255.016.508.05.758.102.198.038.388.11.561.214.218.15.393.356.506.596.118.24.18.503.181.77v8.534c.012.25-.044.498-.161.719a.816.816 0 0 1-.479.355c-.178.056-.362.09-.549.103l-.79.067h-.13a3.512 3.512 0 0 1-.62-.098 4.607 4.607 0 0 1-.577-.198.922.922 0 0 1-.494-.395 1.412 1.412 0 0 1-.166-.703v-11.35l-.312-.312-5.136.324v1.28h.178c.301.023.6.07.893.142.246.05.483.136.703.257.213.147.388.344.51.572.121.223.183.474.181.727v8.51c.012.25-.044.498-.162.719a.816.816 0 0 1-.497.355c-.179.056-.363.09-.549.103l-.842.071v1.288h14.593v-1.288h-.177c-.222 0-.479-.035-.764-.074h-.001l-.183-.024a3.564 3.564 0 0 1-.858-.198.943.943 0 0 1-.497-.395 1.313 1.313 0 0 1-.162-.7V13.39a4.34 4.34 0 0 1 1.406-1.403c.371-.248.787-.42 1.225-.506l-.048.261a3.14 3.14 0 0 0-.051.597c.007.394.177.767.47 1.03.361.334.841.508 1.331.483.5.025.974-.223 1.237-.648zm-12.717-7.305a1.848 1.848 0 0 1-1.438.66 1.826 1.826 0 0 1-1.379-.608 2.05 2.05 0 0 1-.577-1.442c-.006-.547.2-1.075.573-1.474a1.823 1.823 0 0 1 1.383-.64 1.917 1.917 0 0 1 1.446.593c.362.369.565.865.565 1.382a2.233 2.233 0 0 1-.573 1.53zm-6.993 8.553a6.821 6.821 0 0 0-1.951-.944 12.185 12.185 0 0 0-1.32-.336c.421-.12.832-.271 1.229-.454a6.423 6.423 0 0 0 1.521-.972 4.309 4.309 0 0 0 1.114-1.473 4.613 4.613 0 0 0 .395-1.948 3.947 3.947 0 0 0-.561-2.145 4.237 4.237 0 0 0-1.418-1.39 6.267 6.267 0 0 0-1.912-.767 9.877 9.877 0 0 0-2.078-.214h-9.339V5.16h.177c.283.027.565.072.842.135.31.065.612.168.897.308.235.093.429.268.545.494.101.241.151.5.146.762v14.297c.01.261-.044.52-.158.755a1.09 1.09 0 0 1-.525.442c-.282.103-.575.171-.873.202-.423.06-.747.099-.968.118h-.174v1.36h9.588a9.131 9.131 0 0 0 2.477-.329 7.407 7.407 0 0 0 2.173-1.007 5.395 5.395 0 0 0 1.643-1.734 4.847 4.847 0 0 0 .628-2.505 4.604 4.604 0 0 0-.6-2.406 5.06 5.06 0 0 0-1.498-1.6zm29.499 6.66v-7.971a3.472 3.472 0 0 0-.328-.684 3.311 3.311 0 0 0-.592-.727 3.414 3.414 0 0 0-.897-.545 3.067 3.067 0 0 0-1.185-.217 2.719 2.719 0 0 0-1.442.395c-.475.306-.879.71-1.185 1.185a6.24 6.24 0 0 0-.79 1.932 10.976 10.976 0 0 0-.297 2.635 9.236 9.236 0 0 0 .218 2.09 5.44 5.44 0 0 0 .727 1.722c.299.48.704.886 1.185 1.185a3.16 3.16 0 0 0 1.691.431 3.095 3.095 0 0 0 1.746-.442c.424-.279.811-.61 1.149-.988zm-32.457-10.871a3.305 3.305 0 0 1-.68 1.24 2.888 2.888 0 0 1-1.24.826 5.635 5.635 0 0 1-1.897.284h-1.58V5.335l.952-.027c.45-.014.823-.02 1.118-.02 1.225 0 2.126.292 2.683.873.591.671.893 1.548.841 2.441a6.125 6.125 0 0 1-.197 1.64zm-4.658 3.891l-.739.028v6.803c-.032.48.21.939.624 1.185.58.302 1.232.44 1.885.395 1.327 0 2.35-.363 3.049-1.134.7-.77 1.055-1.932 1.055-3.453a3.668 3.668 0 0 0-1.122-2.765c-.746-.715-1.841-1.079-3.247-1.079-.595 0-1.097.007-1.505.02z"/>
		<path class="LogoEbirdPortal-e" fill="#50A61C" fill-rule="evenodd" clip-rule="evenodd" d="M141.398 19.75l1.303.79-.094.146a7.28 7.28 0 0 1-2.371 2.703 6.064 6.064 0 0 1-3.452 1.01 7.03 7.03 0 0 1-2.999-.604 5.94 5.94 0 0 1-2.133-1.647 7 7 0 0 1-1.257-2.406 10.2 10.2 0 0 1-.395-2.896c0-.923.148-1.841.439-2.718a7.641 7.641 0 0 1 1.284-2.37 6.275 6.275 0 0 1 2.038-1.66 5.925 5.925 0 0 1 2.738-.627 6.601 6.601 0 0 1 2.667.493c.706.3 1.331.765 1.821 1.355.455.565.793 1.215.992 1.913.221.77.331 1.568.323 2.37v1.114h-9.141c.006.754.094 1.505.261 2.24.148.672.416 1.311.79 1.888a3.71 3.71 0 0 0 1.359 1.221 4.229 4.229 0 0 0 2.007.446 3.7 3.7 0 0 0 2.042-.553 5.618 5.618 0 0 0 1.679-2.034l.099-.174zm-3.595-8.462a2.225 2.225 0 0 0-1.328-.367 2.797 2.797 0 0 0-2.311 1.157 5.387 5.387 0 0 0-1.003 3.085h5.989a11.798 11.798 0 0 0-.13-1.453 4.96 4.96 0 0 0-.396-1.438 2.646 2.646 0 0 0-.821-.984z"/>
		<path class="LogoEbirdPortal-portal" fill="#50A61C" d="M25.691 24H17.12v-.97c.31-.01.707-.042 1.19-.096.492-.055.829-.133 1.011-.233.283-.173.488-.369.616-.588.136-.228.205-.51.205-.847V7.156h-.205l-6.618 16.53h-.683L6.332 6.814h-.178v11.58c0 1.122.069 1.974.205 2.557.146.584.365 1.003.657 1.258.2.191.615.374 1.244.547.629.173 1.039.264 1.23.273V24H1.656v-.97c.41-.037.839-.106 1.285-.206.456-.1.807-.25 1.053-.451.32-.255.538-.647.656-1.176.119-.528.178-1.412.178-2.652V8.619c0-.574-.068-1.043-.205-1.408a2.202 2.202 0 0 0-.588-.889 2.696 2.696 0 0 0-1.039-.547A5.23 5.23 0 0 0 1.78 5.57V4.6h6.617l5.551 14.546L18.691 6.98c.174-.447.32-.912.438-1.395.127-.492.196-.82.205-.984h6.33v.97c-.255.01-.583.05-.984.123a6.393 6.393 0 0 0-.862.205c-.31.11-.52.292-.629.547-.109.256-.164.534-.164.834v13.987c0 .319.055.588.165.806.109.219.319.41.628.575.164.09.456.177.875.26.42.072.752.113.998.122V24zM33.31 24h-6.522v-.902c.21-.019.424-.037.643-.055.228-.018.424-.055.588-.11a.962.962 0 0 0 .56-.423c.128-.21.192-.479.192-.807v-8.326c0-.292-.069-.556-.205-.793a1.682 1.682 0 0 0-.547-.615c-.173-.11-.424-.2-.752-.274a5.176 5.176 0 0 0-.902-.15v-.889l4.757-.3.192.19V21.54c0 .32.059.583.177.793.128.21.324.365.588.465.2.082.397.15.588.205.192.046.406.077.643.096V24zM31.587 5.037c0 .52-.173.975-.52 1.367a1.609 1.609 0 0 1-1.257.575c-.465 0-.87-.183-1.217-.547-.337-.374-.506-.798-.506-1.272 0-.501.169-.939.506-1.312.346-.374.752-.56 1.217-.56.52 0 .943.177 1.271.532.338.347.506.752.506 1.217zM48.653 24h-6.604v-.902c.21-.019.438-.037.684-.055.255-.018.465-.055.629-.11a.962.962 0 0 0 .56-.423c.128-.21.192-.479.192-.807v-6.931c0-.957-.228-1.696-.684-2.215-.447-.52-.993-.78-1.64-.78a3.65 3.65 0 0 0-1.327.233 4.512 4.512 0 0 0-1.066.547c-.3.21-.542.437-.725.683-.173.237-.3.429-.383.575v7.751c0 .31.064.566.192.766.127.2.319.355.574.465.191.091.397.16.615.205.228.046.46.077.698.096V24h-6.604v-.902c.21-.019.424-.037.643-.055.228-.018.424-.055.588-.11a.962.962 0 0 0 .56-.423c.128-.21.191-.479.191-.807v-8.326c0-.31-.068-.593-.205-.848a1.629 1.629 0 0 0-.546-.642 1.765 1.765 0 0 0-.616-.233 4.844 4.844 0 0 0-.765-.11v-.888l4.484-.3.191.19v1.901h.069c.219-.218.492-.478.82-.779.328-.31.638-.56.93-.752a4.902 4.902 0 0 1 1.203-.547 5.246 5.246 0 0 1 1.572-.219c1.294 0 2.252.406 2.871 1.217.63.802.944 1.873.944 3.213v7.014c0 .319.054.578.164.779.11.191.296.342.56.451.219.091.406.155.56.192.165.036.388.063.67.082V24zM63.996 24h-6.604v-.902c.21-.019.438-.037.684-.055.255-.018.465-.055.629-.11a.962.962 0 0 0 .56-.423c.128-.21.192-.479.192-.807v-6.931c0-.957-.228-1.696-.684-2.215-.447-.52-.993-.78-1.64-.78a3.65 3.65 0 0 0-1.327.233 4.513 4.513 0 0 0-1.066.547c-.3.21-.543.437-.725.683-.173.237-.3.429-.383.575v7.751c0 .31.064.566.192.766.127.2.319.355.574.465.191.091.396.16.615.205.228.046.46.077.698.096V24h-6.604v-.902c.21-.019.424-.037.643-.055.227-.018.423-.055.587-.11a.962.962 0 0 0 .561-.423c.128-.21.191-.479.191-.807v-8.326c0-.31-.068-.593-.205-.848a1.629 1.629 0 0 0-.547-.642 1.766 1.766 0 0 0-.615-.233 4.844 4.844 0 0 0-.765-.11v-.888l4.484-.3.191.19v1.901h.069c.218-.218.492-.478.82-.779.328-.31.638-.56.93-.752a4.9 4.9 0 0 1 1.203-.547 5.245 5.245 0 0 1 1.572-.219c1.294 0 2.252.406 2.871 1.217.63.802.944 1.873.944 3.213v7.014c0 .319.054.578.164.779.11.191.296.342.56.451.219.091.406.155.56.192.165.036.388.063.67.082V24zM76.427 20.828c-.566 1.076-1.322 1.932-2.27 2.57-.948.639-2.037.957-3.267.957-1.085 0-2.038-.19-2.858-.574a5.61 5.61 0 0 1-2.01-1.558 6.71 6.71 0 0 1-1.19-2.297 9.865 9.865 0 0 1-.382-2.776c0-.875.137-1.731.41-2.57a7.365 7.365 0 0 1 1.23-2.283 5.865 5.865 0 0 1 1.928-1.559c.775-.4 1.641-.601 2.598-.601.984 0 1.828.155 2.53.465.701.31 1.27.733 1.708 1.271.42.51.73 1.112.93 1.805.21.692.314 1.444.314 2.256v.902h-8.927c0 .884.082 1.686.246 2.406a5.87 5.87 0 0 0 .806 1.9c.356.53.82.948 1.395 1.258.574.301 1.258.452 2.05.452.812 0 1.51-.187 2.092-.561.593-.383 1.163-1.066 1.71-2.05l.957.587zm-3.022-5.14c0-.51-.046-1.058-.137-1.641-.082-.584-.218-1.071-.41-1.463a2.778 2.778 0 0 0-.861-1.025c-.365-.265-.834-.397-1.408-.397-.957 0-1.755.401-2.393 1.203-.629.793-.97 1.9-1.025 3.322h6.234zM85.686 17.396c.373.329.66.707.86 1.135.201.429.302.953.302 1.573 0 1.248-.47 2.269-1.409 3.062-.93.793-2.137 1.19-3.623 1.19a5.503 5.503 0 0 1-2.173-.424c-.657-.283-1.126-.543-1.409-.78l-.273.889h-1.025l-.137-4.69h.943c.073.356.228.77.465 1.245.237.474.524.902.861 1.285.356.4.78.738 1.272 1.012.501.273 1.062.41 1.681.41.876 0 1.55-.196 2.024-.588.474-.401.71-.97.71-1.71 0-.382-.077-.71-.232-.983a2.092 2.092 0 0 0-.656-.739c-.3-.21-.67-.396-1.107-.56a19.285 19.285 0 0 0-1.463-.506c-.428-.128-.907-.301-1.436-.52a5.913 5.913 0 0 1-1.34-.793 3.852 3.852 0 0 1-.984-1.175c-.255-.465-.383-1.012-.383-1.641 0-1.103.41-2.037 1.23-2.803.821-.765 1.92-1.148 3.296-1.148.528 0 1.066.068 1.613.205.556.136 1.007.3 1.353.492l.315-.711h.984l.205 4.334h-.943c-.191-.966-.606-1.75-1.244-2.352-.629-.61-1.4-.915-2.31-.915-.748 0-1.336.186-1.764.56-.429.374-.643.825-.643 1.354 0 .41.069.752.205 1.025.146.273.36.506.643.697.273.182.615.356 1.025.52.42.155.934.332 1.545.533.602.191 1.167.415 1.695.67.538.255.98.538 1.327.848zM100.837 17.123c0 .948-.15 1.882-.451 2.803-.301.911-.73 1.686-1.285 2.324a5.982 5.982 0 0 1-2.188 1.627c-.83.355-1.759.533-2.789.533-.856 0-1.672-.16-2.447-.478a6.251 6.251 0 0 1-2.065-1.422c-.592-.61-1.066-1.354-1.421-2.229-.347-.884-.52-1.873-.52-2.966 0-2.106.61-3.829 1.832-5.169 1.23-1.34 2.84-2.01 4.826-2.01 1.887 0 3.441.639 4.662 1.915 1.231 1.267 1.846 2.957 1.846 5.072zm-2.83.027c0-.683-.068-1.403-.205-2.16-.137-.765-.342-1.412-.615-1.941a3.719 3.719 0 0 0-1.149-1.354c-.474-.346-1.052-.52-1.736-.52-.702 0-1.303.174-1.805.52-.492.347-.893.82-1.203 1.422a6.293 6.293 0 0 0-.615 1.9c-.119.712-.178 1.4-.178 2.065 0 .875.069 1.686.205 2.434.146.738.374 1.399.684 1.982.31.583.697 1.044 1.162 1.38.474.329 1.057.493 1.75.493 1.14 0 2.042-.551 2.707-1.654.665-1.103.998-2.625.998-4.567zM109.918 23.412c-.592.246-1.153.451-1.681.615-.529.174-1.176.26-1.942.26-1.13 0-1.927-.282-2.392-.848-.456-.574-.684-1.38-.684-2.42v-9.132h-2.433v-1.313h2.488V6.377h2.488v4.197h3.869v1.313h-3.842v7.533c0 .565.019 1.039.055 1.422.046.373.146.702.301.984.146.264.365.465.656.602.292.136.684.205 1.176.205.228 0 .56-.018.998-.055.447-.045.761-.1.943-.164v.998zM122.841 23.754c-.428.155-.806.278-1.134.369-.319.1-.684.15-1.094.15-.711 0-1.281-.164-1.709-.492-.419-.337-.688-.825-.807-1.463h-.082c-.592.657-1.23 1.158-1.914 1.504-.674.347-1.49.52-2.447.52-1.012 0-1.846-.31-2.502-.93-.647-.62-.971-1.43-.971-2.433 0-.52.073-.985.219-1.395.146-.41.365-.78.656-1.107.228-.274.529-.515.903-.725a7.412 7.412 0 0 1 1.052-.52c.41-.154 1.24-.442 2.489-.86 1.257-.42 2.105-.748 2.543-.985v-1.354c0-.118-.028-.346-.082-.683a2.764 2.764 0 0 0-.315-.957 2.625 2.625 0 0 0-.779-.875c-.328-.256-.798-.383-1.408-.383-.42 0-.812.073-1.176.219-.356.136-.606.282-.752.437 0 .182.041.451.123.807.091.355.137.683.137.984 0 .319-.146.61-.438.875-.282.264-.679.396-1.189.396-.456 0-.793-.159-1.012-.478a1.986 1.986 0 0 1-.314-1.094c0-.419.145-.82.437-1.203a4.577 4.577 0 0 1 1.162-1.025c.41-.256.907-.47 1.49-.643a5.716 5.716 0 0 1 1.709-.273c.766 0 1.431.054 1.996.164a3.61 3.61 0 0 1 1.559.67c.465.337.816.797 1.053 1.38.246.575.369 1.318.369 2.23 0 1.303-.014 2.46-.041 3.472-.027 1.002-.041 2.1-.041 3.295 0 .355.059.638.178.847.127.21.319.388.574.534.137.082.351.127.642.136.301.01.607.014.916.014v.875zm-4.771-7.219c-.775.228-1.454.451-2.037.67a8.219 8.219 0 0 0-1.627.82c-.456.31-.816.68-1.08 1.108-.265.42-.397.92-.397 1.504 0 .756.196 1.312.588 1.668.401.355.907.533 1.518.533.647 0 1.217-.155 1.709-.465a5.087 5.087 0 0 0 1.244-1.121l.082-4.717z"/>
	</svg>