<svg  class="LogoEbirdPortal LogoEbirdPortal--mt" xmlns="http://www.w3.org/2000/svg" width="175px" height="32px" viewBox="0 0 175 32" role="img" aria-labelledby="logo-ebird-portal-mt-title">
		<title id="logo-ebird-portal-mt-title">Montana eBird logo</title>
		<g fill="none" fill-rule="evenodd">
			<path class="LogoEbirdPortal-e" fill="#50A61C" d="M125.096 20.54l-1.304-.79-.098.174c-.39.802-.966 1.499-1.68 2.034a3.702 3.702 0 0 1-2.042.553 4.231 4.231 0 0 1-2.007-.446 3.717 3.717 0 0 1-1.359-1.22 5.752 5.752 0 0 1-.79-1.89 10.505 10.505 0 0 1-.26-2.24h9.141v-1.113a8.296 8.296 0 0 0-.324-2.37 5.404 5.404 0 0 0-.991-1.913 4.816 4.816 0 0 0-1.822-1.355 6.601 6.601 0 0 0-2.666-.493 5.926 5.926 0 0 0-2.738.628 6.274 6.274 0 0 0-2.038 1.659c-.566.708-1 1.51-1.284 2.37a8.6 8.6 0 0 0-.439 2.718c-.009.98.124 1.955.395 2.896a6.996 6.996 0 0 0 1.256 2.406 5.95 5.95 0 0 0 2.134 1.647c.943.42 1.966.626 2.998.605a6.064 6.064 0 0 0 3.453-1.012 7.28 7.28 0 0 0 2.37-2.702l.095-.146zm-6.226-9.62c.47-.02.935.108 1.327.368.35.255.633.593.822.983.204.457.337.942.395 1.438.074.482.117.967.13 1.454h-5.988a5.385 5.385 0 0 1 1.003-3.085 2.797 2.797 0 0 1 2.311-1.158z" />
			<path class="LogoEbirdPortal-bird" fill="#231F20" d="M173.601 22.492l.198.004v1.276l-5.089.324-.331-.309v-1.039a6.036 6.036 0 0 1-1.632 1.142c-.71.35-1.491.534-2.283.537a5.42 5.42 0 0 1-2.37-.545 5.95 5.95 0 0 1-1.976-1.525 7.506 7.506 0 0 1-1.343-2.37 9.126 9.126 0 0 1-.494-3.058 8.079 8.079 0 0 1 .53-2.907 7.731 7.731 0 0 1 1.461-2.41 6.499 6.499 0 0 1 2.153-1.545 6.74 6.74 0 0 1 4.543-.324c.468.12.923.283 1.36.49V5.725a2.65 2.65 0 0 0-.183-1 1.454 1.454 0 0 0-.478-.651 2.568 2.568 0 0 0-.98-.352c-.467-.082-.94-.14-1.414-.173h-.177V2.324L171.02 2l.332.324v18.682c-.007.256.05.51.166.739.118.21.287.386.49.514.21.11.442.17.68.177.331.037.636.056.912.056zm-15.051-9.288a1.37 1.37 0 0 1-1.237.648c-.49.025-.97-.149-1.331-.482a1.422 1.422 0 0 1-.47-1.031c-.003-.2.015-.4.05-.597l.048-.26a3.366 3.366 0 0 0-1.224.505 4.346 4.346 0 0 0-1.407 1.402v7.977c-.011.243.045.485.162.699a.944.944 0 0 0 .498.395c.276.101.564.167.857.198.36.047.68.098.948.098h.178v1.288H141.03v-1.288l.841-.07a2.37 2.37 0 0 0 .55-.104.818.818 0 0 0 .497-.355c.118-.22.174-.47.162-.72v-8.509a1.497 1.497 0 0 0-.182-.727 1.628 1.628 0 0 0-.51-.572 2.473 2.473 0 0 0-.702-.257 5.566 5.566 0 0 0-.893-.142h-.178v-1.28l5.136-.324.312.312v11.35c-.007.245.05.487.166.703a.92.92 0 0 0 .494.395 3.516 3.516 0 0 0 1.197.296h.13l.79-.067c.187-.012.37-.047.55-.103a.814.814 0 0 0 .477-.355c.117-.221.173-.47.162-.72v-8.532a1.762 1.762 0 0 0-.182-.77 1.505 1.505 0 0 0-.505-.597 1.722 1.722 0 0 0-.561-.214 5.468 5.468 0 0 0-.759-.102h-.178v-1.28l4.856-.324.312.312v1.58a6.266 6.266 0 0 1 1.718-1.434c1.494-.826 2.821-.806 3.611.02.416.454.633 1.056.605 1.67a2.52 2.52 0 0 1-.395 1.368zm-14.155-6.645a1.825 1.825 0 0 1-1.38-.608 2.046 2.046 0 0 1-.576-1.442c-.006-.547.2-1.075.573-1.474.345-.405.85-.639 1.383-.64a1.916 1.916 0 0 1 1.446.593c.362.369.564.865.564 1.382a2.232 2.232 0 0 1-.572 1.53 1.849 1.849 0 0 1-1.438.659zm-5.555 7.893a5.06 5.06 0 0 1 1.497 1.6c.417.732.625 1.564.6 2.406a4.86 4.86 0 0 1-.627 2.505 5.393 5.393 0 0 1-1.644 1.734 7.403 7.403 0 0 1-2.172 1.007 9.134 9.134 0 0 1-2.477.328h-9.589v-1.359h.174c.222-.02.545-.059.968-.118.298-.03.592-.098.873-.202a1.09 1.09 0 0 0 .526-.442 1.58 1.58 0 0 0 .158-.755V6.86a1.88 1.88 0 0 0-.146-.762c-.116-.226-.31-.401-.546-.494a3.828 3.828 0 0 0-.896-.308 6.755 6.755 0 0 0-.842-.135h-.178V3.81h9.34a9.876 9.876 0 0 1 2.077.213 6.262 6.262 0 0 1 1.913.766 4.231 4.231 0 0 1 1.418 1.39 3.95 3.95 0 0 1 .56 2.146 4.618 4.618 0 0 1-.394 1.947 4.31 4.31 0 0 1-1.114 1.474c-.459.394-.971.721-1.521.972a8.525 8.525 0 0 1-1.229.454c.446.087.886.2 1.32.336a6.83 6.83 0 0 1 1.951.944zm29.499-1.311a3.516 3.516 0 0 0-.328-.684 3.318 3.318 0 0 0-.592-.727 3.405 3.405 0 0 0-.897-.545 3.066 3.066 0 0 0-1.185-.217 2.718 2.718 0 0 0-1.442.395 3.95 3.95 0 0 0-1.186 1.185 6.258 6.258 0 0 0-.79 1.932 10.959 10.959 0 0 0-.296 2.635 9.24 9.24 0 0 0 .217 2.09c.142.611.388 1.194.727 1.722.3.48.705.886 1.185 1.185a3.16 3.16 0 0 0 1.691.431 3.093 3.093 0 0 0 1.746-.443c.425-.278.811-.61 1.15-.987V13.14zm-32.458-2.9a6.1 6.1 0 0 0 .198-1.64 3.394 3.394 0 0 0-.842-2.441c-.557-.58-1.458-.873-2.682-.873-.295 0-.668.006-1.118.02l-.952.027v7.257h1.58a5.63 5.63 0 0 0 1.896-.284 2.888 2.888 0 0 0 1.24-.826c.314-.36.546-.782.68-1.24zm-5.396 3.919v6.803c-.032.48.21.939.624 1.185.58.302 1.232.44 1.884.395 1.328 0 2.35-.364 3.05-1.134.7-.77 1.055-1.932 1.055-3.453a3.67 3.67 0 0 0-1.122-2.765c-.747-.715-1.841-1.079-3.247-1.079-.596 0-1.097.007-1.506.02l-.738.028z" />
			<path class="LogoEbirdPortal-portal" fill="#50A61C" d="M100.7 16.535a29.86 29.86 0 0 0-2.037.67 8.246 8.246 0 0 0-1.627.82 3.7 3.7 0 0 0-1.08 1.101c-.264.424-.396.927-.396 1.51 0 .757.198 1.313.594 1.669.397.355.9.533 1.511.533.647 0 1.217-.157 1.71-.472a4.973 4.973 0 0 0 1.243-1.114l.082-4.717zm4.772 7.219c-.429.155-.804.28-1.128.376a3.88 3.88 0 0 1-1.1.143c-.712 0-1.279-.166-1.703-.499-.424-.332-.695-.818-.813-1.456h-.082c-.593.657-1.228 1.158-1.908 1.504-.679.347-1.497.52-2.454.52-1.011 0-1.843-.31-2.495-.93-.651-.62-.977-1.43-.977-2.433 0-.52.073-.985.218-1.395.146-.41.365-.78.657-1.107a3.28 3.28 0 0 1 .902-.732 7.885 7.885 0 0 1 1.053-.513c.41-.155 1.242-.442 2.495-.86 1.253-.42 2.099-.748 2.536-.985v-1.354a5.73 5.73 0 0 0-.075-.683 2.863 2.863 0 0 0-.321-.957 2.723 2.723 0 0 0-.773-.882c-.333-.25-.804-.376-1.415-.376-.42 0-.809.07-1.169.212-.36.141-.613.29-.759.444 0 .182.044.451.13.807.087.355.13.683.13.984 0 .319-.143.61-.43.875-.288.264-.686.397-1.197.397-.456 0-.79-.162-1.005-.486a1.926 1.926 0 0 1-.321-1.087c0-.419.148-.82.444-1.203a4.462 4.462 0 0 1 1.156-1.025c.41-.255.906-.472 1.49-.65a5.847 5.847 0 0 1 1.709-.266c.765 0 1.433.052 2.003.157.57.105 1.087.33 1.551.677.465.337.819.795 1.06 1.374.242.579.362 1.324.362 2.235 0 1.303-.013 2.459-.04 3.466a122.315 122.315 0 0 0-.042 3.302c0 .355.062.638.185.847.123.21.312.388.567.534.137.082.353.127.65.136.296.01.599.014.909.014v.875zM91.748 24h-6.603v-.902c.21-.019.44-.037.69-.055a2.6 2.6 0 0 0 .622-.11.983.983 0 0 0 .567-.43c.123-.205.185-.472.185-.8v-6.932c0-.957-.226-1.695-.677-2.214-.45-.52-1-.78-1.647-.78a3.75 3.75 0 0 0-1.326.226c-.401.15-.757.335-1.067.554-.3.21-.54.435-.718.676a6.11 6.11 0 0 0-.39.581v7.752c0 .31.065.566.192.766.128.2.32.355.574.465.192.091.4.16.622.205.224.046.454.077.69.096V24H76.86v-.902c.21-.019.426-.037.65-.055.223-.018.417-.055.58-.11a.983.983 0 0 0 .568-.43c.123-.205.185-.472.185-.8v-8.326c0-.31-.066-.595-.198-.855a1.696 1.696 0 0 0-.554-.635 1.865 1.865 0 0 0-.615-.24 5.457 5.457 0 0 0-.766-.102v-.889l4.484-.3.192.19v1.901h.068c.219-.218.492-.48.82-.786.329-.305.638-.554.93-.745a4.896 4.896 0 0 1 1.203-.547 5.244 5.244 0 0 1 1.573-.219c1.294 0 2.253.404 2.877 1.21.625.807.937 1.88.937 3.22v7.014c0 .319.055.576.164.772.11.196.296.349.56.458.22.091.408.155.568.192.16.036.38.063.663.082V24zm-19.8-7.465a29.86 29.86 0 0 0-2.037.67 8.246 8.246 0 0 0-1.627.82 3.7 3.7 0 0 0-1.08 1.101c-.264.424-.397.927-.397 1.51 0 .757.199 1.313.595 1.669.397.355.9.533 1.51.533.648 0 1.218-.157 1.71-.472a4.973 4.973 0 0 0 1.244-1.114l.082-4.717zm4.772 7.219c-.429.155-.805.28-1.128.376a3.88 3.88 0 0 1-1.101.143c-.71 0-1.278-.166-1.702-.499-.424-.332-.695-.818-.814-1.456h-.082c-.592.657-1.228 1.158-1.907 1.504-.679.347-1.497.52-2.454.52-1.012 0-1.843-.31-2.495-.93-.652-.62-.978-1.43-.978-2.433 0-.52.073-.985.22-1.395.145-.41.364-.78.655-1.107a3.28 3.28 0 0 1 .903-.732 7.885 7.885 0 0 1 1.052-.513c.41-.155 1.242-.442 2.496-.86 1.253-.42 2.098-.748 2.536-.985v-1.354a5.73 5.73 0 0 0-.075-.683 2.863 2.863 0 0 0-.322-.957 2.723 2.723 0 0 0-.772-.882c-.333-.25-.805-.376-1.415-.376-.42 0-.81.07-1.17.212-.36.141-.612.29-.758.444 0 .182.043.451.13.807.086.355.13.683.13.984 0 .319-.144.61-.43.875-.288.264-.687.397-1.197.397-.456 0-.79-.162-1.005-.486a1.926 1.926 0 0 1-.321-1.087c0-.419.148-.82.444-1.203a4.462 4.462 0 0 1 1.155-1.025c.41-.255.907-.472 1.49-.65a5.847 5.847 0 0 1 1.71-.266c.765 0 1.433.052 2.002.157.57.105 1.087.33 1.552.677.465.337.818.795 1.06 1.374.241.579.362 1.324.362 2.235 0 1.303-.014 2.459-.041 3.466a122.31 122.31 0 0 0-.041 3.302c0 .355.062.638.185.847.123.21.312.388.567.534.137.082.353.127.65.136.296.01.599.014.909.014v.875zm-13.41-.342a21.19 21.19 0 0 1-1.681.622c-.53.169-1.176.253-1.942.253-1.13 0-1.925-.285-2.386-.854-.46-.57-.69-1.374-.69-2.413v-9.133h-2.434v-1.313h2.489V6.377h2.488v4.197h3.869v1.313h-3.842v7.533c0 .565.02 1.037.062 1.415.04.378.139.709.294.991.146.264.364.465.656.602.292.136.684.205 1.176.205.228 0 .563-.02 1.005-.062.442-.04.754-.093.936-.157v.998zM54.53 24h-6.604v-.902c.21-.019.44-.037.69-.055a2.6 2.6 0 0 0 .623-.11.983.983 0 0 0 .567-.43c.123-.205.185-.472.185-.8v-6.932c0-.957-.226-1.695-.677-2.214-.451-.52-1-.78-1.648-.78a3.75 3.75 0 0 0-1.326.226c-.4.15-.756.335-1.066.554-.301.21-.54.435-.718.676a6.11 6.11 0 0 0-.39.581v7.752c0 .31.064.566.192.766.127.2.319.355.574.465.191.091.399.16.622.205.223.046.454.077.69.096V24h-6.603v-.902c.21-.019.426-.037.65-.055.223-.018.416-.055.58-.11a.983.983 0 0 0 .568-.43c.123-.205.184-.472.184-.8v-8.326c0-.31-.066-.595-.198-.855a1.696 1.696 0 0 0-.554-.635 1.865 1.865 0 0 0-.615-.24 5.457 5.457 0 0 0-.765-.102v-.889l4.484-.3.191.19v1.901h.069c.219-.218.492-.48.82-.786.328-.305.638-.554.93-.745a4.896 4.896 0 0 1 1.203-.547 5.244 5.244 0 0 1 1.572-.219c1.294 0 2.254.404 2.878 1.21.624.807.937 1.88.937 3.22v7.014c0 .319.054.576.164.772.109.196.296.349.56.458.219.091.408.155.568.192.16.036.38.063.663.082V24zm-18.474-6.85c0-.683-.068-1.406-.205-2.167-.137-.76-.342-1.406-.615-1.934a3.78 3.78 0 0 0-1.149-1.36c-.474-.342-1.053-.513-1.736-.513-.702 0-1.301.173-1.798.52-.497.346-.9.82-1.21 1.421a6.291 6.291 0 0 0-.615 1.9 13.004 13.004 0 0 0 .034 4.491c.141.744.367 1.407.677 1.99.31.583.7 1.041 1.169 1.374.469.333 1.05.5 1.743.5 1.14 0 2.041-.552 2.707-1.655.665-1.103.998-2.625.998-4.567zm2.83-.027c0 .948-.15 1.88-.451 2.796-.301.916-.73 1.693-1.285 2.331a5.982 5.982 0 0 1-2.188 1.627c-.83.355-1.759.533-2.789.533a6.287 6.287 0 0 1-2.447-.485 6.165 6.165 0 0 1-2.065-1.415c-.592-.61-1.064-1.356-1.415-2.236-.35-.88-.526-1.866-.526-2.96 0-2.105.613-3.828 1.839-5.168 1.226-1.34 2.832-2.01 4.82-2.01 1.886 0 3.442.636 4.668 1.908 1.226 1.271 1.839 2.964 1.839 5.079zM25.69 24H17.12v-.97c.31-.01.709-.042 1.196-.096.488-.055.823-.133 1.005-.233.283-.173.49-.371.622-.595.133-.223.199-.503.199-.84V7.156h-.205l-6.618 16.53h-.683L6.332 6.814h-.178v11.58c0 1.122.07 1.974.212 2.557.141.584.358 1.003.65 1.258.2.191.615.374 1.244.547.629.173 1.039.264 1.23.273V24H1.656v-.97c.41-.037.841-.106 1.292-.206.451-.1.8-.25 1.046-.451.32-.255.538-.647.656-1.176.119-.528.178-1.412.178-2.652V8.619c0-.574-.068-1.043-.205-1.408a2.202 2.202 0 0 0-.588-.889 2.696 2.696 0 0 0-1.039-.547A5.23 5.23 0 0 0 1.78 5.57V4.6h6.617l5.551 14.546L18.691 6.98c.174-.447.322-.914.445-1.402.123-.487.189-.813.198-.977h6.33v.97c-.255.01-.581.05-.977.123a6.373 6.373 0 0 0-.869.205c-.31.11-.52.292-.629.547-.109.256-.164.534-.164.834v13.987c0 .319.055.588.164.806.11.219.32.41.63.574.163.092.455.176.874.253.42.078.752.121.998.13V24z" />
		</g>
	</svg>