<svg  class="LogoEbirdPortal LogoEbirdPortal--nh" xmlns="http://www.w3.org/2000/svg" width="259" height="32" viewBox="0 0 259 32" role="img" aria-labelledby="logo-ebird-portal-nh-title">
		<title id="logo-ebird-portal-nh-title">New Hampshire eBird logo</title>
		<g fill="none" fill-rule="evenodd">
			<path class="LogoEbirdPortal-e" fill="#50A61C" fill-rule="nonzero" d="M209.096 20.54l-1.304-.79-.098.174c-.39.802-.966 1.499-1.68 2.034a3.702 3.702 0 0 1-2.042.553 4.231 4.231 0 0 1-2.007-.446 3.717 3.717 0 0 1-1.359-1.22 5.752 5.752 0 0 1-.79-1.89 10.505 10.505 0 0 1-.26-2.24h9.141v-1.113a8.296 8.296 0 0 0-.324-2.37 5.404 5.404 0 0 0-.991-1.913 4.816 4.816 0 0 0-1.822-1.355 6.601 6.601 0 0 0-2.666-.493 5.926 5.926 0 0 0-2.738.628 6.274 6.274 0 0 0-2.038 1.659c-.566.708-1 1.51-1.284 2.37a8.6 8.6 0 0 0-.439 2.718c-.009.98.124 1.955.395 2.896a6.996 6.996 0 0 0 1.256 2.406 5.95 5.95 0 0 0 2.134 1.647c.943.42 1.966.626 2.998.605a6.064 6.064 0 0 0 3.453-1.012 7.28 7.28 0 0 0 2.37-2.702l.095-.146zm-6.226-9.62c.47-.02.935.108 1.327.368.35.255.633.593.822.983.204.457.337.942.395 1.438.074.482.117.967.13 1.454h-5.988a5.385 5.385 0 0 1 1.003-3.085 2.797 2.797 0 0 1 2.311-1.158z"/>
			<path class="LogoEbirdPortal-bird" fill="#231F20" fill-rule="nonzero" d="M257.601 22.492l.198.004v1.276l-5.089.324-.331-.309v-1.039a6.036 6.036 0 0 1-1.632 1.142c-.71.35-1.491.534-2.283.537a5.42 5.42 0 0 1-2.37-.545 5.95 5.95 0 0 1-1.976-1.525 7.506 7.506 0 0 1-1.343-2.37 9.126 9.126 0 0 1-.494-3.058 8.079 8.079 0 0 1 .53-2.907 7.731 7.731 0 0 1 1.461-2.41 6.499 6.499 0 0 1 2.153-1.545 6.74 6.74 0 0 1 4.543-.324c.468.12.923.283 1.36.49V5.725a2.65 2.65 0 0 0-.183-1 1.454 1.454 0 0 0-.478-.651 2.568 2.568 0 0 0-.98-.352c-.467-.082-.94-.14-1.414-.173h-.177V2.324L255.02 2l.332.324v18.682c-.007.256.05.51.166.739.118.21.287.386.49.514.21.11.442.17.68.177.331.037.636.056.912.056zm-15.051-9.288a1.37 1.37 0 0 1-1.237.648c-.49.025-.97-.149-1.331-.482a1.422 1.422 0 0 1-.47-1.031c-.003-.2.015-.4.05-.597l.048-.26a3.366 3.366 0 0 0-1.224.505 4.346 4.346 0 0 0-1.407 1.402v7.977c-.011.243.045.485.162.699a.944.944 0 0 0 .498.395c.276.101.564.167.857.198.36.047.68.098.948.098h.178v1.288H225.03v-1.288l.841-.07a2.37 2.37 0 0 0 .55-.104.818.818 0 0 0 .497-.355c.118-.22.174-.47.162-.72v-8.509a1.497 1.497 0 0 0-.182-.727 1.628 1.628 0 0 0-.51-.572 2.473 2.473 0 0 0-.702-.257 5.566 5.566 0 0 0-.893-.142h-.178v-1.28l5.136-.324.312.312v11.35c-.007.245.05.487.166.703a.92.92 0 0 0 .494.395 3.516 3.516 0 0 0 1.197.296h.13l.79-.067c.187-.012.37-.047.55-.103a.814.814 0 0 0 .477-.355c.117-.221.173-.47.162-.72v-8.532a1.762 1.762 0 0 0-.182-.77 1.505 1.505 0 0 0-.505-.597 1.722 1.722 0 0 0-.561-.214 5.468 5.468 0 0 0-.759-.102h-.178v-1.28l4.856-.324.312.312v1.58a6.266 6.266 0 0 1 1.718-1.434c1.494-.826 2.821-.806 3.611.02.416.454.633 1.056.605 1.67a2.52 2.52 0 0 1-.395 1.368zm-14.155-6.645a1.825 1.825 0 0 1-1.38-.608 2.046 2.046 0 0 1-.576-1.442c-.006-.547.2-1.075.573-1.474.345-.405.85-.639 1.383-.64a1.916 1.916 0 0 1 1.446.593c.362.369.564.865.564 1.382a2.232 2.232 0 0 1-.572 1.53 1.849 1.849 0 0 1-1.438.659zm-5.555 7.893a5.06 5.06 0 0 1 1.497 1.6c.417.732.625 1.564.6 2.406a4.86 4.86 0 0 1-.627 2.505 5.393 5.393 0 0 1-1.644 1.734 7.403 7.403 0 0 1-2.172 1.007 9.134 9.134 0 0 1-2.477.328h-9.589v-1.359h.174c.222-.02.545-.059.968-.118.298-.03.592-.098.873-.202a1.09 1.09 0 0 0 .526-.442 1.58 1.58 0 0 0 .158-.755V6.86a1.88 1.88 0 0 0-.146-.762c-.116-.226-.31-.401-.546-.494a3.828 3.828 0 0 0-.896-.308 6.755 6.755 0 0 0-.842-.135h-.178V3.81h9.34a9.876 9.876 0 0 1 2.077.213 6.262 6.262 0 0 1 1.913.766 4.231 4.231 0 0 1 1.418 1.39 3.95 3.95 0 0 1 .56 2.146 4.618 4.618 0 0 1-.394 1.947 4.31 4.31 0 0 1-1.114 1.474c-.459.394-.971.721-1.521.972a8.525 8.525 0 0 1-1.229.454c.446.087.886.2 1.32.336a6.83 6.83 0 0 1 1.951.944zm29.499-1.311a3.516 3.516 0 0 0-.328-.684 3.319 3.319 0 0 0-.592-.727 3.405 3.405 0 0 0-.897-.545 3.066 3.066 0 0 0-1.185-.217 2.718 2.718 0 0 0-1.442.395 3.95 3.95 0 0 0-1.186 1.185 6.258 6.258 0 0 0-.79 1.932 10.959 10.959 0 0 0-.296 2.635 9.24 9.24 0 0 0 .217 2.09c.142.611.388 1.194.727 1.722.3.48.705.886 1.185 1.185a3.16 3.16 0 0 0 1.691.431 3.093 3.093 0 0 0 1.746-.443c.425-.278.811-.61 1.15-.987V13.14zm-32.458-2.9a6.1 6.1 0 0 0 .198-1.64 3.394 3.394 0 0 0-.842-2.441c-.557-.58-1.458-.873-2.682-.873-.295 0-.668.006-1.118.02l-.952.027v7.257h1.58a5.63 5.63 0 0 0 1.896-.284 2.888 2.888 0 0 0 1.24-.826c.314-.36.546-.782.68-1.24zm-5.396 3.919v6.803c-.032.48.21.939.624 1.185.58.302 1.232.44 1.884.395 1.328 0 2.35-.364 3.05-1.134.7-.77 1.055-1.932 1.055-3.453a3.67 3.67 0 0 0-1.122-2.765c-.747-.715-1.841-1.079-3.247-1.079-.596 0-1.097.007-1.506.02l-.738.028z"/>
			<path class="LogoEbirdPortal-portal" fill="#50A61C" d="M22.246 5.57c-.255.01-.647.082-1.176.22-.528.136-.907.277-1.134.423-.329.228-.55.665-.664 1.312-.113.648-.17 1.468-.17 2.461v14.205h-1.19L6.154 8.318v10.008c0 1.121.07 1.983.212 2.584.141.602.358 1.03.65 1.285.21.2.642.388 1.298.56.657.174 1.09.265 1.3.274V24H1.655v-.97c.246-.019.661-.108 1.244-.267.584-.16.948-.303 1.094-.431.32-.255.538-.645.656-1.169.119-.524.178-1.42.178-2.686V8.92c0-.42-.073-.839-.219-1.258-.145-.42-.341-.743-.588-.97-.328-.301-.772-.559-1.333-.773-.56-.214-1.014-.33-1.36-.349V4.6h5.537l10.91 14.793v-9.229c0-1.13-.073-1.998-.218-2.604-.146-.607-.356-1.01-.63-1.21-.254-.174-.671-.342-1.25-.506-.579-.164-1.019-.255-1.32-.274V4.6h7.89v.97zM34.24 20.828c-.565 1.076-1.321 1.932-2.27 2.57-.947.638-2.036.957-3.267.957-1.084 0-2.034-.19-2.85-.574a5.597 5.597 0 0 1-2.017-1.558 6.62 6.62 0 0 1-1.182-2.297c-.26-.875-.39-1.8-.39-2.776 0-.875.139-1.734.417-2.577a7.27 7.27 0 0 1 1.224-2.276 5.921 5.921 0 0 1 1.934-1.566c.77-.396 1.634-.594 2.59-.594.985 0 1.828.155 2.53.465.702.31 1.272.733 1.71 1.271.418.51.73 1.112.936 1.805.205.692.307 1.444.307 2.256v.902h-8.927c0 .884.084 1.686.253 2.406a5.76 5.76 0 0 0 .8 1.9c.355.53.82.946 1.394 1.252.574.305 1.258.458 2.05.458.812 0 1.511-.19 2.1-.568.587-.378 1.155-1.06 1.701-2.044l.957.588zm-3.021-5.14c0-.51-.043-1.058-.13-1.641-.087-.583-.225-1.071-.417-1.463a2.779 2.779 0 0 0-.861-1.025c-.365-.265-.834-.397-1.408-.397-.957 0-1.753.399-2.386 1.196-.634.798-.978 1.908-1.032 3.33h6.234zm23.464-4.293c-.383.036-.795.195-1.237.478-.442.283-.764.706-.964 1.272a1577.095 1577.095 0 0 0-2.652 7.848 49.964 49.964 0 0 0-.957 3.104l-1.176-.001-3.623-9.926-3.65 9.926H39.3a664.587 664.587 0 0 1-2.003-6.023 504.423 504.423 0 0 0-1.73-5.202 1.85 1.85 0 0 0-.833-1.012c-.41-.246-.807-.392-1.19-.437v-.902h6.016v.957c-.3.009-.627.059-.978.15-.35.091-.526.241-.526.451 0 .037.016.114.048.233.032.118.07.246.116.382.292.957.622 2.026.991 3.206.37 1.18.846 2.714 1.429 4.601l3.445-9.707H45.4l3.513 9.57c.392-1.221.782-2.404 1.17-3.548a78.066 78.066 0 0 0 1.018-3.22c.064-.236.125-.453.185-.649a2 2 0 0 0 .088-.58.57.57 0 0 0-.218-.438 1.793 1.793 0 0 0-.534-.315 2.914 2.914 0 0 0-.594-.164 3.147 3.147 0 0 0-.472-.054v-.875h5.127v.875zM80.036 24h-8.053v-.97l.95-.083c.415-.036.7-.09.855-.164.273-.11.474-.276.601-.499.128-.223.192-.513.192-.868v-6.904h-9.12v6.754c0 .319.053.588.158.806.105.219.312.41.622.574.155.083.43.165.827.247.397.082.709.127.937.136V24h-8.053v-.97l.95-.083c.415-.036.7-.09.855-.164.273-.11.474-.276.601-.499.128-.223.192-.513.192-.868v-14c0-.292-.06-.558-.178-.8-.119-.241-.324-.43-.615-.567a4.947 4.947 0 0 0-.896-.315 5.166 5.166 0 0 0-.909-.164V4.6h8.053v.97c-.256.01-.568.05-.937.123-.369.073-.645.142-.827.205-.31.11-.517.292-.622.547a2.174 2.174 0 0 0-.157.834v6.016h9.119V7.416c0-.292-.06-.558-.178-.8-.118-.241-.323-.43-.615-.567a4.947 4.947 0 0 0-.896-.315 5.166 5.166 0 0 0-.909-.164V4.6h8.053v.97c-.255.01-.567.05-.937.123-.369.073-.644.142-.827.205-.31.11-.517.292-.622.547a2.174 2.174 0 0 0-.157.834v13.987c0 .319.052.588.157.806.105.219.312.41.622.574.155.083.43.165.827.247.397.082.71.127.937.136V24zm13.948-.246c-.428.155-.804.28-1.128.376a3.88 3.88 0 0 1-1.1.143c-.711 0-1.278-.166-1.702-.499-.424-.332-.695-.818-.814-1.456h-.082c-.592.657-1.228 1.158-1.907 1.504-.68.347-1.497.52-2.454.52-1.012 0-1.844-.31-2.495-.93-.652-.62-.978-1.43-.978-2.433 0-.52.073-.985.219-1.395.146-.41.365-.78.656-1.107a3.28 3.28 0 0 1 .903-.732 7.885 7.885 0 0 1 1.052-.513c.41-.155 1.242-.442 2.495-.86 1.254-.42 2.099-.748 2.537-.985v-1.354a5.73 5.73 0 0 0-.076-.683 2.863 2.863 0 0 0-.32-.957 2.723 2.723 0 0 0-.773-.882c-.333-.25-.805-.376-1.415-.376-.42 0-.81.07-1.17.212-.36.141-.612.29-.758.444 0 .182.043.451.13.807.086.355.13.683.13.984 0 .319-.144.61-.431.875-.287.264-.686.397-1.196.397-.456 0-.791-.162-1.005-.486a1.926 1.926 0 0 1-.322-1.087c0-.419.149-.82.445-1.203a4.462 4.462 0 0 1 1.155-1.025c.41-.255.907-.472 1.49-.65a5.847 5.847 0 0 1 1.71-.266c.765 0 1.433.052 2.002.157.57.105 1.087.33 1.552.677.465.337.818.795 1.06 1.374.241.579.362 1.324.362 2.235 0 1.303-.014 2.459-.041 3.466a122.31 122.31 0 0 0-.041 3.302c0 .355.061.638.184.847.123.21.313.388.568.534.137.082.353.127.65.136.295.01.598.014.908.014v.875zm-4.771-7.219a29.86 29.86 0 0 0-2.037.67 8.246 8.246 0 0 0-1.627.82 3.7 3.7 0 0 0-1.08 1.101c-.265.424-.397.927-.397 1.51 0 .757.199 1.313.595 1.669.396.355.9.533 1.51.533.648 0 1.218-.157 1.71-.472a4.973 4.973 0 0 0 1.244-1.114l.082-4.717zM117.216 24h-6.576v-.902l.636-.055c.214-.018.403-.055.567-.11a.983.983 0 0 0 .567-.43c.123-.205.185-.472.185-.8v-6.959c0-.948-.217-1.68-.65-2.194-.432-.515-.972-.773-1.62-.773-.446 0-.865.069-1.257.205a3.966 3.966 0 0 0-1.08.575c-.265.2-.486.417-.664.65a6.103 6.103 0 0 0-.403.58v7.78c0 .318.055.58.164.786.11.205.296.362.56.471.21.082.4.144.568.185.169.04.39.07.663.089V24h-6.44v-.902l.61-.055c.195-.018.375-.055.54-.11a.983.983 0 0 0 .567-.43c.123-.205.184-.472.184-.8v-6.959c0-.948-.216-1.68-.65-2.194-.432-.515-.972-.773-1.62-.773-.446 0-.865.071-1.257.212a4.115 4.115 0 0 0-1.08.581c-.265.2-.488.426-.67.677-.183.25-.32.44-.41.567v7.725c0 .31.063.57.191.78.128.209.319.368.574.478.192.091.388.16.588.205.2.046.424.077.67.096V24h-6.549v-.902c.21-.019.426-.037.65-.055.223-.018.417-.055.58-.11a.983.983 0 0 0 .568-.43c.123-.205.185-.472.185-.8v-8.38c0-.292-.066-.554-.199-.787a1.808 1.808 0 0 0-.553-.595 2.33 2.33 0 0 0-.643-.266 4.115 4.115 0 0 0-.793-.13v-.889l4.512-.3.191.19v1.929h.096c.228-.228.506-.497.834-.807.328-.31.633-.56.916-.752.319-.219.718-.401 1.196-.547a5.3 5.3 0 0 1 1.552-.219c.875 0 1.627.235 2.256.704.629.47 1.08 1.037 1.353 1.703.329-.32.618-.6.869-.841.25-.242.58-.5.99-.773a4.536 4.536 0 0 1 1.224-.574c.47-.146.992-.219 1.566-.219 1.14 0 2.041.374 2.707 1.121.665.748.998 1.896.998 3.446v6.85c0 .318.055.58.164.786.11.205.296.362.56.471.21.082.418.144.623.185.205.04.435.07.69.089V24zm12.69-11.88a7.022 7.022 0 0 1 1.252 2.22c.296.844.444 1.808.444 2.892 0 1.067-.178 2.04-.533 2.92-.356.879-.825 1.629-1.408 2.248a6.631 6.631 0 0 1-2.038 1.45 5.718 5.718 0 0 1-2.378.505c-.812 0-1.477-.09-1.997-.273-.52-.182-.943-.396-1.271-.643h-.11v4.047c0 .328.064.602.192.82.128.22.324.379.588.48.219.081.53.16.936.238.406.078.741.121 1.005.13v.916h-7.533v-.916c.283-.018.556-.04.82-.068.265-.027.502-.073.711-.137.274-.09.465-.25.575-.478.109-.228.164-.497.164-.807V13.322c0-.273-.069-.537-.205-.793a1.754 1.754 0 0 0-.534-.615c-.164-.11-.392-.194-.683-.253a6.399 6.399 0 0 0-.848-.116v-.889l4.594-.3.191.164v1.517l.11.027a5.902 5.902 0 0 1 1.763-1.367c.702-.364 1.4-.547 2.092-.547.839 0 1.607.178 2.304.534a5.667 5.667 0 0 1 1.798 1.435zm-2.228 9.693a6.167 6.167 0 0 0 .807-1.97c.173-.747.26-1.58.26-2.501 0-.675-.073-1.363-.22-2.065-.145-.701-.373-1.312-.683-1.832a3.823 3.823 0 0 0-1.217-1.285c-.5-.328-1.102-.492-1.804-.492-.675 0-1.249.148-1.723.444-.474.297-.884.65-1.23 1.06v7.97c.082.247.216.502.403.766a3.6 3.6 0 0 0 .622.684c.283.228.588.412.916.554.328.14.73.211 1.203.211.51 0 1.003-.134 1.477-.403.474-.269.87-.65 1.19-1.142zm13.607-4.417c.373.329.66.707.861 1.135.2.429.3.953.3 1.573 0 1.248-.466 2.269-1.4 3.062-.935.793-2.145 1.19-3.63 1.19a5.454 5.454 0 0 1-2.167-.424c-.661-.283-1.133-.543-1.415-.78l-.274.889h-1.025l-.137-4.69h.943c.073.356.228.77.465 1.245.237.474.524.902.862 1.285.355.4.781.738 1.278 1.012.497.273 1.055.41 1.675.41.875 0 1.55-.199 2.023-.595.474-.396.711-.964.711-1.702 0-.383-.075-.713-.226-.991a2.183 2.183 0 0 0-.663-.732 5.22 5.22 0 0 0-1.107-.567 21.672 21.672 0 0 0-1.463-.5 13.586 13.586 0 0 1-1.429-.526 5.695 5.695 0 0 1-1.346-.786 3.854 3.854 0 0 1-.985-1.175c-.255-.465-.382-1.012-.382-1.641 0-1.103.41-2.037 1.23-2.803.82-.765 1.919-1.148 3.295-1.148.529 0 1.069.068 1.62.205.551.137 1 .3 1.347.492l.314-.711h.985l.205 4.334h-.944c-.191-.966-.604-1.752-1.237-2.358-.634-.606-1.406-.91-2.317-.91-.748 0-1.336.187-1.764.561-.428.374-.643.825-.643 1.354 0 .41.07.751.212 1.025.142.273.353.506.636.697.273.182.617.353 1.032.513.415.16.928.34 1.538.54.602.191 1.17.415 1.702.67.534.255.973.538 1.32.847zM157.927 24h-6.618v-.902c.21-.019.442-.037.698-.055a2.62 2.62 0 0 0 .629-.11.983.983 0 0 0 .567-.43c.123-.205.184-.472.184-.8v-6.932c0-.957-.225-1.695-.676-2.214-.451-.52-1-.78-1.648-.78-.474 0-.913.076-1.32.226-.405.15-.767.335-1.086.554-.31.228-.547.455-.71.683a7.76 7.76 0 0 0-.384.574v7.752c0 .31.062.566.185.766.123.2.312.355.567.465.2.091.408.16.622.205.214.046.45.077.704.096V24h-6.617v-.902l.656-.062a3.2 3.2 0 0 0 .575-.102c.255-.082.446-.226.574-.431.128-.205.191-.472.191-.8V6.008c0-.31-.07-.62-.212-.93-.14-.31-.325-.542-.553-.697-.164-.119-.454-.203-.868-.253-.415-.05-.75-.084-1.005-.103V3.15l4.99-.314.191.205v9.406h.055c.3-.3.574-.567.82-.8.246-.232.57-.476.971-.731a5.139 5.139 0 0 1 1.224-.547c.469-.146.995-.219 1.579-.219 1.203 0 2.128.38 2.775 1.142.647.761.97 1.857.97 3.288v7.014c0 .319.058.576.172.772.114.196.303.349.567.458.21.082.399.144.567.185.17.04.39.07.664.089V24zm7.003 0h-6.522v-.902c.21-.019.426-.037.65-.055.223-.018.417-.055.58-.11a.983.983 0 0 0 .568-.43c.123-.205.185-.472.185-.8v-8.326c0-.292-.066-.558-.199-.8a1.764 1.764 0 0 0-.553-.608c-.174-.11-.424-.203-.752-.28a5.57 5.57 0 0 0-.903-.144v-.889l4.758-.3.192.19V21.54c0 .32.061.583.184.793.123.21.317.365.581.465.2.082.397.148.588.198.192.05.406.084.643.103V24zm-1.723-18.963c0 .52-.17.973-.513 1.36a1.62 1.62 0 0 1-1.264.582c-.465 0-.868-.185-1.21-.554-.342-.37-.513-.79-.513-1.265 0-.501.17-.939.513-1.312.342-.374.745-.56 1.21-.56.52 0 .945.175 1.278.525.333.351.499.76.499 1.224zm12.5 7.219c0 .465-.115.877-.343 1.237-.227.36-.578.54-1.052.54-.51 0-.9-.132-1.17-.396-.268-.265-.403-.556-.403-.875 0-.2.016-.383.048-.547.032-.164.062-.328.09-.492-.43 0-.93.173-1.505.52-.574.346-1.062.838-1.463 1.476v7.847c0 .32.062.58.185.78.123.2.317.35.581.45.228.092.522.16.882.206.36.046.672.077.936.096V24h-7.109v-.902c.21-.019.426-.037.65-.055.223-.018.416-.055.58-.11a.983.983 0 0 0 .568-.43c.123-.205.184-.472.184-.8v-8.326c0-.283-.066-.56-.198-.834a1.66 1.66 0 0 0-.554-.656 1.865 1.865 0 0 0-.615-.24 5.457 5.457 0 0 0-.765-.102v-.889l4.484-.3.191.19v1.901h.069c.565-.738 1.194-1.299 1.886-1.681.693-.383 1.327-.575 1.9-.575.575 0 1.042.187 1.402.561.36.374.54.875.54 1.504zm11.924 8.572c-.565 1.076-1.321 1.932-2.27 2.57-.947.638-2.036.957-3.267.957-1.085 0-2.035-.19-2.85-.574a5.597 5.597 0 0 1-2.017-1.558 6.62 6.62 0 0 1-1.183-2.297c-.26-.875-.39-1.8-.39-2.776 0-.875.14-1.734.418-2.577a7.27 7.27 0 0 1 1.223-2.276 5.921 5.921 0 0 1 1.935-1.566c.77-.396 1.634-.594 2.59-.594.985 0 1.828.155 2.53.465.702.31 1.271.733 1.709 1.271.42.51.731 1.112.937 1.805.205.692.307 1.444.307 2.256v.902h-8.928c0 .884.085 1.686.253 2.406a5.76 5.76 0 0 0 .8 1.9c.356.53.82.946 1.395 1.252.574.305 1.257.458 2.05.458.812 0 1.511-.19 2.1-.568.587-.378 1.154-1.06 1.701-2.044l.957.588zm-3.021-5.14c0-.51-.044-1.058-.13-1.641-.087-.583-.226-1.071-.417-1.463a2.779 2.779 0 0 0-.861-1.025c-.365-.265-.834-.397-1.409-.397-.957 0-1.752.399-2.385 1.196-.634.798-.978 1.908-1.033 3.33h6.235z"/>
		</g>
	</svg>