<svg  class="LogoEbirdPortal LogoEbirdPortal--portugal" xmlns="http://www.w3.org/2000/svg" width="222px" height="32px" viewBox="0 0 222 32" role="img" aria-labelledby="logo-ebird-portal-portugal-title-ebird-header">
		<title id="logo-ebird-portal-portugal-title-ebird-header">PortugalAves eBird logo</title>
		<g fill="none" fill-rule="evenodd">
			<path class="LogoEbirdPortal-e" fill="#50A61C" fill-rule="nonzero" d="M172.096 20.54l-1.304-.79-.098.174c-.39.802-.966 1.499-1.68 2.034a3.702 3.702 0 0 1-2.042.553 4.231 4.231 0 0 1-2.007-.446 3.717 3.717 0 0 1-1.359-1.22 5.752 5.752 0 0 1-.79-1.89 10.505 10.505 0 0 1-.26-2.24h9.141v-1.113a8.296 8.296 0 0 0-.324-2.37 5.404 5.404 0 0 0-.991-1.913 4.816 4.816 0 0 0-1.822-1.355 6.601 6.601 0 0 0-2.666-.493 5.926 5.926 0 0 0-2.738.628 6.274 6.274 0 0 0-2.038 1.659c-.566.708-1 1.51-1.284 2.37a8.6 8.6 0 0 0-.439 2.718c-.009.98.124 1.955.395 2.896a6.996 6.996 0 0 0 1.256 2.406 5.95 5.95 0 0 0 2.134 1.647c.943.42 1.966.626 2.998.605a6.064 6.064 0 0 0 3.453-1.012 7.28 7.28 0 0 0 2.37-2.702l.095-.146zm-6.226-9.62c.47-.02.935.108 1.327.368.35.255.633.593.822.983.204.457.337.942.395 1.438.074.482.117.967.13 1.454h-5.988a5.385 5.385 0 0 1 1.003-3.085 2.797 2.797 0 0 1 2.311-1.158z"/>
			<path class="LogoEbirdPortal-bird" fill="#231F20" fill-rule="nonzero" d="M220.601 22.492l.198.004v1.276l-5.089.324-.331-.309v-1.039a6.036 6.036 0 0 1-1.632 1.142c-.71.35-1.491.534-2.283.537a5.42 5.42 0 0 1-2.37-.545 5.95 5.95 0 0 1-1.976-1.525 7.506 7.506 0 0 1-1.343-2.37 9.126 9.126 0 0 1-.494-3.058 8.079 8.079 0 0 1 .53-2.907 7.731 7.731 0 0 1 1.461-2.41 6.499 6.499 0 0 1 2.153-1.545 6.74 6.74 0 0 1 4.543-.324c.468.12.923.283 1.36.49V5.725a2.65 2.65 0 0 0-.183-1 1.454 1.454 0 0 0-.478-.651 2.568 2.568 0 0 0-.98-.352c-.467-.082-.94-.14-1.414-.173h-.177V2.324L218.02 2l.332.324v18.682c-.007.256.05.51.166.739.118.21.287.386.49.514.21.11.442.17.68.177.331.037.636.056.912.056zm-15.051-9.288a1.37 1.37 0 0 1-1.237.648c-.49.025-.97-.149-1.331-.482a1.422 1.422 0 0 1-.47-1.031c-.003-.2.015-.4.05-.597l.048-.26a3.366 3.366 0 0 0-1.224.505 4.346 4.346 0 0 0-1.407 1.402v7.977c-.011.243.045.485.162.699a.944.944 0 0 0 .498.395c.276.101.564.167.857.198.36.047.68.098.948.098h.178v1.288H188.03v-1.288l.841-.07a2.37 2.37 0 0 0 .55-.104.818.818 0 0 0 .497-.355c.118-.22.174-.47.162-.72v-8.509a1.497 1.497 0 0 0-.182-.727 1.628 1.628 0 0 0-.51-.572 2.473 2.473 0 0 0-.702-.257 5.566 5.566 0 0 0-.893-.142h-.178v-1.28l5.136-.324.312.312v11.35c-.007.245.05.487.166.703a.92.92 0 0 0 .494.395 3.516 3.516 0 0 0 1.197.296h.13l.79-.067c.187-.012.37-.047.55-.103a.814.814 0 0 0 .477-.355c.117-.221.173-.47.162-.72v-8.532a1.762 1.762 0 0 0-.182-.77 1.505 1.505 0 0 0-.505-.597 1.722 1.722 0 0 0-.561-.214 5.468 5.468 0 0 0-.759-.102h-.178v-1.28l4.856-.324.312.312v1.58a6.266 6.266 0 0 1 1.718-1.434c1.494-.826 2.821-.806 3.611.02.416.454.633 1.056.605 1.67a2.52 2.52 0 0 1-.395 1.368zm-14.155-6.645a1.825 1.825 0 0 1-1.38-.608 2.046 2.046 0 0 1-.576-1.442c-.006-.547.2-1.075.573-1.474.345-.405.85-.639 1.383-.64a1.916 1.916 0 0 1 1.446.593c.362.369.564.865.564 1.382a2.232 2.232 0 0 1-.572 1.53 1.849 1.849 0 0 1-1.438.659zm-5.555 7.893a5.06 5.06 0 0 1 1.497 1.6c.417.732.625 1.564.6 2.406a4.86 4.86 0 0 1-.627 2.505 5.393 5.393 0 0 1-1.644 1.734 7.403 7.403 0 0 1-2.172 1.007 9.134 9.134 0 0 1-2.477.328h-9.589v-1.359h.174c.222-.02.545-.059.968-.118.298-.03.592-.098.873-.202a1.09 1.09 0 0 0 .526-.442 1.58 1.58 0 0 0 .158-.755V6.86a1.88 1.88 0 0 0-.146-.762c-.116-.226-.31-.401-.546-.494a3.828 3.828 0 0 0-.896-.308 6.755 6.755 0 0 0-.842-.135h-.178V3.81h9.34a9.876 9.876 0 0 1 2.077.213 6.262 6.262 0 0 1 1.913.766 4.231 4.231 0 0 1 1.418 1.39 3.95 3.95 0 0 1 .56 2.146 4.618 4.618 0 0 1-.394 1.947 4.31 4.31 0 0 1-1.114 1.474c-.459.394-.971.721-1.521.972a8.525 8.525 0 0 1-1.229.454c.446.087.886.2 1.32.336a6.83 6.83 0 0 1 1.951.944zm29.499-1.311a3.516 3.516 0 0 0-.328-.684 3.319 3.319 0 0 0-.592-.727 3.405 3.405 0 0 0-.897-.545 3.066 3.066 0 0 0-1.185-.217 2.718 2.718 0 0 0-1.442.395 3.95 3.95 0 0 0-1.186 1.185 6.258 6.258 0 0 0-.79 1.932 10.959 10.959 0 0 0-.296 2.635 9.24 9.24 0 0 0 .217 2.09c.142.611.388 1.194.727 1.722.3.48.705.886 1.185 1.185a3.16 3.16 0 0 0 1.691.431 3.093 3.093 0 0 0 1.746-.443c.425-.278.811-.61 1.15-.987V13.14zm-32.458-2.9a6.1 6.1 0 0 0 .198-1.64 3.394 3.394 0 0 0-.842-2.441c-.557-.58-1.458-.873-2.682-.873-.295 0-.668.006-1.118.02l-.952.027v7.257h1.58a5.63 5.63 0 0 0 1.896-.284 2.888 2.888 0 0 0 1.24-.826c.314-.36.546-.782.68-1.24zm-5.396 3.919v6.803c-.032.48.21.939.624 1.185.58.302 1.232.44 1.884.395 1.328 0 2.35-.364 3.05-1.134.7-.77 1.055-1.932 1.055-3.453a3.67 3.67 0 0 0-1.122-2.765c-.747-.715-1.841-1.079-3.247-1.079-.596 0-1.097.007-1.506.02l-.738.028z"/>
			<path class="LogoEbirdPortal-portal" fill="#50A61C" d="M17.188 9.385c0 1.011-.199 1.907-.595 2.686a5.367 5.367 0 0 1-1.648 1.935 7.112 7.112 0 0 1-2.283 1.121 9.562 9.562 0 0 1-2.639.355H7.85v5.88c0 .318.052.599.157.84.105.242.321.426.65.554.163.064.453.123.867.178.415.054.796.086 1.142.095V24H2.34v-.97c.219-.019.535-.05.95-.096.415-.046.704-.105.868-.178.274-.119.472-.292.595-.52.123-.228.184-.52.184-.875v-14a2.55 2.55 0 0 0-.136-.861c-.091-.255-.306-.447-.643-.574a5.776 5.776 0 0 0-1.032-.253c-.342-.05-.636-.084-.882-.103V4.6h8.86c1.804 0 3.27.435 4.395 1.305 1.126.87 1.688 2.03 1.688 3.48zm-4.157 3.308c.31-.437.515-.89.615-1.36.1-.47.15-.89.15-1.265 0-.52-.06-1.048-.184-1.586a3.685 3.685 0 0 0-.635-1.408 3.18 3.18 0 0 0-1.258-.998c-.52-.237-1.167-.355-1.942-.355H7.85v8.572h1.394c.985 0 1.784-.153 2.4-.458.615-.305 1.077-.686 1.387-1.142zM31 17.123c0 .948-.15 1.88-.451 2.796-.3.916-.73 1.693-1.285 2.331a5.982 5.982 0 0 1-2.188 1.627c-.829.355-1.759.533-2.789.533a6.287 6.287 0 0 1-2.447-.485 6.165 6.165 0 0 1-2.064-1.415c-.593-.61-1.065-1.356-1.415-2.236-.351-.88-.527-1.866-.527-2.96 0-2.105.613-3.828 1.84-5.168 1.225-1.34 2.831-2.01 4.818-2.01 1.887 0 3.443.636 4.67 1.908 1.225 1.271 1.838 2.964 1.838 5.079zm-2.83.027c0-.683-.068-1.406-.205-2.167-.137-.76-.342-1.406-.615-1.934a3.78 3.78 0 0 0-1.149-1.36c-.474-.342-1.052-.513-1.736-.513-.702 0-1.301.173-1.798.52-.497.346-.9.82-1.21 1.421a6.291 6.291 0 0 0-.615 1.9 13.004 13.004 0 0 0 .034 4.491c.141.744.367 1.407.677 1.99.31.583.7 1.041 1.169 1.374.47.333 1.05.5 1.743.5 1.14 0 2.042-.552 2.707-1.655s.998-2.625.998-4.567zm13.908-4.894c0 .465-.114.877-.342 1.237-.228.36-.579.54-1.053.54-.51 0-.9-.132-1.169-.396-.269-.265-.403-.556-.403-.875 0-.2.016-.383.048-.547.032-.164.061-.328.088-.492-.428 0-.93.173-1.503.52-.575.346-1.062.838-1.463 1.476v7.847c0 .32.061.58.184.78.123.2.317.35.581.45.228.092.522.16.882.206.36.046.672.077.937.096V24h-7.11v-.902c.21-.019.426-.037.65-.055.223-.018.417-.055.58-.11a.983.983 0 0 0 .568-.43c.123-.205.185-.472.185-.8v-8.326c0-.283-.066-.56-.199-.834a1.66 1.66 0 0 0-.553-.656 1.865 1.865 0 0 0-.615-.24 5.457 5.457 0 0 0-.766-.102v-.889l4.484-.3.192.19v1.901h.068c.565-.738 1.194-1.299 1.887-1.681.692-.383 1.326-.575 1.9-.575.574 0 1.041.187 1.402.561.36.374.54.875.54 1.504zm8.274 11.156a21.19 21.19 0 0 1-1.681.622c-.53.169-1.176.253-1.942.253-1.13 0-1.925-.285-2.386-.854-.46-.57-.69-1.374-.69-2.413v-9.133h-2.434v-1.313h2.489V6.377h2.488v4.197h3.87v1.313h-3.843v7.533c0 .565.02 1.037.062 1.415.04.378.139.709.294.991.146.264.364.465.656.602.292.136.684.205 1.176.205.228 0 .563-.02 1.005-.062.442-.04.754-.093.936-.157v.998zm14.591.342l-4.388.3-.206-.19v-1.71h-.082c-.218.228-.464.472-.738.732a5.19 5.19 0 0 1-.943.704 6.04 6.04 0 0 1-1.19.56c-.383.128-.925.192-1.627.192-1.194 0-2.103-.39-2.727-1.17-.625-.778-.937-1.91-.937-3.397v-6.453c0-.328-.061-.604-.184-.827a1.716 1.716 0 0 0-.54-.58 1.72 1.72 0 0 0-.616-.24 5.855 5.855 0 0 0-.779-.103v-.888l4.498-.329.205.192v9.365c0 .975.219 1.71.657 2.201.437.492.961.739 1.572.739.501 0 .948-.078 1.34-.233.392-.155.72-.337.984-.547.246-.191.463-.394.65-.608.186-.214.33-.413.43-.595v-7.642c0-.301-.064-.568-.191-.8a1.79 1.79 0 0 0-.534-.595c-.164-.11-.407-.175-.731-.198a44.124 44.124 0 0 0-1.087-.062v-.888l4.895-.329.205.192v10.705c0 .31.064.574.191.793.128.219.305.406.533.56.164.1.36.167.588.199.228.032.479.052.752.061v.889zm12.007-1.149c.365.347.652.739.862 1.176.21.438.314.98.314 1.627s-.141 1.256-.424 1.825c-.282.57-.71 1.065-1.285 1.484-.61.428-1.34.76-2.187.998-.848.237-1.896.355-3.145.355-2.042 0-3.568-.298-4.58-.895s-1.518-1.47-1.518-2.618c0-.93.365-1.664 1.094-2.202.73-.537 1.659-.829 2.79-.875v-.19a8.383 8.383 0 0 1-.849-.309 3.286 3.286 0 0 1-.751-.43 2.33 2.33 0 0 1-.575-.677c-.146-.26-.218-.581-.218-.964 0-.483.17-.927.512-1.333.342-.405.86-.754 1.552-1.046v-.205c-.875-.41-1.554-.936-2.037-1.579-.483-.643-.725-1.388-.725-2.235 0-1.276.477-2.324 1.429-3.145.952-.82 2.172-1.23 3.657-1.23.41 0 .818.04 1.224.123.405.082.818.187 1.237.314h4.703v1.313h-3.172v.082c.338.392.588.825.752 1.299.164.474.246.938.246 1.394 0 1.185-.48 2.188-1.442 3.008-.962.82-2.08 1.23-3.356 1.23h-1.655c-.21.073-.428.205-.656.397-.228.191-.342.451-.342.78 0 .336.096.594.287.772.192.177.424.298.698.362.264.073.572.118.923.137.35.018.713.032 1.086.04.401.01.95.037 1.648.083a50.31 50.31 0 0 0 1.483.082c.42.018.841.118 1.265.3.424.183.809.433 1.155.752zm-3.691-7.998c0-1.066-.217-1.916-.65-2.55-.433-.633-1.04-.95-1.825-.95-.428 0-.795.09-1.1.267-.306.178-.554.43-.746.759-.182.3-.312.663-.39 1.087a7.247 7.247 0 0 0-.115 1.305c0 1.012.22 1.837.663 2.475.442.638 1.014.957 1.716.957.783 0 1.387-.317 1.811-.95.424-.634.636-1.433.636-2.4zm2.625 11.307c0-.51-.119-.93-.356-1.258-.237-.328-.597-.551-1.08-.67-.255-.036-.779-.077-1.572-.123a48.817 48.817 0 0 0-2.762-.068c-.984.191-1.684.513-2.098.964-.415.451-.622 1.032-.622 1.743 0 .319.068.624.205.916.136.292.373.56.71.807.32.237.748.43 1.286.58.538.151 1.194.226 1.968.226 1.34 0 2.395-.257 3.166-.772.77-.515 1.155-1.297 1.155-2.345zm15.343-2.16c-.429.155-.805.28-1.128.376a3.88 3.88 0 0 1-1.1.143c-.712 0-1.28-.166-1.703-.499-.424-.332-.695-.818-.813-1.456H86.4c-.593.657-1.229 1.158-1.908 1.504-.679.347-1.497.52-2.454.52-1.011 0-1.843-.31-2.495-.93-.652-.62-.977-1.43-.977-2.433 0-.52.073-.985.218-1.395.146-.41.365-.78.657-1.107a3.28 3.28 0 0 1 .902-.732 7.885 7.885 0 0 1 1.053-.513c.41-.155 1.242-.442 2.495-.86 1.253-.42 2.098-.748 2.536-.985v-1.354a5.73 5.73 0 0 0-.075-.683 2.863 2.863 0 0 0-.322-.957 2.723 2.723 0 0 0-.772-.882c-.333-.25-.804-.376-1.415-.376-.42 0-.809.07-1.169.212-.36.141-.613.29-.759.444 0 .182.044.451.13.807.087.355.13.683.13.984 0 .319-.144.61-.43.875-.288.264-.687.397-1.197.397-.456 0-.79-.162-1.005-.486a1.926 1.926 0 0 1-.321-1.087c0-.419.148-.82.444-1.203a4.462 4.462 0 0 1 1.155-1.025c.41-.255.907-.472 1.49-.65a5.847 5.847 0 0 1 1.71-.266c.765 0 1.433.052 2.003.157.57.105 1.087.33 1.551.677.465.337.818.795 1.06 1.374.241.579.362 1.324.362 2.235 0 1.303-.013 2.459-.04 3.466a122.31 122.31 0 0 0-.042 3.302c0 .355.062.638.185.847.123.21.312.388.567.534.137.082.353.127.65.136.296.01.599.014.909.014v.875zm-4.772-7.219a29.86 29.86 0 0 0-2.037.67 8.246 8.246 0 0 0-1.627.82 3.7 3.7 0 0 0-1.08 1.101c-.264.424-.396.927-.396 1.51 0 .757.198 1.313.594 1.669.397.355.9.533 1.511.533.647 0 1.217-.157 1.71-.472a4.973 4.973 0 0 0 1.243-1.114l.082-4.717zM97.682 24h-6.576v-.902l.67-.062c.237-.023.433-.057.588-.102.255-.082.446-.226.574-.431.127-.205.191-.472.191-.8V6.09c0-.328-.07-.636-.212-.923a1.784 1.784 0 0 0-.553-.677c-.164-.11-.465-.21-.903-.3a8.21 8.21 0 0 0-1.052-.165V3.15l5.072-.314.191.205v18.498c0 .32.06.581.178.786.118.205.31.362.574.472.2.091.399.16.595.205.196.046.417.077.663.096V24zm18.939 0h-8.08v-.97c.71-.046 1.3-.137 1.77-.274s.704-.305.704-.506c0-.082-.009-.182-.027-.3a1.435 1.435 0 0 0-.082-.315l-1.613-4.348h-6.795a32.467 32.467 0 0 0-.622 1.668c-.16.474-.303.912-.431 1.313-.119.392-.2.71-.246.957a3.45 3.45 0 0 0-.069.601c0 .365.288.647.862.848.574.2 1.221.319 1.941.355V24h-7.3v-.97a5.76 5.76 0 0 0 .888-.158c.356-.087.647-.203.875-.349.365-.246.647-.503.848-.772.2-.269.396-.64.588-1.114.975-2.434 2.05-5.168 3.226-8.203 1.176-3.036 2.224-5.738 3.145-8.108h1.093l6.467 16.735c.137.355.292.642.465.86.173.22.415.434.725.643.21.128.483.235.82.322.337.086.62.134.848.143V24zm-7.82-7.93l-2.94-7.52-2.885 7.52h5.824zm20.278-4.716c-.41.072-.8.22-1.169.444-.37.223-.686.617-.95 1.182a680.076 680.076 0 0 0-3.46 7.999c-.182.419-.375.916-.58 1.49a66.213 66.213 0 0 0-.568 1.654h-1.066a676.842 676.842 0 0 0-4.662-11.28 2.04 2.04 0 0 0-.882-.977 3.556 3.556 0 0 0-1.224-.444v-.902h6.235v.957c-.274.009-.615.066-1.026.17-.41.105-.615.249-.615.431 0 .027.023.098.068.212.046.114.092.244.137.39.374.93.903 2.228 1.586 3.896.684 1.668 1.24 3.013 1.668 4.033.328-.783.74-1.759 1.237-2.925.497-1.167 1.033-2.47 1.607-3.91.091-.247.178-.477.26-.691.082-.214.123-.43.123-.65 0-.154-.076-.293-.226-.416-.15-.123-.33-.23-.54-.322a3.48 3.48 0 0 0-.615-.205 6.401 6.401 0 0 0-.492-.095v-.875h5.154v.834zm11.364 9.474c-.565 1.076-1.321 1.932-2.27 2.57-.947.638-2.036.957-3.267.957-1.084 0-2.035-.19-2.85-.574a5.597 5.597 0 0 1-2.017-1.558 6.62 6.62 0 0 1-1.183-2.297c-.26-.875-.39-1.8-.39-2.776 0-.875.14-1.734.418-2.577a7.27 7.27 0 0 1 1.223-2.276 5.921 5.921 0 0 1 1.935-1.566c.77-.396 1.634-.594 2.59-.594.985 0 1.828.155 2.53.465.702.31 1.272.733 1.71 1.271.418.51.73 1.112.936 1.805.205.692.307 1.444.307 2.256v.902h-8.928c0 .884.085 1.686.253 2.406a5.76 5.76 0 0 0 .8 1.9c.356.53.82.946 1.395 1.252.574.305 1.258.458 2.05.458.812 0 1.511-.19 2.1-.568.587-.378 1.154-1.06 1.701-2.044l.957.588zm-3.021-5.14c0-.51-.043-1.058-.13-1.641-.087-.583-.226-1.071-.417-1.463a2.779 2.779 0 0 0-.861-1.025c-.365-.265-.834-.397-1.409-.397-.957 0-1.752.399-2.385 1.196-.634.798-.978 1.908-1.032 3.33h6.234zm12.28 1.708c.374.329.661.707.862 1.135.2.429.3.953.3 1.573 0 1.248-.467 2.269-1.4 3.062-.935.793-2.145 1.19-3.63 1.19a5.454 5.454 0 0 1-2.168-.424c-.66-.283-1.132-.543-1.415-.78l-.273.889h-1.026l-.136-4.69h.943c.073.356.228.77.465 1.245.237.474.524.902.861 1.285.356.4.782.738 1.278 1.012.497.273 1.055.41 1.675.41.875 0 1.55-.199 2.024-.595.474-.396.71-.964.71-1.702 0-.383-.075-.713-.225-.991a2.183 2.183 0 0 0-.663-.732 5.22 5.22 0 0 0-1.107-.567 21.672 21.672 0 0 0-1.463-.5 13.586 13.586 0 0 1-1.429-.526 5.695 5.695 0 0 1-1.347-.786 3.854 3.854 0 0 1-.984-1.175c-.255-.465-.383-1.012-.383-1.641 0-1.103.41-2.037 1.23-2.803.82-.765 1.92-1.148 3.295-1.148.53 0 1.07.068 1.62.205.552.137 1 .3 1.347.492l.315-.711h.984l.205 4.334h-.943c-.192-.966-.604-1.752-1.237-2.358-.634-.606-1.406-.91-2.318-.91-.747 0-1.335.187-1.764.561-.428.374-.642.825-.642 1.354 0 .41.07.751.212 1.025.141.273.353.506.636.697.273.182.617.353 1.032.513.414.16.927.34 1.538.54.601.191 1.169.415 1.702.67.533.255.973.538 1.32.847z"/>
		</g>
	</svg>