<svg  class="LogoEbirdPortal LogoEbirdPortal--pr" xmlns="http://www.w3.org/2000/svg" width="205px" height="32px" viewBox="0 0 205 32" role="img" aria-labelledby="logo-ebird-portal-pr-title-ebird-header">
		<title id="logo-ebird-portal-pr-title-ebird-header">Puerto Rico eBird logo</title>
		<g fill="none" fill-rule="evenodd">
			<path class="LogoEbirdPortal-e" fill="#50A61C" fill-rule="nonzero" d="M155.096 20.54l-1.304-.79-.098.174c-.39.802-.966 1.499-1.68 2.034a3.702 3.702 0 0 1-2.042.553 4.231 4.231 0 0 1-2.007-.446 3.717 3.717 0 0 1-1.359-1.22 5.752 5.752 0 0 1-.79-1.89 10.505 10.505 0 0 1-.26-2.24h9.141v-1.113a8.296 8.296 0 0 0-.324-2.37 5.404 5.404 0 0 0-.991-1.913 4.816 4.816 0 0 0-1.822-1.355 6.601 6.601 0 0 0-2.666-.493 5.926 5.926 0 0 0-2.738.628 6.274 6.274 0 0 0-2.038 1.659c-.566.708-1 1.51-1.284 2.37a8.6 8.6 0 0 0-.439 2.718c-.009.98.124 1.955.395 2.896a6.996 6.996 0 0 0 1.256 2.406 5.95 5.95 0 0 0 2.134 1.647c.943.42 1.966.626 2.998.605a6.064 6.064 0 0 0 3.453-1.012 7.28 7.28 0 0 0 2.37-2.702l.095-.146zm-6.226-9.62c.47-.02.935.108 1.327.368.35.255.633.593.822.983.204.457.337.942.395 1.438.074.482.117.967.13 1.454h-5.988a5.385 5.385 0 0 1 1.003-3.085 2.797 2.797 0 0 1 2.311-1.158z"/>
			<path class="LogoEbirdPortal-bird" fill="#231F20" fill-rule="nonzero" d="M203.601 22.492l.198.004v1.276l-5.089.324-.331-.309v-1.039a6.036 6.036 0 0 1-1.632 1.142c-.71.35-1.491.534-2.283.537a5.42 5.42 0 0 1-2.37-.545 5.95 5.95 0 0 1-1.976-1.525 7.506 7.506 0 0 1-1.343-2.37 9.126 9.126 0 0 1-.494-3.058 8.079 8.079 0 0 1 .53-2.907 7.731 7.731 0 0 1 1.461-2.41 6.499 6.499 0 0 1 2.153-1.545 6.74 6.74 0 0 1 4.543-.324c.468.12.923.283 1.36.49V5.725a2.65 2.65 0 0 0-.183-1 1.454 1.454 0 0 0-.478-.651 2.568 2.568 0 0 0-.98-.352c-.467-.082-.94-.14-1.414-.173h-.177V2.324L201.02 2l.332.324v18.682c-.007.256.05.51.166.739.118.21.287.386.49.514.21.11.442.17.68.177.331.037.636.056.912.056zm-15.051-9.288a1.37 1.37 0 0 1-1.237.648c-.49.025-.97-.149-1.331-.482a1.422 1.422 0 0 1-.47-1.031c-.003-.2.015-.4.05-.597l.048-.26a3.366 3.366 0 0 0-1.224.505 4.346 4.346 0 0 0-1.407 1.402v7.977c-.011.243.045.485.162.699a.944.944 0 0 0 .498.395c.276.101.564.167.857.198.36.047.68.098.948.098h.178v1.288H171.03v-1.288l.841-.07a2.37 2.37 0 0 0 .55-.104.818.818 0 0 0 .497-.355c.118-.22.174-.47.162-.72v-8.509a1.497 1.497 0 0 0-.182-.727 1.628 1.628 0 0 0-.51-.572 2.473 2.473 0 0 0-.702-.257 5.566 5.566 0 0 0-.893-.142h-.178v-1.28l5.136-.324.312.312v11.35c-.007.245.05.487.166.703a.92.92 0 0 0 .494.395 3.516 3.516 0 0 0 1.197.296h.13l.79-.067c.187-.012.37-.047.55-.103a.814.814 0 0 0 .477-.355c.117-.221.173-.47.162-.72v-8.532a1.762 1.762 0 0 0-.182-.77 1.505 1.505 0 0 0-.505-.597 1.722 1.722 0 0 0-.561-.214 5.468 5.468 0 0 0-.759-.102h-.178v-1.28l4.856-.324.312.312v1.58a6.266 6.266 0 0 1 1.718-1.434c1.494-.826 2.821-.806 3.611.02.416.454.633 1.056.605 1.67a2.52 2.52 0 0 1-.395 1.368zm-14.155-6.645a1.825 1.825 0 0 1-1.38-.608 2.046 2.046 0 0 1-.576-1.442c-.006-.547.2-1.075.573-1.474.345-.405.85-.639 1.383-.64a1.916 1.916 0 0 1 1.446.593c.362.369.564.865.564 1.382a2.232 2.232 0 0 1-.572 1.53 1.849 1.849 0 0 1-1.438.659zm-5.555 7.893a5.06 5.06 0 0 1 1.497 1.6c.417.732.625 1.564.6 2.406a4.86 4.86 0 0 1-.627 2.505 5.393 5.393 0 0 1-1.644 1.734 7.403 7.403 0 0 1-2.172 1.007 9.134 9.134 0 0 1-2.477.328h-9.589v-1.359h.174c.222-.02.545-.059.968-.118.298-.03.592-.098.873-.202a1.09 1.09 0 0 0 .526-.442 1.58 1.58 0 0 0 .158-.755V6.86a1.88 1.88 0 0 0-.146-.762c-.116-.226-.31-.401-.546-.494a3.828 3.828 0 0 0-.896-.308 6.755 6.755 0 0 0-.842-.135h-.178V3.81h9.34a9.876 9.876 0 0 1 2.077.213 6.262 6.262 0 0 1 1.913.766 4.231 4.231 0 0 1 1.418 1.39 3.95 3.95 0 0 1 .56 2.146 4.618 4.618 0 0 1-.394 1.947 4.31 4.31 0 0 1-1.114 1.474c-.459.394-.971.721-1.521.972a8.525 8.525 0 0 1-1.229.454c.446.087.886.2 1.32.336a6.83 6.83 0 0 1 1.951.944zm29.499-1.311a3.516 3.516 0 0 0-.328-.684 3.319 3.319 0 0 0-.592-.727 3.405 3.405 0 0 0-.897-.545 3.066 3.066 0 0 0-1.185-.217 2.718 2.718 0 0 0-1.442.395 3.95 3.95 0 0 0-1.186 1.185 6.258 6.258 0 0 0-.79 1.932 10.959 10.959 0 0 0-.296 2.635 9.24 9.24 0 0 0 .217 2.09c.142.611.388 1.194.727 1.722.3.48.705.886 1.185 1.185a3.16 3.16 0 0 0 1.691.431 3.093 3.093 0 0 0 1.746-.443c.425-.278.811-.61 1.15-.987V13.14zm-32.458-2.9a6.1 6.1 0 0 0 .198-1.64 3.394 3.394 0 0 0-.842-2.441c-.557-.58-1.458-.873-2.682-.873-.295 0-.668.006-1.118.02l-.952.027v7.257h1.58a5.63 5.63 0 0 0 1.896-.284 2.888 2.888 0 0 0 1.24-.826c.314-.36.546-.782.68-1.24zm-5.396 3.919v6.803c-.032.48.21.939.624 1.185.58.302 1.232.44 1.884.395 1.328 0 2.35-.364 3.05-1.134.7-.77 1.055-1.932 1.055-3.453a3.67 3.67 0 0 0-1.122-2.765c-.747-.715-1.841-1.079-3.247-1.079-.596 0-1.097.007-1.506.02l-.738.028z"/>
			<path class="LogoEbirdPortal-portal" fill="#50A61C" d="M17.188 9.385c0 1.011-.199 1.907-.595 2.686a5.367 5.367 0 0 1-1.648 1.935 7.112 7.112 0 0 1-2.283 1.121 9.562 9.562 0 0 1-2.639.355H7.85v5.88c0 .318.052.599.157.84.105.242.321.426.65.554.163.064.453.123.867.178.415.054.796.086 1.142.095V24H2.34v-.97c.219-.019.535-.05.95-.096.415-.046.704-.105.868-.178.274-.119.472-.292.595-.52.123-.228.184-.52.184-.875v-14a2.55 2.55 0 0 0-.136-.861c-.091-.255-.306-.447-.643-.574a5.776 5.776 0 0 0-1.032-.253c-.342-.05-.636-.084-.882-.103V4.6h8.86c1.804 0 3.27.435 4.395 1.305 1.126.87 1.688 2.03 1.688 3.48zm-4.157 3.308c.31-.437.515-.89.615-1.36.1-.47.15-.89.15-1.265 0-.52-.06-1.048-.184-1.586a3.685 3.685 0 0 0-.635-1.408 3.18 3.18 0 0 0-1.258-.998c-.52-.237-1.167-.355-1.942-.355H7.85v8.572h1.394c.985 0 1.784-.153 2.4-.458.615-.305 1.077-.686 1.387-1.142zm19.28 11.06l-4.388.302-.205-.192v-1.709h-.082c-.219.228-.465.472-.738.732a5.19 5.19 0 0 1-.944.704 6.04 6.04 0 0 1-1.19.56c-.382.128-.924.192-1.626.192-1.194 0-2.103-.39-2.728-1.17-.624-.778-.936-1.91-.936-3.397v-6.453c0-.328-.062-.604-.185-.827a1.716 1.716 0 0 0-.54-.58 1.72 1.72 0 0 0-.615-.24 5.855 5.855 0 0 0-.78-.103v-.888l4.499-.329.205.192v9.365c0 .975.219 1.71.656 2.201.438.492.962.739 1.572.739.502 0 .948-.078 1.34-.233.392-.155.72-.337.985-.547.246-.191.462-.394.649-.608.187-.214.33-.413.43-.595v-7.642c0-.301-.063-.568-.19-.8a1.79 1.79 0 0 0-.534-.595c-.164-.11-.408-.175-.731-.198a44.124 44.124 0 0 0-1.087-.062v-.888l4.894-.329.205.192v10.705c0 .31.064.574.192.793.127.219.305.406.533.56.164.1.36.167.588.199.228.032.478.052.752.061v.889zm12.432-2.925c-.566 1.076-1.322 1.932-2.27 2.57-.948.638-2.037.957-3.268.957-1.084 0-2.034-.19-2.85-.574a5.597 5.597 0 0 1-2.017-1.558 6.62 6.62 0 0 1-1.182-2.297c-.26-.875-.39-1.8-.39-2.776 0-.875.139-1.734.417-2.577a7.27 7.27 0 0 1 1.224-2.276 5.921 5.921 0 0 1 1.934-1.566c.77-.396 1.634-.594 2.591-.594.984 0 1.828.155 2.53.465.701.31 1.27.733 1.708 1.271.42.51.732 1.112.937 1.805.205.692.307 1.444.307 2.256v.902h-8.927c0 .884.084 1.686.253 2.406a5.76 5.76 0 0 0 .8 1.9c.355.53.82.946 1.394 1.252.574.305 1.258.458 2.05.458.812 0 1.512-.19 2.1-.568.587-.378 1.155-1.06 1.702-2.044l.957.588zm-3.022-5.14c0-.51-.043-1.058-.13-1.641-.086-.583-.225-1.071-.417-1.463a2.779 2.779 0 0 0-.861-1.025c-.365-.265-.834-.397-1.408-.397-.957 0-1.753.399-2.386 1.196-.634.798-.978 1.908-1.032 3.33h6.234zm13.702-3.432c0 .465-.113.877-.341 1.237-.228.36-.58.54-1.053.54-.51 0-.9-.132-1.169-.396-.269-.265-.403-.556-.403-.875 0-.2.016-.383.047-.547.032-.164.062-.328.09-.492-.429 0-.93.173-1.505.52-.574.346-1.061.838-1.462 1.476v7.847c0 .32.061.58.184.78.123.2.317.35.581.45.228.092.522.16.882.206.36.046.672.077.937.096V24H45.1v-.902c.21-.019.426-.037.65-.055.223-.018.417-.055.58-.11a.983.983 0 0 0 .568-.43c.123-.205.185-.472.185-.8v-8.326c0-.283-.066-.56-.199-.834a1.66 1.66 0 0 0-.553-.656 1.865 1.865 0 0 0-.616-.24 5.457 5.457 0 0 0-.765-.102v-.889l4.484-.3.192.19v1.901h.068c.565-.738 1.194-1.299 1.887-1.681.692-.383 1.326-.575 1.9-.575.574 0 1.041.187 1.401.561.36.374.54.875.54 1.504zm8.275 11.156a21.19 21.19 0 0 1-1.682.622c-.528.169-1.175.253-1.941.253-1.13 0-1.925-.285-2.386-.854-.46-.57-.69-1.374-.69-2.413v-9.133h-2.434v-1.313h2.489V6.377h2.488v4.197h3.869v1.313h-3.842v7.533c0 .565.02 1.037.062 1.415.04.378.139.709.294.991.145.264.364.465.656.602.292.136.683.205 1.176.205.228 0 .562-.02 1.005-.062.442-.04.754-.093.936-.157v.998zm13.279-6.289c0 .948-.15 1.88-.452 2.796-.3.916-.729 1.693-1.285 2.331a5.982 5.982 0 0 1-2.187 1.627c-.83.355-1.76.533-2.79.533a6.287 6.287 0 0 1-2.447-.485 6.165 6.165 0 0 1-2.064-1.415c-.592-.61-1.064-1.356-1.415-2.236-.351-.88-.526-1.866-.526-2.96 0-2.105.612-3.828 1.838-5.168 1.226-1.34 2.833-2.01 4.82-2.01 1.886 0 3.443.636 4.669 1.908 1.226 1.271 1.839 2.964 1.839 5.079zm-2.83.027c0-.683-.069-1.406-.206-2.167-.136-.76-.341-1.406-.615-1.934a3.78 3.78 0 0 0-1.148-1.36c-.474-.342-1.053-.513-1.737-.513-.701 0-1.3.173-1.797.52-.497.346-.9.82-1.21 1.421a6.291 6.291 0 0 0-.616 1.9 13.004 13.004 0 0 0 .034 4.491c.142.744.367 1.407.677 1.99.31.583.7 1.041 1.17 1.374.469.333 1.05.5 1.742.5 1.14 0 2.042-.552 2.707-1.655.666-1.103.998-2.625.998-4.567zM102.535 24h-5.223a121.325 121.325 0 0 0-3.138-4.703 109.52 109.52 0 0 0-3.042-4.088h-1.982v6.152c0 .32.05.6.15.841.1.242.315.426.643.554.164.064.45.123.861.178.41.054.757.086 1.04.095V24H83.64v-.97c.219-.019.535-.05.95-.096.415-.046.704-.105.868-.178.274-.119.472-.292.595-.52.123-.228.185-.52.185-.875V7.334c0-.319-.046-.602-.137-.848-.091-.246-.305-.433-.643-.56a5.918 5.918 0 0 0-.888-.226 8.445 8.445 0 0 0-.93-.13V4.6h8.955c.82 0 1.59.084 2.31.253.72.168 1.372.44 1.956.813.565.365 1.016.84 1.353 1.429.337.588.506 1.296.506 2.126 0 .747-.114 1.408-.342 1.982a4.085 4.085 0 0 1-1.011 1.49c-.41.392-.903.732-1.477 1.019-.574.287-1.208.53-1.9.731a267.778 267.778 0 0 1 2.385 3.2c.634.865 1.41 1.918 2.331 3.158.401.547.764.95 1.087 1.21.324.26.645.471.964.635.237.119.533.21.889.274.355.064.652.1.889.11V24zM95.344 9.535c0-1.176-.337-2.108-1.012-2.796-.674-.688-1.627-1.032-2.857-1.032h-2.324v8.326h1.79c1.259 0 2.307-.403 3.145-1.21.839-.806 1.258-1.902 1.258-3.288zM108.281 24h-6.522v-.902c.21-.019.426-.037.65-.055.223-.018.417-.055.58-.11a.983.983 0 0 0 .568-.43c.123-.205.185-.472.185-.8v-8.326c0-.292-.066-.558-.198-.8a1.764 1.764 0 0 0-.554-.608c-.173-.11-.424-.203-.752-.28a5.57 5.57 0 0 0-.902-.144v-.889l4.757-.3.192.19V21.54c0 .32.061.583.184.793.123.21.317.365.581.465.2.082.397.148.588.198.192.05.406.084.643.103V24zm-1.723-18.963c0 .52-.17.973-.512 1.36a1.62 1.62 0 0 1-1.265.582c-.465 0-.868-.185-1.21-.554-.342-.37-.513-.79-.513-1.265 0-.501.171-.939.513-1.312.342-.374.745-.56 1.21-.56.52 0 .945.175 1.278.525.333.351.5.76.5 1.224zm8.412 19.318c-1.951 0-3.478-.647-4.58-1.94-1.103-1.295-1.655-3.032-1.655-5.21 0-.948.148-1.834.444-2.66a7.337 7.337 0 0 1 1.292-2.248 6.034 6.034 0 0 1 2.024-1.566 5.958 5.958 0 0 1 2.652-.594c1.322 0 2.397.316 3.227.95.83.633 1.244 1.497 1.244 2.59 0 .456-.11.86-.328 1.21-.219.352-.579.527-1.08.527-.538 0-.955-.137-1.251-.41-.296-.274-.445-.579-.445-.916 0-.41.055-.832.165-1.265.109-.433.173-.75.19-.95a1.21 1.21 0 0 0-.73-.567 3.672 3.672 0 0 0-1.046-.144 2.9 2.9 0 0 0-1.251.28c-.397.187-.782.531-1.156 1.033-.337.455-.61 1.07-.82 1.845-.21.775-.314 1.7-.314 2.776 0 1.695.376 3.078 1.127 4.15.752 1.07 1.74 1.606 2.96 1.606.885 0 1.625-.215 2.222-.643.597-.428 1.15-1.071 1.661-1.928l.875.574c-.601 1.076-1.394 1.928-2.379 2.557-.984.629-2 .943-3.048.943zm18.419-7.232c0 .948-.15 1.88-.452 2.796-.3.916-.729 1.693-1.285 2.331a5.982 5.982 0 0 1-2.187 1.627c-.83.355-1.76.533-2.79.533a6.287 6.287 0 0 1-2.446-.485 6.165 6.165 0 0 1-2.065-1.415c-.592-.61-1.064-1.356-1.415-2.236-.35-.88-.526-1.866-.526-2.96 0-2.105.613-3.828 1.839-5.168 1.225-1.34 2.832-2.01 4.819-2.01 1.887 0 3.443.636 4.669 1.908 1.226 1.271 1.839 2.964 1.839 5.079zm-2.83.027c0-.683-.069-1.406-.205-2.167-.137-.76-.342-1.406-.616-1.934a3.78 3.78 0 0 0-1.148-1.36c-.474-.342-1.053-.513-1.736-.513-.702 0-1.302.173-1.798.52-.497.346-.9.82-1.21 1.421a6.291 6.291 0 0 0-.616 1.9 13.004 13.004 0 0 0 .034 4.491c.142.744.368 1.407.677 1.99.31.583.7 1.041 1.17 1.374.469.333 1.05.5 1.743.5 1.139 0 2.041-.552 2.707-1.655.665-1.103.998-2.625.998-4.567z"/>
		</g>
	</svg>