<svg class="LogoEbirdPortal LogoEbirdPortal--rwanda" xmlns="http://www.w3.org/2000/svg" 
		width="166" height="32" viewBox="0 0 166 32" role="presentation"
		aria-labelledby="logo-ebird-portal-rwanda-title">
		<title id="logo-ebird-portal-rwanda-title">eBird Rwanda</title>
		<g fill="none" fill-rule="nonzero">
			<path class="LogoEbirdPortal-e" fill="#50A61C"
				d="M14.096 20.54l-1.304-.79-.098.174c-.39.802-.966 1.499-1.68 2.034a3.702 3.702 0 0 1-2.042.553 4.231 4.231 0 0 1-2.007-.446 3.717 3.717 0 0 1-1.359-1.22 5.752 5.752 0 0 1-.79-1.89 10.505 10.505 0 0 1-.26-2.24h9.141v-1.113a8.296 8.296 0 0 0-.324-2.37 5.404 5.404 0 0 0-.991-1.913 4.816 4.816 0 0 0-1.822-1.355 6.601 6.601 0 0 0-2.666-.493 5.926 5.926 0 0 0-2.738.628 6.274 6.274 0 0 0-2.038 1.659c-.566.708-1 1.51-1.284 2.37a8.6 8.6 0 0 0-.439 2.718c-.009.98.124 1.955.395 2.896a6.996 6.996 0 0 0 1.256 2.406 5.95 5.95 0 0 0 2.134 1.647c.943.42 1.966.626 2.998.605a6.064 6.064 0 0 0 3.453-1.012 7.28 7.28 0 0 0 2.37-2.702l.095-.146zM7.87 10.92c.47-.02.935.108 1.327.368.35.255.633.593.822.983.204.457.337.942.395 1.438.074.482.117.967.13 1.454H4.557a5.385 5.385 0 0 1 1.003-3.085A2.797 2.797 0 0 1 7.87 10.92z" />
			<path class="LogoEbirdPortal-bird" fill="#231F20"
				d="M60.021 2l.332.324v18.682c-.007.256.05.51.166.739.118.21.287.386.49.514.21.11.442.17.68.177.331.037.636.056.912.056l.198.004v1.276l-5.089.324-.331-.309v-1.039a6.036 6.036 0 0 1-1.632 1.142c-.71.35-1.491.534-2.283.537a5.423 5.423 0 0 1-2.37-.545 5.95 5.95 0 0 1-1.976-1.525 7.506 7.506 0 0 1-1.343-2.37 9.126 9.126 0 0 1-.494-3.058 8.079 8.079 0 0 1 .53-2.907 7.731 7.731 0 0 1 1.461-2.41 6.499 6.499 0 0 1 2.153-1.545 6.74 6.74 0 0 1 4.543-.324c.468.12.923.283 1.36.49V5.725a2.65 2.65 0 0 0-.183-1 1.454 1.454 0 0 0-.478-.651 2.568 2.568 0 0 0-.98-.352c-.467-.082-.94-.14-1.414-.173h-.177V2.324L60.02 2zM43.73 10.146c1.494-.826 2.821-.806 3.611.02.416.454.633 1.056.605 1.67a2.52 2.52 0 0 1-.395 1.368 1.37 1.37 0 0 1-1.237.648c-.49.025-.97-.149-1.331-.482a1.422 1.422 0 0 1-.47-1.031c-.003-.2.015-.4.05-.597l.048-.26a3.366 3.366 0 0 0-1.224.505 4.346 4.346 0 0 0-1.407 1.402v7.977c-.011.243.045.485.162.699a.944.944 0 0 0 .498.395c.276.101.564.167.857.198.36.047.68.098.948.098h.178v1.288H30.03v-1.288l.841-.07a2.37 2.37 0 0 0 .55-.104.818.818 0 0 0 .497-.355c.118-.22.174-.47.162-.72v-8.509a1.497 1.497 0 0 0-.182-.727 1.628 1.628 0 0 0-.51-.572 2.473 2.473 0 0 0-.702-.257 5.566 5.566 0 0 0-.893-.142h-.178v-1.28l5.136-.324.312.312v11.35c-.007.245.05.487.166.703a.92.92 0 0 0 .494.395 3.516 3.516 0 0 0 1.197.296h.13l.79-.067c.187-.012.37-.047.55-.103a.814.814 0 0 0 .477-.355c.117-.221.173-.47.162-.72v-8.532a1.762 1.762 0 0 0-.182-.77 1.505 1.505 0 0 0-.505-.597 1.722 1.722 0 0 0-.561-.214 5.468 5.468 0 0 0-.759-.102h-.178v-1.28l4.856-.324.312.312v1.58a6.266 6.266 0 0 1 1.718-1.434zM22.86 3.81a9.88 9.88 0 0 1 2.077.214 6.262 6.262 0 0 1 1.913.766 4.231 4.231 0 0 1 1.418 1.39 3.95 3.95 0 0 1 .56 2.146 4.618 4.618 0 0 1-.394 1.947 4.31 4.31 0 0 1-1.114 1.474c-.459.394-.971.721-1.521.972a8.525 8.525 0 0 1-1.229.454c.446.087.886.2 1.32.336a6.83 6.83 0 0 1 1.951.944 5.06 5.06 0 0 1 1.497 1.6c.417.732.625 1.564.6 2.406a4.86 4.86 0 0 1-.627 2.505 5.393 5.393 0 0 1-1.644 1.734 7.403 7.403 0 0 1-2.172 1.007 9.14 9.14 0 0 1-2.477.328h-9.589v-1.359h.174c.222-.02.545-.059.968-.118.298-.03.592-.098.873-.202a1.09 1.09 0 0 0 .526-.442 1.58 1.58 0 0 0 .158-.755V6.86a1.88 1.88 0 0 0-.146-.762c-.116-.226-.31-.401-.546-.494a3.828 3.828 0 0 0-.896-.308 6.755 6.755 0 0 0-.842-.135h-.178V3.81zm-1.13 10.303c-.596 0-1.097.007-1.506.02l-.738.028v6.803c-.032.48.21.939.624 1.185.58.302 1.232.44 1.884.395 1.328 0 2.35-.364 3.05-1.134.7-.77 1.055-1.932 1.055-3.453a3.67 3.67 0 0 0-1.122-2.765c-.747-.715-1.841-1.079-3.247-1.079zm32.608-3.144a2.718 2.718 0 0 0-1.442.395 3.95 3.95 0 0 0-1.186 1.185 6.258 6.258 0 0 0-.79 1.932 10.959 10.959 0 0 0-.296 2.635 9.24 9.24 0 0 0 .217 2.09c.142.611.388 1.194.727 1.722.3.48.705.886 1.185 1.185a3.16 3.16 0 0 0 1.691.431 3.093 3.093 0 0 0 1.746-.443c.425-.278.811-.61 1.15-.987V13.14a3.516 3.516 0 0 0-.328-.684 3.318 3.318 0 0 0-.592-.727 3.405 3.405 0 0 0-.897-.545 3.066 3.066 0 0 0-1.185-.217zM21.555 5.287c-.295 0-.668.006-1.118.02l-.952.027v7.257h1.58a5.63 5.63 0 0 0 1.896-.284 2.888 2.888 0 0 0 1.24-.826c.314-.36.546-.782.68-1.24a6.1 6.1 0 0 0 .198-1.64 3.394 3.394 0 0 0-.842-2.441c-.557-.58-1.458-.873-2.682-.873zm11.84-2.892a1.916 1.916 0 0 1 1.446.593c.362.369.564.865.564 1.382a2.232 2.232 0 0 1-.572 1.53 1.849 1.849 0 0 1-1.438.659 1.825 1.825 0 0 1-1.38-.608 2.046 2.046 0 0 1-.576-1.442c-.006-.547.2-1.075.573-1.474.345-.405.85-.639 1.383-.64z" />
			<path class="LogoEbirdPortal-portal" fill="#50A61C"
				d="M78.543 24v-.97c-.283-.01-.629-.042-1.04-.096-.41-.055-.696-.114-.86-.178-.329-.128-.543-.312-.643-.554a2.18 2.18 0 0 1-.15-.84v-6.153h1.982a109.521 109.521 0 0 1 3.042 4.088c.934 1.321 1.98 2.89 3.138 4.703h5.222v-.97a6.649 6.649 0 0 1-.888-.11 3.304 3.304 0 0 1-.889-.274 5.75 5.75 0 0 1-.964-.635c-.323-.26-.686-.663-1.087-1.21a561.1 561.1 0 0 1-2.33-3.158 267.777 267.777 0 0 0-2.387-3.2c.693-.2 1.327-.444 1.9-.731a6.005 6.005 0 0 0 1.477-1.019c.447-.419.784-.916 1.012-1.49.228-.574.342-1.235.342-1.982 0-.83-.169-1.538-.506-2.126a4.107 4.107 0 0 0-1.353-1.429 6.224 6.224 0 0 0-1.956-.813c-.72-.17-1.49-.253-2.31-.253H70.34v.97c.255.019.565.062.93.13.364.069.66.144.888.226.337.127.552.314.643.56.09.246.136.529.136.848v14.027c0 .356-.061.647-.184.875a1.179 1.179 0 0 1-.595.52c-.164.073-.453.132-.868.178-.415.045-.731.077-.95.095V24h8.203zm-.902-9.967H75.85V5.707h2.324c1.23 0 2.183.344 2.857 1.032.675.688 1.012 1.62 1.012 2.796 0 1.386-.42 2.482-1.258 3.288-.838.807-1.887 1.21-3.144 1.21zm16.214 10.063l3.65-9.926 3.624 9.926h1.175a49.964 49.964 0 0 1 .957-3.104 1577.034 1577.034 0 0 1 2.653-7.847c.2-.566.521-.99.964-1.272.442-.283.854-.442 1.237-.478v-.875h-5.127v.875c.1 0 .257.018.472.054.214.037.412.091.594.164.21.082.388.187.534.315a.57.57 0 0 1 .218.437 2 2 0 0 1-.089.581c-.059.196-.12.413-.184.65a78.067 78.067 0 0 1-1.019 3.22 233.494 233.494 0 0 0-1.169 3.547l-3.513-9.57h-1.313L94.074 20.5c-.584-1.887-1.06-3.42-1.429-4.6-.369-1.18-.7-2.25-.991-3.207a6.841 6.841 0 0 1-.116-.382 1.184 1.184 0 0 1-.048-.233c0-.21.175-.36.526-.451.351-.091.677-.141.978-.15v-.957h-6.016v.902c.383.045.78.191 1.19.437.41.246.688.584.834 1.012.5 1.477 1.077 3.21 1.73 5.202.65 1.992 1.318 4 2.002 6.023h1.121zm17.302.246c.957 0 1.775-.173 2.455-.52.679-.346 1.314-.847 1.907-1.504h.082c.118.638.39 1.124.813 1.456.424.333.991.5 1.702.5.41 0 .777-.048 1.101-.144.324-.096.7-.221 1.128-.376v-.875c-.31 0-.613-.005-.91-.014-.295-.009-.512-.054-.649-.136a1.497 1.497 0 0 1-.567-.534c-.123-.21-.185-.492-.185-.847 0-1.194.014-2.295.041-3.302.028-1.007.041-2.163.041-3.466 0-.911-.12-1.656-.362-2.235-.241-.579-.595-1.037-1.06-1.374a3.678 3.678 0 0 0-1.551-.677 11.196 11.196 0 0 0-2.003-.157c-.556 0-1.126.089-1.71.266a6.287 6.287 0 0 0-1.49.65c-.473.3-.858.642-1.155 1.025-.296.383-.444.784-.444 1.203 0 .401.107.764.321 1.087.214.324.55.486 1.005.486.51 0 .91-.133 1.196-.397.288-.264.431-.556.431-.875 0-.3-.043-.629-.13-.984-.086-.356-.13-.625-.13-.807.146-.155.4-.303.76-.444.36-.142.749-.212 1.168-.212.61 0 1.082.125 1.415.376.333.25.59.544.773.882.164.3.27.62.32.957.051.337.076.565.076.683v1.354c-.437.237-1.283.565-2.536.984a86.17 86.17 0 0 0-2.495.861 7.885 7.885 0 0 0-1.053.513 3.28 3.28 0 0 0-.902.732c-.292.328-.51.697-.656 1.107-.146.41-.22.875-.22 1.395 0 1.002.327 1.813.978 2.433.652.62 1.484.93 2.495.93zm1.381-1.504c-.61 0-1.114-.178-1.51-.533-.397-.356-.595-.912-.595-1.668 0-.584.132-1.087.396-1.511a3.7 3.7 0 0 1 1.08-1.1 8.246 8.246 0 0 1 1.627-.82 29.86 29.86 0 0 1 2.037-.67l-.082 4.716c-.337.428-.752.8-1.244 1.114-.492.315-1.062.472-1.709.472zM127.388 24v-.902a5.597 5.597 0 0 1-.69-.096 2.694 2.694 0 0 1-.622-.205 1.23 1.23 0 0 1-.574-.465c-.128-.2-.192-.456-.192-.766v-7.752a6.11 6.11 0 0 1 .39-.58c.178-.242.417-.468.718-.677.31-.22.665-.404 1.066-.554a3.75 3.75 0 0 1 1.326-.226c.647 0 1.196.26 1.648.78.45.52.676 1.257.676 2.214v6.932c0 .328-.061.595-.184.8a.983.983 0 0 1-.568.43 2.6 2.6 0 0 1-.622.11c-.25.018-.48.036-.69.055V24h6.603v-.902a4.408 4.408 0 0 1-.663-.082 3.61 3.61 0 0 1-.567-.192c-.264-.11-.451-.262-.56-.458-.11-.196-.165-.453-.165-.772V14.58c0-1.34-.312-2.413-.936-3.22-.625-.806-1.584-1.21-2.878-1.21-.583 0-1.108.073-1.572.22a4.896 4.896 0 0 0-1.203.546c-.292.191-.602.44-.93.745-.328.305-.602.568-.82.786h-.069v-1.9l-.191-.192-4.485.301v.889c.274.018.529.052.766.102.237.05.442.13.615.24.237.164.422.376.554.635.132.26.198.545.198.855v8.326c0 .328-.061.595-.184.8a.983.983 0 0 1-.568.43 2.489 2.489 0 0 1-.58.11c-.224.018-.44.036-.65.055V24h6.603zm14.078.383c.738 0 1.456-.169 2.153-.506a5.602 5.602 0 0 0 1.757-1.299l.11.027v1.258l.204.192 4.703-.301v-.889c-.273-.009-.574-.027-.902-.054-.328-.028-.579-.096-.752-.206a1.6 1.6 0 0 1-.54-.567c-.123-.223-.185-.494-.185-.813V3.04l-.205-.205-5.51.314v.848c.502.037.969.093 1.402.17.433.078.777.204 1.032.377.228.164.406.403.533.718.128.314.192.663.192 1.046v4.689a6.637 6.637 0 0 0-1.566-.608 7.25 7.25 0 0 0-1.852-.24c-.839 0-1.661.183-2.468.547a6.15 6.15 0 0 0-2.044 1.463 7.317 7.317 0 0 0-1.394 2.297 7.65 7.65 0 0 0-.506 2.775c0 1.067.157 2.042.471 2.926.315.884.741 1.64 1.279 2.27a5.61 5.61 0 0 0 1.866 1.442 5.097 5.097 0 0 0 2.222.513zm.97-1.463c-.683 0-1.273-.155-1.77-.465a3.804 3.804 0 0 1-1.224-1.23 5.51 5.51 0 0 1-.738-1.744 9.18 9.18 0 0 1-.219-2.085c0-.957.098-1.83.294-2.618.196-.788.463-1.438.8-1.948.355-.529.763-.934 1.224-1.217.46-.282.963-.424 1.51-.424.474 0 .889.076 1.244.226.356.15.666.34.93.567.246.228.451.479.615.752.164.274.283.529.356.766v7.889a5.86 5.86 0 0 1-1.21 1.052c-.479.32-1.083.479-1.812.479zm11.652 1.422c.957 0 1.775-.173 2.454-.52.679-.346 1.315-.847 1.907-1.504h.082c.119.638.39 1.124.814 1.456.424.333.99.5 1.702.5.41 0 .777-.048 1.1-.144.324-.096.7-.221 1.128-.376v-.875c-.31 0-.613-.005-.909-.014-.296-.009-.512-.054-.65-.136a1.497 1.497 0 0 1-.567-.534c-.123-.21-.184-.492-.184-.847 0-1.194.014-2.295.04-3.302.028-1.007.042-2.163.042-3.466 0-.911-.12-1.656-.362-2.235s-.595-1.037-1.06-1.374a3.678 3.678 0 0 0-1.552-.677 11.196 11.196 0 0 0-2.003-.157c-.556 0-1.125.089-1.709.266a6.287 6.287 0 0 0-1.49.65c-.474.3-.859.642-1.155 1.025-.296.383-.445.784-.445 1.203 0 .401.108.764.322 1.087.214.324.549.486 1.005.486.51 0 .909-.133 1.196-.397.287-.264.43-.556.43-.875 0-.3-.043-.629-.13-.984-.086-.356-.13-.625-.13-.807.147-.155.4-.303.76-.444.36-.142.75-.212 1.169-.212.61 0 1.082.125 1.415.376.332.25.59.544.772.882.164.3.271.62.321.957.05.337.076.565.076.683v1.354c-.438.237-1.283.565-2.537.984a86.17 86.17 0 0 0-2.495.861 7.885 7.885 0 0 0-1.052.513 3.28 3.28 0 0 0-.903.732c-.291.328-.51.697-.656 1.107-.146.41-.219.875-.219 1.395 0 1.002.326 1.813.978 2.433.651.62 1.483.93 2.495.93zm1.38-1.504c-.61 0-1.114-.178-1.51-.533-.396-.356-.595-.912-.595-1.668 0-.584.132-1.087.397-1.511a3.7 3.7 0 0 1 1.08-1.1 8.246 8.246 0 0 1 1.627-.82 29.86 29.86 0 0 1 2.037-.67l-.082 4.716c-.337.428-.752.8-1.244 1.114-.492.315-1.062.472-1.71.472z" />
		</g>
	</svg>