<svg  class="LogoEbirdPortal LogoEbirdPortal--va" xmlns="http://www.w3.org/2000/svg" width="164px" height="32px" viewBox="0 0 164 32" role="img" aria-labelledby="logo-ebird-portal-va-title-ebird-header">
		<title id="logo-ebird-portal-va-title-ebird-header">Virginia eBird logo</title>
		<g fill="none" fill-rule="evenodd">
			<path class="LogoEbirdPortal-e" fill="#50A61C" fill-rule="nonzero" d="M114.096 20.54l-1.304-.79-.098.174c-.39.802-.966 1.499-1.68 2.034a3.702 3.702 0 0 1-2.042.553 4.231 4.231 0 0 1-2.007-.446 3.717 3.717 0 0 1-1.359-1.22 5.752 5.752 0 0 1-.79-1.89 10.505 10.505 0 0 1-.26-2.24h9.141v-1.113a8.296 8.296 0 0 0-.324-2.37 5.404 5.404 0 0 0-.991-1.913 4.816 4.816 0 0 0-1.822-1.355 6.601 6.601 0 0 0-2.666-.493 5.926 5.926 0 0 0-2.738.628 6.274 6.274 0 0 0-2.038 1.659c-.566.708-1 1.51-1.284 2.37a8.6 8.6 0 0 0-.439 2.718c-.009.98.124 1.955.395 2.896a6.996 6.996 0 0 0 1.256 2.406 5.95 5.95 0 0 0 2.134 1.647c.943.42 1.966.626 2.998.605a6.064 6.064 0 0 0 3.453-1.012 7.28 7.28 0 0 0 2.37-2.702l.095-.146zm-6.226-9.62c.47-.02.935.108 1.327.368.35.255.633.593.822.983.204.457.337.942.395 1.438.074.482.117.967.13 1.454h-5.988a5.385 5.385 0 0 1 1.003-3.085 2.797 2.797 0 0 1 2.311-1.158z"/>
			<path class="LogoEbirdPortal-bird" fill="#231F20" fill-rule="nonzero" d="M162.601 22.492l.198.004v1.276l-5.089.324-.331-.309v-1.039a6.036 6.036 0 0 1-1.632 1.142c-.71.35-1.491.534-2.283.537a5.42 5.42 0 0 1-2.37-.545 5.95 5.95 0 0 1-1.976-1.525 7.506 7.506 0 0 1-1.343-2.37 9.126 9.126 0 0 1-.494-3.058 8.079 8.079 0 0 1 .53-2.907 7.731 7.731 0 0 1 1.461-2.41 6.499 6.499 0 0 1 2.153-1.545 6.74 6.74 0 0 1 4.543-.324c.468.12.923.283 1.36.49V5.725a2.65 2.65 0 0 0-.183-1 1.454 1.454 0 0 0-.478-.651 2.568 2.568 0 0 0-.98-.352c-.467-.082-.94-.14-1.414-.173h-.177V2.324L160.02 2l.332.324v18.682c-.007.256.05.51.166.739.118.21.287.386.49.514.21.11.442.17.68.177.331.037.636.056.912.056zm-15.051-9.288a1.37 1.37 0 0 1-1.237.648c-.49.025-.97-.149-1.331-.482a1.422 1.422 0 0 1-.47-1.031c-.003-.2.015-.4.05-.597l.048-.26a3.366 3.366 0 0 0-1.224.505 4.346 4.346 0 0 0-1.407 1.402v7.977c-.011.243.045.485.162.699a.944.944 0 0 0 .498.395c.276.101.564.167.857.198.36.047.68.098.948.098h.178v1.288H130.03v-1.288l.841-.07a2.37 2.37 0 0 0 .55-.104.818.818 0 0 0 .497-.355c.118-.22.174-.47.162-.72v-8.509a1.497 1.497 0 0 0-.182-.727 1.628 1.628 0 0 0-.51-.572 2.473 2.473 0 0 0-.702-.257 5.566 5.566 0 0 0-.893-.142h-.178v-1.28l5.136-.324.312.312v11.35c-.007.245.05.487.166.703a.92.92 0 0 0 .494.395 3.516 3.516 0 0 0 1.197.296h.13l.79-.067c.187-.012.37-.047.55-.103a.814.814 0 0 0 .477-.355c.117-.221.173-.47.162-.72v-8.532a1.762 1.762 0 0 0-.182-.77 1.505 1.505 0 0 0-.505-.597 1.722 1.722 0 0 0-.561-.214 5.468 5.468 0 0 0-.759-.102h-.178v-1.28l4.856-.324.312.312v1.58a6.266 6.266 0 0 1 1.718-1.434c1.494-.826 2.821-.806 3.611.02.416.454.633 1.056.605 1.67a2.52 2.52 0 0 1-.395 1.368zm-14.155-6.645a1.825 1.825 0 0 1-1.38-.608 2.046 2.046 0 0 1-.576-1.442c-.006-.547.2-1.075.573-1.474.345-.405.85-.639 1.383-.64a1.916 1.916 0 0 1 1.446.593c.362.369.564.865.564 1.382a2.232 2.232 0 0 1-.572 1.53 1.849 1.849 0 0 1-1.438.659zm-5.555 7.893a5.06 5.06 0 0 1 1.497 1.6c.417.732.625 1.564.6 2.406a4.86 4.86 0 0 1-.627 2.505 5.393 5.393 0 0 1-1.644 1.734 7.403 7.403 0 0 1-2.172 1.007 9.134 9.134 0 0 1-2.477.328h-9.589v-1.359h.174c.222-.02.545-.059.968-.118.298-.03.592-.098.873-.202a1.09 1.09 0 0 0 .526-.442 1.58 1.58 0 0 0 .158-.755V6.86a1.88 1.88 0 0 0-.146-.762c-.116-.226-.31-.401-.546-.494a3.828 3.828 0 0 0-.896-.308 6.755 6.755 0 0 0-.842-.135h-.178V3.81h9.34a9.876 9.876 0 0 1 2.077.213 6.262 6.262 0 0 1 1.913.766 4.231 4.231 0 0 1 1.418 1.39 3.95 3.95 0 0 1 .56 2.146 4.618 4.618 0 0 1-.394 1.947 4.31 4.31 0 0 1-1.114 1.474c-.459.394-.971.721-1.521.972a8.525 8.525 0 0 1-1.229.454c.446.087.886.2 1.32.336a6.83 6.83 0 0 1 1.951.944zm29.499-1.311a3.516 3.516 0 0 0-.328-.684 3.319 3.319 0 0 0-.592-.727 3.405 3.405 0 0 0-.897-.545 3.066 3.066 0 0 0-1.185-.217 2.718 2.718 0 0 0-1.442.395 3.95 3.95 0 0 0-1.186 1.185 6.258 6.258 0 0 0-.79 1.932 10.959 10.959 0 0 0-.296 2.635 9.24 9.24 0 0 0 .217 2.09c.142.611.388 1.194.727 1.722.3.48.705.886 1.185 1.185a3.16 3.16 0 0 0 1.691.431 3.093 3.093 0 0 0 1.746-.443c.425-.278.811-.61 1.15-.987V13.14zm-32.458-2.9a6.1 6.1 0 0 0 .198-1.64 3.394 3.394 0 0 0-.842-2.441c-.557-.58-1.458-.873-2.682-.873-.295 0-.668.006-1.118.02l-.952.027v7.257h1.58a5.63 5.63 0 0 0 1.896-.284 2.888 2.888 0 0 0 1.24-.826c.314-.36.546-.782.68-1.24zm-5.396 3.919v6.803c-.032.48.21.939.624 1.185.58.302 1.232.44 1.884.395 1.328 0 2.35-.364 3.05-1.134.7-.77 1.055-1.932 1.055-3.453a3.67 3.67 0 0 0-1.122-2.765c-.747-.715-1.841-1.079-3.247-1.079-.596 0-1.097.007-1.506.02l-.738.028z"/>
			<path class="LogoEbirdPortal-portal" fill="#50A61C" d="M20.236 5.57a3.78 3.78 0 0 0-.861.158 3.256 3.256 0 0 0-.834.348c-.31.192-.558.438-.745.738-.187.301-.372.657-.554 1.067-.61 1.45-1.526 3.707-2.748 6.774-1.221 3.067-2.479 6.264-3.773 9.591H9.586l-3.8-10.2c-1.222-3.271-2.052-5.482-2.49-6.63a2.57 2.57 0 0 0-.437-.745 3.193 3.193 0 0 0-.724-.609 2.874 2.874 0 0 0-.82-.348A4.71 4.71 0 0 0 .48 5.57V4.6h8.026v.97c-.684.037-1.26.105-1.73.205-.469.1-.704.278-.704.534 0 .1.018.218.055.355.036.137.068.246.096.328.337.893.884 2.35 1.64 4.368l3.227 8.62c.693-1.686 1.49-3.677 2.392-5.974.903-2.297 1.509-3.874 1.819-4.73.3-.83.476-1.404.526-1.723.05-.32.075-.579.075-.78 0-.21-.093-.385-.28-.526a2.522 2.522 0 0 0-.745-.362 6.33 6.33 0 0 0-.916-.205c-.31-.046-.624-.082-.943-.11V4.6h7.218v.97zM25.996 24h-6.522v-.902c.21-.019.426-.037.65-.055.223-.018.416-.055.58-.11a.983.983 0 0 0 .568-.43c.123-.205.184-.472.184-.8v-8.326c0-.292-.066-.558-.198-.8a1.764 1.764 0 0 0-.554-.608c-.173-.11-.424-.203-.752-.28a5.57 5.57 0 0 0-.902-.144v-.889l4.758-.3.191.19V21.54c0 .32.062.583.185.793.123.21.317.365.58.465.201.082.397.148.589.198.191.05.405.084.642.103V24zM24.272 5.037c0 .52-.171.973-.513 1.36a1.62 1.62 0 0 1-1.265.582c-.465 0-.868-.185-1.21-.554-.341-.37-.512-.79-.512-1.265 0-.501.17-.939.512-1.312.342-.374.745-.56 1.21-.56.52 0 .946.175 1.279.525.332.351.499.76.499 1.224zm12.499 7.219c0 .465-.114.877-.342 1.237-.228.36-.579.54-1.053.54-.51 0-.9-.132-1.169-.396-.268-.265-.403-.556-.403-.875 0-.2.016-.383.048-.547.032-.164.061-.328.089-.492-.429 0-.93.173-1.504.52-.574.346-1.062.838-1.463 1.476v7.847c0 .32.062.58.185.78.123.2.316.35.58.45.228.092.522.16.882.206.36.046.673.077.937.096V24h-7.11v-.902c.21-.019.427-.037.65-.055.223-.018.417-.055.581-.11a.983.983 0 0 0 .567-.43c.124-.205.185-.472.185-.8v-8.326c0-.283-.066-.56-.198-.834a1.66 1.66 0 0 0-.554-.656 1.865 1.865 0 0 0-.615-.24 5.457 5.457 0 0 0-.766-.102v-.889l4.485-.3.191.19v1.901h.068c.565-.738 1.194-1.299 1.887-1.681.693-.383 1.326-.575 1.9-.575.575 0 1.042.187 1.402.561.36.374.54.875.54 1.504zm11.501 10.35c.365.346.652.738.861 1.175.21.438.315.98.315 1.627s-.141 1.256-.424 1.825c-.283.57-.71 1.065-1.285 1.484-.61.428-1.34.76-2.188.998-.847.237-1.895.355-3.144.355-2.042 0-3.569-.298-4.58-.895-1.012-.597-1.518-1.47-1.518-2.618 0-.93.365-1.664 1.094-2.202.73-.537 1.659-.829 2.789-.875v-.19a8.383 8.383 0 0 1-.848-.309 3.286 3.286 0 0 1-.752-.43 2.33 2.33 0 0 1-.574-.677c-.146-.26-.219-.581-.219-.964 0-.483.171-.927.513-1.333.342-.405.86-.754 1.552-1.046v-.205c-.875-.41-1.554-.936-2.037-1.579-.483-.643-.725-1.388-.725-2.235 0-1.276.476-2.324 1.429-3.145.952-.82 2.171-1.23 3.657-1.23.41 0 .818.04 1.224.123.405.082.818.187 1.237.314h4.703v1.313h-3.172v.082c.337.392.588.825.752 1.299.164.474.246.938.246 1.394 0 1.185-.48 2.188-1.442 3.008-.962.82-2.08 1.23-3.357 1.23h-1.654c-.21.073-.428.205-.656.397-.228.191-.342.451-.342.78 0 .336.096.594.287.772.192.177.424.298.697.362.265.073.572.118.923.137.351.018.714.032 1.087.04.401.01.95.037 1.648.083a50.31 50.31 0 0 0 1.483.082c.42.018.84.118 1.265.3.424.183.809.433 1.155.752zm-3.691-7.999c0-1.066-.217-1.916-.65-2.55-.433-.633-1.041-.95-1.825-.95-.428 0-.795.09-1.1.267-.306.178-.554.43-.746.759-.182.3-.312.663-.39 1.087a7.247 7.247 0 0 0-.116 1.305c0 1.012.221 1.837.664 2.475.442.638 1.014.957 1.715.957.784 0 1.388-.317 1.812-.95.424-.634.636-1.433.636-2.4zm2.625 11.307c0-.51-.119-.93-.356-1.258-.237-.328-.597-.551-1.08-.67-.255-.036-.78-.077-1.572-.123a48.817 48.817 0 0 0-2.762-.068c-.984.191-1.684.513-2.099.964-.414.451-.622 1.032-.622 1.743 0 .319.069.624.205.916.137.292.374.56.711.807.32.237.748.43 1.286.58.537.151 1.194.226 1.968.226 1.34 0 2.395-.257 3.165-.772s1.156-1.297 1.156-2.345zM56.329 24h-6.522v-.902c.21-.019.427-.037.65-.055.223-.018.417-.055.58-.11a.983.983 0 0 0 .568-.43c.123-.205.185-.472.185-.8v-8.326c0-.292-.066-.558-.198-.8a1.764 1.764 0 0 0-.554-.608c-.173-.11-.424-.203-.752-.28a5.57 5.57 0 0 0-.902-.144v-.889l4.757-.3.192.19V21.54c0 .32.061.583.184.793.123.21.317.365.581.465.201.082.397.148.588.198.192.05.406.084.643.103V24zM54.606 5.037c0 .52-.17.973-.512 1.36a1.62 1.62 0 0 1-1.265.582c-.465 0-.868-.185-1.21-.554-.342-.37-.513-.79-.513-1.265 0-.501.171-.939.513-1.312.342-.374.745-.56 1.21-.56.52 0 .946.175 1.278.525.333.351.5.76.5 1.224zM71.672 24h-6.604v-.902c.21-.019.44-.037.69-.055a2.6 2.6 0 0 0 .623-.11.983.983 0 0 0 .567-.43c.123-.205.185-.472.185-.8v-6.932c0-.957-.226-1.695-.677-2.214-.451-.52-1-.78-1.647-.78a3.75 3.75 0 0 0-1.327.226c-.4.15-.756.335-1.066.554-.3.21-.54.435-.718.676a6.11 6.11 0 0 0-.39.581v7.752c0 .31.064.566.192.766.128.2.319.355.574.465.192.091.399.16.622.205.224.046.454.077.69.096V24h-6.603v-.902c.21-.019.426-.037.65-.055.223-.018.417-.055.58-.11a.983.983 0 0 0 .568-.43c.123-.205.185-.472.185-.8v-8.326c0-.31-.066-.595-.199-.855a1.696 1.696 0 0 0-.553-.635 1.865 1.865 0 0 0-.616-.24 5.457 5.457 0 0 0-.765-.102v-.889l4.484-.3.192.19v1.901h.068c.219-.218.492-.48.82-.786.328-.305.638-.554.93-.745a4.896 4.896 0 0 1 1.203-.547 5.244 5.244 0 0 1 1.572-.219c1.295 0 2.254.404 2.878 1.21.625.807.937 1.88.937 3.22v7.014c0 .319.054.576.164.772.11.196.296.349.56.458.22.091.408.155.568.192.16.036.38.063.663.082V24zm7.003 0h-6.521v-.902c.21-.019.426-.037.649-.055.223-.018.417-.055.581-.11a.983.983 0 0 0 .567-.43c.123-.205.185-.472.185-.8v-8.326c0-.292-.066-.558-.198-.8a1.764 1.764 0 0 0-.554-.608c-.173-.11-.424-.203-.752-.28a5.57 5.57 0 0 0-.902-.144v-.889l4.757-.3.192.19V21.54c0 .32.061.583.184.793.124.21.317.365.582.465.2.082.396.148.587.198.192.05.406.084.643.103V24zM76.952 5.037c0 .52-.17.973-.512 1.36a1.62 1.62 0 0 1-1.265.582c-.465 0-.868-.185-1.21-.554-.342-.37-.513-.79-.513-1.265 0-.501.171-.939.513-1.312.342-.374.745-.56 1.21-.56.52 0 .946.175 1.278.525.333.351.5.76.5 1.224zM91.9 23.754c-.429.155-.805.28-1.128.376a3.88 3.88 0 0 1-1.1.143c-.712 0-1.279-.166-1.703-.499-.424-.332-.695-.818-.813-1.456h-.082c-.593.657-1.229 1.158-1.908 1.504-.679.347-1.497.52-2.454.52-1.011 0-1.843-.31-2.495-.93-.651-.62-.977-1.43-.977-2.433 0-.52.073-.985.218-1.395.146-.41.365-.78.657-1.107a3.28 3.28 0 0 1 .902-.732 7.885 7.885 0 0 1 1.053-.513c.41-.155 1.242-.442 2.495-.86 1.253-.42 2.098-.748 2.536-.985v-1.354a5.73 5.73 0 0 0-.075-.683 2.863 2.863 0 0 0-.321-.957 2.723 2.723 0 0 0-.773-.882c-.333-.25-.804-.376-1.415-.376-.42 0-.809.07-1.169.212-.36.141-.613.29-.759.444 0 .182.044.451.13.807.087.355.13.683.13.984 0 .319-.144.61-.43.875-.288.264-.686.397-1.197.397-.456 0-.79-.162-1.005-.486a1.926 1.926 0 0 1-.321-1.087c0-.419.148-.82.444-1.203a4.462 4.462 0 0 1 1.156-1.025c.41-.255.906-.472 1.49-.65a5.847 5.847 0 0 1 1.709-.266c.765 0 1.433.052 2.003.157.57.105 1.087.33 1.551.677.465.337.818.795 1.06 1.374.242.579.362 1.324.362 2.235 0 1.303-.013 2.459-.04 3.466a122.311 122.311 0 0 0-.042 3.302c0 .355.062.638.185.847.123.21.312.388.567.534.137.082.353.127.65.136.296.01.599.014.909.014v.875zm-4.772-7.219a29.86 29.86 0 0 0-2.037.67 8.246 8.246 0 0 0-1.627.82 3.7 3.7 0 0 0-1.08 1.101c-.264.424-.396.927-.396 1.51 0 .757.198 1.313.594 1.669.397.355.9.533 1.511.533.647 0 1.217-.157 1.71-.472a4.973 4.973 0 0 0 1.243-1.114l.082-4.717z"/>
		</g>
	</svg>